<?xml version="1.0" encoding="UTF-8"?>
<svg version="1.1" xmlns="http://www.w3.org/2000/svg" width="1024" height="1024">
<path d="M0 0 C0.8559375 0.00064453 1.711875 0.00128906 2.59375 0.00195312 C18.17065932 0.10815932 18.17065932 0.10815932 20.25 2.1875 C20.32271741 4.54063555 20.33370868 6.89583668 20.3125 9.25 C20.30347656 10.54035156 20.29445313 11.83070312 20.28515625 13.16015625 C20.26775391 14.65869141 20.26775391 14.65869141 20.25 16.1875 C19.26 16.1875 18.27 16.1875 17.25 16.1875 C16.92 23.7775 16.59 31.3675 16.25 39.1875 C25.78218258 38.8000129 34.45719804 38.25673495 43.7109375 35.80859375 C46.25 35.1875 46.25 35.1875 49.25 35.1875 C49.58 34.5275 49.91 33.8675 50.25 33.1875 C51.05984194 38.13902495 51.3678734 42.83702275 51.34765625 47.87109375 C51.34553383 48.92164696 51.34553383 48.92164696 51.34336853 49.99342346 C51.33782477 52.20399466 51.32528326 54.41446004 51.3125 56.625 C51.30747771 58.13476415 51.30291609 59.64452991 51.29882812 61.15429688 C51.28787387 64.83206493 51.2706489 68.50977212 51.25 72.1875 C50.64164307 72.0445752 50.03328613 71.90165039 49.40649414 71.75439453 C48.20174438 71.47764893 48.20174438 71.47764893 46.97265625 71.1953125 C46.17867432 71.0111377 45.38469238 70.82696289 44.56665039 70.63720703 C41.7612186 70.092618 39.09928159 70.041383 36.25 70.1875 C36.25 69.8575 36.25 69.5275 36.25 69.1875 C29.65 68.5275 23.05 67.8675 16.25 67.1875 C16.58 68.5075 16.91 69.8275 17.25 71.1875 C17.27492076 74.67640691 17.22523689 78.1498716 17.12304688 81.63671875 C17.01692627 88.64067839 18.64700165 94.5729877 20.9375 101.1875 C21.98958246 104.5666023 22.3685899 106.95211175 21.75 110.4375 C21.1670563 114.80957774 21.78919104 116.58417259 24.25 120.1875 C25.24 120.5175 26.23 120.8475 27.25 121.1875 C27.35441406 121.91839844 27.45882812 122.64929688 27.56640625 123.40234375 C28.30925846 126.42893592 29.39018243 128.22320879 31.1875 130.75 C34.10698662 134.8889282 34.10698662 134.8889282 35.140625 137.046875 C36.78552938 140.22084542 38.93629824 143.01312195 41.0625 145.875 C41.54605957 146.52855469 42.02961914 147.18210938 42.52783203 147.85546875 C44.09705592 149.96979146 45.67287189 152.07906817 47.25 154.1875 C47.77094238 154.88697754 48.29188477 155.58645508 48.82861328 156.30712891 C57.24478941 167.58153095 66.12338315 178.34583798 75.5859375 188.7578125 C76.53339844 189.80582031 76.53339844 189.80582031 77.5 190.875 C78.02078125 191.43574219 78.5415625 191.99648437 79.078125 192.57421875 C80.5526005 194.60408002 81.09050766 195.65777421 81.25 198.1875 C80.54685423 199.90538967 79.83543324 201.62125851 79.05126953 203.30371094 C77.74898428 206.36539071 77.21006184 209.54773269 76.6875 212.8125 C76.56528076 213.55886719 76.44306152 214.30523437 76.31713867 215.07421875 C73.98259109 230.54998523 72.98635855 246.54026726 73.25 262.1875 C78.89828024 254.3311136 83.17963408 245.9384278 87.25 237.1875 C87.83201172 235.94806641 87.83201172 235.94806641 88.42578125 234.68359375 C91.17301003 227.82203181 90.47805752 220.44310766 90.25 213.1875 C90.25 208.46792242 91.32759649 207.08016155 93.875 203.1875 C99.75230364 193.93155676 104.2827507 184.45613194 108.125 174.1875 C108.59111694 172.9487915 108.59111694 172.9487915 109.06665039 171.68505859 C109.35145264 170.90211426 109.63625488 170.11916992 109.9296875 169.3125 C110.31229736 168.26449219 110.31229736 168.26449219 110.70263672 167.1953125 C111.42534543 164.89115369 111.42534543 164.89115369 111.25 161.1875 C111.91 161.1875 112.57 161.1875 113.25 161.1875 C114.7556904 155.37983704 115.46824777 150.1893137 115.25 144.1875 C115.91 143.8575 116.57 143.5275 117.25 143.1875 C117.97208999 140.60748406 117.97208999 140.60748406 118.46875 137.47265625 C118.67886719 136.31185547 118.88898438 135.15105469 119.10546875 133.95507812 C119.42451172 132.12106445 119.42451172 132.12106445 119.75 130.25 C120.16990987 127.84378921 120.59665531 125.43875815 121.03125 123.03515625 C121.21751953 121.96273682 121.40378906 120.89031738 121.59570312 119.78540039 C122.25 117.1875 122.25 117.1875 124.25 115.1875 C124.3001123 115.98446289 124.35022461 116.78142578 124.40185547 117.60253906 C124.6340064 121.21482857 124.87935177 124.82610431 125.125 128.4375 C125.20363281 129.69175781 125.28226563 130.94601563 125.36328125 132.23828125 C125.44707031 133.44355469 125.53085937 134.64882812 125.6171875 135.890625 C125.69050293 137.00083008 125.76381836 138.11103516 125.83935547 139.25488281 C126.22715366 142.0243429 126.82757026 143.80834705 128.25 146.1875 C127.59 146.1875 126.93 146.1875 126.25 146.1875 C126.25 148.4975 126.25 150.8075 126.25 153.1875 C126.91 153.5175 127.57 153.8475 128.25 154.1875 C128.27578125 155.21101562 128.3015625 156.23453125 128.328125 157.2890625 C128.74734833 169.29259476 130.17935276 181.07677616 131.87792969 192.95361328 C132.05356445 194.19224121 132.22919922 195.43086914 132.41015625 196.70703125 C132.57136963 197.81151611 132.73258301 198.91600098 132.89868164 200.05395508 C133.24337127 203.12837578 133.31251714 206.09682709 133.25 209.1875 C134.24 209.5175 135.23 209.8475 136.25 210.1875 C135.59 210.1875 134.93 210.1875 134.25 210.1875 C134.45625 210.80625 134.6625 211.425 134.875 212.0625 C134.99875 212.76375 135.1225 213.465 135.25 214.1875 C133.25 216.1875 133.25 216.1875 130.80859375 217.0546875 C124.7729396 219.72696186 122.3559854 227.64192092 120.04882812 233.4375 C112.57918688 253.09236503 107.57545193 273.40648241 103.00854492 293.89038086 C102.13944526 297.66804126 101.19015181 301.42689275 100.25 305.1875 C93.32 305.1875 86.39 305.1875 79.25 305.1875 C79.58 307.1675 79.91 309.1475 80.25 311.1875 C86.81313615 312.38079748 92.28691521 312.1875 99.25 312.1875 C99.25 320.1075 99.25 328.0275 99.25 336.1875 C94.14913203 336.8251085 89.78334966 337.30719716 84.75 337.25 C83.7084375 337.24097656 82.666875 337.23195313 81.59375 337.22265625 C80.43359375 337.20525391 80.43359375 337.20525391 79.25 337.1875 C78.53249357 341.25608757 78.8012321 344.30554499 80.25 348.1875 C84.65020314 353.4383238 90.69210869 357.27048761 96.25 361.1875 C96.99604492 361.72084961 97.74208984 362.25419922 98.51074219 362.80371094 C102.11024548 365.37613496 105.72807091 367.91975268 109.36328125 370.44140625 C114.17493969 373.80287941 118.74511275 377.42420352 123.25 381.1875 C117.83783312 398.63229837 102.98526356 413.88924889 88.25 424.1875 C87.59 424.1875 86.93 424.1875 86.25 424.1875 C68.64601647 494.9608754 77.71901405 580.04178397 108.31542969 646.11230469 C109.21883379 648.11829603 110.0190455 650.14693734 110.8203125 652.1953125 C111.52800781 653.67644531 111.52800781 653.67644531 112.25 655.1875 C113.24 655.5175 114.23 655.8475 115.25 656.1875 C115.37375 657.095 115.4975 658.0025 115.625 658.9375 C116.73798698 664.72503227 118.70893661 666.82323675 123.5 670.25 C124.57924503 671.03492063 125.65731965 671.82145242 126.734375 672.609375 C127.30349609 673.02380859 127.87261719 673.43824219 128.45898438 673.86523438 C131.60139494 676.18520379 134.67637181 678.59005143 137.75 681 C138.63026855 681.68364624 138.63026855 681.68364624 139.52832031 682.38110352 C147.99999464 689.02605777 147.99999464 689.02605777 148.74609375 692.4921875 C148.05917988 696.22423925 146.2741329 699.1269423 144.3125 702.3125 C141.40779419 707.06532571 141.40779419 707.06532571 139.25 712.1875 C137.60511706 713.87566933 135.93662458 715.54103315 134.25 717.1875 C131.74053669 719.69696331 131.27148776 720.66104998 131.125 724.25 C134.42824793 740.76623967 153.27854101 758.2265013 164.62060547 770.12890625 C166.52784218 772.15738032 168.13996626 773.96476735 169.37890625 776.47265625 C170.18457725 778.55602403 170.18457725 778.55602403 173.25 779.1875 C173.25 779.8475 173.25 780.5075 173.25 781.1875 C174.24 781.5175 175.23 781.8475 176.25 782.1875 C177.96875 783.9296875 177.96875 783.9296875 179.75 786.0625 C182.25265321 789.04134531 182.25265321 789.04134531 184.96875 791.8203125 C186.25 793.1875 186.25 793.1875 186.25 795.1875 C186.91 795.1875 187.57 795.1875 188.25 795.1875 C189.64138161 796.93564612 190.81294846 798.78422568 192.03125 800.65625 C192.4334375 801.1615625 192.835625 801.666875 193.25 802.1875 C193.91 802.1875 194.57 802.1875 195.25 802.1875 C195.353125 802.868125 195.45625 803.54875 195.5625 804.25 C196.15206667 807.2975475 196.15206667 807.2975475 197.8125 810.25 C200.70588666 816.83890031 200.13341123 824.56407224 197.8125 831.25 C192.75312552 842.26780157 183.59443905 849.89852132 174.25 857.1875 C177.7832373 864.84106841 182.55512634 868.78743955 190.25 872.1875 C192.8928385 873.50891925 194.94001391 875.33951112 197.25 877.1875 C197.82419678 877.48897949 198.39839355 877.79045898 198.98999023 878.10107422 C202.0908078 879.83360244 203.89970598 881.17167818 205.08178711 884.59960938 C205.58706459 887.59005905 205.892091 890.53865435 206.125 893.5625 C206.28512573 895.16158203 206.28512573 895.16158203 206.44848633 896.79296875 C206.7519429 899.92261592 207.00951284 903.05244994 207.25 906.1875 C207.31912598 907.04118164 207.38825195 907.89486328 207.45947266 908.77441406 C207.78832449 912.9097909 208.05739347 917.04313872 208.25 921.1875 C193.77411767 931.44428095 175.91188645 934.35207259 158.89208984 937.91577148 C157.86152969 938.13198654 157.86152969 938.13198654 156.81015015 938.35256958 C154.91718395 938.74768098 153.02307532 939.13730736 151.12890625 939.52661133 C148.32709504 940.05072144 148.32709504 940.05072144 146.25 941.1875 C144.80515064 941.36452355 143.35415424 941.49195237 141.90234375 941.59765625 C136.50205941 942.04789936 131.13247978 942.6555998 125.75390625 943.30859375 C105.26572348 945.78059256 84.86036973 948.01928993 64.25 949.1875 C62.72588994 949.2768145 61.20180268 949.36651877 59.67773438 949.45654297 C49.5363134 950.05498493 39.39381508 950.63111085 29.25 951.1875 C29.25 951.5175 29.25 951.8475 29.25 952.1875 C19.35 952.1875 9.45 952.1875 -0.75 952.1875 C-0.75 951.8575 -0.75 951.5275 -0.75 951.1875 C-4.37498334 951.15856068 -7.99993713 951.14072208 -11.625 951.125 C-12.65753906 951.11662109 -13.69007813 951.10824219 -14.75390625 951.09960938 C-15.74003906 951.09638672 -16.72617187 951.09316406 -17.7421875 951.08984375 C-18.65339355 951.08460693 -19.56459961 951.07937012 -20.50341797 951.07397461 C-22.78687509 951.03864435 -22.78687509 951.03864435 -24.75 952.1875 C-24.75 951.5275 -24.75 950.8675 -24.75 950.1875 C-25.51441406 950.16244385 -26.27882813 950.1373877 -27.06640625 950.11157227 C-55.14867648 949.18014318 -55.14867648 949.18014318 -68.75 948.1875 C-68.75 948.5175 -68.75 948.8475 -68.75 949.1875 C-71.39 949.1875 -74.03 949.1875 -76.75 949.1875 C-76.75 948.5275 -76.75 947.8675 -76.75 947.1875 C-81.32115597 946.75612177 -85.89268508 946.32902493 -90.46459961 945.90576172 C-92.01744179 945.76140892 -93.57017878 945.61591965 -95.12280273 945.46923828 C-97.36414832 945.25769555 -99.60584976 945.05034421 -101.84765625 944.84375 C-102.53336197 944.77812866 -103.21906769 944.71250732 -103.92555237 944.64489746 C-107.19861826 944.34710771 -110.39240586 944.19101063 -113.68139648 944.20898438 C-116.75 944.1875 -116.75 944.1875 -117.75 943.1875 C-121.03458098 942.50894501 -124.36766818 942.09668243 -127.6875 941.625 C-129.05745117 941.41713867 -129.05745117 941.41713867 -130.45507812 941.20507812 C-136.59514699 940.32295924 -142.55014353 940.01329472 -148.75 940.1875 C-149.08 939.5275 -149.41 938.8675 -149.75 938.1875 C-151.9849341 937.45109283 -151.9849341 937.45109283 -154.703125 936.93359375 C-155.71503906 936.71896484 -156.72695313 936.50433594 -157.76953125 936.28320312 C-158.83558594 936.06599609 -159.90164063 935.84878906 -161 935.625 C-162.57587891 935.29338867 -162.57587891 935.29338867 -164.18359375 934.95507812 C-167.03725198 934.35649709 -169.89256097 933.76773721 -172.75 933.1875 C-173.62624023 932.97875244 -174.50248047 932.77000488 -175.40527344 932.55493164 C-177.89543363 931.98081864 -177.89543363 931.98081864 -180.75 933.1875 C-181.08 932.73375 -181.41 932.28 -181.75 931.8125 C-184.7877843 929.34430026 -187.94187061 928.99906856 -191.75 928.1875 C-191.75 927.5275 -191.75 926.8675 -191.75 926.1875 C-192.471875 926.084375 -193.19375 925.98125 -193.9375 925.875 C-197.0495925 925.11426628 -199.15754152 924.05983113 -201.75 922.1875 C-202.78159626 919.09271121 -202.72482862 917.66118607 -202.3125 914.5 C-202.21066406 913.69175781 -202.10882813 912.88351562 -202.00390625 912.05078125 C-201.92011719 911.43589844 -201.83632813 910.82101562 -201.75 910.1875 C-202.41 909.8575 -203.07 909.5275 -203.75 909.1875 C-203.75 907.5375 -203.75 905.8875 -203.75 904.1875 C-203.09 904.1875 -202.43 904.1875 -201.75 904.1875 C-201.64510254 903.26469238 -201.64510254 903.26469238 -201.53808594 902.32324219 C-201.2098792 899.52556995 -200.85524654 896.73186198 -200.5 893.9375 C-200.39042969 892.96941406 -200.28085937 892.00132812 -200.16796875 891.00390625 C-199.24017529 883.92337718 -199.24017529 883.92337718 -197.19140625 880.84765625 C-192.77891184 877.84716005 -188.19658201 875.16936273 -183.56835938 872.51757812 C-176.97338624 868.62230159 -170.98270655 864.32870966 -167.75 857.1875 C-168.595625 856.50945313 -169.44125 855.83140625 -170.3125 855.1328125 C-188.31886807 840.45416998 -188.31886807 840.45416998 -189.75 832.1875 C-190.74 832.1875 -191.73 832.1875 -192.75 832.1875 C-193.74 830.7025 -193.74 830.7025 -194.75 829.1875 C-194.42 828.1975 -194.09 827.2075 -193.75 826.1875 C-193.75 825.1975 -193.75 824.2075 -193.75 823.1875 C-193.45851317 808.74565246 -185.38997147 799.62392133 -176.25 789.1875 C-173.5366052 786.58228038 -173.5366052 786.58228038 -173.75 784.1875 C-173.069375 783.795625 -172.38875 783.40375 -171.6875 783 C-164.9190851 778.823744 -159.87397594 772.18215154 -154.75 766.1875 C-153.925 765.24003906 -153.1 764.29257812 -152.25 763.31640625 C-147.11641426 757.38194044 -142.2259861 751.31215484 -137.5625 745 C-137.08071289 744.35216553 -136.59892578 743.70433105 -136.10253906 743.03686523 C-133.58966153 739.93273512 -133.58966153 739.93273512 -132.75 736.1875 C-132.3375 735.795625 -131.925 735.40375 -131.5 735 C-128.34366668 731.73094049 -126.14202877 728.0169676 -125.1875 723.5625 C-126.00931629 720.09260902 -128.17906689 718.57479503 -130.75 716.1875 C-131.44684025 714.86968518 -132.10965783 713.53367388 -132.75 712.1875 C-134.31344204 709.58716376 -135.90867537 707.00820048 -137.5078125 704.4296875 C-138.75 702.1875 -138.75 702.1875 -138.75 700.1875 C-139.41 699.8575 -140.07 699.5275 -140.75 699.1875 C-142.00692187 696.58864706 -142.66781618 694.0748917 -142.75 691.1875 C-140.625 688.5 -140.625 688.5 -137.75 686.1875 C-137.069375 685.300625 -136.38875 684.41375 -135.6875 683.5 C-133.75 681.1875 -133.75 681.1875 -131.99609375 680.31640625 C-129.00709936 678.81411168 -126.52939394 676.8455091 -123.875 674.8125 C-120.83673614 672.48912175 -117.90976279 670.28129109 -114.609375 668.34375 C-111.14855894 665.73395428 -109.62517537 662.91288581 -107.875 659.0625 C-107.53968262 658.35367676 -107.20436523 657.64485352 -106.85888672 656.91455078 C-106.15577596 655.41810274 -105.46073129 653.91784065 -104.7734375 652.4140625 C-103.81298429 650.3245269 -102.81796615 648.25565395 -101.8125 646.1875 C-88.53807652 618.29980194 -76.67087234 583.28467187 -76.75 552.1875 C-76.42 551.8575 -76.09 551.5275 -75.75 551.1875 C-73.81006454 539.89646937 -73.46852467 528.42835338 -73.125 517 C-73.10453613 516.33048309 -73.08407227 515.66096619 -73.06298828 514.97116089 C-72.62781474 500.26359895 -72.6018322 485.68322147 -73.625 471 C-73.70363281 469.71802734 -73.78226563 468.43605469 -73.86328125 467.11523438 C-73.94707031 465.88740234 -74.03085937 464.65957031 -74.1171875 463.39453125 C-74.19050293 462.2960083 -74.26381836 461.19748535 -74.33935547 460.06567383 C-74.73331913 457.30441486 -75.41601901 455.59596415 -76.75 453.1875 C-76.8046875 451.13671875 -76.8046875 451.13671875 -76.625 448.875 C-76.47039314 441.46491411 -77.92802935 431.62537694 -82.71875 425.7890625 C-85.06816412 423.93663982 -86.80399987 423.51483335 -89.75 423.1875 C-89.811875 422.61 -89.87375 422.0325 -89.9375 421.4375 C-91.07969203 418.27450669 -93.08142373 417.17341723 -95.75 415.1875 C-98.0625 413.0625 -98.0625 413.0625 -99.75 411.1875 C-99.75 410.5275 -99.75 409.8675 -99.75 409.1875 C-100.31976563 408.96964844 -100.88953125 408.75179688 -101.4765625 408.52734375 C-108.67780572 404.28331209 -115.95971873 391.86683932 -118.75 384.1875 C-118.48897793 381.25472013 -118.19743912 379.66856451 -116.17114258 377.48999023 C-115.16796997 376.75051147 -115.16796997 376.75051147 -114.14453125 375.99609375 C-113.40783203 375.44373047 -112.67113281 374.89136719 -111.91210938 374.32226562 C-111.13673828 373.76216797 -110.36136719 373.20207031 -109.5625 372.625 C-108.80646484 372.06103516 -108.05042969 371.49707031 -107.27148438 370.91601562 C-103.97563242 368.47199704 -100.66310328 366.10981963 -97.19921875 363.91015625 C-95.98685547 363.05744141 -95.98685547 363.05744141 -94.75 362.1875 C-94.75 361.5275 -94.75 360.8675 -94.75 360.1875 C-93.85680054 360.00960937 -93.85680054 360.00960937 -92.94555664 359.828125 C-89.47585313 358.81572624 -86.95412757 356.42818824 -84.1875 354.1875 C-78.12944664 349.31398221 -78.12944664 349.31398221 -74.75 348.1875 C-74.75 346.8675 -74.75 345.5475 -74.75 344.1875 C-75.41 344.1875 -76.07 344.1875 -76.75 344.1875 C-77.08 342.2075 -77.41 340.2275 -77.75 338.1875 C-76.76 337.8575 -75.77 337.5275 -74.75 337.1875 C-75.92755859 337.20490234 -75.92755859 337.20490234 -77.12890625 337.22265625 C-82.78719775 337.27125507 -88.17878878 337.20044749 -93.75 336.1875 C-94.91803601 328.88727492 -95.09067242 321.57207563 -94.75 314.1875 C-92.63074396 312.06824396 -88.1303907 312.76918983 -85.1875 312.625 C-84.38119141 312.58181641 -83.57488281 312.53863281 -82.74414062 312.49414062 C-80.74631195 312.38774738 -78.7481793 312.28709112 -76.75 312.1875 C-76.75 310.2075 -76.75 308.2275 -76.75 306.1875 C-75.76 305.8575 -74.77 305.5275 -73.75 305.1875 C-74.68851807 305.19535522 -74.68851807 305.19535522 -75.64599609 305.20336914 C-78.47232057 305.22411618 -81.29862905 305.23715286 -84.125 305.25 C-85.10984375 305.25837891 -86.0946875 305.26675781 -87.109375 305.27539062 C-88.52089844 305.28022461 -88.52089844 305.28022461 -89.9609375 305.28515625 C-91.26490479 305.29301147 -91.26490479 305.29301147 -92.59521484 305.30102539 C-94.75 305.1875 -94.75 305.1875 -96.75 304.1875 C-96.729375 303.23875 -96.70875 302.29 -96.6875 301.3125 C-96.52448174 298.28083717 -96.52448174 298.28083717 -97.75 296.1875 C-98.41 296.1875 -99.07 296.1875 -99.75 296.1875 C-99.52828125 295.28515625 -99.3065625 294.3828125 -99.078125 293.453125 C-98.2700553 287.76225112 -100.06658946 282.40813104 -101.5 276.9375 C-101.76554687 275.84953125 -102.03109375 274.7615625 -102.3046875 273.640625 C-103.8525171 267.25307226 -103.8525171 267.25307226 -107.75 262.1875 C-107.75 259.85416667 -107.75 257.52083333 -107.75 255.1875 C-108.54475189 251.84714654 -109.64156672 248.62290922 -110.75 245.375 C-111.31483513 243.68176676 -111.87744881 241.98779033 -112.4375 240.29296875 C-112.68886719 239.55199951 -112.94023437 238.81103027 -113.19921875 238.04760742 C-113.75 236.1875 -113.75 236.1875 -113.75 234.1875 C-114.41 233.8575 -115.07 233.5275 -115.75 233.1875 C-115.976875 232.1975 -116.20375 231.2075 -116.4375 230.1875 C-117.76198478 225.03909948 -121.10780845 220.9675919 -124.75 217.1875 C-125.74 216.8575 -126.73 216.5275 -127.75 216.1875 C-129.42391496 210.0813951 -127.96526139 204.51094836 -126.8125 198.4375 C-125.53145434 191.65599094 -124.50414089 185.25246906 -124.77514648 178.33496094 C-124.74900501 176.10252986 -124.35933651 174.32900301 -123.75 172.1875 C-121.676099 163.55079385 -120.97493615 154.82604769 -120.25 146 C-119.36382384 135.34513541 -118.26411225 124.77379626 -116.75 114.1875 C-116.42 114.1875 -116.09 114.1875 -115.75 114.1875 C-115.61537354 115.18825562 -115.61537354 115.18825562 -115.47802734 116.20922852 C-113.28307128 132.20397992 -110.38961034 147.71465197 -105.75 163.1875 C-105.49379883 164.04537109 -105.23759766 164.90324219 -104.97363281 165.78710938 C-100.70253035 179.73116033 -95.07515447 195.82272328 -85.35546875 206.921875 C-83.75 209.1875 -83.75 209.1875 -83.9375 211.95703125 C-84.205625 212.96121094 -84.47375 213.96539062 -84.75 215 C-87.42598459 229.31490549 -80.31898881 244.48997457 -72.38232422 256.20654297 C-71.19000169 257.8801623 -69.97237336 259.53570157 -68.75 261.1875 C-68.75 259.5375 -68.75 257.8875 -68.75 256.1875 C-68.09 256.1875 -67.43 256.1875 -66.75 256.1875 C-66.81276123 255.63529785 -66.87552246 255.0830957 -66.94018555 254.51416016 C-67.48751494 249.41641359 -67.87552081 244.33117236 -68.14453125 239.2109375 C-68.7993838 218.17549371 -68.7993838 218.17549371 -74.70703125 198.16796875 C-74.75 196.1875 -74.75 196.1875 -72.5390625 193.33984375 C-71.49538402 192.25750426 -70.43983301 191.18653389 -69.375 190.125 C-68.24771104 188.95271765 -67.12273055 187.77821131 -66 186.6015625 C-65.44183594 186.02051758 -64.88367188 185.43947266 -64.30859375 184.84082031 C-60.53378534 180.83659059 -57.15866612 176.50226725 -53.75 172.1875 C-53.23179687 171.53652344 -52.71359375 170.88554687 -52.1796875 170.21484375 C-45.67793874 162.03570319 -39.32101213 153.78197568 -33.375 145.1875 C-32.90465332 144.51114502 -32.43430664 143.83479004 -31.94970703 143.13793945 C-29.55382871 139.95090151 -29.55382871 139.95090151 -28.75 136.1875 C-28.18796875 135.63835937 -27.6259375 135.08921875 -27.046875 134.5234375 C-21.35479606 128.7345545 -16.23892124 120.4493356 -15.30859375 112.33984375 C-15.38448678 108.81016918 -15.38448678 108.81016918 -15.82421875 105.56640625 C-15.7493116 102.15615955 -15.26400379 100.89617532 -13.78515625 97.9375 C-11.29304611 92.77390886 -11.28451162 88.27328196 -11.5 82.625 C-11.51804687 81.71169922 -11.53609375 80.79839844 -11.5546875 79.85742188 C-11.60127299 77.63296486 -11.66664515 75.41083033 -11.75 73.1875 C-12.08 73.1875 -12.41 73.1875 -12.75 73.1875 C-12.75 71.5375 -12.75 69.8875 -12.75 68.1875 C-21.4870116 67.9301085 -30.22740162 68.01664947 -38.75 70.1875 C-39.08 70.8475 -39.41 71.5075 -39.75 72.1875 C-41.07 72.1875 -42.39 72.1875 -43.75 72.1875 C-44.52800681 67.38754797 -44.86851665 62.80187936 -44.84765625 57.94140625 C-44.84553383 56.95744118 -44.84553383 56.95744118 -44.84336853 55.95359802 C-44.83783031 53.88568298 -44.82529002 51.81788158 -44.8125 49.75 C-44.80747699 48.33659012 -44.8029155 46.92317852 -44.79882812 45.50976562 C-44.78788126 42.06897432 -44.77066038 38.62824828 -44.75 35.1875 C-42.75 34.1875 -42.75 34.1875 -40.796875 34.7109375 C-40.03890625 34.99195313 -39.2809375 35.27296875 -38.5 35.5625 C-32.11032181 37.92007092 -26.10924045 38.32915472 -19.375 38.25 C-18.63894531 38.24548828 -17.90289062 38.24097656 -17.14453125 38.23632812 C-15.34631842 38.22465142 -13.54814803 38.20672011 -11.75 38.1875 C-12.08 37.5275 -12.41 36.8675 -12.75 36.1875 C-12.79165763 34.18793389 -12.79165763 32.18706611 -12.75 30.1875 C-12.75 27.648623 -12.97309945 25.15492654 -13.1875 22.625 C-13.26871094 21.63371094 -13.34992188 20.64242187 -13.43359375 19.62109375 C-13.49117361 17.2429807 -13.49117361 17.2429807 -14.75 16.1875 C-14.82271741 13.83436445 -14.83370868 11.47916332 -14.8125 9.125 C-14.80347656 7.83464844 -14.79445313 6.54429688 -14.78515625 5.21484375 C-14.76775391 3.71630859 -14.76775391 3.71630859 -14.75 2.1875 C-9.91887497 -0.33786081 -5.30604983 -0.07456727 0 0 Z M-11.75 16.1875 C-10.75 19.1875 -10.75 19.1875 -10.75 19.1875 Z M-106.75 258.1875 C-105.75 261.1875 -105.75 261.1875 -105.75 261.1875 Z M-87.75 421.1875 C-87.75 421.8475 -87.75 422.5075 -87.75 423.1875 C-87.09 422.8575 -86.43 422.5275 -85.75 422.1875 C-86.41 421.8575 -87.07 421.5275 -87.75 421.1875 Z " fill="#111110" transform="translate(508.75,31.8125)"/>
<path d="M0 0 C1.02432129 0.08302368 1.02432129 0.08302368 2.06933594 0.16772461 C5.29598201 0.42742368 8.52298324 0.68244991 11.75 0.9375 C13.35875 1.06801758 13.35875 1.06801758 15 1.20117188 C32.14533056 2.54688096 49.24062537 3.17794408 66.4375 3.125 C67.34387207 3.1234491 68.25024414 3.12189819 69.18408203 3.12030029 C93.87058706 3.07113045 118.39949104 2.14175005 143 0 C143.00257813 0.88558594 143.00515625 1.77117188 143.0078125 2.68359375 C143.776109 27.29469174 157.99626739 51.73667214 172.78515625 70.8515625 C174.32873423 73.58136279 174.69435441 74.92153358 174 78 C169.31412145 82.30052669 164.136964 83.12246149 158 84.125 C156.55282593 84.37310425 156.55282593 84.37310425 155.07641602 84.6262207 C144.77146074 86.3204493 134.42008675 87.35603618 124 88 C123.33709961 88.04236786 122.67419922 88.08473572 121.99121094 88.12838745 C106.30953725 89.09962135 90.62613013 89.18765348 74.92041016 89.18530273 C72.07464169 89.18522197 69.22903592 89.19210466 66.38330078 89.20581055 C-17.81282123 89.60436789 -17.81282123 89.60436789 -29.72216797 79.54541016 C-31 78 -31 78 -31.4375 75.68359375 C-30.84090837 72.02414328 -29.21293059 70.02678033 -27 67.0625 C-19.74951382 57.01655969 -14.04809244 46.33268655 -8.6875 35.1875 C-8.26670166 34.31609375 -7.84590332 33.4446875 -7.41235352 32.546875 C-3.47924235 24.22631461 -0.61607247 16.69212358 -0.3125 7.4375 C-0.27833984 6.71498047 -0.24417969 5.99246094 -0.20898438 5.24804688 C-0.12791152 3.49918962 -0.06225671 1.74962813 0 0 Z " fill="#323230" transform="translate(440,764)"/>
<path d="M0 0 C2.45830369 3.20115558 4.69232004 6.52186345 6.9375 9.875 C10.35355315 14.87021921 14.00502945 19.58826076 17.9375 24.1875 C18.3905249 24.72036621 18.8435498 25.25323242 19.31030273 25.80224609 C20.00555054 26.60202881 20.00555054 26.60202881 20.71484375 27.41796875 C21.45021362 28.27890137 21.45021362 28.27890137 22.20043945 29.15722656 C24.0238758 31.12386455 24.0238758 31.12386455 26.55541992 32.88183594 C31.16068973 36.54894192 34.06516295 39.72046892 34.94067383 45.62475586 C35.36436496 50.33983802 35.43704629 55.05060036 35.43695068 59.78271484 C35.43769902 63.99537626 35.5464905 68.20336236 35.64770508 72.41461182 C35.6976887 74.5503534 35.74211897 76.68623215 35.78100586 78.82220459 C35.95817175 88.25082031 36.54270329 97.60856156 37.375 107 C37.46950439 108.08557693 37.46950439 108.08557693 37.56591797 109.19308472 C39.35064382 129.44750923 41.52842117 149.79195968 45.86889648 169.67358398 C47.47841604 177.27290075 47.47841604 177.27290075 46 181 C44.33378541 183.2585816 42.67903478 185.29658032 40.8125 187.375 C40.28293701 187.97787842 39.75337402 188.58075684 39.20776367 189.2019043 C30.71381384 198.80661092 21.96701171 208.21243026 12.82421875 217.203125 C11.27152421 218.73254574 9.75648295 220.30004055 8.25 221.875 C5.97400061 224.02455498 3.69823479 225.43645335 1 227 C0.1646875 226.14728516 0.1646875 226.14728516 -0.6875 225.27734375 C-1.450625 224.50519531 -2.21375 223.73304688 -3 222.9375 C-3.7425 222.18339844 -4.485 221.42929687 -5.25 220.65234375 C-7.35280504 218.62421218 -9.47073146 216.71341694 -11.68359375 214.8125 C-16.70295072 210.45544383 -21.37508772 205.7711063 -26.0625 201.0625 C-26.92166016 200.20720703 -27.78082031 199.35191406 -28.66601562 198.47070312 C-33.64532019 193.48379076 -38.51169147 188.43782985 -43 183 C-43.53066574 182.39768555 -44.06133148 181.79537109 -44.608078 181.17480469 C-46.30572927 178.52231414 -46.21845623 177.4863149 -45.74560547 174.41625977 C-45.61482101 173.50801453 -45.48403656 172.59976929 -45.34928894 171.66400146 C-45.19019547 170.68304504 -45.03110199 169.70208862 -44.8671875 168.69140625 C-44.71554642 167.66605774 -44.56390533 166.64070923 -44.40766907 165.58428955 C-44.08099168 163.38497471 -43.74670727 161.18677901 -43.40560913 158.98965454 C-42.51757235 153.25390836 -41.69157612 147.50912669 -40.85546875 141.765625 C-40.68990982 140.63957352 -40.52435089 139.51352203 -40.35377502 138.35334778 C-36.24728895 110.34805048 -34.40163208 82.05983916 -33.83203125 53.765625 C-33.79263428 52.22249634 -33.79263428 52.22249634 -33.75244141 50.64819336 C-33.71078074 48.82906329 -33.68914483 47.0093005 -33.69287109 45.18969727 C-33.60010695 41.29481322 -33.47195243 39.46959659 -30.65234375 36.6640625 C-29.77707031 36.11492187 -28.90179688 35.56578125 -28 35 C-26.92190362 33.88837431 -25.87844885 32.74194643 -24.875 31.5625 C-24.28074219 30.86511719 -23.68648438 30.16773438 -23.07421875 29.44921875 C-22.38972656 28.64097656 -21.70523437 27.83273437 -21 27 C-20.16082031 26.03707031 -19.32164062 25.07414062 -18.45703125 24.08203125 C-11.79141628 16.39176095 -5.78476617 8.36971591 0 0 Z " fill="#10100F" transform="translate(511,460)"/>
<path d="M0 0 C8.41141308 2.33900257 13.73206319 11.78174453 18.60180664 18.46728516 C23.36646948 24.97891545 28.64882244 30.7519658 34.19140625 36.609375 C35.86355237 38.45860164 37.5305672 40.31248653 39.19140625 42.171875 C41.85842185 45.20099672 41.85842185 45.20099672 44.78355408 47.96636963 C46.59107755 50.0758033 46.57392266 51.20357599 46.59204102 53.95605469 C46.60547546 54.83796478 46.61890991 55.71987488 46.63275146 56.62850952 C46.63277161 57.58641388 46.63279175 58.54431824 46.6328125 59.53125 C46.6451593 60.53048492 46.6575061 61.52971985 46.67022705 62.55923462 C46.69606705 64.70729341 46.71573285 66.85543351 46.72988892 69.00360107 C46.77016094 74.63052899 46.86500132 80.25653095 46.95703125 85.8828125 C46.9743782 86.99431671 46.99172516 88.10582092 47.00959778 89.25100708 C47.43185173 114.52352278 50.03314165 139.55317304 53.19140625 164.609375 C53.32691895 165.69057617 53.46243164 166.77177734 53.60205078 167.88574219 C54.91926355 178.20705733 56.58858802 188.36064721 59.00976562 198.48632812 C60.1595015 203.48613739 60.70790068 207.03498239 58.0546875 211.5390625 C49.25549422 222.57684148 39.26390044 232.61585804 29.31640625 242.609375 C28.62756348 243.30289063 27.9387207 243.99640625 27.22900391 244.7109375 C23.28234364 248.64525555 19.23440067 252.40219693 15.00366211 256.02978516 C13.16315277 257.63400117 11.39704345 259.30116674 9.62890625 260.984375 C6.22855158 263.83851885 3.74689505 264.84913757 -0.80859375 264.609375 C-7.84574055 261.76801656 -13.37088262 255.71877772 -18.80859375 250.609375 C-20.15219258 249.3579106 -21.49595493 248.10662174 -22.83984375 246.85546875 C-34.50618872 235.96461336 -45.91751653 225.18377416 -55.80859375 212.609375 C-56.55238281 211.82304688 -57.29617188 211.03671875 -58.0625 210.2265625 C-61.42967467 205.1795669 -59.68161316 199.07438759 -58.63671875 193.38671875 C-58.38308711 191.96635238 -58.13019149 190.54585444 -57.87792969 189.12524414 C-57.74414917 188.38082062 -57.61036865 187.63639709 -57.47253418 186.86941528 C-54.03236861 167.56730673 -51.74509708 148.22749664 -49.99676514 128.70544434 C-49.82334302 126.77366939 -49.64458521 124.84237541 -49.46533203 122.91113281 C-48.32739222 110.3236848 -47.77184261 97.83683412 -47.75 85.203125 C-47.73710327 82.97501314 -47.72367153 80.74690431 -47.7097168 78.51879883 C-47.68261436 74.09773911 -47.70936415 69.68120305 -47.76489258 65.26049805 C-47.75794335 63.20360589 -47.74915249 61.14671891 -47.73828125 59.08984375 C-47.76406754 58.15140625 -47.78985382 57.21296875 -47.81642151 56.24609375 C-47.73567038 50.75464353 -46.83051412 48.06189709 -42.89819336 44.125 C-41.54331415 42.94351482 -40.18097825 41.77048037 -38.80859375 40.609375 C-37.33699622 38.90913257 -35.89362965 37.18349841 -34.49609375 35.421875 C-31.61948258 31.83725109 -28.70612718 28.29916662 -25.71435547 24.81103516 C-20.81265749 19.09550889 -16.20684912 13.26454174 -11.78125 7.16796875 C-5.95063123 -0.39451699 -5.95063123 -0.39451699 0 0 Z M-0.80859375 17.609375 C-1.57042969 18.63675781 -2.33226562 19.66414063 -3.1171875 20.72265625 C-9.16343546 28.84856179 -15.27442869 36.86657826 -21.80859375 44.609375 C-22.44667969 45.37121094 -23.08476562 46.13304687 -23.7421875 46.91796875 C-28.37675973 52.34988674 -28.37675973 52.34988674 -31.36376953 54.14477539 C-34.94807704 57.7580752 -34.58156687 60.87801484 -34.62890625 65.796875 C-34.65779434 66.71362 -34.68668243 67.63036499 -34.71644592 68.57489014 C-34.77692393 70.55188108 -34.82690251 72.52921526 -34.86752319 74.50671387 C-34.97975435 79.77706846 -35.18068611 85.04434549 -35.3671875 90.3125 C-35.4025209 91.37132385 -35.43785431 92.43014771 -35.47425842 93.52105713 C-35.77930079 102.48533735 -36.25749653 111.42036085 -36.99609375 120.359375 C-37.0528125 121.04938599 -37.10953125 121.73939697 -37.16796875 122.45031738 C-38.8352044 142.05732572 -41.83263508 161.53958285 -44.70469666 180.9987793 C-44.96058955 182.73568702 -45.21315584 184.47308948 -45.46173096 186.21105957 C-45.68998086 187.78924918 -45.92987231 189.36580622 -46.18231201 190.94030762 C-46.91713589 195.31353112 -46.91713589 195.31353112 -45.18359375 199.296875 C-44.00796875 200.4415625 -44.00796875 200.4415625 -42.80859375 201.609375 C-39.97855155 204.4394172 -37.22109579 207.25475771 -34.6171875 210.29296875 C-30.26289345 215.31389261 -25.57923785 219.98492284 -20.87109375 224.671875 C-20.01580078 225.53103516 -19.16050781 226.39019531 -18.27929688 227.27539062 C-12.09814311 233.44711471 -5.84616091 239.41813998 1.19140625 244.609375 C2.07828125 243.8875 2.96515625 243.165625 3.87890625 242.421875 C4.37777344 242.01582031 4.87664062 241.60976563 5.390625 241.19140625 C7.76930274 239.10167851 9.9631838 236.85947341 12.19140625 234.609375 C13.43788562 233.37277345 14.68535983 232.13717423 15.93359375 230.90234375 C17.3112502 229.5339068 18.68885319 228.16541603 20.06640625 226.796875 C20.74832031 226.12333984 21.43023438 225.44980469 22.1328125 224.75585938 C26.10544926 220.80213993 29.88647763 216.75072422 33.53955078 212.50024414 C35.08706656 210.72881203 36.68351931 209.02842455 38.31640625 207.3359375 C43.683467 201.88005036 43.683467 201.88005036 46.77734375 195.078125 C46.5413983 192.45650891 45.87500534 190.15347098 45.19140625 187.609375 C43.06886031 177.93416305 41.43622207 168.25005434 40.19140625 158.421875 C40.10836243 157.76775635 40.0253186 157.1136377 39.9397583 156.43969727 C38.60693652 145.84911622 37.49462938 135.24278718 36.56640625 124.609375 C36.50103668 123.88495209 36.43566711 123.16052917 36.36831665 122.41415405 C35.50892391 112.72087962 35.11881573 103.09836505 35.0546875 93.3671875 C35.00847265 90.19671442 34.95763085 87.02634321 34.90582275 83.85595703 C34.88811191 81.80198097 34.89552534 79.74760882 34.93011475 77.69384766 C35.21915811 63.90473497 35.21915811 63.90473497 28.35603333 52.45199585 C25.97909883 50.22875144 23.49926182 48.17444452 20.95632935 46.14494324 C17.9936287 43.56725075 15.63701737 40.52854926 13.25390625 37.421875 C12.78715485 36.81420288 12.32040344 36.20653076 11.83950806 35.58044434 C8.46047425 31.13523123 5.42176945 26.49623447 2.53125 21.71875 C1.23315613 19.50595846 1.23315613 19.50595846 -0.80859375 17.609375 Z " fill="#343332" transform="translate(511.80859375,442.390625)"/>
<path d="M0 0 C0.66 0 1.32 0 2 0 C2.18433594 0.79277344 2.36867188 1.58554688 2.55859375 2.40234375 C9.99624888 32.3182455 22.91958292 60.37937438 40 86 C40.24291992 88.35888672 40.24291992 88.35888672 40.23046875 91.1796875 C40.22865601 92.76958496 40.22865601 92.76958496 40.22680664 94.39160156 C40.20734985 96.11588379 40.20734985 96.11588379 40.1875 97.875 C40.18032959 99.06577148 40.17315918 100.25654297 40.16577148 101.48339844 C40.00271043 120.00230262 39.42054565 138.53290661 38 157 C33.38 157 28.76 157 24 157 C24.05236816 155.26621094 24.10473633 153.53242188 24.15869141 151.74609375 C24.32139203 145.95121011 24.43548805 140.15640341 24.51812172 134.35990906 C24.56983391 130.8525485 24.63968045 127.34770728 24.75439453 123.84179688 C25.57827601 101.62823829 25.57827601 101.62823829 15.3210907 82.64622498 C12.91743685 79.6510067 11.05675748 76.31073579 9.125 73 C8.75406723 72.38035873 8.38313446 71.76071747 8.0009613 71.12229919 C5.44405941 66.84021353 3.11839778 62.51310832 1 58 C-0.98931074 60.57393769 -2.74437336 63.15501243 -4.34765625 65.984375 C-4.78916016 66.75652344 -5.23066406 67.52867187 -5.68554688 68.32421875 C-6.57672855 69.8942154 -7.46738817 71.46450854 -8.35742188 73.03515625 C-8.80794922 73.82277344 -9.25847656 74.61039062 -9.72265625 75.421875 C-10.45210449 76.73961914 -10.45210449 76.73961914 -11.19628906 78.08398438 C-12.57478148 80.31255955 -13.89849546 82.13066181 -15.56152344 84.11914062 C-25.44508166 96.61137035 -24.38140307 110.68307591 -24.15020752 125.91235352 C-24.10778198 129.4259686 -24.12300544 132.93933629 -24.1328125 136.453125 C-24.14371779 143.30305167 -24.08720858 150.15062506 -24 157 C-28.29 157 -32.58 157 -37 157 C-37.5371425 148.07298617 -38.01742489 139.14750337 -38.40404892 130.21267986 C-38.58581557 126.06168833 -38.7902083 121.9146723 -39.05078125 117.76782227 C-41.16479263 83.62585328 -41.16479263 83.62585328 -28.45898438 68.78067017 C-26.39211078 66.25807965 -24.91196696 63.52880706 -23.4140625 60.640625 C-22.70588379 59.29206421 -22.70588379 59.29206421 -21.98339844 57.91625977 C-21.53512695 57.03639404 -21.08685547 56.15652832 -20.625 55.25 C-20.12516602 54.27667725 -19.62533203 53.30335449 -19.11035156 52.30053711 C-12.23179035 38.73348612 -7.39576125 24.63487652 -2.63671875 10.2109375 C-2.34498779 9.32712402 -2.05325684 8.44331055 -1.75268555 7.53271484 C-1.01077645 5.03626174 -0.46835496 2.56057047 0 0 Z " fill="#353433" transform="translate(511,159)"/>
<path d="M0 0 C2.45880344 0.11827156 4.91682335 0.24470795 7.375 0.375 C8.035 0.4059375 8.695 0.436875 9.375 0.46875 C13.81726247 0.71105523 18.21755475 1.12899136 22.6355896 1.6537323 C36.30327445 3.26948313 50.02034553 4.15106798 63.75 5.0625 C64.40772022 5.10637344 65.06544044 5.15024689 65.74309158 5.19544983 C94.84707415 7.16536248 94.84707415 7.16536248 124 8 C125.38125061 8.01129944 125.38125061 8.01129944 126.79040527 8.02282715 C134.63107036 8.08171392 142.47163867 8.10976144 150.3125 8.125 C151.40166718 8.12786011 152.49083435 8.13072021 153.61300659 8.13366699 C176.64873311 8.17631889 199.54652999 7.30391776 222.50268555 5.38037109 C225.56566471 5.12473587 228.6293955 4.88023519 231.69335938 4.63671875 C243.23247423 3.69788493 254.70786646 2.5053645 266.18251038 0.95877075 C270.82566952 0.3421836 275.30216426 -0.17287798 280 0 C277.16605436 5.63035558 274.12542944 6.70573078 268.35546875 8.7421875 C228.99457159 20.72770729 185.97254257 20.3604035 145.21606445 20.26074219 C140.48786626 20.24929055 135.75989186 20.25616411 131.03170109 20.26762581 C111.24951147 20.30829907 91.69249469 20.0770269 72 18 C70.62190699 17.87042952 69.24358578 17.74325009 67.86499023 17.61914062 C55.4804799 16.47971511 43.14968284 15.00650328 30.875 13 C29.92230225 12.84611816 28.96960449 12.69223633 27.98803711 12.53369141 C18.71425871 10.94229883 9.49348753 9.02417625 2 3 C1.34 2.01 0.68 1.02 0 0 Z " fill="#343332" transform="translate(374,901)"/>
<path d="M0 0 C0 0.66 0 1.32 0 2 C-7.62717189 2.55397164 -15.25455469 3.10497013 -22.88208008 3.65405273 C-25.46839074 3.84056784 -28.0546552 4.02772478 -30.64086914 4.21557617 C-34.39196532 4.48792101 -38.14323036 4.75783486 -41.89453125 5.02734375 C-43.02139847 5.10967758 -44.14826569 5.19201141 -45.3092804 5.27684021 C-48.87210098 5.53141323 -52.43549444 5.77019184 -56 6 C-56.69488085 6.04511656 -57.3897617 6.09023312 -58.10569954 6.13671684 C-71.20671652 6.96685637 -84.26976043 7.16316471 -97.39453125 7.16796875 C-99.5183667 7.17119873 -101.64220195 7.17456395 -103.76603699 7.17805481 C-108.20088208 7.183999 -112.63570785 7.18589997 -117.07055664 7.18530273 C-121.53121041 7.18522207 -125.99176016 7.19207591 -130.45239258 7.20581055 C-152.37889922 7.27224314 -174.27550528 7.27611268 -196.17578125 6.08984375 C-196.92844584 6.04929556 -197.68111042 6.00874737 -198.45658302 5.96697044 C-212.6912317 5.17573741 -226.85158502 3.75231052 -241 2 C-241 1.34 -241 0.68 -241 0 C-233.67291087 -1.45326757 -226.42603882 -2.47310657 -218.98046875 -3.0546875 C-217.94963669 -3.13733856 -216.91880463 -3.21998962 -215.85673523 -3.30514526 C-203.68895556 -4.23693511 -191.50746789 -4.71808899 -179.3125 -5.125 C-177.47676422 -5.18753967 -177.47676422 -5.18753967 -175.60394287 -5.25134277 C-35.86864589 -9.91615849 -35.86864589 -9.91615849 0 0 Z " fill="#333332" transform="translate(630,723)"/>
<path d="M0 0 C4.54165877 0.01135922 9.08308229 0.0046164 13.62473297 -0.00685883 C31.24123198 -0.04482339 48.82609621 0.1177823 66.41894531 1.08886719 C67.43604206 1.14070789 67.43604206 1.14070789 68.47368622 1.19359589 C93.41399705 2.50871567 93.41399705 2.50871567 98.63653564 6.8616333 C98.99269958 7.32333923 99.34886353 7.78504517 99.71582031 8.26074219 C98.12184742 9.85471508 96.40889377 9.47955022 94.19668579 9.57247925 C92.74121369 9.63441562 92.74121369 9.63441562 91.25633812 9.69760323 C90.18674166 9.73632483 89.1171452 9.77504642 88.01513672 9.81494141 C86.33783195 9.87810704 86.33783195 9.87810704 84.62664223 9.94254875 C71.73613543 10.38654473 58.84787429 10.40781092 45.9510684 10.39506769 C42.47166092 10.39246712 38.99225554 10.39490265 35.5128479 10.39645386 C29.67213457 10.39825523 23.83143403 10.39592499 17.99072266 10.39111328 C11.33284294 10.38569009 4.67499396 10.38742753 -1.982885 10.39293969 C-7.79189611 10.39754832 -13.60089821 10.3980839 -19.40991056 10.39550102 C-22.8383517 10.39397797 -26.26676763 10.39405008 -29.6952095 10.39703751 C-48.91305972 10.41011025 -68.08250953 9.99037875 -87.28417969 9.26074219 C-86.95417969 7.94074219 -86.62417969 6.62074219 -86.28417969 5.26074219 C-57.69940741 0.21637061 -28.93540584 -0.07296382 0 0 Z " fill="#333331" transform="translate(504.2841796875,406.7392578125)"/>
<path d="M0 0 C27.72 0 55.44 0 84 0 C84 4.95 84 9.9 84 15 C56.28 15 28.56 15 0 15 C0 10.05 0 5.1 0 0 Z " fill="#323130" transform="translate(470,329)"/>
<path d="M0 0 C27.39 0 54.78 0 83 0 C83 4.29 83 8.58 83 13 C55.61 13 28.22 13 0 13 C0 8.71 0 4.42 0 0 Z " fill="#373635" transform="translate(470,369)"/>
<path d="M0 0 C3.72537481 0.01086568 7.45071378 0.01042123 11.17610168 0.00999641 C60.78330502 0.01132428 60.78330502 0.01132428 72.28320312 2.19561768 C72.28320312 2.52561768 72.28320312 2.85561768 72.28320312 3.19561768 C71.37074326 3.17682556 71.37074326 3.17682556 70.43984985 3.15765381 C38.38413202 2.50170246 6.3459558 2.02411678 -25.71679688 2.19561768 C-26.18085938 3.40218018 -26.18085938 3.40218018 -26.65429688 4.63311768 C-27.71679688 7.19561768 -27.71679688 7.19561768 -28.71679688 8.19561768 C-3.63679688 8.52561768 21.44320312 8.85561768 47.28320312 9.19561768 C47.28320312 9.52561768 47.28320312 9.85561768 47.28320312 10.19561768 C33.86753177 10.21904444 20.45186547 10.23668428 7.03617764 10.24742985 C0.80316368 10.25259359 -5.42983603 10.25956896 -11.6628418 10.27105713 C-65.34526212 10.36749622 -65.34526212 10.36749622 -90.71679688 9.19561768 C-90.38679688 7.87561768 -90.05679687 6.55561768 -89.71679688 5.19561768 C-59.98195452 -0.05170745 -30.08996639 -0.11058592 0 0 Z " fill="#3B3A39" transform="translate(507.716796875,406.80438232421875)"/>
<path d="M0 0 C27.72 0 55.44 0 84 0 C84 4.62 84 9.24 84 14 C80.04 14 76.08 14 72 14 C72 13.67 72 13.34 72 13 C75.3 13 78.6 13 82 13 C82 9.37 82 5.74 82 2 C55.27 2 28.54 2 1 2 C1 5.63 1 9.26 1 13 C15.19 13 29.38 13 44 13 C44 13.33 44 13.66 44 14 C29.48 14 14.96 14 0 14 C0 9.38 0 4.76 0 0 Z " fill="#3B3B39" transform="translate(470,329)"/>
<path d="M0 0 C15.44665902 -0.35931033 30.62552157 -0.013365 46 1.4375 C46.72259003 1.50498444 47.44518005 1.57246887 48.18966675 1.64199829 C60.98982043 2.85485174 60.98982043 2.85485174 65 4 C65 4.66 65 5.32 65 6 C37.05485809 8.38776806 37.05485809 8.38776806 24 8 C24 6.35 24 4.7 24 3 C19.10845663 1.79483714 14.19724878 1.66538566 9.1875 1.4375 C8.30384766 1.39431641 7.42019531 1.35113281 6.50976562 1.30664062 C4.34000377 1.20108464 2.1700209 1.10008929 0 1 C0 0.67 0 0.34 0 0 Z " fill="#393938" transform="translate(565,719)"/>
<path d="M0 0 C-0.66 1.65 -1.32 3.3 -2 5 C-3.134375 4.979375 -4.26875 4.95875 -5.4375 4.9375 C-8.81575674 4.58422523 -8.81575674 4.58422523 -10 6 C-4.06 6.33 1.88 6.66 8 7 C8 7.33 8 7.66 8 8 C-8.18491598 8.50344785 -23.94285499 6.96277195 -40 5 C-40 4.34 -40 3.68 -40 3 C-26.62764145 0.28867533 -13.5897079 -0.14491395 0 0 Z " fill="#353534" transform="translate(429,720)"/>
<path d="M0 0 C0.66 0.99 1.32 1.98 2 3 C-4.93 3 -11.86 3 -19 3 C-18.67 4.98 -18.34 6.96 -18 9 C-11.43686385 10.19329748 -5.96308479 10 1 10 C1 17.92 1 25.84 1 34 C-0.65 34 -2.3 34 -4 34 C-2.02 33.505 -2.02 33.505 0 33 C0 26.07 0 19.14 0 12 C-1.65 12.33 -3.3 12.66 -5 13 C-7.78075485 13.068089 -10.53364739 13.09478336 -13.3125 13.0625 C-14.05306641 13.05798828 -14.79363281 13.05347656 -15.55664062 13.04882812 C-17.37112899 13.03712175 -19.18557534 13.01918898 -21 13 C-22.03159626 9.90521121 -21.97482862 8.47368607 -21.5625 5.3125 C-21.46066406 4.50425781 -21.35882812 3.69601562 -21.25390625 2.86328125 C-21.17011719 2.24839844 -21.08632813 1.63351562 -21 1 C-17.5430244 0.74582371 -14.08471174 0.52592378 -10.625 0.3125 C-9.64015625 0.23966797 -8.6553125 0.16683594 -7.640625 0.09179688 C-6.22910156 0.00961914 -6.22910156 0.00961914 -4.7890625 -0.07421875 C-3.91975098 -0.13182373 -3.05043945 -0.18942871 -2.15478516 -0.2487793 C-1.44370605 -0.16668213 -0.73262695 -0.08458496 0 0 Z " fill="#1A1A18" transform="translate(607,334)"/>
<path d="M0 0 C0 4.73192751 -3.81061652 7.24608546 -7.00195312 10.44140625 C-9.92137381 13.47149779 -11.94723148 15.6729817 -12 20 C-11.34 20.66 -10.68 21.32 -10 22 C-10.33 22.33 -10.66 22.66 -11 23 C-11.15113358 24.37948033 -11.23786832 25.76611875 -11.29711914 27.15258789 C-11.33708511 28.03342545 -11.37705109 28.914263 -11.41822815 29.8217926 C-11.47610756 31.25772011 -11.47610756 31.25772011 -11.53515625 32.72265625 C-11.57813339 33.69786728 -11.62111053 34.67307831 -11.66539001 35.67784119 C-11.80221236 38.80588628 -11.93242233 41.93416786 -12.0625 45.0625 C-12.1538629 47.17775316 -12.24565407 49.29298788 -12.33789062 51.40820312 C-12.56357169 56.6052645 -12.78381834 61.80253529 -13 67 C-13.33 67 -13.66 67 -14 67 C-14.20348698 59.74137484 -14.34320666 52.48348939 -14.43945312 45.22265625 C-14.4795893 42.75492875 -14.53411269 40.28739036 -14.60351562 37.8203125 C-14.70099589 34.26514992 -14.7460271 30.71250894 -14.78125 27.15625 C-14.82254028 26.06010376 -14.86383057 24.96395752 -14.90637207 23.83459473 C-14.90893285 19.42510434 -14.90696997 16.26773931 -12.28881836 12.6081543 C-10.27914719 10.59940935 -8.18486002 8.81328782 -6 7 C-3.92192895 4.72439524 -1.97344915 2.36813898 0 0 Z " fill="#3D3C3B" transform="translate(479,476)"/>
<path d="M0 0 C0.66 0 1.32 0 2 0 C6.51211483 17.83789397 7.14836202 33.73287376 6 52 C5.67 52 5.34 52 5 52 C4.92483154 50.71367676 4.92483154 50.71367676 4.84814453 49.40136719 C4.65751062 46.21030243 4.45906886 43.01984525 4.25537109 39.82958984 C4.16891803 38.45055011 4.08555083 37.07131322 4.00537109 35.69189453 C3.88937029 33.70555974 3.76123249 31.71994555 3.6328125 29.734375 C3.52283936 27.94338379 3.52283936 27.94338379 3.41064453 26.11621094 C3.02750417 23.20871773 2.41645653 21.5111369 1 19 C0.83984375 16.73828125 0.83984375 16.73828125 0.9375 14.3125 C1.04605849 9.44184241 0.62319809 4.82978521 0 0 Z " fill="#1A1918" transform="translate(431,466)"/>
<path d="M0 0 C0 0.33 0 0.66 0 1 C-6.27 1.66 -12.54 2.32 -19 3 C-19 3.99 -19 4.98 -19 6 C-26.09727428 6.10808032 -32.96094956 5.93854006 -40 5 C-40 4.34 -40 3.68 -40 3 C-26.62764145 0.28867533 -13.5897079 -0.14491395 0 0 Z " fill="#3C3C3B" transform="translate(429,720)"/>
<path d="M0 0 C0.33 0 0.66 0 1 0 C2.3666558 8.57864665 1.80720102 16.49601571 0.6875 25.0625 C0.55754639 26.0738501 0.42759277 27.0852002 0.29370117 28.12719727 C-0.31768613 32.49566405 -0.82604175 36.11114887 -3 40 C-5.30143236 36.54785147 -5.13833854 35.76520676 -4.625 31.8125 C-4.51414062 30.91144531 -4.40328125 30.01039063 -4.2890625 29.08203125 C-4.19367188 28.39496094 -4.09828125 27.70789063 -4 27 C-3.67 27 -3.34 27 -3 27 C-2.01 18.09 -1.02 9.18 0 0 Z " fill="#171614" transform="translate(389,175)"/>
<path d="M0 0 C0.33 0 0.66 0 1 0 C1.85675385 5.16720401 2.13467581 10.10780622 2.09765625 15.33984375 C2.09553383 16.49027916 2.09553383 16.49027916 2.09336853 17.66395569 C2.08781766 20.0885119 2.07527463 22.51297219 2.0625 24.9375 C2.05747864 26.59179553 2.05291685 28.24609253 2.04882812 29.90039062 C2.03786438 33.93363012 2.02063424 37.96679886 2 42 C1.67 42 1.34 42 1 42 C-1.24144171 32.86302876 -1.05913367 24.11306166 -0.625 14.8125 C-0.56659904 13.36918508 -0.50929999 11.92582514 -0.453125 10.48242188 C-0.31475607 6.98767155 -0.16157977 3.49376331 0 0 Z " fill="#060505" transform="translate(437,502)"/>
<path d="M0 0 C0 0.66 0 1.32 0 2 C-5.43505813 3.81168604 -11.313143 3.18467353 -17 3.1875 C-18.94519531 3.20586914 -18.94519531 3.20586914 -20.9296875 3.22460938 C-22.16976562 3.22654297 -23.40984375 3.22847656 -24.6875 3.23046875 C-25.82574219 3.23457764 -26.96398437 3.23868652 -28.13671875 3.24291992 C-31 3 -31 3 -34 1 C-29.83343432 0.83074452 -25.6667337 0.66506333 -21.5 0.5 C-19.74042969 0.42845703 -19.74042969 0.42845703 -17.9453125 0.35546875 C-11.95816782 0.12001924 -5.99175815 -0.05932434 0 0 Z " fill="#090908" transform="translate(576,978)"/>
<path d="M0 0 C0.33 0.66 0.66 1.32 1 2 C1.66 2 2.32 2 3 2 C3.73040172 4.68316995 4.43437726 7.36907133 5.125 10.0625 C5.33253906 10.81466797 5.54007812 11.56683594 5.75390625 12.34179688 C7.08304429 17.63543285 6.94269617 20.88513911 5 26 C3.69951159 23.39902318 3.43528578 20.86044938 3 18 C2.34 18 1.68 18 1 18 C1.20625 17.071875 1.4125 16.14375 1.625 15.1875 C2.40390737 10.00189748 1.10708579 5.05965654 0 0 Z " fill="#1A1917" transform="translate(408,310)"/>
<path d="M0 0 C0.33 0 0.66 0 1 0 C1.93828835 5.54036928 2.15160485 10.88637609 2.125 16.5 C2.12886719 17.31597656 2.13273437 18.13195312 2.13671875 18.97265625 C2.12904474 23.75356418 1.79841094 28.28557351 1 33 C0.67 33 0.34 33 0 33 C-1.06732813 21.86694656 -0.82950855 11.1409379 0 0 Z " fill="#040404" transform="translate(442,262)"/>
<path d="M0 0 C0.33 0 0.66 0 1 0 C0.34 10.56 -0.32 21.12 -1 32 C-1.33 32 -1.66 32 -2 32 C-2.19654959 29.0003508 -2.38246106 26.00064899 -2.5625 23 C-2.61857422 22.16082031 -2.67464844 21.32164062 -2.73242188 20.45703125 C-3.14783567 13.31191406 -3.10136999 6.61625599 0 0 Z " fill="#1D1C1A" transform="translate(588,482)"/>
<path d="M0 0 C2.63441414 3.46992412 5.17672478 7.00256512 7.6875 10.5625 C8.10322266 11.13935547 8.51894531 11.71621094 8.94726562 12.31054688 C12 16.65655788 12 16.65655788 12 20 C3.55353075 9.62642369 3.55353075 9.62642369 0 4 C-1.65 5.98 -3.3 7.96 -5 10 C-5 6.60406522 -4.47834052 5.93380119 -2.5 3.3125 C-2.0359375 2.68988281 -1.571875 2.06726563 -1.09375 1.42578125 C-0.7328125 0.95527344 -0.371875 0.48476563 0 0 Z " fill="#060605" transform="translate(511,460)"/>
<path d="M0 0 C1.95304519 2.92956779 2.37853048 4.27118291 2.9375 7.625 C3.85191396 12.59941194 5.27926145 17.25076161 7 22 C4 21 4 21 2.8671875 18.890625 C2.53976562 18.01921875 2.21234375 17.1478125 1.875 16.25 C1.54242188 15.38890625 1.20984375 14.5278125 0.8671875 13.640625 C-0.77025865 8.6545277 -1.08247177 5.17180956 0 0 Z " fill="#151412" transform="translate(422,254)"/>
<path d="M0 0 C0.33 0 0.66 0 1 0 C1.97758625 5.45275886 1.97344509 10.42516763 1.5625 15.9375 C1.48418945 17.10635742 1.48418945 17.10635742 1.40429688 18.29882812 C1.27601936 20.19966772 1.13892679 22.09990904 1 24 C0.34 24 -0.32 24 -1 24 C-1.02909763 20.75001888 -1.04683161 17.50007143 -1.0625 14.25 C-1.07087891 13.32960938 -1.07925781 12.40921875 -1.08789062 11.4609375 C-1.09111328 10.57148437 -1.09433594 9.68203125 -1.09765625 8.765625 C-1.10289307 7.94868164 -1.10812988 7.13173828 -1.11352539 6.29003906 C-1.00299021 4.06031865 -0.62055567 2.13866245 0 0 Z " fill="#070706" transform="translate(524,48)"/>
<path d="M0 0 C2.70860124 0.14176421 5.41680752 0.28828216 8.125 0.4375 C9.26582031 0.49647461 9.26582031 0.49647461 10.4296875 0.55664062 C14.68509203 0.79509002 18.80370826 1.20230237 23 2 C23 2.33 23 2.66 23 3 C16.565 3.495 16.565 3.495 10 4 C10 3.67 10 3.34 10 3 C8.35 3 6.7 3 5 3 C5.66 3.66 6.32 4.32 7 5 C4.13873816 4.60534319 3.20860296 4.26087817 1.36328125 1.953125 C0.91339844 1.30859375 0.46351563 0.6640625 0 0 Z " fill="#3E3E3D" transform="translate(374,901)"/>
<path d="M0 0 C0.06058594 1.00160156 0.12117187 2.00320313 0.18359375 3.03515625 C0.26808405 4.37761331 0.35272768 5.72006072 0.4375 7.0625 C0.51871094 8.37347656 0.59992187 9.68445313 0.68359375 11.03515625 C0.97898249 14.73663238 1.43265388 18.33370448 2 22 C-1.5335416 18.4664584 -1.89052783 13.27154756 -2.125 8.40625 C-2.125 6.27042687 -2.06776977 4.13474769 -2 2 C-4.31 2 -6.62 2 -9 2 C-9 1.67 -9 1.34 -9 1 C-5.94152152 0.45627049 -3.11227195 0 0 0 Z " fill="#3E3E3C" transform="translate(583,764)"/>
<path d="M0 0 C0.33 0 0.66 0 1 0 C1.33 4.62 1.66 9.24 2 14 C1.34 14 0.68 14 0 14 C0 15.65 0 17.3 0 19 C-1.546875 17.4140625 -1.546875 17.4140625 -3 15 C-2.890625 11.8359375 -2.890625 11.8359375 -2.25 8.375 C-2.04890625 7.22773438 -1.8478125 6.08046875 -1.640625 4.8984375 C-1 2 -1 2 0 0 Z " fill="#1C1C1A" transform="translate(632,147)"/>
<path d="M0 0 C1.24156966 1.1955856 2.46870549 2.40620549 3.6875 3.625 C1.0475 3.625 -1.5925 3.625 -4.3125 3.625 C-4.3125 2.965 -4.3125 2.305 -4.3125 1.625 C-8.6025 1.295 -12.8925 0.965 -17.3125 0.625 C-17.3125 0.295 -17.3125 -0.035 -17.3125 -0.375 C-3.81637097 -2.26919355 -3.81637097 -2.26919355 0 0 Z " fill="#181715" transform="translate(436.3125,977.375)"/>
<path d="M0 0 C2.54194161 0.14188985 5.08347993 0.28839155 7.625 0.4375 C8.69427734 0.49647461 8.69427734 0.49647461 9.78515625 0.55664062 C13.91803682 0.80309681 17.92269024 1.23470053 22 2 C22 2.33 22 2.66 22 3 C19.45884191 3.25049421 16.91944416 3.47583433 14.375 3.6875 C13.66214844 3.76033203 12.94929688 3.83316406 12.21484375 3.90820312 C7.29420337 4.29192279 4.33311615 3.65864697 0 1 C0 0.67 0 0.34 0 0 Z " fill="#080907" transform="translate(386,972)"/>
<path d="M0 0 C1.32 0 2.64 0 4 0 C4 2.64 4 5.28 4 8 C2.35 8.33 0.7 8.66 -1 9 C-2.5625 7.1875 -2.5625 7.1875 -4 5 C-3.67 4.01 -3.34 3.02 -3 2 C-2.01 2.99 -1.02 3.98 0 5 C0 3.35 0 1.7 0 0 Z " fill="#1A1A18" transform="translate(440,288)"/>
<path d="M0 0 C0.66 0.99 1.32 1.98 2 3 C1.3203125 5.48046875 1.3203125 5.48046875 0.125 8.1875 C-0.45894531 9.53908203 -0.45894531 9.53908203 -1.0546875 10.91796875 C-1.36664063 11.60503906 -1.67859375 12.29210937 -2 13 C-2.99 12.67 -3.98 12.34 -5 12 C-3.68938409 7.76570244 -2.05643741 3.92592596 0 0 Z " fill="#181816" transform="translate(405,682)"/>
<path d="M0 0 C2.96659857 3.55991828 5.381348 7.65222543 7 12 C6.67 12.66 6.34 13.32 6 14 C4.02 11.03 2.04 8.06 0 5 C-1.485 7.475 -1.485 7.475 -3 10 C-3.33 9.34 -3.66 8.68 -4 8 C-3.22265625 6.0546875 -3.22265625 6.0546875 -2.0625 3.875 C-1.49208984 2.78832031 -1.49208984 2.78832031 -0.91015625 1.6796875 C-0.60980469 1.12539062 -0.30945313 0.57109375 0 0 Z " fill="#070706" transform="translate(511,215)"/>
<path d="M0 0 C0.66 0 1.32 0 2 0 C3.10228696 4.40914783 3.07654536 8.48382401 3 13 C3.66 13 4.32 13 5 13 C5.33 14.32 5.66 15.64 6 17 C4.68 17.33 3.36 17.66 2 18 C0.96840374 14.90521121 1.02517138 13.47368607 1.4375 10.3125 C1.53933594 9.50425781 1.64117187 8.69601562 1.74609375 7.86328125 C1.82988281 7.24839844 1.91367187 6.63351562 2 6 C1.34 5.67 0.68 5.34 0 5 C0 3.35 0 1.7 0 0 Z " fill="#1F1F1D" transform="translate(305,936)"/>
<path d="M0 0 C0.66 0 1.32 0 2 0 C2.36552803 1.41377782 2.71695495 2.83120576 3.0625 4.25 C3.25972656 5.03890625 3.45695313 5.8278125 3.66015625 6.640625 C4.01497267 9.10394822 3.76877544 10.65604132 3 13 C2.67 11.02 2.34 9.04 2 7 C1.34 7 0.68 7 0 7 C-0.33 8.65 -0.66 10.3 -1 12 C-2.09898702 8.70303895 -1.87124444 7.59505097 -1.0625 4.3125 C-0.86785156 3.50425781 -0.67320312 2.69601563 -0.47265625 1.86328125 C-0.31667969 1.24839844 -0.16070312 0.63351563 0 0 Z " fill="#41403E" transform="translate(511,159)"/>
<path d="M0 0 C3.18957907 1.06319302 4.08378632 1.85710731 6.25 4.3125 C6.79140625 4.90675781 7.3328125 5.50101563 7.890625 6.11328125 C9 8 9 8 8.671875 10.23046875 C8.45015625 10.81441406 8.2284375 11.39835938 8 12 C7.1028125 10.7934375 7.1028125 10.7934375 6.1875 9.5625 C4.19052724 6.77672016 4.19052724 6.77672016 1 6 C0.67 4.02 0.34 2.04 0 0 Z " fill="#1A1B19" transform="translate(380,242)"/>
<path d="M0 0 C0 0.33 0 0.66 0 1 C-5.48675196 2.86783046 -10.22192976 3.2358396 -16 3 C-10.48004794 -1.53424633 -6.8104158 -1.02156237 0 0 Z " fill="#171815" transform="translate(662,970)"/>
<path d="M0 0 C0.33 0 0.66 0 1 0 C2.33257403 10.55808656 2.33257403 10.55808656 1 15 C0.34 15 -0.32 15 -1 15 C-1.02685412 12.68756208 -1.04632841 10.3750373 -1.0625 8.0625 C-1.07410156 6.77472656 -1.08570313 5.48695313 -1.09765625 4.16015625 C-1 1 -1 1 0 0 Z " fill="#191816" transform="translate(433,583)"/>
<path d="M0 0 C0.33 0 0.66 0 1 0 C1.33 6.6 1.66 13.2 2 20 C1.67 20 1.34 20 1 20 C-1.657623 13.27777713 -0.78767638 7.07844318 0 0 Z " fill="#1D1C1A" transform="translate(587,556)"/>
<path d="M0 0 C1.69433918 3.0469629 2.49467112 5.82821466 3.125 9.25 C3.29257812 10.14203125 3.46015625 11.0340625 3.6328125 11.953125 C3.75398438 12.62859375 3.87515625 13.3040625 4 14 C3.67 13.34 3.34 12.68 3 12 C2.34 12 1.68 12 1 12 C-1.22923777 7.67265609 -0.92470553 4.71599818 0 0 Z " fill="#1D1C1A" transform="translate(397,177)"/>
<path d="M0 0 C0.33 0.99 0.66 1.98 1 3 C1.66 3 2.32 3 3 3 C4.125 8.75 4.125 8.75 3 11 C2.01 11 1.02 11 0 11 C0 7.37 0 3.74 0 0 Z " fill="#1A1A18" transform="translate(624,176)"/>
<path d="M0 0 C0.33 0.66 0.66 1.32 1 2 C0.34 2 -0.32 2 -1 2 C-1.226875 2.556875 -1.45375 3.11375 -1.6875 3.6875 C-3.35896766 6.63246684 -5.55276352 8.68156544 -8 11 C-7.49268371 6.60325886 -4.88085945 4.16191891 -2 1 C-1.34 0.67 -0.68 0.34 0 0 Z " fill="#0B0B0A" transform="translate(375,774)"/>
<path d="M0 0 C0 1.98 0 3.96 0 6 C-0.66 6 -1.32 6 -2 6 C-2 6.66 -2 7.32 -2 8 C-1.01 8.33 -0.02 8.66 1 9 C-0.32 9 -1.64 9 -3 9 C-3.33 6.36 -3.66 3.72 -4 1 C-1 0 -1 0 0 0 Z " fill="#1F201D" transform="translate(418,359)"/>
<path d="M0 0 C2.64 0.33 5.28 0.66 8 1 C8 1.33 8 1.66 8 2 C10.31 2.33 12.62 2.66 15 3 C15 3.33 15 3.66 15 4 C13.06318839 4.08107583 11.1254066 4.13922475 9.1875 4.1875 C8.10855469 4.22230469 7.02960938 4.25710937 5.91796875 4.29296875 C3 4 3 4 1.11328125 2.55078125 C0 1 0 1 0 0 Z " fill="#1D1C1A" transform="translate(477,70)"/>
<path d="M0 0 C0 3.96130371 -1.34877125 4.82914401 -4 7.6875 C-4.7425 8.49574219 -5.485 9.30398438 -6.25 10.13671875 C-6.8275 10.75160156 -7.405 11.36648438 -8 12 C-8.66 11.67 -9.32 11.34 -10 11 C-8.89718873 9.72799029 -7.79269231 8.45744147 -6.6875 7.1875 C-6.07261719 6.47980469 -5.45773437 5.77210938 -4.82421875 5.04296875 C-3.26665665 3.29863261 -1.67341125 1.63221959 0 0 Z " fill="#080707" transform="translate(493,484)"/>
<path d="M0 0 C0.33 0 0.66 0 1 0 C1 1.98 1 3.96 1 6 C1.99 6.33 2.98 6.66 4 7 C3.34 7 2.68 7 2 7 C2.309375 7.928125 2.309375 7.928125 2.625 8.875 C2.74875 9.57625 2.8725 10.2775 3 11 C2.34 11.66 1.68 12.32 1 13 C-1.48887372 8.31506124 -0.85687773 5.0555786 0 0 Z " fill="#21211E" transform="translate(641,235)"/>
<path d="M0 0 C0.66 0.33 1.32 0.66 2 1 C3.37634409 7.99641577 3.37634409 7.99641577 2.0625 11.5 C1.711875 11.995 1.36125 12.49 1 13 C-1.30143236 9.54785147 -1.13833854 8.76520676 -0.625 4.8125 C-0.51414062 3.91144531 -0.40328125 3.01039063 -0.2890625 2.08203125 C-0.19367188 1.39496094 -0.09828125 0.70789063 0 0 Z " fill="#262522" transform="translate(385,202)"/>
<path d="M0 0 C0.99 0.33 1.98 0.66 3 1 C3 1.66 3 2.32 3 3 C3.66 3 4.32 3 5 3 C5 3.99 5 4.98 5 6 C2.03 6 -0.94 6 -4 6 C-4 5.67 -4 5.34 -4 5 C-2.35 4.67 -0.7 4.34 1 4 C0.67 2.68 0.34 1.36 0 0 Z " fill="#3A3A39" transform="translate(577,844)"/>
<path d="M0 0 C0.33 0 0.66 0 1 0 C1.66 4.62 2.32 9.24 3 14 C-0.39495798 10.60504202 -0.39495798 10.60504202 -0.75 7 C-0.82734375 6.319375 -0.9046875 5.63875 -0.984375 4.9375 C-1 3 -1 3 0 0 Z " fill="#1C1C19" transform="translate(592,597)"/>
<path d="M0 0 C0 3.63 0 7.26 0 11 C-0.33 9.68 -0.66 8.36 -1 7 C-1.66 7 -2.32 7 -3 7 C-3.33 5.02 -3.66 3.04 -4 1 C-1 0 -1 0 0 0 Z " fill="#2E2E2A" transform="translate(435,369)"/>
<path d="M0 0 C4.455 0.99 4.455 0.99 9 2 C9 2.33 9 2.66 9 3 C6.03 3.66 3.06 4.32 0 5 C0 3.35 0 1.7 0 0 Z " fill="#191918" transform="translate(466,67)"/>
<path d="M0 0 C0.66 0.66 1.32 1.32 2 2 C1.01 4.97 0.02 7.94 -1 11 C-1.33 11 -1.66 11 -2 11 C-1.85957123 9.35369672 -1.71250671 7.70795821 -1.5625 6.0625 C-1.48128906 5.14597656 -1.40007812 4.22945312 -1.31640625 3.28515625 C-1 1 -1 1 0 0 Z " fill="#1A1917" transform="translate(317,844)"/>
<path d="M0 0 C0.66 0.99 1.32 1.98 2 3 C1.01 3.33 0.02 3.66 -1 4 C-1 4.99 -1 5.98 -1 7 C-0.34 7.33 0.32 7.66 1 8 C0.34 8.66 -0.32 9.32 -1 10 C-1.66 7.69 -2.32 5.38 -3 3 C-2.01 2.01 -1.02 1.02 0 0 Z " fill="#1F1F1C" transform="translate(369,720)"/>
<path d="M0 0 C1.2065625 0.0309375 1.2065625 0.0309375 2.4375 0.0625 C1.4475 0.3925 0.4575 0.7225 -0.5625 1.0625 C-0.2325 2.0525 0.0975 3.0425 0.4375 4.0625 C-0.5525 5.5475 -0.5525 5.5475 -1.5625 7.0625 C-2.2225 7.0625 -2.8825 7.0625 -3.5625 7.0625 C-3.60504356 5.06295254 -3.60330783 3.06208364 -3.5625 1.0625 C-2.5625 0.0625 -2.5625 0.0625 0 0 Z " fill="#1C1B19" transform="translate(417.5625,344.9375)"/>
<path d="M0 0 C0.66 0.99 1.32 1.98 2 3 C1.01 3.66 0.02 4.32 -1 5 C-1 5.99 -1 6.98 -1 8 C-2.32 8.33 -3.64 8.66 -5 9 C-3.7508258 5.54074837 -2.32472205 2.85306797 0 0 Z " fill="#1A1A18" transform="translate(480,170)"/>
<path d="M0 0 C0.66 0.66 1.32 1.32 2 2 C-4.93 1.505 -4.93 1.505 -12 1 C-12 0.67 -12 0.34 -12 0 C-10.56359829 -0.19573608 -9.12580496 -0.38127816 -7.6875 -0.5625 C-6.88699219 -0.66691406 -6.08648437 -0.77132812 -5.26171875 -0.87890625 C-3 -1 -3 -1 0 0 Z " fill="#1D1D1A" transform="translate(411,975)"/>
<path d="M0 0 C0.78890625 0.12761719 1.5778125 0.25523437 2.390625 0.38671875 C3.18984375 0.50660156 3.9890625 0.62648438 4.8125 0.75 C5.41578125 0.85699219 6.0190625 0.96398437 6.640625 1.07421875 C6.640625 1.40421875 6.640625 1.73421875 6.640625 2.07421875 C0.205625 2.56921875 0.205625 2.56921875 -6.359375 3.07421875 C-2.359375 0.07421875 -2.359375 0.07421875 0 0 Z " fill="#1A1A18" transform="translate(637.359375,971.92578125)"/>
<path d="M0 0 C0 0.66 0 1.32 0 2 C-2.31 2.33 -4.62 2.66 -7 3 C-7.33 2.01 -7.66 1.02 -8 0 C-4.94736336 -0.98120464 -3.05263664 -0.98120464 0 0 Z " fill="#1C1C19" transform="translate(367,969)"/>
<path d="M0 0 C0.33 0 0.66 0 1 0 C0.14285714 8.57142857 0.14285714 8.57142857 -2 12 C-2.28571429 3.42857143 -2.28571429 3.42857143 0 0 Z " fill="#0B0A0A" transform="translate(429,614)"/>
<path d="M0 0 C0.33 0 0.66 0 1 0 C1.33 3.96 1.66 7.92 2 12 C1.67 11.01 1.34 10.02 1 9 C0.34 9 -0.32 9 -1 9 C-0.67 6.03 -0.34 3.06 0 0 Z " fill="#2A2A27" transform="translate(392,146)"/>
<path d="M0 0 C0.66 0.33 1.32 0.66 2 1 C2 2.98 2 4.96 2 7 C1.01 7 0.02 7 -1 7 C-1.33 6.34 -1.66 5.68 -2 5 C-1.0625 2.375 -1.0625 2.375 0 0 Z " fill="#181816" transform="translate(412,666)"/>
<path d="M0 0 C0.33 0.66 0.66 1.32 1 2 C1.99 2.33 2.98 2.66 4 3 C4.625 5.375 4.625 5.375 5 8 C4.34 8.66 3.68 9.32 3 10 C0 3.375 0 3.375 0 0 Z " fill="#1B1A18" transform="translate(434,228)"/>
<path d="M0 0 C3.26954202 0.56371414 4.82575883 1.49962266 7 4 C6.67 4.99 6.34 5.98 6 7 C4.62437146 5.71034824 3.29233607 4.37310707 2 3 C2 2.34 2 1.68 2 1 C1.34 0.67 0.68 0.34 0 0 Z " fill="#181716" transform="translate(407,440)"/>
<path d="M0 0 C-0.6875 1.9375 -0.6875 1.9375 -2 4 C-4.625 4.75 -4.625 4.75 -7 5 C-6.67 3.68 -6.34 2.36 -6 1 C-3.92446352 0.4465236 -2.15634036 0 0 0 Z " fill="#191816" transform="translate(420,391)"/>
<path d="M0 0 C2.4294516 3.6441774 2.16179575 5.71241272 2 10 C1.01 10.495 1.01 10.495 0 11 C-1.05404945 7.01803543 -0.84098656 4.01804691 0 0 Z " fill="#1F1F1D" transform="translate(422,254)"/>
<path d="M0 0 C0.33 0 0.66 0 1 0 C1.33 3.3 1.66 6.6 2 10 C1.34 10 0.68 10 0 10 C-0.74926071 6.33694766 -1.2380014 3.57644848 0 0 Z " fill="#1C1D1A" transform="translate(395,167)"/>
<path d="M0 0 C3.3 0 6.6 0 10 0 C10 0.33 10 0.66 10 1 C6.7 1 3.4 1 0 1 C0 0.67 0 0.34 0 0 Z " fill="#1C1B18" transform="translate(489,983)"/>
<path d="M0 0 C0.33 0 0.66 0 1 0 C1 2.31 1 4.62 1 7 C0.67 7 0.34 7 0 7 C-0.38133299 5.0085944 -0.71325582 3.00720923 -1 1 C-0.67 0.67 -0.34 0.34 0 0 Z " fill="#292926" transform="translate(305,943)"/>
<path d="M0 0 C1.98 0 3.96 0 6 0 C6 0.33 6 0.66 6 1 C4.02 1 2.04 1 0 1 C0 0.67 0 0.34 0 0 Z " fill="#201F1D" transform="translate(594,980)"/>
<path d="M0 0 C1.32 0.33 2.64 0.66 4 1 C2.68 1.33 1.36 1.66 0 2 C0 1.34 0 0.68 0 0 Z " fill="#24231F" transform="translate(377,974)"/>
<path d="M0 0 C1.65 0 3.3 0 5 0 C5 0.33 5 0.66 5 1 C3.35 1 1.7 1 0 1 C0 0.67 0 0.34 0 0 Z " fill="#1B1917" transform="translate(500,983)"/>
<path d="M0 0 C1.65 0 3.3 0 5 0 C5 0.33 5 0.66 5 1 C3.35 1 1.7 1 0 1 C0 0.67 0 0.34 0 0 Z " fill="#1D1C19" transform="translate(464,982)"/>
<path d="M0 0 C1.65 0 3.3 0 5 0 C5 0.33 5 0.66 5 1 C3.35 1 1.7 1 0 1 C0 0.67 0 0.34 0 0 Z " fill="#1D1C1A" transform="translate(447,981)"/>
<path d="M0 0 C1.65 0 3.3 0 5 0 C5 0.33 5 0.66 5 1 C3.35 1 1.7 1 0 1 C0 0.67 0 0.34 0 0 Z " fill="#272522" transform="translate(681,967)"/>
<path d="M0 0 C0.99 0.33 1.98 0.66 3 1 C2.34 1.66 1.68 2.32 1 3 C0.67 2.01 0.34 1.02 0 0 Z " fill="#2E2D2A" transform="translate(416,451)"/>
<path d="M0 0 C0.99 0.33 1.98 0.66 3 1 C2.01 1.33 1.02 1.66 0 2 C0 1.34 0 0.68 0 0 Z " fill="#1C1B19" transform="translate(577,981)"/>
<path d="M0 0 C4 1 4 1 4 1 Z " fill="#1F1F1C" transform="translate(421,979)"/>
<path d="M0 0 C4 1 4 1 4 1 Z " fill="#24221F" transform="translate(385,975)"/>
<path d="M0 0 C0.99 0.33 1.98 0.66 3 1 C2.01 1.33 1.02 1.66 0 2 C0 1.34 0 0.68 0 0 Z " fill="#242521" transform="translate(662,971)"/>
<path d="M0 0 C1 4 1 4 1 4 Z " fill="#2E2E2A" transform="translate(313,850)"/>
<path d="M0 0 C1 4 1 4 1 4 Z " fill="#2F2E2B" transform="translate(432,576)"/>
<path d="M0 0 C1 4 1 4 1 4 Z " fill="#32312D" transform="translate(433,490)"/>
<path d="M0 0 C0.99 0.495 0.99 0.495 2 1 C1.67 1.66 1.34 2.32 1 3 C0.67 2.01 0.34 1.02 0 0 Z " fill="#2E2D2A" transform="translate(426,459)"/>
<path d="M0 0 C1 4 1 4 1 4 Z " fill="#2C2C29" transform="translate(496,121)"/>
<path d="M0 0 C3 1 3 1 3 1 Z " fill="#1E1D1B" transform="translate(583,981)"/>
<path d="M0 0 C3 1 3 1 3 1 Z " fill="#201F1C" transform="translate(605,979)"/>
<path d="M0 0 C0.99 0.495 0.99 0.495 2 1 C1.01 1.495 1.01 1.495 0 2 C0 1.34 0 0.68 0 0 Z " fill="#1F1E1C" transform="translate(416,978)"/>
<path d="M0 0 C3 1 3 1 3 1 Z " fill="#242420" transform="translate(365,972)"/>
<path d="M0 0 C0.99 0.495 0.99 0.495 2 1 C1.01 1.495 1.01 1.495 0 2 C0 1.34 0 0.68 0 0 Z " fill="#292824" transform="translate(353,795)"/>
<path d="M0 0 C3 1 3 1 3 1 Z " fill="#2A2A25" transform="translate(645,747)"/>
<path d="M0 0 C0.99 0.495 0.99 0.495 2 1 C1.01 1.495 1.01 1.495 0 2 C0 1.34 0 0.68 0 0 Z " fill="#2E2D2B" transform="translate(373,713)"/>
<path d="M0 0 C0.33 0.66 0.66 1.32 1 2 C0.34 1.67 -0.32 1.34 -1 1 C-0.67 0.67 -0.34 0.34 0 0 Z " fill="#2D2E2A" transform="translate(434,562)"/>
<path d="" fill="#302F2B" transform="translate(0,0)"/>
<path d="" fill="#30302D" transform="translate(0,0)"/>
<path d="M0 0 C0.66 0 1.32 0 2 0 C1.67 0.66 1.34 1.32 1 2 C0.67 1.34 0.34 0.68 0 0 Z " fill="#2F2F2B" transform="translate(403,302)"/>
<path d="" fill="#2F2F2B" transform="translate(0,0)"/>
<path d="" fill="#282724" transform="translate(0,0)"/>
<path d="" fill="#2B2926" transform="translate(0,0)"/>
<path d="M0 0 C0.66 0.66 1.32 1.32 2 2 C1.34 2 0.68 2 0 2 C0 1.34 0 0.68 0 0 Z " fill="#34342F" transform="translate(384,250)"/>
<path d="" fill="#353430" transform="translate(0,0)"/>
<path d="" fill="#302F2C" transform="translate(0,0)"/>
<path d="M0 0 C3 1 3 1 3 1 Z " fill="#2D2B27" transform="translate(536,100)"/>
<path d="M0 0 C3 1 3 1 3 1 Z " fill="#2E2D28" transform="translate(529,100)"/>
<path d="M0 0 C3 1 3 1 3 1 Z " fill="#2E2D29" transform="translate(492,100)"/>
<path d="M0 0 C2 1 2 1 2 1 Z " fill="#1E1D1B" transform="translate(540,983)"/>
<path d="M0 0 C2 1 2 1 2 1 Z " fill="#1E1E1A" transform="translate(571,982)"/>
<path d="M0 0 C2 1 2 1 2 1 Z " fill="#1D1C19" transform="translate(568,982)"/>
<path d="M0 0 C2 1 2 1 2 1 Z " fill="#1E1E1B" transform="translate(564,982)"/>
<path d="M0 0 C2 1 2 1 2 1 Z " fill="#1F1E1B" transform="translate(560,982)"/>
<path d="M0 0 C2 1 2 1 2 1 Z " fill="#1D1D1B" transform="translate(555,982)"/>
<path d="M0 0 C2 1 2 1 2 1 Z " fill="#1C1B17" transform="translate(475,982)"/>
<path d="M0 0 C2 1 2 1 2 1 Z " fill="#201F1D" transform="translate(418,979)"/>
<path d="M0 0 C2 1 2 1 2 1 Z " fill="#24221F" transform="translate(641,975)"/>
<path d="M0 0 C2 1 2 1 2 1 Z " fill="#242321" transform="translate(370,973)"/>
<path d="M0 0 C2 1 2 1 2 1 Z " fill="#252522" transform="translate(355,970)"/>
<path d="M0 0 C2 1 2 1 2 1 Z " fill="#282724" transform="translate(341,967)"/>
<path d="M0 0 C2 1 2 1 2 1 Z " fill="#292925" transform="translate(336,966)"/>
<path d="M0 0 C2 1 2 1 2 1 Z " fill="#282624" transform="translate(689,965)"/>
<path d="" fill="#2C2B2A" transform="translate(0,0)"/>
<path d="" fill="#2B2B27" transform="translate(0,0)"/>
<path d="" fill="#2B2927" transform="translate(0,0)"/>
<path d="M0 0 C2 1 2 1 2 1 Z " fill="#2B2B28" transform="translate(308,913)"/>
<path d="" fill="#282824" transform="translate(0,0)"/>
<path d="" fill="#272724" transform="translate(0,0)"/>
<path d="M0 0 C2 1 2 1 2 1 Z " fill="#272623" transform="translate(337,891)"/>
<path d="" fill="#282724" transform="translate(0,0)"/>
<path d="" fill="#2E2E29" transform="translate(0,0)"/>
<path d="" fill="#2E2C2B" transform="translate(0,0)"/>
<path d="M0 0 C2 1 2 1 2 1 Z " fill="#2F302B" transform="translate(695,824)"/>
<path d="M0 0 C2 1 2 1 2 1 Z " fill="#292826" transform="translate(337,811)"/>
<path d="" fill="#2B2A25" transform="translate(0,0)"/>
<path d="" fill="#2B2B29" transform="translate(0,0)"/>
<path d="M0 0 C2 1 2 1 2 1 Z " fill="#2F2D2A" transform="translate(382,706)"/>
<path d="" fill="#302E2B" transform="translate(0,0)"/>
<path d="" fill="#32302D" transform="translate(0,0)"/>
<path d="" fill="#302F2A" transform="translate(0,0)"/>
<path d="" fill="#302D2C" transform="translate(0,0)"/>
<path d="" fill="#302D2A" transform="translate(0,0)"/>
<path d="" fill="#2E2F2B" transform="translate(0,0)"/>
<path d="" fill="#2F2F2C" transform="translate(0,0)"/>
<path d="" fill="#302E2D" transform="translate(0,0)"/>
<path d="" fill="#31312D" transform="translate(0,0)"/>
<path d="" fill="#353531" transform="translate(0,0)"/>
<path d="" fill="#30302C" transform="translate(0,0)"/>
<path d="M0 0 C2 1 2 1 2 1 Z " fill="#2F2E2A" transform="translate(408,394)"/>
<path d="" fill="#2E2D29" transform="translate(0,0)"/>
<path d="" fill="#2F2E2A" transform="translate(0,0)"/>
<path d="" fill="#2F2F2A" transform="translate(0,0)"/>
<path d="" fill="#2F2E2B" transform="translate(0,0)"/>
<path d="" fill="#2E2D2B" transform="translate(0,0)"/>
<path d="" fill="#282624" transform="translate(0,0)"/>
<path d="" fill="#252524" transform="translate(0,0)"/>
<path d="" fill="#31302D" transform="translate(0,0)"/>
<path d="" fill="#2D2B29" transform="translate(0,0)"/>
<path d="" fill="#373530" transform="translate(0,0)"/>
<path d="" fill="#2E2D2A" transform="translate(0,0)"/>
<path d="" fill="#363631" transform="translate(0,0)"/>
<path d="" fill="#363833" transform="translate(0,0)"/>
<path d="" fill="#363832" transform="translate(0,0)"/>
<path d="M0 0 C2 1 2 1 2 1 Z " fill="#32302D" transform="translate(547,102)"/>
<path d="M0 0 C2 1 2 1 2 1 Z " fill="#32322D" transform="translate(480,101)"/>
<path d="M0 0 C2 1 2 1 2 1 Z " fill="#2F2C2A" transform="translate(489,100)"/>
<path d="M0 0 C2 1 2 1 2 1 Z " fill="#32312D" transform="translate(472,67)"/>
<path d="M0 0 C2 1 2 1 2 1 Z " fill="#32312E" transform="translate(553,66)"/>
<path d="M0 0 C2 1 2 1 2 1 Z " fill="#32322D" transform="translate(555,65)"/>
<path d="" fill="#1E1E1C" transform="translate(0,0)"/>
<path d="" fill="#1F1C1A" transform="translate(0,0)"/>
<path d="" fill="#1E1D1A" transform="translate(0,0)"/>
<path d="" fill="#1E1C19" transform="translate(0,0)"/>
<path d="" fill="#1C1A18" transform="translate(0,0)"/>
<path d="" fill="#1E1D1B" transform="translate(0,0)"/>
<path d="" fill="#1E1D1B" transform="translate(0,0)"/>
<path d="" fill="#1E1D1A" transform="translate(0,0)"/>
<path d="" fill="#1E1D19" transform="translate(0,0)"/>
<path d="" fill="#20201B" transform="translate(0,0)"/>
<path d="" fill="#1C1C1A" transform="translate(0,0)"/>
<path d="" fill="#201E1B" transform="translate(0,0)"/>
<path d="" fill="#1F1F1C" transform="translate(0,0)"/>
<path d="" fill="#20211C" transform="translate(0,0)"/>
<path d="" fill="#201F1E" transform="translate(0,0)"/>
<path d="" fill="#201E1C" transform="translate(0,0)"/>
<path d="" fill="#23211F" transform="translate(0,0)"/>
<path d="" fill="#25221F" transform="translate(0,0)"/>
<path d="" fill="#25231F" transform="translate(0,0)"/>
<path d="" fill="#23221E" transform="translate(0,0)"/>
<path d="" fill="#242320" transform="translate(0,0)"/>
<path d="" fill="#22231F" transform="translate(0,0)"/>
<path d="" fill="#262320" transform="translate(0,0)"/>
<path d="" fill="#252621" transform="translate(0,0)"/>
<path d="" fill="#292824" transform="translate(0,0)"/>
<path d="" fill="#292723" transform="translate(0,0)"/>
<path d="" fill="#1D1D1A" transform="translate(0,0)"/>
<path d="" fill="#292624" transform="translate(0,0)"/>
<path d="" fill="#2A2827" transform="translate(0,0)"/>
<path d="" fill="#2A2926" transform="translate(0,0)"/>
<path d="" fill="#2A2A28" transform="translate(0,0)"/>
<path d="" fill="#2A2A27" transform="translate(0,0)"/>
<path d="" fill="#2A2926" transform="translate(0,0)"/>
<path d="" fill="#2C2B28" transform="translate(0,0)"/>
<path d="" fill="#292927" transform="translate(0,0)"/>
<path d="" fill="#2A2A27" transform="translate(0,0)"/>
<path d="" fill="#292925" transform="translate(0,0)"/>
<path d="" fill="#2A2B28" transform="translate(0,0)"/>
<path d="" fill="#2A2926" transform="translate(0,0)"/>
<path d="" fill="#292925" transform="translate(0,0)"/>
<path d="" fill="#272824" transform="translate(0,0)"/>
<path d="" fill="#2B2B28" transform="translate(0,0)"/>
<path d="" fill="#292825" transform="translate(0,0)"/>
<path d="" fill="#1F1D1B" transform="translate(0,0)"/>
<path d="" fill="#2B2B28" transform="translate(0,0)"/>
<path d="" fill="#2C2B27" transform="translate(0,0)"/>
<path d="" fill="#2B2928" transform="translate(0,0)"/>
<path d="" fill="#1C1C18" transform="translate(0,0)"/>
<path d="" fill="#292724" transform="translate(0,0)"/>
<path d="" fill="#282724" transform="translate(0,0)"/>
<path d="" fill="#292924" transform="translate(0,0)"/>
<path d="" fill="#272724" transform="translate(0,0)"/>
<path d="" fill="#272622" transform="translate(0,0)"/>
<path d="" fill="#292725" transform="translate(0,0)"/>
<path d="" fill="#272524" transform="translate(0,0)"/>
<path d="" fill="#282825" transform="translate(0,0)"/>
<path d="" fill="#2A2825" transform="translate(0,0)"/>
<path d="" fill="#272723" transform="translate(0,0)"/>
<path d="" fill="#282724" transform="translate(0,0)"/>
<path d="" fill="#2C2B28" transform="translate(0,0)"/>
<path d="" fill="#2A2B28" transform="translate(0,0)"/>
<path d="" fill="#2D2D29" transform="translate(0,0)"/>
<path d="" fill="#30312D" transform="translate(0,0)"/>
<path d="" fill="#312F2C" transform="translate(0,0)"/>
<path d="" fill="#2C2C29" transform="translate(0,0)"/>
<path d="" fill="#2E2E2A" transform="translate(0,0)"/>
<path d="" fill="#2D2C2A" transform="translate(0,0)"/>
<path d="" fill="#2E2C2A" transform="translate(0,0)"/>
<path d="" fill="#2E2C2A" transform="translate(0,0)"/>
<path d="" fill="#2E2E2A" transform="translate(0,0)"/>
<path d="" fill="#2D2D2A" transform="translate(0,0)"/>
<path d="" fill="#2C2B26" transform="translate(0,0)"/>
<path d="" fill="#2A2926" transform="translate(0,0)"/>
<path d="" fill="#2F2D2A" transform="translate(0,0)"/>
<path d="" fill="#2A2724" transform="translate(0,0)"/>
<path d="" fill="#2E2E2A" transform="translate(0,0)"/>
<path d="" fill="#2A2A25" transform="translate(0,0)"/>
<path d="" fill="#2C2B27" transform="translate(0,0)"/>
<path d="" fill="#2C2C27" transform="translate(0,0)"/>
<path d="" fill="#2D2D27" transform="translate(0,0)"/>
<path d="" fill="#191917" transform="translate(0,0)"/>
<path d="" fill="#2A2926" transform="translate(0,0)"/>
<path d="" fill="#292825" transform="translate(0,0)"/>
<path d="" fill="#2B2A27" transform="translate(0,0)"/>
<path d="" fill="#292B25" transform="translate(0,0)"/>
<path d="" fill="#2B2923" transform="translate(0,0)"/>
<path d="" fill="#2A2827" transform="translate(0,0)"/>
<path d="" fill="#282823" transform="translate(0,0)"/>
<path d="" fill="#292824" transform="translate(0,0)"/>
<path d="" fill="#2A2725" transform="translate(0,0)"/>
<path d="" fill="#282522" transform="translate(0,0)"/>
<path d="" fill="#2C2A26" transform="translate(0,0)"/>
<path d="" fill="#282726" transform="translate(0,0)"/>
<path d="" fill="#282725" transform="translate(0,0)"/>
<path d="" fill="#282724" transform="translate(0,0)"/>
<path d="" fill="#272723" transform="translate(0,0)"/>
<path d="" fill="#272723" transform="translate(0,0)"/>
<path d="" fill="#292623" transform="translate(0,0)"/>
<path d="" fill="#2B2824" transform="translate(0,0)"/>
<path d="" fill="#272623" transform="translate(0,0)"/>
<path d="" fill="#262522" transform="translate(0,0)"/>
<path d="" fill="#292826" transform="translate(0,0)"/>
<path d="" fill="#282824" transform="translate(0,0)"/>
<path d="" fill="#272521" transform="translate(0,0)"/>
<path d="" fill="#292825" transform="translate(0,0)"/>
<path d="" fill="#282923" transform="translate(0,0)"/>
<path d="" fill="#2B2B28" transform="translate(0,0)"/>
<path d="" fill="#2A2A27" transform="translate(0,0)"/>
<path d="" fill="#292926" transform="translate(0,0)"/>
<path d="" fill="#292926" transform="translate(0,0)"/>
<path d="" fill="#2C2B28" transform="translate(0,0)"/>
<path d="" fill="#2B2B27" transform="translate(0,0)"/>
<path d="" fill="#302D2B" transform="translate(0,0)"/>
<path d="" fill="#32302B" transform="translate(0,0)"/>
<path d="" fill="#2C2B29" transform="translate(0,0)"/>
<path d="" fill="#2E312A" transform="translate(0,0)"/>
<path d="" fill="#2D2F2A" transform="translate(0,0)"/>
<path d="" fill="#31302C" transform="translate(0,0)"/>
<path d="" fill="#2F2F2D" transform="translate(0,0)"/>
<path d="" fill="#2F2E2B" transform="translate(0,0)"/>
<path d="" fill="#30312B" transform="translate(0,0)"/>
<path d="" fill="#363631" transform="translate(0,0)"/>
<path d="" fill="#302E2D" transform="translate(0,0)"/>
<path d="" fill="#30302B" transform="translate(0,0)"/>
<path d="" fill="#302F2B" transform="translate(0,0)"/>
<path d="" fill="#2F2F2A" transform="translate(0,0)"/>
<path d="" fill="#2C2C29" transform="translate(0,0)"/>
<path d="" fill="#2E2D2A" transform="translate(0,0)"/>
<path d="" fill="#2D2C29" transform="translate(0,0)"/>
<path d="" fill="#2E2E2A" transform="translate(0,0)"/>
<path d="" fill="#302D28" transform="translate(0,0)"/>
<path d="" fill="#2E2F2B" transform="translate(0,0)"/>
<path d="" fill="#302F2C" transform="translate(0,0)"/>
<path d="" fill="#2F2D2B" transform="translate(0,0)"/>
<path d="" fill="#30302E" transform="translate(0,0)"/>
<path d="" fill="#32322D" transform="translate(0,0)"/>
<path d="" fill="#2C2B2A" transform="translate(0,0)"/>
<path d="" fill="#302E2C" transform="translate(0,0)"/>
<path d="" fill="#32302D" transform="translate(0,0)"/>
<path d="" fill="#312E2D" transform="translate(0,0)"/>
<path d="" fill="#2F302A" transform="translate(0,0)"/>
<path d="" fill="#33322E" transform="translate(0,0)"/>
<path d="" fill="#31312D" transform="translate(0,0)"/>
<path d="" fill="#31302C" transform="translate(0,0)"/>
<path d="" fill="#31312C" transform="translate(0,0)"/>
<path d="" fill="#302F2A" transform="translate(0,0)"/>
<path d="" fill="#2E2F2A" transform="translate(0,0)"/>
<path d="" fill="#312F2B" transform="translate(0,0)"/>
<path d="" fill="#191917" transform="translate(0,0)"/>
<path d="" fill="#30302E" transform="translate(0,0)"/>
<path d="" fill="#31302D" transform="translate(0,0)"/>
<path d="" fill="#302E2B" transform="translate(0,0)"/>
<path d="" fill="#32312F" transform="translate(0,0)"/>
<path d="" fill="#2E2E28" transform="translate(0,0)"/>
<path d="" fill="#30302A" transform="translate(0,0)"/>
<path d="" fill="#2C2D2B" transform="translate(0,0)"/>
<path d="" fill="#312F2A" transform="translate(0,0)"/>
<path d="" fill="#30302B" transform="translate(0,0)"/>
<path d="" fill="#302F2D" transform="translate(0,0)"/>
<path d="" fill="#31312E" transform="translate(0,0)"/>
<path d="" fill="#33312D" transform="translate(0,0)"/>
<path d="" fill="#30302C" transform="translate(0,0)"/>
<path d="" fill="#32322E" transform="translate(0,0)"/>
<path d="" fill="#30322C" transform="translate(0,0)"/>
<path d="" fill="#30302E" transform="translate(0,0)"/>
<path d="" fill="#302F2E" transform="translate(0,0)"/>
<path d="" fill="#31312D" transform="translate(0,0)"/>
<path d="" fill="#32322E" transform="translate(0,0)"/>
<path d="" fill="#2F302C" transform="translate(0,0)"/>
<path d="" fill="#171715" transform="translate(0,0)"/>
<path d="" fill="#30312D" transform="translate(0,0)"/>
<path d="" fill="#272824" transform="translate(0,0)"/>
<path d="" fill="#2E2C29" transform="translate(0,0)"/>
<path d="" fill="#2C2A28" transform="translate(0,0)"/>
<path d="" fill="#31312D" transform="translate(0,0)"/>
<path d="" fill="#2F2E2A" transform="translate(0,0)"/>
<path d="" fill="#30312D" transform="translate(0,0)"/>
<path d="" fill="#2F2E2A" transform="translate(0,0)"/>
<path d="" fill="#2E2F2C" transform="translate(0,0)"/>
<path d="" fill="#31322C" transform="translate(0,0)"/>
<path d="" fill="#2F2D2C" transform="translate(0,0)"/>
<path d="" fill="#2E2F29" transform="translate(0,0)"/>
<path d="" fill="#34342F" transform="translate(0,0)"/>
<path d="" fill="#30302E" transform="translate(0,0)"/>
<path d="" fill="#30312D" transform="translate(0,0)"/>
<path d="" fill="#2E2E2C" transform="translate(0,0)"/>
<path d="" fill="#312F2E" transform="translate(0,0)"/>
<path d="" fill="#2D2D28" transform="translate(0,0)"/>
<path d="" fill="#323330" transform="translate(0,0)"/>
<path d="" fill="#31312C" transform="translate(0,0)"/>
<path d="" fill="#31312C" transform="translate(0,0)"/>
<path d="" fill="#34332F" transform="translate(0,0)"/>
<path d="" fill="#343433" transform="translate(0,0)"/>
<path d="" fill="#32322D" transform="translate(0,0)"/>
<path d="" fill="#32332F" transform="translate(0,0)"/>
<path d="" fill="#30312E" transform="translate(0,0)"/>
<path d="" fill="#2F2C2B" transform="translate(0,0)"/>
<path d="" fill="#2D2E2B" transform="translate(0,0)"/>
<path d="" fill="#2E2D28" transform="translate(0,0)"/>
<path d="" fill="#30302A" transform="translate(0,0)"/>
<path d="" fill="#2A2B27" transform="translate(0,0)"/>
<path d="" fill="#2C2D28" transform="translate(0,0)"/>
<path d="" fill="#292826" transform="translate(0,0)"/>
<path d="" fill="#2B2927" transform="translate(0,0)"/>
<path d="" fill="#292823" transform="translate(0,0)"/>
<path d="" fill="#1A1A18" transform="translate(0,0)"/>
<path d="" fill="#2C2C29" transform="translate(0,0)"/>
<path d="" fill="#191917" transform="translate(0,0)"/>
<path d="" fill="#262622" transform="translate(0,0)"/>
<path d="" fill="#2E2E27" transform="translate(0,0)"/>
<path d="" fill="#2D2D2C" transform="translate(0,0)"/>
<path d="" fill="#2E2D2A" transform="translate(0,0)"/>
<path d="" fill="#302F2D" transform="translate(0,0)"/>
<path d="" fill="#2D2F27" transform="translate(0,0)"/>
<path d="" fill="#2C2A28" transform="translate(0,0)"/>
<path d="" fill="#30302B" transform="translate(0,0)"/>
<path d="" fill="#282825" transform="translate(0,0)"/>
<path d="" fill="#2B2A28" transform="translate(0,0)"/>
<path d="" fill="#312F2C" transform="translate(0,0)"/>
<path d="" fill="#272622" transform="translate(0,0)"/>
<path d="" fill="#2B2927" transform="translate(0,0)"/>
<path d="" fill="#282723" transform="translate(0,0)"/>
<path d="" fill="#30312C" transform="translate(0,0)"/>
<path d="" fill="#2B2A29" transform="translate(0,0)"/>
<path d="" fill="#30312C" transform="translate(0,0)"/>
<path d="" fill="#292A26" transform="translate(0,0)"/>
<path d="" fill="#31302E" transform="translate(0,0)"/>
<path d="" fill="#2B2A28" transform="translate(0,0)"/>
<path d="" fill="#31322B" transform="translate(0,0)"/>
<path d="" fill="#2D2B29" transform="translate(0,0)"/>
<path d="" fill="#32342D" transform="translate(0,0)"/>
<path d="" fill="#292824" transform="translate(0,0)"/>
<path d="" fill="#30302D" transform="translate(0,0)"/>
<path d="" fill="#35332F" transform="translate(0,0)"/>
<path d="" fill="#363431" transform="translate(0,0)"/>
<path d="" fill="#33312C" transform="translate(0,0)"/>
<path d="" fill="#332E2E" transform="translate(0,0)"/>
<path d="" fill="#343430" transform="translate(0,0)"/>
<path d="" fill="#373632" transform="translate(0,0)"/>
<path d="" fill="#1C1C19" transform="translate(0,0)"/>
<path d="" fill="#282A26" transform="translate(0,0)"/>
<path d="" fill="#2B2728" transform="translate(0,0)"/>
<path d="" fill="#353531" transform="translate(0,0)"/>
<path d="" fill="#2B2926" transform="translate(0,0)"/>
<path d="" fill="#2B2A28" transform="translate(0,0)"/>
<path d="" fill="#2B2925" transform="translate(0,0)"/>
<path d="" fill="#363431" transform="translate(0,0)"/>
<path d="" fill="#2A2926" transform="translate(0,0)"/>
<path d="" fill="#2B2B28" transform="translate(0,0)"/>
<path d="" fill="#2B2B28" transform="translate(0,0)"/>
<path d="" fill="#302C2B" transform="translate(0,0)"/>
<path d="" fill="#2C2C29" transform="translate(0,0)"/>
<path d="" fill="#2C2925" transform="translate(0,0)"/>
<path d="" fill="#2B2B29" transform="translate(0,0)"/>
<path d="" fill="#2D2C29" transform="translate(0,0)"/>
<path d="" fill="#2B2D2B" transform="translate(0,0)"/>
<path d="" fill="#2E2D29" transform="translate(0,0)"/>
<path d="" fill="#302D2C" transform="translate(0,0)"/>
<path d="" fill="#302F2B" transform="translate(0,0)"/>
<path d="" fill="#31302C" transform="translate(0,0)"/>
<path d="" fill="#2F2F2B" transform="translate(0,0)"/>
<path d="" fill="#2F2D29" transform="translate(0,0)"/>
<path d="" fill="#2D2B2A" transform="translate(0,0)"/>
<path d="" fill="#2E2E2A" transform="translate(0,0)"/>
<path d="" fill="#33322E" transform="translate(0,0)"/>
<path d="" fill="#2A2B28" transform="translate(0,0)"/>
<path d="" fill="#323330" transform="translate(0,0)"/>
<path d="" fill="#2D2D28" transform="translate(0,0)"/>
<path d="" fill="#302F2C" transform="translate(0,0)"/>
<path d="" fill="#31302E" transform="translate(0,0)"/>
<path d="" fill="#32302F" transform="translate(0,0)"/>
<path d="" fill="#2F312B" transform="translate(0,0)"/>
<path d="" fill="#363631" transform="translate(0,0)"/>
<path d="" fill="#2E2B26" transform="translate(0,0)"/>
<path d="" fill="#32312C" transform="translate(0,0)"/>
<path d="" fill="#343130" transform="translate(0,0)"/>
<path d="" fill="#2E2F29" transform="translate(0,0)"/>
<path d="" fill="#32302B" transform="translate(0,0)"/>
<path d="" fill="#2F2E2C" transform="translate(0,0)"/>
<path d="" fill="#32322E" transform="translate(0,0)"/>
<path d="" fill="#31312F" transform="translate(0,0)"/>
<path d="" fill="#353531" transform="translate(0,0)"/>
<path d="" fill="#2D2D29" transform="translate(0,0)"/>
<path d="" fill="#353431" transform="translate(0,0)"/>
<path d="" fill="#353431" transform="translate(0,0)"/>
<path d="" fill="#302E2B" transform="translate(0,0)"/>
<path d="" fill="#33312D" transform="translate(0,0)"/>
<path d="" fill="#2D2E2C" transform="translate(0,0)"/>
<path d="" fill="#2B2E27" transform="translate(0,0)"/>
<path d="" fill="#31302C" transform="translate(0,0)"/>
<path d="" fill="#31332E" transform="translate(0,0)"/>
<path d="" fill="#373631" transform="translate(0,0)"/>
<path d="" fill="#353531" transform="translate(0,0)"/>
<path d="" fill="#353430" transform="translate(0,0)"/>
<path d="" fill="#2F2E2B" transform="translate(0,0)"/>
<path d="" fill="#302E2B" transform="translate(0,0)"/>
<path d="" fill="#353530" transform="translate(0,0)"/>
<path d="" fill="#322F2D" transform="translate(0,0)"/>
<path d="" fill="#312F2D" transform="translate(0,0)"/>
<path d="" fill="#302F2B" transform="translate(0,0)"/>
<path d="" fill="#363633" transform="translate(0,0)"/>
<path d="" fill="#353534" transform="translate(0,0)"/>
<path d="" fill="#393834" transform="translate(0,0)"/>
<path d="" fill="#302F2C" transform="translate(0,0)"/>
<path d="" fill="#363733" transform="translate(0,0)"/>
<path d="" fill="#31302C" transform="translate(0,0)"/>
<path d="" fill="#32302C" transform="translate(0,0)"/>
<path d="" fill="#2F2E2C" transform="translate(0,0)"/>
<path d="" fill="#302E2D" transform="translate(0,0)"/>
<path d="" fill="#2F312C" transform="translate(0,0)"/>
<path d="" fill="#383733" transform="translate(0,0)"/>
<path d="" fill="#383632" transform="translate(0,0)"/>
<path d="" fill="#363532" transform="translate(0,0)"/>
<path d="" fill="#383733" transform="translate(0,0)"/>
<path d="" fill="#302E2D" transform="translate(0,0)"/>
<path d="" fill="#383734" transform="translate(0,0)"/>
<path d="" fill="#2E2D29" transform="translate(0,0)"/>
<path d="" fill="#2F2D27" transform="translate(0,0)"/>
<path d="" fill="#2D2D2A" transform="translate(0,0)"/>
<path d="" fill="#2D2D29" transform="translate(0,0)"/>
<path d="" fill="#232220" transform="translate(0,0)"/>
<path d="" fill="#2E2E29" transform="translate(0,0)"/>
<path d="" fill="#2D2C27" transform="translate(0,0)"/>
<path d="" fill="#2D2D2B" transform="translate(0,0)"/>
<path d="" fill="#2F2C2B" transform="translate(0,0)"/>
<path d="" fill="#31322E" transform="translate(0,0)"/>
<path d="" fill="#34322F" transform="translate(0,0)"/>
<path d="" fill="#312F2E" transform="translate(0,0)"/>
<path d="" fill="#35332E" transform="translate(0,0)"/>
<path d="" fill="#2F2F2A" transform="translate(0,0)"/>
<path d="" fill="#31302D" transform="translate(0,0)"/>
<path d="" fill="#2E2E29" transform="translate(0,0)"/>
<path d="" fill="#2C2B2A" transform="translate(0,0)"/>
<path d="" fill="#2D2C28" transform="translate(0,0)"/>
<path d="" fill="#2C2B28" transform="translate(0,0)"/>
<path d="" fill="#322F2C" transform="translate(0,0)"/>
<path d="" fill="#32312E" transform="translate(0,0)"/>
<path d="" fill="#33322F" transform="translate(0,0)"/>
<path d="" fill="#32312D" transform="translate(0,0)"/>
<path d="" fill="#32302D" transform="translate(0,0)"/>
<path d="" fill="#2F2C2A" transform="translate(0,0)"/>
<path d="" fill="#2B2924" transform="translate(0,0)"/>
<path d="" fill="#33352F" transform="translate(0,0)"/>
<path d="" fill="#32332E" transform="translate(0,0)"/>
<path d="" fill="#313330" transform="translate(0,0)"/>
<path d="" fill="#36342F" transform="translate(0,0)"/>
<path d="" fill="#1C1D18" transform="translate(0,0)"/>
<path d="" fill="#2D2D2A" transform="translate(0,0)"/>
<path d="" fill="#2E2F2A" transform="translate(0,0)"/>
<path d="" fill="#2E2D2C" transform="translate(0,0)"/>
<path d="" fill="#33342D" transform="translate(0,0)"/>
<path d="" fill="#2B2A26" transform="translate(0,0)"/>
<path d="" fill="#2F2F29" transform="translate(0,0)"/>
<path d="" fill="#373630" transform="translate(0,0)"/>
</svg>
