<?xml version="1.0" encoding="UTF-8"?>
<svg version="1.1" xmlns="http://www.w3.org/2000/svg" width="1024" height="1024">
<path d="M0 0 C7.78233476 -0.31764632 15.31842881 0.85498514 23 2 C23.76376953 2.1124707 24.52753906 2.22494141 25.31445312 2.34082031 C57.0506481 7.0506481 57.0506481 7.0506481 61 11 C62.28233498 11.66416901 63.5758088 12.30694017 64.875 12.9375 C81.15791829 21.89048723 90.91551235 37.87508186 99 54 C99.33 54 99.66 54 100 54 C101.7026702 38.82799232 100.50960447 24.98293622 98 10 C106.89032797 10.17557201 114.79007125 11.77158293 123.28637695 14.2722168 C128.04213074 15.63762175 132.04956291 16.25742273 137 16 C136.67 16.66 136.34 17.32 136 18 C137.134375 18.515625 138.26875 19.03125 139.4375 19.5625 C152.92581171 26.40197961 159.8754495 36.67130011 164.7109375 50.7265625 C166.81780633 57.3415786 167.96139175 64.14882981 169 71 C169.99 71 170.98 71 172 71 C177.92187606 60.60796992 182.13086393 50.67153409 185 39 C199.19658267 43.18617181 212.4625243 51.89543423 224 61 C224.56444824 61.4448877 225.12889648 61.88977539 225.71044922 62.34814453 C239.11049615 73.03704567 253.16072427 86.25452666 256 104 C255.34 104 254.68 104 254 104 C253.74476563 104.80050781 253.74476563 104.80050781 253.484375 105.6171875 C251.79147531 110.82195357 249.87969569 115.88342491 247.76953125 120.93359375 C246.883671 122.94486874 246.883671 122.94486874 247 125 C248.75224914 123.58611621 250.50170655 122.16877217 252.25 120.75 C253.22453125 119.96109375 254.1990625 119.1721875 255.203125 118.359375 C257.98297251 116.09277734 257.98297251 116.09277734 260.234375 113.703125 C262 112 262 112 264 112 C264 111.34 264 110.68 264 110 C276.72509432 114.94207152 285.87734508 134.91917138 291.109375 146.58203125 C297.62554796 161.77338942 300.88661873 175.24003796 294.57202148 191.21948242 C292.43601132 196.32151313 289.88904697 201.14148453 287.00390625 205.86328125 C285.65145399 208.10374372 285.65145399 208.10374372 287 211 C288.4800841 210.88637738 289.95910074 210.75877092 291.4375 210.625 C292.26121094 210.55539062 293.08492187 210.48578125 293.93359375 210.4140625 C294.61550781 210.27742187 295.29742188 210.14078125 296 210 C296.33 209.34 296.66 208.68 297 208 C299.06265822 207.6088062 301.09443267 207.49325481 303.1875 207.34375 C303.785625 207.2303125 304.38375 207.116875 305 207 C305.33 206.34 305.66 205.68 306 205 C308.26462441 207.26462441 308.36009762 207.99837574 308.81640625 211.0625 C309.00299805 212.25746094 309.00299805 212.25746094 309.19335938 213.4765625 C309.37608398 214.72566406 309.37608398 214.72566406 309.5625 216 C309.81096856 217.64626349 310.06214465 219.29212128 310.31640625 220.9375 C310.47798218 222.03384766 310.47798218 222.03384766 310.64282227 223.15234375 C310.93046849 225.08537212 310.93046849 225.08537212 312 227 C312.04808639 228.77018033 312.0367409 230.54204785 312 232.3125 C311.94933907 238.10684397 312.17727237 243.84055933 312.5 249.625 C314.76826687 293.77390398 309.38491133 336.45366937 300.90646362 379.64889526 C298.34393348 392.71140029 295.93537524 405.76628037 294 418.9375 C293.90017822 419.60235413 293.80035645 420.26720825 293.69750977 420.95220947 C287.55217336 462.22060674 291.22688669 503.15484805 316.27441406 537.76074219 C318.25886571 540.41216101 320.27978904 543.02188988 322.34765625 545.609375 C324 548 324 548 324 551 C323.01902344 551.53367187 322.03804687 552.06734375 321.02734375 552.6171875 C311.33596391 557.94490306 302.08694197 563.70154022 293 570 C292.40445312 570.40863281 291.80890625 570.81726563 291.1953125 571.23828125 C283.46897836 576.55224469 276.18334658 582.20745852 269.09375 588.34375 C266.22544291 590.82580127 263.27782006 593.19690759 260.3125 595.5625 C254.8219118 600.01956572 249.9024253 604.9061568 245 610 C246.25480528 613.76441584 247.59549897 614.17319457 251 616 C251.66 616.33 252.32 616.66 253 617 C254.66666667 618.66666667 256.33333333 620.33333333 258 622 C258.99 622.66 259.98 623.32 261 624 C261 624.66 261 625.32 261 626 C261.59941406 626.25652344 262.19882812 626.51304687 262.81640625 626.77734375 C266.59077378 628.89071949 268.56508602 631.96124212 270 636 C269.67642403 642.24381784 265.3612367 648.20960461 262.56518555 653.62207031 C257.40122118 663.86989476 255.36934374 674.4438205 258.203125 685.6640625 C263.24801633 700.45251847 277.4647307 711.66434433 288.65234375 721.90625 C291.51376029 724.52971758 294.27078069 727.23850951 297 730 C297.69222656 730.66902344 298.38445312 731.33804688 299.09765625 732.02734375 C302.17549455 735.01951657 305.05586628 737.82863053 307.3125 741.5 C307.869375 742.325 308.42625 743.15 309 744 C309.99 744 310.98 744 312 744 C312 745.32 312 746.64 312 748 C312.82454279 750.41367955 312.82454279 750.41367955 313.9375 752.875 C317.61506601 761.28463124 316.98154256 767.45362891 314 776 C310.01077208 784.16134307 304.47257521 790.71235551 298 797 C298.680625 797.37125 299.36125 797.7425 300.0625 798.125 C302.9994693 799.99966125 305.50116189 802.03077888 308.1015625 804.3359375 C309.40290045 805.47661644 310.7331627 806.5848826 312.0859375 807.6640625 C318.487338 812.87561161 322.44303534 818.83190443 323.34472656 827.19873047 C323.60708194 830.67299103 323.86170176 834.14720103 324.09472656 837.62353516 C324.19803156 839.12145764 324.3086814 840.61889212 324.42675781 842.11572266 C324.59762076 844.2820548 324.74651163 846.44893057 324.890625 848.6171875 C324.98375977 849.91253418 325.07689453 851.20788086 325.17285156 852.54248047 C324.98258739 856.34830144 324.34083748 858.03453837 322 861 C319.57203393 862.53345225 317.32707916 863.7873287 314.75 865 C314.03835693 865.34321289 313.32671387 865.68642578 312.59350586 866.04003906 C299.96516633 871.98048598 284.12232348 878 270 878 C269.67 878.66 269.34 879.32 269 880 C266.91015625 880.32836914 266.91015625 880.32836914 264.0625 880.47265625 C256.43750316 880.98874386 248.92214107 882.02105686 241.36083984 883.10180664 C238.97724033 883.44073625 236.59224676 883.76836362 234.20703125 884.09570312 C232.67959065 884.31181661 231.15224313 884.52858916 229.625 884.74609375 C228.91770752 884.84200302 228.21041504 884.93791229 227.48168945 885.03672791 C224.76625042 885.43366621 222.40240174 885.78792601 219.95800781 887.07617188 C216.98215209 888.48024146 214.314434 888.12961504 211.046875 888.03515625 C204.66939476 887.92891412 198.37630549 888.15091656 192.015625 888.62109375 C191.14127808 888.68535553 190.26693115 888.74961731 189.36608887 888.81582642 C186.66037598 889.0187334 183.9551433 889.2271433 181.25 889.4375 C153.69535441 891.57645671 126.17822739 892.20546873 98.55183411 892.18888092 C96.21322553 892.18747794 93.87461968 892.18758516 91.53601074 892.18768311 C67.64248726 892.18024433 43.83808251 891.73135865 20 890 C18.6375369 889.9029338 17.27506945 889.80592847 15.91259766 889.70898438 C6.15462703 889.00626708 6.15462703 889.00626708 1.34667969 888.60986328 C-3.17256977 888.24032281 -7.62418588 887.95966184 -12.16015625 888.0078125 C-16 888 -16 888 -17 887 C-19.35823445 886.62607798 -21.70051321 886.30819982 -24.0703125 886.02734375 C-24.78476532 885.93997452 -25.49921814 885.85260529 -26.23532104 885.7625885 C-27.75330346 885.57812432 -29.27155358 885.39585226 -30.79003906 885.21557617 C-33.09521603 884.94104704 -35.39916424 884.65758109 -37.703125 884.37304688 C-39.17962187 884.19476808 -40.65618262 884.01701745 -42.1328125 883.83984375 C-42.81538116 883.75548569 -43.49794983 883.67112762 -44.20120239 883.58421326 C-48.48981563 883.08248016 -52.68416101 882.92469523 -57 883 C-57 882.34 -57 881.68 -57 881 C-58.34191406 881.07927734 -58.34191406 881.07927734 -59.7109375 881.16015625 C-66.58052767 881.16188488 -73.34510434 879.16111753 -80.015625 877.68945312 C-81.09585938 877.46064453 -82.17609375 877.23183594 -83.2890625 876.99609375 C-84.26568848 876.78138428 -85.24231445 876.5666748 -86.24853516 876.34545898 C-89.12180003 875.98470745 -91.19549807 876.39760102 -94 877 C-95.34352279 876.01373214 -96.67433258 875.01014042 -98 874 C-101.11316398 872.87910836 -104.30883546 872.05688022 -107.5 871.1875 C-128.98470932 865.01994681 -128.98470932 865.01994681 -134 857 C-134.609375 853.44921875 -134.609375 853.44921875 -134.75 849.6875 C-134.80671875 848.43324219 -134.8634375 847.17898438 -134.921875 845.88671875 C-134.94765625 844.93410156 -134.9734375 843.98148438 -135 843 C-134.34 843 -133.68 843 -133 843 C-133.11409682 840.89521396 -133.24165361 838.79115423 -133.375 836.6875 C-133.44460938 835.51574219 -133.51421875 834.34398437 -133.5859375 833.13671875 C-133.78613747 829.84300113 -133.78613747 829.84300113 -136 827 C-136 826.01 -136 825.02 -136 824 C-135.01 824.33 -134.02 824.66 -133 825 C-133.33 825.33 -133.66 825.66 -134 826 C-133.34 826.33 -132.68 826.66 -132 827 C-131.95875 825.865625 -131.9175 824.73125 -131.875 823.5625 C-130.8216366 815.59907266 -125.78920662 810.39429191 -119.75 805.5 C-115.48275862 802.24137931 -115.48275862 802.24137931 -113 801 C-110.7226499 798.18490007 -110.7226499 798.18490007 -111 795 C-112.46794794 793.20533718 -112.46794794 793.20533718 -114.375 791.5 C-116.65041801 789.36503989 -118.24747563 787.62878656 -120 785 C-120.99 784.67 -121.98 784.34 -123 784 C-123.103125 783.236875 -123.20625 782.47375 -123.3125 781.6875 C-123.88479267 778.16999757 -123.88479267 778.16999757 -124.8046875 775.5390625 C-127.83561728 766.17804927 -126.76165486 759.21187837 -122.4375 750.4375 C-121.63654533 748.95204994 -120.82642172 747.4714338 -120 746 C-119.67 745.34 -119.34 744.68 -119 744 C-117.33333333 742.33333333 -115.66666667 740.66666667 -114 739 C-113.443125 738.236875 -112.88625 737.47375 -112.3125 736.6875 C-111.6628125 735.8521875 -111.6628125 735.8521875 -111 735 C-110.34 735 -109.68 735 -109 735 C-108.6596875 734.15115234 -108.6596875 734.15115234 -108.3125 733.28515625 C-106.6380221 730.36977061 -104.54608861 728.62461973 -102 726.4375 C-99.18277108 724.00927798 -97.07021245 722.10531867 -95 719 C-93.00334402 717.32932867 -91.00348966 715.66247014 -89 714 C-88.67 713.34 -88.34 712.68 -88 712 C-87.01 712 -86.02 712 -85 712 C-84.62875 711.1646875 -84.62875 711.1646875 -84.25 710.3125 C-82.22254642 706.56171087 -79.60834421 703.59274564 -76.5625 700.625 C-71.31106835 695.50116739 -71.31106835 695.50116739 -69 689 C-68.525625 688.54625 -68.05125 688.0925 -67.5625 687.625 C-64.82948953 684.78266912 -64.87520846 681.47081626 -64.90234375 677.671875 C-64.90556641 676.87265625 -64.90878906 676.0734375 -64.91210938 675.25 C-64.92467773 674.0125 -64.92467773 674.0125 -64.9375 672.75 C-64.94201172 671.90953125 -64.94652344 671.0690625 -64.95117188 670.203125 C-64.96292039 668.13538599 -64.98085478 666.06768376 -65 664 C-65.61875 663.896875 -66.2375 663.79375 -66.875 663.6875 C-69 663 -69 663 -71 660 C-72 657 -72 657 -71 654 C-72.37492804 650.8331162 -72.37492804 650.8331162 -74 648 C-74.66 648 -75.32 648 -76 648 C-76.23984852 646.35532442 -76.47608197 644.71005062 -76.6953125 643.0625 C-76.89641953 641.70116011 -77.14063376 640.34541379 -77.4296875 639 C-78.24469994 634.74197581 -78.17936743 631.73124056 -75.71484375 627.93359375 C-72.43561368 624.23605643 -68.54159732 621.19992501 -64.6796875 618.13671875 C-62.0353332 616.11001559 -62.0353332 616.11001559 -60 614 C-60.65484375 613.30777344 -61.3096875 612.61554687 -61.984375 611.90234375 C-71.69109825 601.53723267 -80.75669514 590.64490796 -88.6953125 578.85546875 C-90.00383318 576.88169956 -90.00383318 576.88169956 -92 575 C-92.495 573.515 -92.495 573.515 -93 572 C-93.66 572.33 -94.32 572.66 -95 573 C-95.11770752 572.27272705 -95.23541504 571.5454541 -95.35668945 570.79614258 C-96.00900677 567.96085217 -96.94235251 565.82974047 -98.29296875 563.26171875 C-98.75590332 562.36678711 -99.21883789 561.47185547 -99.69580078 560.54980469 C-100.43419189 559.13296387 -100.43419189 559.13296387 -101.1875 557.6875 C-116.26107108 528.08724478 -116.26107108 528.08724478 -113 515.125 C-111.20969693 509.8297374 -108.36877696 505.19704124 -105.42578125 500.46875 C-103.83329407 498.18649602 -103.83329407 498.18649602 -104 496 C-103.01185919 494.98827981 -102.00941577 493.99049473 -101 493 C-100.00292567 491.56480691 -99.04468723 490.10220168 -98.1171875 488.62109375 C-97.58996094 487.78255859 -97.06273437 486.94402344 -96.51953125 486.08007812 C-95.97683594 485.20802734 -95.43414062 484.33597656 -94.875 483.4375 C-94.32457031 482.56158203 -93.77414062 481.68566406 -93.20703125 480.78320312 C-90.46093051 476.47267575 -90.46093051 476.47267575 -88 472 C-87.34 472 -86.68 472 -86 472 C-85.73445313 471.43539063 -85.46890625 470.87078125 -85.1953125 470.2890625 C-80.4525035 461.20642827 -73.36129395 453.22259078 -66.82421875 445.39453125 C-64.83926144 443.05671595 -64.83926144 443.05671595 -64 440 C-62.37026229 438.29720508 -60.69790079 436.63483591 -59 435 C-54.07240144 429.76238696 -49.2981493 424.43440073 -44.8125 418.8125 C-40.30972335 413.22616747 -35.43633217 408.0293788 -30.49145508 402.83325195 C-25.33594769 397.41003243 -20.25864848 391.93013857 -15.6875 386 C-15.130625 385.34 -14.57375 384.68 -14 384 C-13.34 384 -12.68 384 -12 384 C-10.74335022 381.09399739 -10 379.20395416 -10 376 C-8.35 376 -6.7 376 -5 376 C-4.71125 375.4225 -4.4225 374.845 -4.125 374.25 C-3.75375 373.5075 -3.3825 372.765 -3 372 C-2.7525 371.360625 -2.505 370.72125 -2.25 370.0625 C-1 368 -1 368 1.7421875 365.78515625 C5.14269414 363.00519117 7.72633186 359.86026731 10.375 356.375 C10.84397705 355.76688477 11.3129541 355.15876953 11.79614258 354.53222656 C13.20671515 352.6950008 14.60528566 350.8492842 16 349 C16.4223291 348.44280273 16.8446582 347.88560547 17.27978516 347.31152344 C21.87531712 342.13819192 21.87531712 342.13819192 24 336 C24.7425 335.29875 25.485 334.5975 26.25 333.875 C29.00507812 330.99469106 30.32343886 328.64701699 31.96875 325.09765625 C33.00848678 322.98273712 34.19912052 321.08821751 35.5 319.125 C40.00744934 312.00797473 42.62756001 305.4720601 42 297 C32.54721113 291.84393334 23.68846034 290.57849914 13 290 C11.65421875 289.91878906 11.65421875 289.91878906 10.28125 289.8359375 C-5.13853366 289.33706215 -19.86571875 294.29387903 -31.5 304.5 C-33.04283029 305.95591027 -34.54051883 307.46054726 -36 309 C-36.46784912 309.48895752 -36.93569824 309.97791504 -37.41772461 310.48168945 C-42.43459187 315.98497226 -45.5669164 322.29512407 -48.94335938 328.88085938 C-51.42135992 333.57249341 -53.40460099 337.07906828 -58 340 C-58.60199219 340.39445312 -59.20398438 340.78890625 -59.82421875 341.1953125 C-72.5530598 347.54639043 -88.26075908 346.2937668 -102 345 C-103.62615234 344.85304688 -103.62615234 344.85304688 -105.28515625 344.703125 C-107.52545232 344.48886321 -109.76324603 344.24852822 -112 344 C-112 343.34 -112 342.68 -112 342 C-113.010625 341.938125 -114.02125 341.87625 -115.0625 341.8125 C-125.14602731 340.51835746 -135.5324641 337.04411892 -143 330 C-143.75023437 329.38511719 -143.75023437 329.38511719 -144.515625 328.7578125 C-148.74508812 323.74923776 -149.70906151 317.41016606 -150.625 311.125 C-150.74979736 310.3 -150.87459473 309.475 -151.00317383 308.625 C-152.1829047 300.43342482 -152.72813564 292.2663756 -153 284 C-153.04125 282.98292969 -153.0825 281.96585937 -153.125 280.91796875 C-153.35353502 270.93384522 -152.15320339 261.66306239 -147 253 C-146.566875 252.13375 -146.13375 251.2675 -145.6875 250.375 C-143.67118554 247.53722409 -141.33383365 245.58821172 -138.62109375 243.4296875 C-136.74913641 241.90226456 -136.74913641 241.90226456 -135 239 C-134.34 239 -133.68 239 -133 239 C-131.38182552 237.90961309 -131.38182552 237.90961309 -129.65625 236.4375 C-128.99197998 235.89198486 -128.32770996 235.34646973 -127.64331055 234.78442383 C-126.93601807 234.19556396 -126.22872559 233.6067041 -125.5 233 C-124.03807467 231.7951915 -122.57583589 230.59076323 -121.11328125 229.38671875 C-120.40381348 228.80067871 -119.6943457 228.21463867 -118.96337891 227.61083984 C-116.56506354 225.64315956 -114.12936244 223.72575248 -111.6875 221.8125 C-107.04321449 218.12068661 -102.69045507 214.13817838 -98.34765625 210.1015625 C-96 208 -96 208 -93 206 C-93.33 205.34 -93.66 204.68 -94 204 C-93.278125 203.773125 -92.55625 203.54625 -91.8125 203.3125 C-88.39179863 201.71617269 -86.62023743 199.72863526 -84 197 C-83.49283447 196.47591553 -82.98566895 195.95183105 -82.46313477 195.41186523 C-74.55504265 187.20239947 -67.17107709 178.76183256 -60.28808594 169.67773438 C-59.02204259 168.02871051 -57.72493221 166.41040577 -56.4140625 164.796875 C-49.50713178 156.21893393 -42.50902567 146.527077 -39 136 C-27.08981584 115.31668912 -10.4294303 105.79137426 10.18676758 94.79150391 C13.94672287 92.76984066 17.51311563 90.70907688 20.95703125 88.1796875 C24 86 24 86 26 86 C27.50703166 78.16343538 26.10856237 71.28894262 24.48828125 63.55859375 C23.6797915 59.32210747 23.16787254 55.03985134 22.59765625 50.765625 C22.40042969 49.85296875 22.20320312 48.9403125 22 48 C21.34 47.67 20.68 47.34 20 47 C19.3556475 44.17200849 18.97673669 41.33881851 18.5625 38.46875 C18.376875 37.6540625 18.19125 36.839375 18 36 C17.34 35.67 16.68 35.34 16 35 C15.36941099 33.00313479 14.73971774 31.00598429 14.11328125 29.0078125 C12.68141019 25.13924858 10.90779002 21.49842663 9.0625 17.8125 C8.55855713 16.79724243 8.55855713 16.79724243 8.04443359 15.76147461 C6.44512541 12.60502674 4.78379923 9.58790067 2.79296875 6.66015625 C1.20340454 4.3017832 0.42605841 2.76937967 0 0 Z M245 126 C246 128 246 128 246 128 Z M-9 377 C-8 379 -8 379 -8 379 Z M-76 643 C-75 645 -75 645 -75 645 Z " fill="#111110" transform="translate(408,88)"/>
<path d="M0 0 C2.37695921 2.32717996 4.39899187 4.74177689 6.42578125 7.37890625 C7.8623237 9.12969237 9.29985025 10.87967141 10.73828125 12.62890625 C11.47433594 13.54800781 12.21039062 14.46710937 12.96875 15.4140625 C16.17362858 19.28131663 19.56547065 22.95043474 23.0012207 26.61230469 C25.60116366 29.38640438 28.13525811 32.19476514 30.609375 35.08203125 C34.83047755 39.92970371 39.36090578 44.46442822 43.91381836 48.99731445 C45.3610251 50.43915846 46.80280151 51.88627741 48.24414062 53.33398438 C52.92068853 58.0135878 57.66145748 62.55564209 62.68579102 66.86157227 C65.21948476 69.07104422 67.56503243 71.42286926 69.92578125 73.81640625 C70.78171875 74.68136719 71.63765625 75.54632812 72.51953125 76.4375 C73.14859375 77.07816406 73.77765625 77.71882812 74.42578125 78.37890625 C71.53453748 80.3064021 70.60031855 80.68027176 67.33520508 81.04907227 C66.51196243 81.14579727 65.68871979 81.24252228 64.8405304 81.34217834 C63.50021004 81.48604225 63.50021004 81.48604225 62.1328125 81.6328125 C61.19515549 81.73859116 60.25749847 81.84436981 59.29142761 81.95335388 C57.29198295 82.17665067 55.29206846 82.39577339 53.29174805 82.61108398 C50.32126141 82.9324295 47.35309819 83.27073243 44.38476562 83.61132812 C17.3108048 86.64301495 -9.80440266 86.61866448 -37.01171875 86.62890625 C-37.90871239 86.62964268 -38.80570602 86.6303791 -39.72988129 86.63113785 C-66.44237584 86.64898657 -93.00197884 86.41256742 -119.57421875 83.37890625 C-120.76805176 83.24548828 -121.96188477 83.11207031 -123.19189453 82.97460938 C-128.91470688 82.31720958 -134.61852516 81.57908727 -140.31445312 80.71972656 C-142.56069479 80.38094595 -144.808822 80.06050285 -147.05859375 79.74609375 C-150.2321392 79.30079389 -153.40381914 78.84594952 -156.57421875 78.37890625 C-156.57421875 77.71890625 -156.57421875 77.05890625 -156.57421875 76.37890625 C-154.81425627 74.89747696 -152.98654991 73.49646809 -151.13671875 72.12890625 C-138.38717194 62.54577355 -126.13849706 52.3658727 -114.57421875 41.37890625 C-113.92324219 40.76917969 -113.27226562 40.15945313 -112.6015625 39.53125 C-104.58998359 31.81166485 -97.9978041 22.70698294 -91.2265625 13.91015625 C-90.58182983 13.12584229 -90.58182983 13.12584229 -89.92407227 12.32568359 C-88.43336085 10.32453519 -88.43336085 10.32453519 -87.40991211 7.54541016 C-85.5157825 3.7139834 -84.11174779 1.84335382 -80.57421875 -0.62109375 C-72.04202637 -2.53804865 -62.92722378 -1.60011731 -54.26171875 -1.24609375 C-50.64834791 -1.15094785 -47.0348784 -1.0712733 -43.4210968 -0.99349976 C-41.17901111 -0.93949551 -38.9371861 -0.87246405 -36.69596863 -0.78994751 C-26.10505166 -0.42566966 -9.07665034 -5.71594824 0 0 Z " fill="#31302F" transform="translate(545.57421875,765.62109375)"/>
<path d="M0 0 C1 2 1 2 -0.0390625 5.4296875 C-0.56388329 6.91281742 -1.09286034 8.39448029 -1.625 9.875 C-11.43853899 38.47315538 -15.59292671 68.86798834 -19.55786133 98.75 C-19.86645298 101.01834457 -20.19609936 103.28388078 -20.54174805 105.546875 C-21.9313174 114.96499853 -22.35666351 124.12930911 -22.3125 133.625 C-22.3117598 134.7280397 -22.3117598 134.7280397 -22.31100464 135.85336304 C-22.28234556 149.86423743 -20.82393824 163.26414505 -18 177 C-25.27224253 173.59597158 -32.04353325 169.84632024 -38.65698242 165.29052734 C-42.03424945 162.96813272 -45.44470599 160.69658089 -48.859375 158.4296875 C-57.08369338 152.95794072 -65.26302658 147.42082302 -73.4375 141.875 C-74.86259436 140.90880129 -76.28772443 139.94265525 -77.71289062 138.9765625 C-81.14233644 136.65164477 -84.57130729 134.32602822 -88 132 C-86.59925914 119.98767053 -80.3878983 109.41812209 -74.875 98.8125 C-74.54574524 98.1772641 -74.21649048 97.5420282 -73.8772583 96.88754272 C-68.48640684 86.51975753 -62.74001449 76.55498927 -56 67 C-55.48727539 66.2678125 -54.97455078 65.535625 -54.44628906 64.78125 C-41.38758127 46.20886558 -27.50674538 28.10511479 -11.2265625 12.22265625 C-8.46339932 9.46434073 -5.90680558 6.5637527 -3.375 3.59375 C-2.30150314 2.34946955 -1.16203041 1.16203041 0 0 Z " fill="#31302F" transform="translate(505,493)"/>
<path d="M0 0 C14.87815292 7.39578826 29.64085092 14.75340856 42 26 C42.53592773 26.47840332 43.07185547 26.95680664 43.62402344 27.44970703 C76.66784647 57.33392236 91.13142665 102.05671449 97 145 C97.17789063 146.24861816 97.17789063 146.24861816 97.359375 147.52246094 C101.48316746 177.77587886 99.64987531 209.69917786 97 240 C96.9321228 240.78165527 96.86424561 241.56331055 96.79431152 242.36865234 C95.31767579 259.30472622 93.79955447 276.23984904 91.8515625 293.12890625 C89.08084587 317.47806817 88.27242597 341.50008681 89 366 C89.05003174 367.69479492 89.05003174 367.69479492 89.10107422 369.42382812 C89.88111218 389.12229737 93.94790144 409.94969747 99 429 C80.75662932 412.36094583 75.19079457 373.4801182 74.0848999 350.16491699 C73.79281743 342.71691889 73.75639966 335.26535596 73.75 327.8125 C73.74866058 326.88091064 73.74732117 325.94932129 73.74594116 324.98950195 C73.75173383 306.20207661 75.01988721 287.67207627 77 269 C77.13341797 267.72092773 77.26683594 266.44185547 77.40429688 265.12402344 C78.30855 256.54261628 79.28938246 247.97120805 80.30908203 239.40283203 C88.72266313 168.54937495 79.71496266 95.12327962 35 37 C26.81090512 26.68770777 17.87100859 17.27075785 7.86328125 8.70703125 C4.94528075 6.03372681 2.50053495 3.06315531 0 0 Z " fill="#32312F" transform="translate(549,199)"/>
<path d="M0 0 C0.59640793 0.05375793 1.19281586 0.10751587 1.80729675 0.16290283 C28.50910337 2.5664738 55.21425297 4.93656866 81.94522095 6.99499512 C84.10031031 7.16128711 86.25524742 7.32956781 88.41000366 7.50012207 C118.68730462 9.88703593 148.95849775 10.24322088 179.3125 10.25 C180.6817223 10.25066278 180.6817223 10.25066278 182.07860565 10.25133896 C210.43680765 10.25850581 238.59707877 9.76408128 266.86291504 7.27587891 C270.36618348 6.9677974 273.87005796 6.667235 277.37402344 6.3671875 C287.74441626 5.47610878 298.11436186 4.58219783 308.47900391 3.6262207 C309.6538736 3.51870483 310.82874329 3.41118896 312.03921509 3.30041504 C314.23577638 3.09866003 316.43206906 2.89394907 318.62802124 2.68566895 C324.11429372 2.18289442 329.4907136 1.89616735 335 2 C332.88705021 4.33990685 331.13435639 5.55926576 328.18359375 6.6484375 C327.42941162 6.92905029 326.67522949 7.20966309 325.89819336 7.4987793 C325.08616455 7.78793213 324.27413574 8.07708496 323.4375 8.375 C322.58615479 8.68026611 321.73480957 8.98553223 320.85766602 9.30004883 C304.7270008 14.98734323 288.84339961 18.27095591 271.89208984 20.60205078 C269.52584174 20.9276446 267.16319932 21.26919375 264.80078125 21.62109375 C198.58678411 30.855262 125.92874329 29.10930332 60 18 C59.0399707 17.84418457 58.07994141 17.68836914 57.09082031 17.52783203 C17.44805858 11.07102234 17.44805858 11.07102234 1 2 C0.67 1.34 0.34 0.68 0 0 Z " fill="#323230" transform="translate(333,896)"/>
<path d="M0 0 C1.99754091 0.0065009 3.99508195 0.01299438 5.99262524 0.01872063 C25.68720555 0.08338217 45.34616829 0.66586567 65.02520752 1.45361328 C99.04239252 2.80481403 133.08585221 2.82177893 167.11254883 1.74121094 C184.42506775 1.20136626 201.74382899 0.99370147 219.0625 0.75 C220.64236458 0.72763617 222.22222908 0.70526681 223.80209351 0.68289185 C232.76385364 0.55628611 241.72565357 0.43285282 250.6875 0.3125 C236.93050727 14.78544963 200.99523985 12.85628871 182.140625 14.0859375 C179.74674648 14.24300193 177.35353093 14.41038033 174.9609375 14.5859375 C151.1060764 16.32567759 127.24055482 16.52704494 103.33392715 16.5583725 C100.92266662 16.56241999 98.51143855 16.56991004 96.10018921 16.57818604 C64.27999029 16.67296461 32.77570289 14.99317019 1.12646484 11.70800781 C-2.76511394 11.30445144 -6.65779591 10.91317122 -10.55078125 10.5234375 C-13.08340379 10.26631805 -15.61595873 10.00853169 -18.1484375 9.75 C-19.28397064 9.635354 -20.41950378 9.52070801 -21.58944702 9.40258789 C-29.20541395 8.60744892 -36.75457693 7.54084777 -44.3125 6.3125 C-34.94447763 -3.68730519 -12.38597158 -0.08970608 0 0 Z " fill="#323130" transform="translate(400.3125,713.6875)"/>
<path d="M0 0 C0.33 0 0.66 0 1 0 C4.6367235 20.73798283 7.73961402 40.84903593 -4.82421875 59.3046875 C-20.65011378 78.90947668 -44.50716899 90.08589141 -69 94 C-70.99947656 94.04575461 -73.00091211 94.0603954 -75 94 C-75.495 94.99 -75.495 94.99 -76 96 C-80 94 -84 92 -88 90 C-86.515 89.505 -86.515 89.505 -85 89 C-86.32 88.01 -87.64 87.02 -89 86 C-88.42668945 85.86948242 -87.85337891 85.73896484 -87.26269531 85.60449219 C-72.06012045 82.12247444 -57.76672867 78.57261977 -44 71 C-43.10667969 70.51015625 -42.21335937 70.0203125 -41.29296875 69.515625 C-22.7249841 58.53251256 -10.59685108 42.81670199 -5.20947266 21.93603516 C-3.38671123 14.64393766 -1.66697203 7.32915201 0 0 Z " fill="#31312F" transform="translate(526,289)"/>
<path d="M0 0 C-0.64324219 0.51046875 -1.28648437 1.0209375 -1.94921875 1.546875 C-11.69557156 9.38844845 -21.55265881 17.51090331 -29.4375 27.28125 C-34.25671957 32.58239153 -40.44787583 35.55667342 -46.6875 38.875 C-53.910894 42.73603493 -61.01604504 46.7187432 -68 51 C-70.09924886 46.80150227 -66.74933758 40.71320508 -65.4375 36.4375 C-65.10169922 35.28185547 -64.76589844 34.12621094 -64.41992188 32.93554688 C-60.86962683 21.29295922 -55.50317525 12.2630872 -44.98046875 5.75 C-38.36756924 2.41287817 -31.27230768 1.77805961 -24 1 C-23.16774902 0.90444824 -22.33549805 0.80889648 -21.47802734 0.71044922 C-18.778065 0.40063357 -16.07700193 0.10396177 -13.375 -0.1875 C-12.50963623 -0.28369629 -11.64427246 -0.37989258 -10.75268555 -0.47900391 C-9.52545776 -0.603479 -9.52545776 -0.603479 -8.2734375 -0.73046875 C-7.54560059 -0.80676514 -6.81776367 -0.88306152 -6.06787109 -0.96166992 C-3.86919928 -1.00242452 -2.09960928 -0.62621483 0 0 Z " fill="#31302E" transform="translate(452,234)"/>
<path d="M0 0 C0 8.07801775 -9.51320749 16.00152921 -14.91015625 21.44921875 C-15.6406871 22.19210648 -16.37121796 22.9349942 -17.12388611 23.70039368 C-18.65354732 25.24944835 -20.18724851 26.79452346 -21.72485352 28.33569336 C-24.07793629 30.7030298 -26.40302663 33.0958239 -28.72851562 35.49023438 C-30.22492388 36.99902278 -31.72291513 38.50624319 -33.22265625 40.01171875 C-33.91343765 40.72921799 -34.60421906 41.44671722 -35.31593323 42.18595886 C-37.14672246 43.9912642 -38.83874388 45.60693103 -41 47 C-44.29858398 46.87426758 -44.29858398 46.87426758 -47 46 C-48.485 46.495 -48.485 46.495 -50 47 C-50.99 46.34 -51.98 45.68 -53 45 C-52 43 -52 43 -50.03125 42.24609375 C-49.1959375 41.97925781 -48.360625 41.71242188 -47.5 41.4375 C-33.35154292 35.91516775 -26.36243536 20.49522583 -20.421875 7.4609375 C-18.81977114 4.68806543 -17.82116518 3.51065771 -15 2 C-12.37256926 1.47730899 -9.89962186 1.08547616 -7.25 0.8125 C-6.55261719 0.73064453 -5.85523438 0.64878906 -5.13671875 0.56445312 C-3.42573224 0.36522867 -1.71299963 0.18110071 0 0 Z " fill="#323230" transform="translate(334,381)"/>
<path d="M0 0 C-4.68934474 3.54849309 -8.69525617 4.97296462 -14.4375 6.0625 C-15.25226807 6.22532471 -16.06703613 6.38814941 -16.90649414 6.5559082 C-27.19827118 8.53520788 -37.59185518 9.81288629 -48 11 C-49.12921875 11.1340625 -50.2584375 11.268125 -51.421875 11.40625 C-60.90694858 12.37083375 -70.47830126 12.08467914 -80 12 C-80 11.67 -80 11.34 -80 11 C-75.38 10.67 -70.76 10.34 -66 10 C-66.99 9.01 -67.98 8.02 -69 7 C-68.34 6.67 -67.68 6.34 -67 6 C-67 6.66 -67 7.32 -67 8 C-65.68 8 -64.36 8 -63 8 C-63 8.66 -63 9.32 -63 10 C-60.03 10 -57.06 10 -54 10 C-54.66 8.35 -55.32 6.7 -56 5 C-57.65 5.33 -59.3 5.66 -61 6 C-61 5.01 -61 4.02 -61 3 C-70.57 2.67 -80.14 2.34 -90 2 C-90 1.67 -90 1.34 -90 1 C-72.75652707 0.05965905 -55.51615367 -0.30507331 -38.25195312 -0.55761719 C-34.44798803 -0.6134573 -30.64419703 -0.67719619 -26.84038925 -0.74279213 C-23.88601722 -0.79267114 -20.93158753 -0.83784987 -17.97711945 -0.88163376 C-16.57203866 -0.90314958 -15.16698174 -0.926289 -13.76195526 -0.9510994 C-11.82022351 -0.98482731 -9.87837134 -1.01139705 -7.93652344 -1.03759766 C-6.28399567 -1.06305161 -6.28399567 -1.06305161 -4.5980835 -1.08901978 C-2 -1 -2 -1 0 0 Z " fill="#333331" transform="translate(651,715)"/>
<path d="M0 0 C0.33 0 0.66 0 1 0 C1.02804921 1.58322194 1.04684498 3.166607 1.0625 4.75 C1.07410156 5.63171875 1.08570313 6.5134375 1.09765625 7.421875 C1.01770251 10.35138009 0.79540523 13.173835 0.5078125 16.0859375 C-2.7487838 53.64554153 0.3312411 92.54133241 10 129 C1.07419971 120.85913189 -3.28610729 104.98179869 -7.0625 93.8125 C-7.34899414 92.97734863 -7.63548828 92.14219727 -7.93066406 91.28173828 C-9.78526658 85.54527661 -10.62325429 80.01120482 -11 74 C-9.66666667 76.66666667 -8.33333333 79.33333333 -7 82 C-6.54625 81.505 -6.0925 81.01 -5.625 80.5 C-4 79 -4 79 -2 79 C-2.00444122 78.27575836 -2.00888245 77.55151672 -2.01345825 76.80532837 C-2.05395862 69.89436983 -2.08419564 62.9834296 -2.10362434 56.07238197 C-2.11394939 52.52150938 -2.12789494 48.97073688 -2.15087891 45.41992188 C-2.24698933 30.18579141 -2.31449049 15.10028915 0 0 Z " fill="#373734" transform="translate(638,499)"/>
<path d="M0 0 C-0.40355161 6.58426309 -0.91707851 13.15013074 -1.8125 19.6875 C-2.00779297 21.14736328 -2.00779297 21.14736328 -2.20703125 22.63671875 C-3 25 -3 25 -4.80859375 26.32421875 C-7.09682395 27.02985837 -8.86383066 27.20453898 -11.25 27.125 C-12.4875 27.08375 -13.725 27.0425 -15 27 C-18.21819111 19.22270481 -18.32098157 12.35740901 -18 4 C-15.5636811 3.32873871 -13.12611117 2.66283646 -10.6875 2 C-9.65206055 1.71382813 -9.65206055 1.71382813 -8.59570312 1.421875 C-5.64212051 0.62283816 -3.07440781 0 0 0 Z " fill="#30302E" transform="translate(293,350)"/>
<path d="M0 0 C0.87011719 0.00451172 1.74023438 0.00902344 2.63671875 0.01367188 C4.75784293 0.0253264 6.8789311 0.04325643 9 0.0625 C9 0.3925 9 0.7225 9 1.0625 C7.35 1.0625 5.7 1.0625 4 1.0625 C4 1.7225 4 2.3825 4 3.0625 C4.99 3.3925 5.98 3.7225 7 4.0625 C7 4.7225 7 5.3825 7 6.0625 C6.34 6.0625 5.68 6.0625 5 6.0625 C5 6.7225 5 7.3825 5 8.0625 C-2.92 7.4025 -10.84 6.7425 -19 6.0625 C-18.34 5.0725 -17.68 4.0825 -17 3.0625 C-17.33 2.4025 -17.66 1.7425 -18 1.0625 C-11.95180188 0.17347088 -6.10776514 -0.06098383 0 0 Z " fill="#2E2E2D" transform="translate(392,714.9375)"/>
<path d="M0 0 C7.92 0 15.84 0 24 0 C23.34 0.66 22.68 1.32 22 2 C22.33 2.33 22.66 2.66 23 3 C23.33 3.66 23.66 4.32 24 5 C23.38511719 5.13277344 22.77023437 5.26554688 22.13671875 5.40234375 C20.92435547 5.66724609 20.92435547 5.66724609 19.6875 5.9375 C18.88699219 6.11152344 18.08648438 6.28554688 17.26171875 6.46484375 C14.854599 6.99886159 14.854599 6.99886159 12 8 C9.81415251 8.09467365 7.62539133 8.12988914 5.4375 8.125 C4.28121094 8.12757813 3.12492188 8.13015625 1.93359375 8.1328125 C-1 8 -1 8 -3 7 C-3 6.34 -3 5.68 -3 5 C-2.01 4.34 -1.02 3.68 0 3 C0 2.01 0 1.02 0 0 Z " fill="#2E2E2D" transform="translate(605,716)"/>
<path d="M0 0 C-4.94094942 3.81800637 -9.41379769 5.09523067 -15.5 6.25 C-16.32886719 6.42273438 -17.15773438 6.59546875 -18.01171875 6.7734375 C-22.40548381 7.65358758 -26.4955103 8.20474953 -31 8 C-28.38058783 6.25372522 -26.96175123 5.61277612 -24 5 C-24.66 4.67 -25.32 4.34 -26 4 C-26.33 3.34 -26.66 2.68 -27 2 C-34.92 1.67 -42.84 1.34 -51 1 C-51 0.67 -51 0.34 -51 0 C-44.05842502 -0.16799036 -37.11669843 -0.32792417 -30.17480469 -0.48217773 C-27.8118059 -0.53564586 -25.44884855 -0.59097883 -23.0859375 -0.64819336 C-19.69540344 -0.72997008 -16.30477834 -0.80510471 -12.9140625 -0.87890625 C-11.85256989 -0.90594131 -10.79107727 -0.93297638 -9.69741821 -0.96083069 C-8.22611954 -0.99097511 -8.22611954 -0.99097511 -6.72509766 -1.02172852 C-5.85905914 -1.04171402 -4.99302063 -1.06169952 -4.10073853 -1.08229065 C-2 -1 -2 -1 0 0 Z " fill="#3F3F3D" transform="translate(651,715)"/>
<path d="M0 0 C0 0.99 0 1.98 0 3 C9.74563051 4.63283066 19.48041694 5.71873243 29.3125 6.625 C30.74677774 6.76006724 32.18102279 6.8954821 33.61523438 7.03125 C37.07645693 7.35815756 40.53809229 7.68041958 44 8 C44 8.33 44 8.66 44 9 C32.46549323 9.27444375 21.31706434 8.47631829 9.875 7.0625 C8.31259684 6.87743582 6.75009674 6.69318813 5.1875 6.50976562 C-0.89639003 5.78758539 -6.96183472 5.05237932 -13 4 C-9.47163989 -0.27117276 -5.24714378 -0.14991839 0 0 Z " fill="#3C3C3A" transform="translate(369,716)"/>
<path d="M0 0 C4.29 0 8.58 0 13 0 C13.33 1.65 13.66 3.3 14 5 C12.5625 6.8125 12.5625 6.8125 11 8 C10.67 7.34 10.34 6.68 10 6 C9.525625 6.495 9.05125 6.99 8.5625 7.5 C4.79641649 9.70453669 1.26540621 9.24608113 -3 9 C-2.34 8.34 -1.68 7.68 -1 7 C-0.01 7 0.98 7 2 7 C2.16687448 4.58354218 2.16687448 4.58354218 2 2 C1.34 1.34 0.68 0.68 0 0 Z " fill="#2F2F2D" transform="translate(383,903)"/>
<path d="M0 0 C1 2 1 2 0.59448242 3.76831055 C0.35060791 4.46738525 0.1067334 5.16645996 -0.14453125 5.88671875 C-0.54188477 7.0478418 -0.54188477 7.0478418 -0.94726562 8.23242188 C-1.23279297 9.04259766 -1.51832031 9.85277344 -1.8125 10.6875 C-2.36210616 12.27424531 -2.91030348 13.86147936 -3.45703125 15.44921875 C-3.72080566 16.21411621 -3.98458008 16.97901367 -4.25634766 17.76708984 C-5.27305109 20.81987041 -6.14854842 23.89739352 -7 27 C-8.37432457 23.18243176 -7.67975039 19.92744671 -7 16 C-7.99 16.66 -8.98 17.32 -10 18 C-9.34 16.35 -8.68 14.7 -8 13 C-8.66 12.34 -9.32 11.68 -10 11 C-8.52116808 9.35386588 -7.04192523 7.70810092 -5.5625 6.0625 C-4.73878906 5.14597656 -3.91507812 4.22945313 -3.06640625 3.28515625 C-1 1 -1 1 0 0 Z " fill="#363633" transform="translate(505,493)"/>
<path d="M0 0 C0.66 0 1.32 0 2 0 C2.10881621 15.03672639 2.09819822 29.99782788 1 45 C0.67 45 0.34 45 0 45 C-1.52130989 29.92273237 -0.84264343 15.09234574 0 0 Z " fill="#1F1F1C" transform="translate(719,349)"/>
<path d="M0 0 C0.66 1.32 1.32 2.64 2 4 C1.34 4 0.68 4 0 4 C0 4.66 0 5.32 0 6 C5.28 6.33 10.56 6.66 16 7 C16 7.33 16 7.66 16 8 C7.05173295 8.20470906 -1.67074023 7.60098208 -10.5625 6.625 C-11.81869141 6.49867188 -13.07488281 6.37234375 -14.36914062 6.2421875 C-16.16834961 6.04882812 -16.16834961 6.04882812 -18.00390625 5.8515625 C-19.08486572 5.73635254 -20.1658252 5.62114258 -21.27954102 5.50244141 C-24 5 -24 5 -27 3 C-19.74 3.33 -12.48 3.66 -5 4 C-4.67 3.01 -4.34 2.02 -4 1 C-1.9375 0.3125 -1.9375 0.3125 0 0 Z " fill="#3A3A38" transform="translate(428,911)"/>
<path d="M0 0 C0.33 0 0.66 0 1 0 C2.75524899 10.00909843 4.29567829 19.87905544 4.3125 30.0625 C4.31765625 30.81708496 4.3228125 31.57166992 4.328125 32.34912109 C4.27991187 36.09338705 4.12615783 37.81076325 2 41 C1.67 30.44 1.34 19.88 1 9 C0.34 9 -0.32 9 -1 9 C-0.67 6.03 -0.34 3.06 0 0 Z " fill="#383735" transform="translate(526,289)"/>
<path d="M0 0 C0.33 0.66 0.66 1.32 1 2 C2.32 2 3.64 2 5 2 C5 2.66 5 3.32 5 4 C5.83809204 3.90912109 5.83809204 3.90912109 6.69311523 3.81640625 C9.27407726 3.53937038 11.85575657 3.26965281 14.4375 3 C15.31599609 2.90460937 16.19449219 2.80921875 17.09960938 2.7109375 C22.76758855 2.12531604 28.30188968 1.90725355 34 2 C34 2.33 34 2.66 34 3 C18.59204368 5.05051613 3.5492079 6.47384719 -12 6 C-12 5.67 -12 5.34 -12 5 C-7.38 4.67 -2.76 4.34 2 4 C1.01 3.01 0.02 2.02 -1 1 C-0.67 0.67 -0.34 0.34 0 0 Z " fill="#3D3D3B" transform="translate(583,721)"/>
<path d="M0 0 C7.77449624 -0.31732638 15.32992235 0.88144701 23 2 C23 2.33 23 2.66 23 3 C20.36 3.33 17.72 3.66 15 4 C15 4.33 15 4.66 15 5 C13.1128125 4.9071875 13.1128125 4.9071875 11.1875 4.8125 C7.83041021 4.76367078 7.83041021 4.76367078 5 6.5 C4.505 7.2425 4.505 7.2425 4 8 C0 3.375 0 3.375 0 0 Z " fill="#171715" transform="translate(408,88)"/>
<path d="M0 0 C-0.40355161 6.58426309 -0.91707851 13.15013074 -1.8125 19.6875 C-2.00779297 21.14736328 -2.00779297 21.14736328 -2.20703125 22.63671875 C-3 25 -3 25 -4.93359375 26.35546875 C-7.36460244 27.11372288 -8.63145901 26.8459075 -11 26 C-10.01 25.67 -9.02 25.34 -8 25 C-7.34 24.34 -6.68 23.68 -6 23 C-5.34 23.33 -4.68 23.66 -4 24 C-3.93941406 22.91460937 -3.87882812 21.82921875 -3.81640625 20.7109375 C-3.73193936 19.26561514 -3.64729449 17.82030318 -3.5625 16.375 C-3.52318359 15.66214844 -3.48386719 14.94929688 -3.44335938 14.21484375 C-3.19690319 10.08196318 -2.76529947 6.07730976 -2 2 C-3.051875 2.33 -4.10375 2.66 -5.1875 3 C-8.38873357 3.83966782 -10.7411008 4.19750904 -14 4 C-11.36505677 2.24337118 -9.96001018 1.58136607 -7 0.875 C-6.319375 0.70742188 -5.63875 0.53984375 -4.9375 0.3671875 C-3 0 -3 0 0 0 Z " fill="#393836" transform="translate(293,350)"/>
<path d="M0 0 C7.21004251 5.82939607 13.53686291 12.4968307 19 20 C15.22345045 18.29847768 12.65890044 15.97405454 9.68359375 13.14453125 C9.12800781 12.76683594 8.57242188 12.38914062 8 12 C7.01 12.33 6.02 12.66 5 13 C4.01 12.34 3.02 11.68 2 11 C2.66 10.01 3.32 9.02 4 8 C4.66 8.33 5.32 8.66 6 9 C5.566875 8.51789062 5.13375 8.03578125 4.6875 7.5390625 C4.130625 6.90742187 3.57375 6.27578125 3 5.625 C2.443125 4.99851562 1.88625 4.37203125 1.3125 3.7265625 C0 2 0 2 0 0 Z " fill="#3A3936" transform="translate(565,790)"/>
<path d="M0 0 C2.1875 0.3125 2.1875 0.3125 4 1 C3.01 2.32 2.02 3.64 1 5 C1.763125 4.938125 2.52625 4.87625 3.3125 4.8125 C6 5 6 5 9 8 C6.03 8 3.06 8 0 8 C0 7.34 0 6.68 0 6 C-1.918125 5.814375 -1.918125 5.814375 -3.875 5.625 C-7.75 5.25 -7.75 5.25 -10 3 C-8 2 -8 2 -5.5625 2.625 C-4.2940625 2.810625 -4.2940625 2.810625 -3 3 C-1.97980427 2.0206121 -0.97850195 1.02104551 0 0 Z " fill="#181816" transform="translate(296,424)"/>
<path d="M0 0 C1.14082031 0.02578125 2.28164063 0.0515625 3.45703125 0.078125 C10.43561258 0.38426416 17.40545494 0.78258141 24.375 1.25 C24.375 1.58 24.375 1.91 24.375 2.25 C13.35610461 2.9568249 2.41812186 3.39659011 -8.625 3.25 C-6.0405766 -0.09041119 -4.10925774 -0.10403184 0 0 Z " fill="#1F1E1B" transform="translate(560.625,975.75)"/>
<path d="M0 0 C0 3.99904969 -1.72586967 5.80200422 -4 9 C-5.0625 7.125 -5.0625 7.125 -6 5 C-5.67 4.34 -5.34 3.68 -5 3 C-6.58467728 3.28427417 -8.1677057 3.57774818 -9.75 3.875 C-10.63171875 4.03742188 -11.5134375 4.19984375 -12.421875 4.3671875 C-14.86947744 4.96796264 -16.80599857 5.77997117 -19 7 C-17.25 3.125 -17.25 3.125 -15 2 C-12.45802036 1.6087065 -9.92608411 1.25520881 -7.375 0.9375 C-6.66859375 0.84662109 -5.9621875 0.75574219 -5.234375 0.66210938 C-3.4899959 0.43816881 -1.74504866 0.21866182 0 0 Z " fill="#383835" transform="translate(334,381)"/>
<path d="M0 0 C-5.445 4.455 -5.445 4.455 -11 9 C-11.66 8.67 -12.32 8.34 -13 8 C-12.01 6.35 -11.02 4.7 -10 3 C-12.97 2.67 -15.94 2.34 -19 2 C-19 1.67 -19 1.34 -19 1 C-16.58440932 0.63645961 -14.16805703 0.28389449 -11.75 -0.0625 C-11.06808594 -0.16626953 -10.38617188 -0.27003906 -9.68359375 -0.37695312 C-5.98999789 -0.89692536 -3.68402549 -0.92100637 0 0 Z " fill="#3A3937" transform="translate(452,234)"/>
<path d="M0 0 C2.73824599 2.73824599 2.90458437 5.69902693 3.5625 9.375 C4.62944948 15.22042978 4.62944948 15.22042978 6 21 C3.0332097 18.42639878 1.50855222 15.48295779 -0.25 12 C-0.79140625 10.948125 -1.3328125 9.89625 -1.890625 8.8125 C-3 6 -3 6 -2 3 C-1.01 4.485 -1.01 4.485 0 6 C0 4.02 0 2.04 0 0 Z " fill="#3A3A38" transform="translate(642,607)"/>
<path d="M0 0 C6.6 0.66 13.2 1.32 20 2 C20 2.33 20 2.66 20 3 C15.545 3.495 15.545 3.495 11 4 C13.475 4.99 13.475 4.99 16 6 C13.04893565 7.25348607 12.02593537 7.01044806 8.984375 5.78515625 C7.91703125 5.21667969 6.8496875 4.64820313 5.75 4.0625 C4.67234375 3.49660156 3.5946875 2.93070313 2.484375 2.34765625 C1.66453125 1.90292969 0.8446875 1.45820312 0 1 C0 0.67 0 0.34 0 0 Z " fill="#3A3B39" transform="translate(333,896)"/>
<path d="M0 0 C-3.277264 3.64678443 -6.96052291 4.68884427 -11.5 6.25 C-12.27214844 6.53101563 -13.04429687 6.81203125 -13.83984375 7.1015625 C-14.58363281 7.36195313 -15.32742188 7.62234375 -16.09375 7.890625 C-16.77115234 8.12813477 -17.44855469 8.36564453 -18.14648438 8.61035156 C-20 9 -20 9 -23 8 C-18.71 6.35 -14.42 4.7 -10 3 C-10.99 2.34 -11.98 1.68 -13 1 C-8.59085217 -0.10228696 -4.51617599 -0.07654536 0 0 Z " fill="#3D3D3B" transform="translate(668,898)"/>
<path d="M0 0 C4.5929708 3.52127761 5.11941917 7.57747597 6 13 C5.34 12.67 4.68 12.34 4 12 C4 11.34 4 10.68 4 10 C3.071875 9.8453125 3.071875 9.8453125 2.125 9.6875 C0 9 0 9 -2 6 C-2.33 5.01 -2.66 4.02 -3 3 C-2.01 2.01 -1.02 1.02 0 0 Z " fill="#060605" transform="translate(339,742)"/>
<path d="M0 0 C0.33 0 0.66 0 1 0 C1 2.97 1 5.94 1 9 C1.66 9.33 2.32 9.66 3 10 C2.01 10.495 2.01 10.495 1 11 C0.52891722 13.62039764 0.52891722 13.62039764 0.3671875 16.78515625 C0.28339844 17.95498047 0.19960938 19.12480469 0.11328125 20.33007812 C0.03464844 21.56177734 -0.04398438 22.79347656 -0.125 24.0625 C-0.21136719 25.29806641 -0.29773438 26.53363281 -0.38671875 27.80664062 C-0.59965895 30.87061356 -0.80367862 33.93492456 -1 37 C-1.33 37 -1.66 37 -2 37 C-2.26866528 24.50706436 -1.53956314 12.39898174 0 0 Z " fill="#41403D" transform="translate(626,471)"/>
<path d="M0 0 C0.66 0 1.32 0 2 0 C3.13650717 6.06979017 2.92803609 11.79061145 2.5625 17.9375 C2.51029297 18.90751953 2.45808594 19.87753906 2.40429688 20.87695312 C2.27561558 23.25170788 2.14070204 25.62593229 2 28 C1.67 28 1.34 28 1 28 C0.38673965 18.6587308 -0.1820896 9.36749815 0 0 Z " fill="#232320" transform="translate(255,361)"/>
<path d="M0 0 C4.92545856 4.25985605 7.66121106 8.6767585 8.1796875 15.29296875 C8.18642475 17.19624326 8.10181578 19.09943882 8 21 C7.67 21 7.34 21 7 21 C7 19.02 7 17.04 7 15 C6.34 15 5.68 15 5 15 C5 13.35 5 11.7 5 10 C4.34 10 3.68 10 3 10 C0 3.375 0 3.375 0 0 Z " fill="#1A1916" transform="translate(723,899)"/>
<path d="M0 0 C2.96783129 1.45668783 5.86415313 3.01232086 8.75 4.625 C9.94882812 5.29402344 9.94882812 5.29402344 11.171875 5.9765625 C11.77515625 6.31429687 12.3784375 6.65203125 13 7 C12.01 7.33 11.02 7.66 10 8 C12.475 9.98 12.475 9.98 15 12 C14.67 12.66 14.34 13.32 14 14 C8.81580806 9.67106815 4.27293882 5.23435005 0 0 Z " fill="#3C3B39" transform="translate(549,199)"/>
<path d="M0 0 C2.31 0 4.62 0 7 0 C5.68 0.33 4.36 0.66 3 1 C3.15597656 1.53367187 3.31195313 2.06734375 3.47265625 2.6171875 C5.05971213 8.69214313 4.9549948 13.81834444 4 20 C3.67 20 3.34 20 3 20 C2.01 13.4 1.02 6.8 0 0 Z " fill="#1E1E1B" transform="translate(506,98)"/>
<path d="M0 0 C5.75 0.75 5.75 0.75 8 3 C8.66 3.33 9.32 3.66 10 4 C12 5 12 5 14 7 C13.67 7.99 13.34 8.98 13 10 C9 8 5 6 1 4 C1.99 3.67 2.98 3.34 4 3 C2.68 2.01 1.36 1.02 0 0 Z " fill="#282724" transform="translate(437,375)"/>
<path d="M0 0 C0 0.66 0 1.32 0 2 C-4.68684801 3.26798493 -9.03294937 2.91105063 -13.8125 2.5625 C-14.99489258 2.48418945 -14.99489258 2.48418945 -16.20117188 2.40429688 C-18.13451529 2.27540731 -20.06732164 2.13850506 -22 2 C-22 1.67 -22 1.34 -22 1 C-14.64206267 0.08839714 -7.41017023 -0.11459026 0 0 Z " fill="#191815" transform="translate(328,431)"/>
<path d="M0 0 C0.66 0 1.32 0 2 0 C2 4.29 2 8.58 2 13 C2.66 13 3.32 13 4 13 C5.5078125 14.53125 5.5078125 14.53125 7.125 16.5 C7.66382813 17.1496875 8.20265625 17.799375 8.7578125 18.46875 C9.16773438 18.9740625 9.57765625 19.479375 10 20 C6.06368636 20 4.87394974 18.57142871 2 16 C0.5192152 13.0384304 0.64685963 10.16493705 0.4375 6.875 C0.35371094 5.59367188 0.26992188 4.31234375 0.18359375 2.9921875 C0.12300781 2.00476563 0.06242187 1.01734375 0 0 Z " fill="#23231F" transform="translate(273,931)"/>
<path d="M0 0 C0 0.66 0 1.32 0 2 C1.32 2.33 2.64 2.66 4 3 C-2.27 2.67 -8.54 2.34 -15 2 C-15 1.34 -15 0.68 -15 0 C-9.96266834 -1.5111995 -5.11828973 -0.64599773 0 0 Z " fill="#191916" transform="translate(366,969)"/>
<path d="M0 0 C1.10601562 -0.03867187 1.10601562 -0.03867187 2.234375 -0.078125 C4.77362657 0.33524153 5.63435133 1.30713135 7.25 3.25 C0.83311325 3.35349817 -5.37694402 2.99507544 -11.75 2.25 C-11.75 1.92 -11.75 1.59 -11.75 1.25 C-7.82808555 0.58244009 -3.97870589 0.13023587 0 0 Z " fill="#1A1A17" transform="translate(434.75,375.75)"/>
<path d="M0 0 C1.5 1.375 1.5 1.375 3 3 C3 3.66 3 4.32 3 5 C4.65 5 6.3 5 8 5 C8 5.33 8 5.66 8 6 C5.72858891 5.88597936 3.45785448 5.75841495 1.1875 5.625 C-0.07707031 5.55539062 -1.34164063 5.48578125 -2.64453125 5.4140625 C-6 5 -6 5 -9 3 C-7.88625 3.061875 -6.7725 3.12375 -5.625 3.1875 C-4.42875 3.125625 -3.2325 3.06375 -2 3 C-1.34 2.01 -0.68 1.02 0 0 Z " fill="#3A3A38" transform="translate(392,908)"/>
<path d="M0 0 C5.94 0 11.88 0 18 0 C18 0.33 18 0.66 18 1 C14.7 1.33 11.4 1.66 8 2 C8.33 3.32 8.66 4.64 9 6 C8.34 6 7.68 6 7 6 C6.34 5.01 5.68 4.02 5 3 C2.43717258 2.27034634 2.43717258 2.27034634 0 2 C0 1.34 0 0.68 0 0 Z " fill="#3C3C3A" transform="translate(561,906)"/>
<path d="M0 0 C1.02577148 0.00676758 1.02577148 0.00676758 2.07226562 0.01367188 C3.73571604 0.0253044 5.3991205 0.04323306 7.0625 0.0625 C7.0625 0.3925 7.0625 0.7225 7.0625 1.0625 C3.98632812 1.35546875 3.98632812 1.35546875 0.91015625 1.6484375 C0.30042969 1.78507813 -0.30929687 1.92171875 -0.9375 2.0625 C-1.2675 2.7225 -1.5975 3.3825 -1.9375 4.0625 C-1.9375 3.4025 -1.9375 2.7425 -1.9375 2.0625 C-6.2275 2.0625 -10.5175 2.0625 -14.9375 2.0625 C-14.9375 1.7325 -14.9375 1.4025 -14.9375 1.0625 C-9.89895894 0.23038724 -5.1249338 -0.0453534 0 0 Z " fill="#3B3B38" transform="translate(610.9375,902.9375)"/>
<path d="M0 0 C2.04159095 -0.0272616 4.08328963 -0.04651345 6.125 -0.0625 C7.26195312 -0.07410156 8.39890625 -0.08570313 9.5703125 -0.09765625 C12.8129156 -0.005327 15.81932612 0.38610094 19 1 C19 1.33 19 1.66 19 2 C12.42150508 2.95494281 6.58183362 2.8931507 0 2 C0 1.34 0 0.68 0 0 Z " fill="#080706" transform="translate(411,375)"/>
<path d="M0 0 C1.485 0.2475 1.485 0.2475 3 0.5 C3 0.83 3 1.16 3 1.5 C-3.02031344 2.10965199 -8.94670256 2.63451772 -15 2.5 C-11.70285039 -2.44572442 -5.13741663 -0.71004945 0 0 Z " fill="#1A1A17" transform="translate(443,91.5)"/>
<path d="M0 0 C-2 2 -2 2 -5.6953125 2.1953125 C-7.17200108 2.182009 -8.64862358 2.15814835 -10.125 2.125 C-10.87910156 2.11597656 -11.63320313 2.10695313 -12.41015625 2.09765625 C-14.27357254 2.0740687 -16.13682593 2.03819719 -18 2 C-18.33 1.34 -18.66 0.68 -19 0 C-12.41816638 -0.8931507 -6.57849492 -0.95494281 0 0 Z " fill="#1C1C19" transform="translate(410,974)"/>
<path d="M0 0 C0.66 0 1.32 0 2 0 C6 5.29411765 6 5.29411765 6 9 C6.66 9.33 7.32 9.66 8 10 C7.34 10.66 6.68 11.32 6 12 C4 10 4 10 3 7 C2.01 7.495 2.01 7.495 1 8 C0.67 5.36 0.34 2.72 0 0 Z " fill="#1A1A17" transform="translate(312,653)"/>
<path d="M0 0 C2.875 -0.125 2.875 -0.125 6 0 C6.66 0.66 7.32 1.32 8 2 C7.01 2.495 7.01 2.495 6 3 C5.01 2.67 4.02 2.34 3 2 C2.67 2.99 2.34 3.98 2 5 C0.02 5.33 -1.96 5.66 -4 6 C-4 5.01 -4 4.02 -4 3 C-2.68 2.67 -1.36 2.34 0 2 C0 1.34 0 0.68 0 0 Z " fill="#333331" transform="translate(594,715)"/>
<path d="M0 0 C2.625 -0.1875 2.625 -0.1875 5 0 C5 0.66 5 1.32 5 2 C6.98 2 8.96 2 11 2 C11 2.99 11 3.98 11 5 C6.71 4.34 2.42 3.68 -2 3 C-1.34 2.01 -0.68 1.02 0 0 Z " fill="#1A1A17" transform="translate(325,962)"/>
<path d="M0 0 C3.04386724 -0.08226668 5.07175348 0.02391783 8 1 C9.66621616 1.03874921 11.33394172 1.0450286 13 1 C9.83759418 3.10827055 8.49342531 3.33817465 4.8125 3.625 C3.46091797 3.73714844 3.46091797 3.73714844 2.08203125 3.8515625 C1.05142578 3.92503906 1.05142578 3.92503906 0 4 C0 2.68 0 1.36 0 0 Z " fill="#2F2F2D" transform="translate(630,716)"/>
<path d="M0 0 C0.66 0.33 1.32 0.66 2 1 C-0.64 3.64 -3.28 6.28 -6 9 C-6.66 7.68 -7.32 6.36 -8 5 C-7.67 4.34 -7.34 3.68 -7 3 C-6.01 3 -5.02 3 -4 3 C-3.67 2.34 -3.34 1.68 -3 1 C-2.34 1 -1.68 1 -1 1 C-0.67 0.67 -0.34 0.34 0 0 Z " fill="#383735" transform="translate(433,247)"/>
<path d="M0 0 C3 2 3 2 3.6875 4.1875 C4.05299646 7.47696816 4.06484373 10.69296984 4 14 C3.34 14 2.68 14 2 14 C1.34 9.38 0.68 4.76 0 0 Z " fill="#191916" transform="translate(713,293)"/>
<path d="M0 0 C0.66 0.33 1.32 0.66 2 1 C-1.625 6.75 -1.625 6.75 -5 9 C-5.99 8.34 -6.98 7.68 -8 7 C-5.36 4.69 -2.72 2.38 0 0 Z " fill="#191916" transform="translate(662,207)"/>
<path d="M0 0 C1.08667969 0.11988281 2.17335938 0.23976563 3.29296875 0.36328125 C4.12441406 0.47027344 4.95585938 0.57726562 5.8125 0.6875 C3.44560671 2.87969402 2.29522731 3.6746902 -0.984375 3.76171875 C-1.95890625 3.63410156 -2.9334375 3.50648438 -3.9375 3.375 C-4.92234375 3.25511719 -5.9071875 3.13523437 -6.921875 3.01171875 C-7.66953125 2.90472656 -8.4171875 2.79773438 -9.1875 2.6875 C-6.51245717 -0.96369882 -4.27917944 -0.5061395 0 0 Z " fill="#262622" transform="translate(624.1875,972.3125)"/>
<path d="M0 0 C3.96 0.33 7.92 0.66 12 1 C5.60869565 5.26086957 5.60869565 5.26086957 1.6875 4.625 C1.130625 4.41875 0.57375 4.2125 0 4 C0.99 4 1.98 4 3 4 C3 3.34 3 2.68 3 2 C2.01 1.34 1.02 0.68 0 0 Z " fill="#2E2E2C" transform="translate(649,899)"/>
<path d="M0 0 C0.66 0.66 1.32 1.32 2 2 C1.67 2.99 1.34 3.98 1 5 C-1.97 4.67 -4.94 4.34 -8 4 C-4.95904634 0.95904634 -4.10269692 0.31559207 0 0 Z " fill="#343533" transform="translate(364,716)"/>
<path d="M0 0 C0.66 0.33 1.32 0.66 2 1 C2 5 2 5 -0.3125 7.5625 C-1.199375 8.366875 -2.08625 9.17125 -3 10 C-3.8971875 10.8971875 -3.8971875 10.8971875 -4.8125 11.8125 C-5.204375 12.204375 -5.59625 12.59625 -6 13 C-4.58707905 8.1725201 -2.57025846 4.2837641 0 0 Z " fill="#3A3937" transform="translate(440,574)"/>
<path d="M0 0 C-1.84521243 4.11624312 -3.50970209 6.34149627 -7.6875 8.1875 C-8.450625 8.455625 -9.21375 8.72375 -10 9 C-9.38125 8.236875 -8.7625 7.47375 -8.125 6.6875 C-5.94402948 4.00374191 -5.94402948 4.00374191 -4 1 C-2 0 -2 0 0 0 Z " fill="#1C1C19" transform="translate(333,790)"/>
<path d="M0 0 C0.33 0 0.66 0 1 0 C1.19393875 2.14526099 1.37998676 4.29123677 1.5625 6.4375 C1.66691406 7.63246094 1.77132812 8.82742188 1.87890625 10.05859375 C1.91886719 11.02925781 1.95882812 11.99992187 2 13 C1.67 13.33 1.34 13.66 1 14 C0.76924918 15.34747084 0.58846937 16.70377565 0.4375 18.0625 C0.293125 19.361875 0.14875 20.66125 0 22 C-0.33 22 -0.66 22 -1 22 C-1.11459026 14.58982977 -0.91160286 7.35793733 0 0 Z " fill="#3F3E3C" transform="translate(632,413)"/>
<path d="M0 0 C0.99 0.66 1.98 1.32 3 2 C1.56036361 5.35915158 -0.12416589 7.71624938 -3 10 C-5.25 9.75 -5.25 9.75 -7 9 C-3.25 6 -3.25 6 -1 6 C-0.67 4.02 -0.34 2.04 0 0 Z " fill="#1C1C19" transform="translate(435,168)"/>
<path d="M0 0 C0.33 0.99 0.66 1.98 1 3 C-0.3125 5.4375 -0.3125 5.4375 -2 8 C-2.68096422 9.32608822 -3.35330586 10.65686601 -4 12 C-4.99 11.34 -5.98 10.68 -7 10 C-4.93992341 6.39486597 -2.6486859 3.19668988 0 0 Z " fill="#181916" transform="translate(436,420)"/>
<path d="M0 0 C1.9375 0.3125 1.9375 0.3125 4 1 C4.33 1.99 4.66 2.98 5 4 C4.01 4.33 3.02 4.66 2 5 C1.67 5.99 1.34 6.98 1 8 C0.01 7.34 -0.98 6.68 -2 6 C-1.34 5.01 -0.68 4.02 0 3 C0 2.01 0 1.02 0 0 Z M1 1 C2 3 2 3 2 3 Z " fill="#20201D" transform="translate(398,464)"/>
<path d="M0 0 C0.66 0.33 1.32 0.66 2 1 C1.3125 3.4375 1.3125 3.4375 0 6 C-2.80968687 6.93656229 -5.03799136 7 -8 7 C-5.36 4.69 -2.72 2.38 0 0 Z " fill="#1B1A18" transform="translate(282,321)"/>
<path d="M0 0 C1.12894876 0.93274109 2.25300876 1.87140122 3.375 2.8125 C4.00148438 3.33457031 4.62796875 3.85664063 5.2734375 4.39453125 C7 6 7 6 9 9 C6 9 6 9 4.39453125 7.79296875 C3.87246094 7.26316406 3.35039063 6.73335937 2.8125 6.1875 C2.01779297 5.40439453 2.01779297 5.40439453 1.20703125 4.60546875 C0 3 0 3 0 0 Z " fill="#191816" transform="translate(640,156)"/>
<path d="M0 0 C0.66 0 1.32 0 2 0 C2.25 7.625 2.25 7.625 0 11 C-0.33 10.67 -0.66 10.34 -1 10 C-0.91036938 8.30858344 -0.75422324 6.62040398 -0.5625 4.9375 C-0.46066406 4.01839844 -0.35882813 3.09929688 -0.25390625 2.15234375 C-0.17011719 1.44207031 -0.08632813 0.73179687 0 0 Z " fill="#1A1A17" transform="translate(295,603)"/>
<path d="M0 0 C1.15837573 3.47512718 0.77265943 5.13670286 0.0625 8.6875 C-0.13214844 9.68136719 -0.32679688 10.67523438 -0.52734375 11.69921875 C-0.68332031 12.45847656 -0.83929687 13.21773438 -1 14 C-3.29480503 9.9840912 -2.98836818 7.53002084 -2 3 C-1.34 2.01 -0.68 1.02 0 0 Z " fill="#1C1C18" transform="translate(707,468)"/>
<path d="M0 0 C1.875 0.625 1.875 0.625 4 2 C5.25 5.125 5.25 5.125 6 8 C4.125 7.6875 4.125 7.6875 2 7 C0 4 0 4 -1 1 C-0.67 0.67 -0.34 0.34 0 0 Z " fill="#373631" transform="translate(337,744)"/>
<path d="M0 0 C0.12375 0.61875 0.2475 1.2375 0.375 1.875 C0.87197356 4.19120832 0.87197356 4.19120832 3 6 C2.34 6 1.68 6 1 6 C1 6.66 1 7.32 1 8 C-1 9.625 -1 9.625 -3 11 C-2.44894091 7.0507432 -1.61064629 3.65079826 0 0 Z " fill="#383835" transform="translate(520,316)"/>
<path d="M0 0 C0.33 0.99 0.66 1.98 1 3 C-1.97 5.475 -1.97 5.475 -5 8 C-6.32 7.34 -7.64 6.68 -9 6 C-8.2575 5.7525 -7.515 5.505 -6.75 5.25 C-3.79875938 3.90852699 -2.15185026 2.39094474 0 0 Z " fill="#1C1B18" transform="translate(323,286)"/>
<path d="M0 0 C0.66 0.33 1.32 0.66 2 1 C-1.44615385 6.78461538 -1.44615385 6.78461538 -4.25 7.875 C-4.8275 7.91625 -5.405 7.9575 -6 8 C-2.25 2.25 -2.25 2.25 0 0 Z " fill="#1B1B19" transform="translate(285,896)"/>
<path d="M0 0 C0 3 0 3 -1 6 C-3.89558441 7.4477922 -5.74188938 8 -9 8 C-6.03 5.36 -3.06 2.72 0 0 Z " fill="#3A3A38" transform="translate(425,813)"/>
<path d="M0 0 C0 0.99 0 1.98 0 3 C-6.75 7 -6.75 7 -9 7 C-7.68534669 3.05604006 -4.38536841 0 0 0 Z " fill="#1C1C19" transform="translate(732,636)"/>
<path d="M0 0 C0.99 0.66 1.98 1.32 3 2 C-0.1540179 4.71595986 -1.87384964 5.96846241 -6 7 C-4.02 4.69 -2.04 2.38 0 0 Z " fill="#191916" transform="translate(381,487)"/>
<path d="M0 0 C0 0.33 0 0.66 0 1 C-6.435 1.495 -6.435 1.495 -13 2 C-12 0 -12 0 -10.4375 -0.6875 C-6.83532854 -1.14931685 -3.58833068 -0.5382496 0 0 Z " fill="#181815" transform="translate(672,967)"/>
<path d="M0 0 C3.7952131 1.49097658 5.61042731 3.75700849 8 7 C5 7 5 7 3.3125 5.625 C2 4 2 4 2 2 C1.34 2 0.68 2 0 2 C0 1.34 0 0.68 0 0 Z " fill="#1D1D1A" transform="translate(672,198)"/>
<path d="M0 0 C1.0326802 2.78823655 1.04509293 3.8677274 0.0625 6.75 C-0.288125 7.4925 -0.63875 8.235 -1 9 C-1.66 9 -2.32 9 -3 9 C-2.25 2.25 -2.25 2.25 0 0 Z " fill="#181815" transform="translate(333,716)"/>
<path d="M0 0 C2.95929119 2.75520215 5.03681826 5.46627288 7 9 C5.1875 8.875 5.1875 8.875 3 8 C0 2.96428571 0 2.96428571 0 0 Z " fill="#1E1C1A" transform="translate(722,624)"/>
<path d="M0 0 C0.33 0 0.66 0 1 0 C1.144375 0.94875 1.28875 1.8975 1.4375 2.875 C1.82935399 5.8934494 1.82935399 5.8934494 3 8 C2.72057545 9.67654729 2.39171753 11.34608154 2 13 C0.48046875 11.82421875 0.48046875 11.82421875 -1 10 C-1.07421875 7.51953125 -1.07421875 7.51953125 -0.6875 4.8125 C-0.56761719 3.91144531 -0.44773437 3.01039063 -0.32421875 2.08203125 C-0.21722656 1.39496094 -0.11023438 0.70789063 0 0 Z " fill="#2A2A26" transform="translate(717,307)"/>
<path d="M0 0 C2.64465038 3.1254959 3.84414715 6.08788267 5 10 C2 9 2 9 0.8125 7.25 C-0.10819096 4.70039426 -0.14948718 2.69076919 0 0 Z " fill="#1A1916" transform="translate(501,132)"/>
<path d="M0 0 C2.21399303 3.79541663 3.00980198 7.75629421 4 12 C0.90566277 9.46826954 -0.04150794 6.83396824 -1 3 C-0.67 2.01 -0.34 1.02 0 0 Z " fill="#40403D" transform="translate(644,616)"/>
<path d="M0 0 C0.33 0 0.66 0 1 0 C1.92844389 4.33273814 1.92844389 7.66726186 1 12 C-1.83022097 8.00439392 -0.76210446 4.57262677 0 0 Z " fill="#1B1A16" transform="translate(723,846)"/>
<path d="M0 0 C-5.75 4 -5.75 4 -8 4 C-8.33 3.01 -8.66 2.02 -9 1 C-5.57367167 -0.61798838 -3.61944899 -1.34053666 0 0 Z " fill="#181815" transform="translate(718,647)"/>
<path d="M0 0 C0.66 1.32 1.32 2.64 2 4 C-1.75 7 -1.75 7 -4 7 C-2.79618552 4.50638429 -1.54571278 2.31856917 0 0 Z " fill="#171815" transform="translate(423,438)"/>
<path d="M0 0 C1.85625 -0.061875 1.85625 -0.061875 3.75 -0.125 C4.79414063 -0.15980469 4.79414063 -0.15980469 5.859375 -0.1953125 C8 0 8 0 12 2 C8.7 2 5.4 2 2 2 C1.67 2.66 1.34 3.32 1 4 C0.67 2.68 0.34 1.36 0 0 Z " fill="#484943" transform="translate(408,88)"/>
<path d="M0 0 C2.31 1.98 4.62 3.96 7 6 C6.67 6.66 6.34 7.32 6 8 C4.125 7.375 4.125 7.375 2 6 C0.75 2.875 0.75 2.875 0 0 Z " fill="#383836" transform="translate(552,775)"/>
<path d="M0 0 C2.4375 0.8125 2.4375 0.8125 5 2 C5.33 2.99 5.66 3.98 6 5 C5.34 5.66 4.68 6.32 4 7 C2.66666667 5.66666667 1.33333333 4.33333333 0 3 C0 2.01 0 1.02 0 0 Z " fill="#262622" transform="translate(331,731)"/>
<path d="M0 0 C-0.33 1.65 -0.66 3.3 -1 5 C-2.65 4.67 -4.3 4.34 -6 4 C-5.67 3.01 -5.34 2.02 -5 1 C-2 0 -2 0 0 0 Z " fill="#262522" transform="translate(287,423)"/>
<path d="M0 0 C2.97 0.33 5.94 0.66 9 1 C4.64467851 3.17766075 3.53374042 3.03039555 -1 2 C-0.67 1.34 -0.34 0.68 0 0 Z " fill="#181715" transform="translate(446,93)"/>
<path d="M0 0 C1.32 0.33 2.64 0.66 4 1 C3.01 1.66 2.02 2.32 1 3 C0.67 2.01 0.34 1.02 0 0 Z " fill="#373632" transform="translate(368,496)"/>
<path d="M0 0 C0.66 0.66 1.32 1.32 2 2 C1.67 2.99 1.34 3.98 1 5 C0.67 3.35 0.34 1.7 0 0 Z " fill="#373531" transform="translate(304,642)"/>
<path d="M0 0 C0.33 1.32 0.66 2.64 1 4 C0.01 4.495 0.01 4.495 -1 5 C-0.67 3.35 -0.34 1.7 0 0 Z " fill="#33332F" transform="translate(433,168)"/>
<path d="M0 0 C0.33 0 0.66 0 1 0 C1 1.98 1 3.96 1 6 C0.67 6 0.34 6 0 6 C0 4.02 0 2.04 0 0 Z " fill="#3C3C35" transform="translate(256,397)"/>
<path d="M0 0 C0.99 0.33 1.98 0.66 3 1 C1.35 1.33 -0.3 1.66 -2 2 C-1.34 1.34 -0.68 0.68 0 0 Z " fill="#31302B" transform="translate(698,297)"/>
<path d="M0 0 C0.99 0.99 1.98 1.98 3 3 C2.01 2.67 1.02 2.34 0 2 C0 1.34 0 0.68 0 0 Z " fill="#393934" transform="translate(276,949)"/>
<path d="M0 0 C0.33 1.32 0.66 2.64 1 4 C0.34 3.01 -0.32 2.02 -1 1 C-0.67 0.67 -0.34 0.34 0 0 Z " fill="#353430" transform="translate(433,161)"/>
<path d="M0 0 C0.99 0 1.98 0 3 0 C3 0.66 3 1.32 3 2 C2.01 1.67 1.02 1.34 0 1 C0 0.67 0 0.34 0 0 Z " fill="#2E2D29" transform="translate(505,136)"/>
<path d="M0 0 C1.65 0 3.3 0 5 0 C5 0.33 5 0.66 5 1 C3.35 1 1.7 1 0 1 C0 0.67 0 0.34 0 0 Z " fill="#3F3E38" transform="translate(507,96)"/>
<path d="M0 0 C4 1 4 1 4 1 Z " fill="#32312C" transform="translate(519,981)"/>
<path d="M0 0 C4 1 4 1 4 1 Z " fill="#312F2B" transform="translate(512,981)"/>
<path d="M0 0 C4 1 4 1 4 1 Z " fill="#302F2A" transform="translate(504,981)"/>
<path d="M0 0 C4 1 4 1 4 1 Z " fill="#31312B" transform="translate(432,979)"/>
<path d="M0 0 C4 1 4 1 4 1 Z " fill="#34312C" transform="translate(385,975)"/>
<path d="M0 0 C4 1 4 1 4 1 Z " fill="#33322D" transform="translate(367,973)"/>
<path d="M0 0 C4 1 4 1 4 1 Z " fill="#35352F" transform="translate(328,967)"/>
<path d="M0 0 C0.99 0.33 1.98 0.66 3 1 C2.01 1 1.02 1 0 1 C0 0.67 0 0.34 0 0 Z " fill="#36352F" transform="translate(323,966)"/>
<path d="M0 0 C1 4 1 4 1 4 Z " fill="#3A3B34" transform="translate(272,941)"/>
<path d="M0 0 C1 4 1 4 1 4 Z " fill="#373632" transform="translate(289,876)"/>
<path d="M0 0 C0.99 1.485 0.99 1.485 2 3 C1.34 3 0.68 3 0 3 C0 2.01 0 1.02 0 0 Z " fill="#3E3D36" transform="translate(297,817)"/>
<path d="M0 0 C0.66 0 1.32 0 2 0 C1.67 0.99 1.34 1.98 1 3 C0.67 2.01 0.34 1.02 0 0 Z " fill="#3B3A36" transform="translate(328,726)"/>
<path d="M0 0 C0.66 0.66 1.32 1.32 2 2 C1.01 2.495 1.01 2.495 0 3 C0 2.01 0 1.02 0 0 Z " fill="#33322E" transform="translate(344,702)"/>
<path d="M0 0 C0.99 0.33 1.98 0.66 3 1 C2.01 1 1.02 1 0 1 C0 0.67 0 0.34 0 0 Z " fill="#353430" transform="translate(376,488)"/>
<path d="M0 0 C1 4 1 4 1 4 Z " fill="#3B3B35" transform="translate(257,403)"/>
<path d="M0 0 C1.485 0.99 1.485 0.99 3 2 C2.01 2 1.02 2 0 2 C0 1.34 0 0.68 0 0 Z " fill="#3E3D37" transform="translate(515,96)"/>
<path d="M0 0 C3 1 3 1 3 1 Z " fill="#33322C" transform="translate(557,980)"/>
<path d="M0 0 C3 1 3 1 3 1 Z " fill="#35322D" transform="translate(627,975)"/>
<path d="M0 0 C3 1 3 1 3 1 Z " fill="#34332E" transform="translate(634,974)"/>
<path d="M0 0 C3 1 3 1 3 1 Z " fill="#34322E" transform="translate(641,973)"/>
<path d="M0 0 C3 1 3 1 3 1 Z " fill="#34342E" transform="translate(654,971)"/>
<path d="M0 0 C3 1 3 1 3 1 Z " fill="#33322D" transform="translate(352,971)"/>
<path d="M0 0 C0.99 0.495 0.99 0.495 2 1 C1.01 1.495 1.01 1.495 0 2 C0 1.34 0 0.68 0 0 Z " fill="#373530" transform="translate(683,966)"/>
<path d="M0 0 C3 1 3 1 3 1 Z " fill="#34332D" transform="translate(320,965)"/>
<path d="" fill="#383732" transform="translate(0,0)"/>
<path d="M0 0 C0.99 0.495 0.99 0.495 2 1 C1.01 1.495 1.01 1.495 0 2 C0 1.34 0 0.68 0 0 Z " fill="#393832" transform="translate(336,532)"/>
<path d="" fill="#3B3A35" transform="translate(0,0)"/>
<path d="" fill="#3C3A35" transform="translate(0,0)"/>
<path d="" fill="#3B3A35" transform="translate(0,0)"/>
<path d="" fill="#40413B" transform="translate(0,0)"/>
<path d="" fill="#393934" transform="translate(0,0)"/>
<path d="M0 0 C0.33 0.66 0.66 1.32 1 2 C0.34 1.67 -0.32 1.34 -1 1 C-0.67 0.67 -0.34 0.34 0 0 Z " fill="#3A3A33" transform="translate(305,296)"/>
<path d="M0 0 C0.99 0.495 0.99 0.495 2 1 C1.01 1.495 1.01 1.495 0 2 C0 1.34 0 0.68 0 0 Z " fill="#373732" transform="translate(337,267)"/>
<path d="" fill="#373830" transform="translate(0,0)"/>
<path d="" fill="#383831" transform="translate(0,0)"/>
<path d="" fill="#383931" transform="translate(0,0)"/>
<path d="M0 0 C3 1 3 1 3 1 Z " fill="#40413A" transform="translate(425,88)"/>
<path d="M0 0 C2 1 2 1 2 1 Z " fill="#312F2A" transform="translate(529,981)"/>
<path d="M0 0 C2 1 2 1 2 1 Z " fill="#30302B" transform="translate(481,981)"/>
<path d="M0 0 C2 1 2 1 2 1 Z " fill="#312F2B" transform="translate(454,980)"/>
<path d="M0 0 C2 1 2 1 2 1 Z " fill="#31312C" transform="translate(577,979)"/>
<path d="M0 0 C2 1 2 1 2 1 Z " fill="#31302B" transform="translate(574,979)"/>
<path d="M0 0 C2 1 2 1 2 1 Z " fill="#31312B" transform="translate(438,979)"/>
<path d="M0 0 C2 1 2 1 2 1 Z " fill="#32312C" transform="translate(423,978)"/>
<path d="M0 0 C2 1 2 1 2 1 Z " fill="#33312D" transform="translate(419,978)"/>
<path d="" fill="#34322C" transform="translate(0,0)"/>
<path d="M0 0 C2 1 2 1 2 1 Z " fill="#34342D" transform="translate(375,974)"/>
<path d="M0 0 C2 1 2 1 2 1 Z " fill="#34322D" transform="translate(296,959)"/>
<path d="M0 0 C2 1 2 1 2 1 Z " fill="#393633" transform="translate(290,957)"/>
<path d="" fill="#383631" transform="translate(0,0)"/>
<path d="" fill="#3A3734" transform="translate(0,0)"/>
<path d="" fill="#3A3A35" transform="translate(0,0)"/>
<path d="" fill="#393833" transform="translate(0,0)"/>
<path d="" fill="#3D3D36" transform="translate(0,0)"/>
<path d="M0 0 C2 1 2 1 2 1 Z " fill="#373833" transform="translate(323,793)"/>
<path d="" fill="#3A3B34" transform="translate(0,0)"/>
<path d="M0 0 C2 1 2 1 2 1 Z " fill="#302F2B" transform="translate(661,705)"/>
<path d="" fill="#363530" transform="translate(0,0)"/>
<path d="M0 0 C2 1 2 1 2 1 Z " fill="#393833" transform="translate(701,658)"/>
<path d="M0 0 C2 1 2 1 2 1 Z " fill="#383730" transform="translate(707,654)"/>
<path d="" fill="#3D3C35" transform="translate(0,0)"/>
<path d="" fill="#3D3B35" transform="translate(0,0)"/>
<path d="" fill="#3C3A34" transform="translate(0,0)"/>
<path d="" fill="#3A3934" transform="translate(0,0)"/>
<path d="M0 0 C2 1 2 1 2 1 Z " fill="#3A3933" transform="translate(304,579)"/>
<path d="" fill="#3A3732" transform="translate(0,0)"/>
<path d="M0 0 C2 1 2 1 2 1 Z " fill="#363630" transform="translate(382,482)"/>
<path d="" fill="#3C3A34" transform="translate(0,0)"/>
<path d="" fill="#3B3A35" transform="translate(0,0)"/>
<path d="" fill="#343430" transform="translate(0,0)"/>
<path d="" fill="#36342F" transform="translate(0,0)"/>
<path d="" fill="#373531" transform="translate(0,0)"/>
<path d="M0 0 C2 1 2 1 2 1 Z " fill="#3D3D37" transform="translate(288,430)"/>
<path d="M0 0 C2 1 2 1 2 1 Z " fill="#393631" transform="translate(350,428)"/>
<path d="" fill="#363430" transform="translate(0,0)"/>
<path d="" fill="#40403A" transform="translate(0,0)"/>
<path d="" fill="#363430" transform="translate(0,0)"/>
<path d="M0 0 C2 1 2 1 2 1 Z " fill="#353631" transform="translate(445,383)"/>
<path d="M0 0 C2 1 2 1 2 1 Z " fill="#383632" transform="translate(439,381)"/>
<path d="M0 0 C2 1 2 1 2 1 Z " fill="#33322D" transform="translate(400,381)"/>
<path d="M0 0 C2 1 2 1 2 1 Z " fill="#35332E" transform="translate(415,378)"/>
<path d="M0 0 C2 1 2 1 2 1 Z " fill="#3F3F3A" transform="translate(259,336)"/>
<path d="" fill="#393934" transform="translate(0,0)"/>
<path d="M0 0 C2 1 2 1 2 1 Z " fill="#393932" transform="translate(297,307)"/>
<path d="" fill="#393B36" transform="translate(0,0)"/>
<path d="M0 0 C2 1 2 1 2 1 Z " fill="#2D2E29" transform="translate(694,297)"/>
<path d="" fill="#3D3B35" transform="translate(0,0)"/>
<path d="" fill="#373733" transform="translate(0,0)"/>
<path d="" fill="#383632" transform="translate(0,0)"/>
<path d="M0 0 C2 1 2 1 2 1 Z " fill="#3D3A35" transform="translate(694,224)"/>
<path d="" fill="#383832" transform="translate(0,0)"/>
<path d="M0 0 C2 1 2 1 2 1 Z " fill="#363530" transform="translate(432,159)"/>
<path d="M0 0 C2 1 2 1 2 1 Z " fill="#30302A" transform="translate(584,137)"/>
<path d="" fill="#2E2E29" transform="translate(0,0)"/>
<path d="M0 0 C2 1 2 1 2 1 Z " fill="#32312B" transform="translate(506,115)"/>
<path d="" fill="#36362F" transform="translate(0,0)"/>
<path d="" fill="#3F3E38" transform="translate(0,0)"/>
<path d="" fill="#3E3E38" transform="translate(0,0)"/>
<path d="" fill="#3F3E39" transform="translate(0,0)"/>
<path d="M0 0 C2 1 2 1 2 1 Z " fill="#3E3D35" transform="translate(451,92)"/>
<path d="" fill="#373631" transform="translate(0,0)"/>
<path d="" fill="#33342C" transform="translate(0,0)"/>
<path d="" fill="#34322D" transform="translate(0,0)"/>
<path d="" fill="#30302C" transform="translate(0,0)"/>
<path d="" fill="#2F2F2C" transform="translate(0,0)"/>
<path d="" fill="#31302A" transform="translate(0,0)"/>
<path d="" fill="#32302D" transform="translate(0,0)"/>
<path d="" fill="#32302B" transform="translate(0,0)"/>
<path d="" fill="#31302B" transform="translate(0,0)"/>
<path d="" fill="#302F2A" transform="translate(0,0)"/>
<path d="" fill="#34312F" transform="translate(0,0)"/>
<path d="" fill="#32312A" transform="translate(0,0)"/>
<path d="" fill="#30312A" transform="translate(0,0)"/>
<path d="" fill="#32332C" transform="translate(0,0)"/>
<path d="" fill="#30302B" transform="translate(0,0)"/>
<path d="" fill="#31302A" transform="translate(0,0)"/>
<path d="" fill="#30312B" transform="translate(0,0)"/>
<path d="" fill="#33332D" transform="translate(0,0)"/>
<path d="" fill="#33312D" transform="translate(0,0)"/>
<path d="" fill="#4F4E47" transform="translate(0,0)"/>
<path d="" fill="#34332E" transform="translate(0,0)"/>
<path d="" fill="#34322E" transform="translate(0,0)"/>
<path d="" fill="#35342E" transform="translate(0,0)"/>
<path d="" fill="#32312D" transform="translate(0,0)"/>
<path d="" fill="#373530" transform="translate(0,0)"/>
<path d="" fill="#33332F" transform="translate(0,0)"/>
<path d="" fill="#373531" transform="translate(0,0)"/>
<path d="" fill="#4D4C46" transform="translate(0,0)"/>
<path d="" fill="#33312E" transform="translate(0,0)"/>
<path d="" fill="#383530" transform="translate(0,0)"/>
<path d="" fill="#36362E" transform="translate(0,0)"/>
<path d="" fill="#3B3932" transform="translate(0,0)"/>
<path d="" fill="#3A3733" transform="translate(0,0)"/>
<path d="" fill="#373832" transform="translate(0,0)"/>
<path d="" fill="#3A3933" transform="translate(0,0)"/>
<path d="" fill="#3B3934" transform="translate(0,0)"/>
<path d="" fill="#3B3A35" transform="translate(0,0)"/>
<path d="" fill="#383A34" transform="translate(0,0)"/>
<path d="" fill="#383A34" transform="translate(0,0)"/>
<path d="" fill="#383832" transform="translate(0,0)"/>
<path d="" fill="#4E4E48" transform="translate(0,0)"/>
<path d="" fill="#393832" transform="translate(0,0)"/>
<path d="" fill="#363531" transform="translate(0,0)"/>
<path d="" fill="#4E4D46" transform="translate(0,0)"/>
<path d="" fill="#514E48" transform="translate(0,0)"/>
<path d="" fill="#3B3A34" transform="translate(0,0)"/>
<path d="" fill="#3C3935" transform="translate(0,0)"/>
<path d="" fill="#383833" transform="translate(0,0)"/>
<path d="" fill="#3B3C35" transform="translate(0,0)"/>
<path d="" fill="#3A3A35" transform="translate(0,0)"/>
<path d="" fill="#515049" transform="translate(0,0)"/>
<path d="" fill="#393632" transform="translate(0,0)"/>
<path d="" fill="#3B3A36" transform="translate(0,0)"/>
<path d="" fill="#393833" transform="translate(0,0)"/>
<path d="" fill="#32322C" transform="translate(0,0)"/>
<path d="" fill="#36352F" transform="translate(0,0)"/>
<path d="" fill="#36332E" transform="translate(0,0)"/>
<path d="" fill="#373731" transform="translate(0,0)"/>
<path d="" fill="#383934" transform="translate(0,0)"/>
<path d="" fill="#383731" transform="translate(0,0)"/>
<path d="" fill="#383731" transform="translate(0,0)"/>
<path d="" fill="#3B3834" transform="translate(0,0)"/>
<path d="" fill="#3A3934" transform="translate(0,0)"/>
<path d="" fill="#3E3D36" transform="translate(0,0)"/>
<path d="" fill="#3E3C37" transform="translate(0,0)"/>
<path d="" fill="#403F38" transform="translate(0,0)"/>
<path d="" fill="#3E3B37" transform="translate(0,0)"/>
<path d="" fill="#3D3D37" transform="translate(0,0)"/>
<path d="" fill="#433E36" transform="translate(0,0)"/>
<path d="" fill="#3E3C37" transform="translate(0,0)"/>
<path d="" fill="#3C3A36" transform="translate(0,0)"/>
<path d="" fill="#3D3C34" transform="translate(0,0)"/>
<path d="" fill="#383832" transform="translate(0,0)"/>
<path d="" fill="#3B3D36" transform="translate(0,0)"/>
<path d="" fill="#3C3C35" transform="translate(0,0)"/>
<path d="" fill="#414138" transform="translate(0,0)"/>
<path d="" fill="#525148" transform="translate(0,0)"/>
<path d="" fill="#52514C" transform="translate(0,0)"/>
<path d="" fill="#3A3830" transform="translate(0,0)"/>
<path d="" fill="#3E3C36" transform="translate(0,0)"/>
<path d="" fill="#3A3834" transform="translate(0,0)"/>
<path d="" fill="#363730" transform="translate(0,0)"/>
<path d="" fill="#363631" transform="translate(0,0)"/>
<path d="" fill="#3A3831" transform="translate(0,0)"/>
<path d="" fill="#363730" transform="translate(0,0)"/>
<path d="" fill="#393930" transform="translate(0,0)"/>
<path d="" fill="#36352F" transform="translate(0,0)"/>
<path d="" fill="#393732" transform="translate(0,0)"/>
<path d="" fill="#363532" transform="translate(0,0)"/>
<path d="" fill="#36362F" transform="translate(0,0)"/>
<path d="" fill="#353630" transform="translate(0,0)"/>
<path d="" fill="#383630" transform="translate(0,0)"/>
<path d="" fill="#383530" transform="translate(0,0)"/>
<path d="" fill="#353530" transform="translate(0,0)"/>
<path d="" fill="#363630" transform="translate(0,0)"/>
<path d="" fill="#363831" transform="translate(0,0)"/>
<path d="" fill="#393732" transform="translate(0,0)"/>
<path d="" fill="#393732" transform="translate(0,0)"/>
<path d="" fill="#373833" transform="translate(0,0)"/>
<path d="" fill="#3A3A35" transform="translate(0,0)"/>
<path d="" fill="#3C3D36" transform="translate(0,0)"/>
<path d="" fill="#3A3834" transform="translate(0,0)"/>
<path d="" fill="#3A3936" transform="translate(0,0)"/>
<path d="" fill="#3F3D38" transform="translate(0,0)"/>
<path d="" fill="#3D3B36" transform="translate(0,0)"/>
<path d="" fill="#393832" transform="translate(0,0)"/>
<path d="" fill="#54524C" transform="translate(0,0)"/>
<path d="" fill="#31312A" transform="translate(0,0)"/>
<path d="" fill="#34332E" transform="translate(0,0)"/>
<path d="" fill="#353531" transform="translate(0,0)"/>
<path d="" fill="#302E29" transform="translate(0,0)"/>
<path d="" fill="#2E2C2A" transform="translate(0,0)"/>
<path d="" fill="#34312C" transform="translate(0,0)"/>
<path d="" fill="#2E2F29" transform="translate(0,0)"/>
<path d="" fill="#36342F" transform="translate(0,0)"/>
<path d="" fill="#363631" transform="translate(0,0)"/>
<path d="" fill="#32302C" transform="translate(0,0)"/>
<path d="" fill="#32312D" transform="translate(0,0)"/>
<path d="" fill="#4F504A" transform="translate(0,0)"/>
<path d="" fill="#363630" transform="translate(0,0)"/>
<path d="" fill="#35342E" transform="translate(0,0)"/>
<path d="" fill="#34362E" transform="translate(0,0)"/>
<path d="" fill="#34332F" transform="translate(0,0)"/>
<path d="" fill="#363630" transform="translate(0,0)"/>
<path d="" fill="#373430" transform="translate(0,0)"/>
<path d="" fill="#393A34" transform="translate(0,0)"/>
<path d="" fill="#393833" transform="translate(0,0)"/>
<path d="" fill="#383730" transform="translate(0,0)"/>
<path d="" fill="#373732" transform="translate(0,0)"/>
<path d="" fill="#363630" transform="translate(0,0)"/>
<path d="" fill="#373631" transform="translate(0,0)"/>
<path d="" fill="#393935" transform="translate(0,0)"/>
<path d="" fill="#363532" transform="translate(0,0)"/>
<path d="" fill="#3A3833" transform="translate(0,0)"/>
<path d="" fill="#363832" transform="translate(0,0)"/>
<path d="" fill="#3C3833" transform="translate(0,0)"/>
<path d="" fill="#363533" transform="translate(0,0)"/>
<path d="" fill="#3D3C37" transform="translate(0,0)"/>
<path d="" fill="#393734" transform="translate(0,0)"/>
<path d="" fill="#3A3933" transform="translate(0,0)"/>
<path d="" fill="#44433C" transform="translate(0,0)"/>
<path d="" fill="#383732" transform="translate(0,0)"/>
<path d="" fill="#45433D" transform="translate(0,0)"/>
<path d="" fill="#373633" transform="translate(0,0)"/>
<path d="" fill="#393833" transform="translate(0,0)"/>
<path d="" fill="#44453F" transform="translate(0,0)"/>
<path d="" fill="#4E4C46" transform="translate(0,0)"/>
<path d="" fill="#53524A" transform="translate(0,0)"/>
<path d="" fill="#3C3B36" transform="translate(0,0)"/>
<path d="" fill="#4D4D48" transform="translate(0,0)"/>
<path d="" fill="#4E4D47" transform="translate(0,0)"/>
<path d="" fill="#4F4E49" transform="translate(0,0)"/>
<path d="" fill="#3E3C37" transform="translate(0,0)"/>
<path d="" fill="#3C3C36" transform="translate(0,0)"/>
<path d="" fill="#3B3A33" transform="translate(0,0)"/>
<path d="" fill="#3A3733" transform="translate(0,0)"/>
<path d="" fill="#3B3A32" transform="translate(0,0)"/>
<path d="" fill="#3A3C34" transform="translate(0,0)"/>
<path d="" fill="#3B3835" transform="translate(0,0)"/>
<path d="" fill="#4C4A46" transform="translate(0,0)"/>
<path d="" fill="#373833" transform="translate(0,0)"/>
<path d="" fill="#3D3C38" transform="translate(0,0)"/>
<path d="" fill="#3B3A34" transform="translate(0,0)"/>
<path d="" fill="#3B3B35" transform="translate(0,0)"/>
<path d="" fill="#3C3B35" transform="translate(0,0)"/>
<path d="" fill="#3A3834" transform="translate(0,0)"/>
<path d="" fill="#3C3A34" transform="translate(0,0)"/>
<path d="" fill="#3A3936" transform="translate(0,0)"/>
<path d="" fill="#3B3B36" transform="translate(0,0)"/>
<path d="" fill="#383933" transform="translate(0,0)"/>
<path d="" fill="#383932" transform="translate(0,0)"/>
<path d="" fill="#383632" transform="translate(0,0)"/>
<path d="" fill="#363833" transform="translate(0,0)"/>
<path d="" fill="#393832" transform="translate(0,0)"/>
<path d="" fill="#383934" transform="translate(0,0)"/>
<path d="" fill="#383532" transform="translate(0,0)"/>
<path d="" fill="#383831" transform="translate(0,0)"/>
<path d="" fill="#393831" transform="translate(0,0)"/>
<path d="" fill="#3C3C34" transform="translate(0,0)"/>
<path d="" fill="#3C3C35" transform="translate(0,0)"/>
<path d="" fill="#373632" transform="translate(0,0)"/>
<path d="" fill="#3D3B35" transform="translate(0,0)"/>
<path d="" fill="#3B3A34" transform="translate(0,0)"/>
<path d="" fill="#353330" transform="translate(0,0)"/>
<path d="" fill="#383A35" transform="translate(0,0)"/>
<path d="" fill="#3A3634" transform="translate(0,0)"/>
<path d="" fill="#333430" transform="translate(0,0)"/>
<path d="" fill="#4F4D47" transform="translate(0,0)"/>
<path d="" fill="#505049" transform="translate(0,0)"/>
<path d="" fill="#393731" transform="translate(0,0)"/>
<path d="" fill="#3B3835" transform="translate(0,0)"/>
<path d="" fill="#36352E" transform="translate(0,0)"/>
<path d="" fill="#343531" transform="translate(0,0)"/>
<path d="" fill="#353630" transform="translate(0,0)"/>
<path d="" fill="#353431" transform="translate(0,0)"/>
<path d="" fill="#4D4B47" transform="translate(0,0)"/>
<path d="" fill="#36352F" transform="translate(0,0)"/>
<path d="" fill="#413F3A" transform="translate(0,0)"/>
<path d="" fill="#393A33" transform="translate(0,0)"/>
<path d="" fill="#33322F" transform="translate(0,0)"/>
<path d="" fill="#383733" transform="translate(0,0)"/>
<path d="" fill="#403F38" transform="translate(0,0)"/>
<path d="" fill="#3D3E3A" transform="translate(0,0)"/>
<path d="" fill="#3C3E38" transform="translate(0,0)"/>
<path d="" fill="#4B4B48" transform="translate(0,0)"/>
<path d="" fill="#31302C" transform="translate(0,0)"/>
<path d="" fill="#40433C" transform="translate(0,0)"/>
<path d="" fill="#33342E" transform="translate(0,0)"/>
<path d="" fill="#3E3E37" transform="translate(0,0)"/>
<path d="" fill="#34342D" transform="translate(0,0)"/>
<path d="" fill="#35352F" transform="translate(0,0)"/>
<path d="" fill="#34352F" transform="translate(0,0)"/>
<path d="" fill="#3C3D36" transform="translate(0,0)"/>
<path d="" fill="#383733" transform="translate(0,0)"/>
<path d="" fill="#323431" transform="translate(0,0)"/>
<path d="" fill="#34322C" transform="translate(0,0)"/>
<path d="" fill="#363530" transform="translate(0,0)"/>
<path d="" fill="#34322D" transform="translate(0,0)"/>
<path d="" fill="#343430" transform="translate(0,0)"/>
<path d="" fill="#35342E" transform="translate(0,0)"/>
<path d="" fill="#383731" transform="translate(0,0)"/>
<path d="" fill="#37362F" transform="translate(0,0)"/>
<path d="" fill="#353430" transform="translate(0,0)"/>
<path d="" fill="#333430" transform="translate(0,0)"/>
<path d="" fill="#383732" transform="translate(0,0)"/>
<path d="" fill="#363431" transform="translate(0,0)"/>
<path d="" fill="#34332E" transform="translate(0,0)"/>
<path d="" fill="#33332D" transform="translate(0,0)"/>
<path d="" fill="#35342E" transform="translate(0,0)"/>
<path d="" fill="#353430" transform="translate(0,0)"/>
<path d="" fill="#35352F" transform="translate(0,0)"/>
<path d="" fill="#33342E" transform="translate(0,0)"/>
<path d="" fill="#52524C" transform="translate(0,0)"/>
<path d="" fill="#4B4C47" transform="translate(0,0)"/>
<path d="" fill="#4F4F4A" transform="translate(0,0)"/>
<path d="" fill="#3F3D37" transform="translate(0,0)"/>
<path d="" fill="#423F3B" transform="translate(0,0)"/>
<path d="" fill="#3E3E39" transform="translate(0,0)"/>
<path d="" fill="#42403B" transform="translate(0,0)"/>
<path d="" fill="#404139" transform="translate(0,0)"/>
<path d="" fill="#4C4C46" transform="translate(0,0)"/>
<path d="" fill="#3B3A33" transform="translate(0,0)"/>
<path d="" fill="#3B3733" transform="translate(0,0)"/>
<path d="" fill="#3D3A35" transform="translate(0,0)"/>
<path d="" fill="#383833" transform="translate(0,0)"/>
<path d="" fill="#4C4D46" transform="translate(0,0)"/>
<path d="" fill="#383832" transform="translate(0,0)"/>
<path d="" fill="#393731" transform="translate(0,0)"/>
<path d="" fill="#3B3A34" transform="translate(0,0)"/>
<path d="" fill="#393932" transform="translate(0,0)"/>
<path d="" fill="#383630" transform="translate(0,0)"/>
<path d="" fill="#3B3833" transform="translate(0,0)"/>
<path d="" fill="#393631" transform="translate(0,0)"/>
<path d="" fill="#31302B" transform="translate(0,0)"/>
<path d="" fill="#3D3C34" transform="translate(0,0)"/>
<path d="" fill="#3B3934" transform="translate(0,0)"/>
<path d="" fill="#33322D" transform="translate(0,0)"/>
<path d="" fill="#3C3A33" transform="translate(0,0)"/>
<path d="" fill="#373A33" transform="translate(0,0)"/>
<path d="" fill="#3B3A36" transform="translate(0,0)"/>
<path d="" fill="#3D3C36" transform="translate(0,0)"/>
<path d="" fill="#373330" transform="translate(0,0)"/>
<path d="" fill="#53514A" transform="translate(0,0)"/>
<path d="" fill="#3B3A35" transform="translate(0,0)"/>
<path d="" fill="#3C3B33" transform="translate(0,0)"/>
<path d="" fill="#3C3A36" transform="translate(0,0)"/>
<path d="" fill="#3A3B36" transform="translate(0,0)"/>
<path d="" fill="#373431" transform="translate(0,0)"/>
<path d="" fill="#54534D" transform="translate(0,0)"/>
<path d="" fill="#383731" transform="translate(0,0)"/>
<path d="" fill="#3A3A35" transform="translate(0,0)"/>
<path d="" fill="#363631" transform="translate(0,0)"/>
<path d="" fill="#353530" transform="translate(0,0)"/>
<path d="" fill="#3C3933" transform="translate(0,0)"/>
<path d="" fill="#3E3B35" transform="translate(0,0)"/>
<path d="" fill="#504E49" transform="translate(0,0)"/>
<path d="" fill="#393531" transform="translate(0,0)"/>
<path d="" fill="#383833" transform="translate(0,0)"/>
<path d="" fill="#2B2B26" transform="translate(0,0)"/>
<path d="" fill="#383731" transform="translate(0,0)"/>
<path d="" fill="#2C2B27" transform="translate(0,0)"/>
<path d="" fill="#3E3B39" transform="translate(0,0)"/>
<path d="" fill="#393733" transform="translate(0,0)"/>
<path d="" fill="#2E2E29" transform="translate(0,0)"/>
<path d="" fill="#3D3C38" transform="translate(0,0)"/>
<path d="" fill="#53534F" transform="translate(0,0)"/>
<path d="" fill="#2F2E2B" transform="translate(0,0)"/>
<path d="" fill="#3D3D38" transform="translate(0,0)"/>
<path d="" fill="#33322E" transform="translate(0,0)"/>
<path d="" fill="#30302D" transform="translate(0,0)"/>
<path d="" fill="#3D3D39" transform="translate(0,0)"/>
<path d="" fill="#3D3D36" transform="translate(0,0)"/>
<path d="" fill="#31322B" transform="translate(0,0)"/>
<path d="" fill="#3B3D35" transform="translate(0,0)"/>
<path d="" fill="#383733" transform="translate(0,0)"/>
<path d="" fill="#373732" transform="translate(0,0)"/>
<path d="" fill="#504D48" transform="translate(0,0)"/>
<path d="" fill="#383834" transform="translate(0,0)"/>
<path d="" fill="#34342D" transform="translate(0,0)"/>
<path d="" fill="#393932" transform="translate(0,0)"/>
<path d="" fill="#353531" transform="translate(0,0)"/>
<path d="" fill="#393836" transform="translate(0,0)"/>
<path d="" fill="#373330" transform="translate(0,0)"/>
<path d="" fill="#383832" transform="translate(0,0)"/>
<path d="" fill="#2A2B25" transform="translate(0,0)"/>
<path d="" fill="#373733" transform="translate(0,0)"/>
<path d="" fill="#525249" transform="translate(0,0)"/>
<path d="" fill="#383832" transform="translate(0,0)"/>
<path d="" fill="#2F2C29" transform="translate(0,0)"/>
<path d="" fill="#393932" transform="translate(0,0)"/>
<path d="" fill="#383732" transform="translate(0,0)"/>
<path d="" fill="#55544E" transform="translate(0,0)"/>
<path d="" fill="#393932" transform="translate(0,0)"/>
<path d="" fill="#3A3834" transform="translate(0,0)"/>
<path d="" fill="#3C3B35" transform="translate(0,0)"/>
<path d="" fill="#3C3A34" transform="translate(0,0)"/>
<path d="" fill="#373731" transform="translate(0,0)"/>
<path d="" fill="#3D3B35" transform="translate(0,0)"/>
<path d="" fill="#3A3833" transform="translate(0,0)"/>
<path d="" fill="#31312D" transform="translate(0,0)"/>
<path d="" fill="#393732" transform="translate(0,0)"/>
<path d="" fill="#2E2D29" transform="translate(0,0)"/>
<path d="" fill="#3C3D39" transform="translate(0,0)"/>
<path d="" fill="#32312B" transform="translate(0,0)"/>
<path d="" fill="#393834" transform="translate(0,0)"/>
<path d="" fill="#3F3D37" transform="translate(0,0)"/>
<path d="" fill="#3F3E37" transform="translate(0,0)"/>
<path d="" fill="#35332E" transform="translate(0,0)"/>
<path d="" fill="#302E2A" transform="translate(0,0)"/>
<path d="" fill="#2F2E29" transform="translate(0,0)"/>
<path d="" fill="#2F2E2A" transform="translate(0,0)"/>
<path d="" fill="#3C3C36" transform="translate(0,0)"/>
<path d="" fill="#3A3A35" transform="translate(0,0)"/>
<path d="" fill="#373631" transform="translate(0,0)"/>
<path d="" fill="#35332F" transform="translate(0,0)"/>
<path d="" fill="#3B3832" transform="translate(0,0)"/>
<path d="" fill="#393932" transform="translate(0,0)"/>
<path d="" fill="#3D3935" transform="translate(0,0)"/>
<path d="" fill="#373733" transform="translate(0,0)"/>
<path d="" fill="#3B3934" transform="translate(0,0)"/>
<path d="" fill="#3A3731" transform="translate(0,0)"/>
<path d="" fill="#3A3A33" transform="translate(0,0)"/>
<path d="" fill="#363532" transform="translate(0,0)"/>
<path d="" fill="#3C3C35" transform="translate(0,0)"/>
<path d="" fill="#3F4039" transform="translate(0,0)"/>
<path d="" fill="#4F4F4A" transform="translate(0,0)"/>
<path d="" fill="#3E3C35" transform="translate(0,0)"/>
<path d="" fill="#3C3B35" transform="translate(0,0)"/>
<path d="" fill="#3B3B38" transform="translate(0,0)"/>
<path d="" fill="#3F3D3B" transform="translate(0,0)"/>
<path d="" fill="#3D3C36" transform="translate(0,0)"/>
<path d="" fill="#3D3D37" transform="translate(0,0)"/>
<path d="" fill="#3D3C38" transform="translate(0,0)"/>
<path d="" fill="#3E3F39" transform="translate(0,0)"/>
<path d="" fill="#3C3C35" transform="translate(0,0)"/>
<path d="" fill="#3E3C36" transform="translate(0,0)"/>
<path d="" fill="#3F3D39" transform="translate(0,0)"/>
<path d="" fill="#3E3F3A" transform="translate(0,0)"/>
<path d="" fill="#43423C" transform="translate(0,0)"/>
<path d="" fill="#3F413A" transform="translate(0,0)"/>
<path d="" fill="#3A3937" transform="translate(0,0)"/>
<path d="" fill="#55534E" transform="translate(0,0)"/>
<path d="" fill="#505149" transform="translate(0,0)"/>
<path d="" fill="#56544D" transform="translate(0,0)"/>
<path d="" fill="#55554E" transform="translate(0,0)"/>
<path d="" fill="#595852" transform="translate(0,0)"/>
<path d="" fill="#52524A" transform="translate(0,0)"/>
<path d="" fill="#55534D" transform="translate(0,0)"/>
<path d="" fill="#56554D" transform="translate(0,0)"/>
<path d="" fill="#5A5953" transform="translate(0,0)"/>
</svg>
