<?xml version="1.0" encoding="UTF-8"?>
<svg version="1.1" xmlns="http://www.w3.org/2000/svg" width="1024" height="1024">
<path d="M0 0 C0.86367188 0.6496875 1.72734375 1.299375 2.6171875 1.96875 C7.14149068 5.45931031 11.11727351 8.96196598 14.703125 13.4140625 C16.14090294 15.22612374 16.14090294 15.22612374 18.5625 17.5625 C40.49581128 39.49581128 50.91779093 71.1847825 51.1875 101.625 C51.10770497 136.15390559 38.13341383 167.8141957 13.71972656 192.359375 C4.32745434 201.3196347 -6.38132166 209.23360522 -18 215 C-16.95216591 215.00213753 -16.95216591 215.00213753 -15.88316345 215.00431824 C-9.27747999 215.02219927 -2.67242046 215.06396245 3.93294621 215.13209057 C7.32835158 215.16628103 10.72331087 215.19145792 14.11889648 215.19555664 C18.02888748 215.20068102 21.93793688 215.24587126 25.84765625 215.29296875 C27.66367088 215.28706978 27.66367088 215.28706978 29.51637268 215.28105164 C36.70571017 215.40485854 40.68592632 216.03019126 46 221 C51.05016329 227.37915363 51.46338958 233.13600632 51 241 C49.95916339 249.17800195 43.93686271 254.68929278 37.86328125 259.796875 C31.79459495 264.14927848 24.98889179 266.51407773 18 269 C16.51989667 269.58095261 15.04056155 270.16387214 13.5625 270.75 C10.32602332 271.88560585 7.3760072 272.48718878 4 273 C4.26598957 281.3365025 4.60519668 289.66860805 5 298 C5.04850098 299.02544922 5.09700195 300.05089844 5.14697266 301.10742188 C6.2255599 321.93956412 9.56049668 342.45110869 13 363 C13.12215881 363.73207672 13.24431763 364.46415344 13.37017822 365.21841431 C14.99823934 374.90425319 16.87422848 384.51031984 19.05224609 394.08764648 C19.50684713 396.09269981 19.95089712 398.09991682 20.39453125 400.10742188 C21.85159065 406.61122335 23.45997876 412.83034614 26 419 C27.59857945 423.54411011 29.04186101 428.12146126 30.375 432.75 C33.15789843 442.11860572 36.9506589 451.11811191 41 460 C41.28230469 460.65613281 41.56460937 461.31226563 41.85546875 461.98828125 C44.08652949 467.16161423 46.55114673 472.20847543 49.0625 477.25 C49.57345215 478.27879272 49.57345215 478.27879272 50.09472656 479.32836914 C51.55835156 482.24671198 53.04294581 485.07032737 54.74609375 487.859375 C56 490 56 490 56 492 C56.72960937 492.09796875 57.45921875 492.1959375 58.2109375 492.296875 C63.82204157 493.71143905 68.22094243 498.05920993 72.0625 502.25 C73.63487444 506.86229836 73.85376364 511.20171598 73 516 C71.65234375 518.36328125 71.65234375 518.36328125 70 520.5625 C67.12287417 524.47208725 65.98452807 527.15549458 66.26953125 532.0390625 C67.95640006 538.87674462 71.52330966 547.6036172 76.62768555 552.59008789 C78 554 78 554 78 556 C79.32 556.66 80.64 557.32 82 558 C82 558.66 82 559.32 82 560 C83.32 560.66 84.64 561.32 86 562 C86 562.66 86 563.32 86 564 C87.32 564.66 88.64 565.32 90 566 C90 566.66 90 567.32 90 568 C90.55945313 568.24105469 91.11890625 568.48210938 91.6953125 568.73046875 C94.48153854 570.26525428 96.54264415 572.15089294 98.875 574.3125 C101.61382156 576.83044886 104.33208351 579.31691262 107.25 581.625 C110.00766713 584.00662161 112.23727539 586.50149988 114.55078125 589.30078125 C116.14966017 591.22744949 116.14966017 591.22744949 118.75 593.6875 C120.80206799 595.79656988 121.71392793 597.42785586 123 600 C123.99 600.33 124.98 600.66 126 601 C126 601.99 126 602.98 126 604 C126.99 604.33 127.98 604.66 129 605 C130.50367903 607.58901934 131.83849982 610.11933203 133.125 612.8125 C133.48464844 613.53759766 133.84429688 614.26269531 134.21484375 615.00976562 C138.62771325 624.04209965 139.92284691 634.43359748 137.05859375 644.21484375 C135.84621522 646.92464277 134.51650489 649.44913988 133 652 C132.319375 653.21236328 132.319375 653.21236328 131.625 654.44921875 C129.31269548 658.39252378 129.31269548 658.39252378 128 660 C127.34 660 126.68 660 126 660 C125.67 661.32 125.34 662.64 125 664 C126.41468311 664.96125903 127.8318364 665.91888325 129.25 666.875 C130.03890625 667.40867187 130.8278125 667.94234375 131.640625 668.4921875 C133.89885061 670.00973461 133.89885061 670.00973461 136.08203125 670.96484375 C139.17359082 672.63340442 141.03789309 675.20349335 143.25 677.8828125 C144.90952375 679.96025489 144.90952375 679.96025489 146.5625 681.5546875 C150.99373337 686.41393773 150.69638093 691.91885952 150.5078125 698.2421875 C149.79418662 703.52301903 147.91118676 707.58123438 145 712 C145.93590504 713.1055189 146.87379858 714.20935453 147.8125 715.3125 C148.33457031 715.92738281 148.85664062 716.54226563 149.39453125 717.17578125 C150.93054831 718.97381742 150.93054831 718.97381742 152.46569824 720.40138245 C158.56890876 726.76043106 158.59082509 734.17998972 158.53125 742.56640625 C158.5350769 743.75926743 158.53890381 744.9521286 158.54284668 746.18113708 C158.54555903 748.69327645 158.53824558 751.20544438 158.52148438 753.7175293 C158.50004825 757.55386473 158.52132111 761.38833141 158.546875 765.22460938 C158.54423198 767.67187912 158.53910753 770.1191477 158.53125 772.56640625 C158.53934692 773.70823868 158.54744385 774.85007111 158.55578613 776.02650452 C158.45343253 784.75137249 156.57778975 789.84657547 150.3125 796.125 C146.24663605 800.01864503 142.02644838 802.53434472 137 805 C136.05898438 805.49371094 135.11796875 805.98742187 134.1484375 806.49609375 C97.47788751 825.49466035 50.97671917 831.15297848 10.16796875 832.7890625 C4.49803824 833.03278325 -1.14134827 833.64512486 -6.78222656 834.25244141 C-22.14233288 835.83592532 -37.57020354 836.16801284 -53 836.203125 C-53.86562561 836.20595238 -54.73125122 836.20877975 -55.62310791 836.21169281 C-60.21521283 836.22653248 -64.80728763 836.23585439 -69.39941406 836.24023438 C-73.10459399 836.24458905 -76.80953713 836.25838605 -80.51464844 836.28125 C-103.58847038 836.42073555 -126.28375954 835.7084575 -149.24342346 833.36329651 C-155.30012661 832.77755598 -161.36709559 832.35288754 -167.4375 831.9375 C-174.46119911 831.45606467 -181.2922096 830.68096819 -188.22924805 829.46166992 C-191.87833121 828.85365016 -195.50259241 828.51852329 -199.1875 828.1875 C-224.03297579 825.66663021 -249.21816818 819.38538568 -272.5 810.4375 C-273.64927979 809.99796997 -273.64927979 809.99796997 -274.82177734 809.54956055 C-278.79083577 807.99395279 -282.39960254 806.31596732 -286 804 C-287.32608822 803.31903578 -288.65686601 802.64669414 -290 802 C-290 801.34 -290 800.68 -290 800 C-290.556875 799.938125 -291.11375 799.87625 -291.6875 799.8125 C-294.95096487 798.66587721 -296.64054906 796.48044843 -299 794 C-299.99 793.34 -300.98 792.68 -302 792 C-305.23942277 787.26545902 -306.11210354 783.50731475 -306.19287109 777.83935547 C-306.20893402 776.81083466 -306.22499695 775.78231384 -306.24154663 774.72262573 C-306.28627699 770.01626423 -306.32707526 765.31004039 -306.35009766 760.60351562 C-306.36662811 758.12848489 -306.39387917 755.65350131 -306.43212891 753.17871094 C-306.48717494 749.59545317 -306.50881685 746.0133124 -306.5234375 742.4296875 C-306.54610687 741.33453827 -306.56877625 740.23938904 -306.59213257 739.11105347 C-306.57208867 731.74460178 -305.20623509 726.13474185 -301 720 C-299.10255189 718.14959044 -297.10315965 716.62516882 -295 715 C-294.11042309 713.09274223 -294.11042309 713.09274223 -294 711 C-294.9590625 709.4221875 -294.9590625 709.4221875 -295.9375 707.8125 C-299.39241209 701.34062243 -299.33686215 693.09895247 -298 686 C-296.26680464 682.22775127 -294.07342638 679.75178873 -291 677 C-290.35546875 676.38382813 -289.7109375 675.76765625 -289.046875 675.1328125 C-284.5141129 671 -284.5141129 671 -282 671 C-282 670.34 -282 669.68 -282 669 C-277.545 666.525 -277.545 666.525 -273 664 C-275.52510301 660.13079933 -275.52510301 660.13079933 -278.23828125 656.39453125 C-285.70214777 646.66608604 -287.15339127 636.96937677 -286 625 C-284.41125337 617.2794054 -281.26577527 609.95784859 -276 604 C-275.34 604 -274.68 604 -274 604 C-273.9071875 603.1646875 -273.9071875 603.1646875 -273.8125 602.3125 C-272.6552513 599.01879217 -270.51681071 597.40495246 -268 595 C-267.05226913 593.88360516 -266.11524127 592.75806107 -265.1875 591.625 C-261.44736327 587.20835276 -257.12882048 582.45226614 -251.8203125 579.98828125 C-249.64598199 579.0760281 -249.64598199 579.0760281 -249 576 C-247.2578125 574.2109375 -247.2578125 574.2109375 -245.125 572.375 C-244.42632812 571.76398437 -243.72765625 571.15296875 -243.0078125 570.5234375 C-241 569 -241 569 -238 568 C-236.79117904 565.99983534 -236.79117904 565.99983534 -236 564 C-235.34 564 -234.68 564 -234 564 C-233.34 562.68 -232.68 561.36 -232 560 C-231.34 560 -230.68 560 -230 560 C-229.34 558.68 -228.68 557.36 -228 556 C-227.34 556 -226.68 556 -226 556 C-225.9175 555.4225 -225.835 554.845 -225.75 554.25 C-225 552 -225 552 -223.15625 550.24609375 C-218.32721405 545.21584797 -214.74980413 537.30975777 -214.25 530.3125 C-214.56977608 525.61956999 -216.96733921 522.15363689 -219.58984375 518.359375 C-221.93568994 514.4344689 -222.20075578 511.88023688 -221.1875 507.4375 C-219.49469149 502.53726485 -218.05328571 499.34396071 -214 496 C-211.47134118 494.77511601 -208.93227523 493.62281581 -206.33984375 492.5390625 C-203.19574858 490.47099323 -202.51302848 488.43798094 -201 485 C-200.25503021 483.600566 -199.49751623 482.20776833 -198.73046875 480.8203125 C-193.25922857 470.75734929 -188.78396679 460.79676753 -185 450 C-184.11229817 447.68436638 -183.21689993 445.37166313 -182.3125 443.0625 C-180.65414129 438.8282714 -179.1737143 434.56105807 -177.75219727 430.2434082 C-177.09295519 428.27723636 -176.38801168 426.32650982 -175.67578125 424.37890625 C-167.74686679 402.482904 -162.92363037 378.84889324 -159.43554688 355.85888672 C-159.13958941 353.91625109 -158.83321973 351.97517911 -158.51757812 350.03564453 C-154.38073517 324.53450268 -152.84757421 298.74577057 -151 273 C-151.88042969 272.80374023 -152.76085937 272.60748047 -153.66796875 272.40527344 C-155.41013672 272.01130371 -155.41013672 272.01130371 -157.1875 271.609375 C-158.33605469 271.35124023 -159.48460937 271.09310547 -160.66796875 270.82714844 C-174.487656 267.39652854 -188.3205393 260.44554325 -196.66015625 248.65234375 C-199.63468125 242.76399835 -199.67827368 234.90206414 -198.3125 228.5 C-196.40311754 223.40831343 -193.66224369 219.83406902 -189.06195068 216.85144043 C-184.33903501 214.90120884 -178.97385399 215.39570648 -173.9453125 215.390625 C-172.68862762 215.37408875 -171.43194275 215.35755249 -170.13717651 215.34051514 C-166.81290491 215.30025852 -163.48939738 215.2768776 -160.16497803 215.26177979 C-156.76607807 215.24215295 -153.36746001 215.20018953 -149.96875 215.16015625 C-143.31256898 215.08626604 -136.65649483 215.03462889 -130 215 C-130.61198242 214.66371582 -131.22396484 214.32743164 -131.85449219 213.98095703 C-132.66047852 213.53606934 -133.46646484 213.09118164 -134.296875 212.6328125 C-135.09448242 212.19340332 -135.89208984 211.75399414 -136.71386719 211.30126953 C-139.5748147 209.67281479 -142.28094106 207.85390382 -145 206 C-145.94875 205.46375 -146.8975 204.9275 -147.875 204.375 C-148.57625 203.92125 -149.2775 203.4675 -150 203 C-150 202.34 -150 201.68 -150 201 C-151.32 200.67 -152.64 200.34 -154 200 C-154 199.34 -154 198.68 -154 198 C-154.56332031 197.76152344 -155.12664062 197.52304687 -155.70703125 197.27734375 C-173.83012576 187.18151427 -187.34902686 160.77160352 -193.28125 141.5625 C-197.61047487 126.1278722 -199.35076276 112.11838403 -199 96 C-198.97486328 94.33517578 -198.97486328 94.33517578 -198.94921875 92.63671875 C-198.09355451 71.83185404 -190.55046379 52.66101494 -180 35 C-178.6570944 32.67198917 -177.32800081 30.33657158 -176 28 C-175.34 28 -174.68 28 -174 28 C-173.938125 27.443125 -173.87625 26.88625 -173.8125 26.3125 C-172.66587721 23.04903513 -170.48044843 21.35945094 -168 19 C-167.34 18.01 -166.68 17.02 -166 16 C-165.34 16 -164.68 16 -164 16 C-163.73832031 15.40058594 -163.47664062 14.80117187 -163.20703125 14.18359375 C-161.92779812 11.86938236 -160.73749558 10.70340555 -158.6875 9.0625 C-156.50614925 7.27163797 -154.54026163 5.52847347 -152.5625 3.5 C-140.775 -8 -140.775 -8 -134 -8 C-134 -8.66 -134 -9.32 -134 -10 C-90.30597717 -29.96800016 -39.38765272 -30.44198244 0 0 Z " fill="#020200" transform="translate(586,104)"/>
<path d="M0 0 C2.86132352 1.27756511 5.446466 2.86750158 8.1171875 4.5078125 C80.33354011 46.95515103 194.14614367 42.19986715 383.12475586 20.43560791 C400.40760515 15.92230464 416.21239019 9.88184404 431.1171875 -0.0546875 C432.27237668 0.85016042 433.41604156 1.7697331 434.5546875 2.6953125 C435.19277344 3.20578125 435.83085938 3.71625 436.48828125 4.2421875 C438.30529304 6.14198879 438.72141947 7.38118158 439.1171875 9.9453125 C439.7771875 9.9453125 440.4371875 9.9453125 441.1171875 9.9453125 C440.66546638 14.91424479 438.57863913 18.47693797 435.1171875 21.9453125 C413.7408105 38.14724904 386.8650959 43.70948521 361.1171875 48.9453125 C360.02325684 49.17105957 358.92932617 49.39680664 357.80224609 49.62939453 C343.38039927 52.55859642 328.92911104 54.58399751 314.3046875 56.1328125 C313.58559204 56.21162659 312.86649658 56.29044067 312.12561035 56.37164307 C281.06589644 59.72146365 249.71944109 60.33368938 218.50656509 60.26337051 C215.93596586 60.25768822 213.36537332 60.25489461 210.79476929 60.25228882 C184.13810586 60.21308094 157.65882837 59.60378763 131.1171875 56.9453125 C129.74478912 56.81095795 129.74478912 56.81095795 128.34466553 56.67388916 C22.02777356 46.24461982 22.02777356 46.24461982 -6.8828125 19.9453125 C-7.45128906 19.43097656 -8.01976562 18.91664063 -8.60546875 18.38671875 C-10.0703125 16.8828125 -10.0703125 16.8828125 -11.8828125 13.9453125 C-11.52608265 8.47545487 -7.59393929 5.14520194 -3.953125 1.38671875 C-1.8828125 -0.0546875 -1.8828125 -0.0546875 0 0 Z " fill="#171614" transform="translate(296.8828125,818.0546875)"/>
<path d="M0 0 C0.95253662 0.37475464 0.95253662 0.37475464 1.92431641 0.75708008 C87.23194557 33.6843184 190.91585155 31.78467291 373.40380859 3.38061523 C375.34757507 2.48527976 377.28309066 1.57560437 379.21337891 0.65161133 C384.49175356 -1.80389629 384.49175356 -1.80389629 387.54541016 -1.14135742 C389.52587891 -0.03588867 389.52587891 -0.03588867 392.15087891 2.33911133 C392.15087891 2.99911133 392.15087891 3.65911133 392.15087891 4.33911133 C392.76962891 4.46286133 393.38837891 4.58661133 394.02587891 4.71411133 C396.15087891 5.33911133 396.15087891 5.33911133 398.15087891 7.33911133 C373.0621354 33.57150127 328.88457822 37.09389405 294.88037109 41.81616211 C291.7192961 42.2594079 288.56406149 42.72856013 285.40869141 43.21020508 C196.94960039 56.14552913 75.85582833 57.87560938 -16.91162109 11.96411133 C-18.36568359 10.66473633 -18.36568359 10.66473633 -19.84912109 9.33911133 C-19.84912109 8.67911133 -19.84912109 8.01911133 -19.84912109 7.33911133 C-17.87808009 5.9101066 -15.91003375 4.62609476 -13.84912109 3.33911133 C-13.17623047 2.87504883 -12.50333984 2.41098633 -11.81005859 1.93286133 C-11.12169922 1.46879883 -10.43333984 1.00473633 -9.72412109 0.52661133 C-9.08216797 0.08704102 -8.44021484 -0.3525293 -7.77880859 -0.80541992 C-4.90245299 -2.08056542 -2.87205412 -1.02649201 0 0 Z " fill="#171714" transform="translate(321.84912109375,770.660888671875)"/>
<path d="M0 0 C1.34227661 0.28858887 1.34227661 0.28858887 2.71166992 0.58300781 C4.17890503 0.90930176 4.17890503 0.90930176 5.67578125 1.2421875 C21.30764265 4.62807867 36.84867132 7.62701094 52.73828125 9.4921875 C53.99898438 9.64284668 55.2596875 9.79350586 56.55859375 9.94873047 C80.86801533 12.65281903 105.16456692 13.61952383 129.61328125 13.5546875 C130.99267564 13.55335988 132.37207019 13.55219187 133.75146484 13.55117798 C155.84124503 13.52298145 177.71662084 12.70367775 199.67578125 10.2421875 C200.7956543 10.12472168 201.91552734 10.00725586 203.06933594 9.88623047 C215.91411965 8.52318345 228.4525194 6.20626329 241.0625 3.42578125 C242.93307389 3.02879252 244.8041863 2.63433426 246.67578125 2.2421875 C247.73104004 2.01031738 248.78629883 1.77844727 249.87353516 1.53955078 C251.45593994 1.2241333 251.45593994 1.2241333 253.0703125 0.90234375 C254.02397705 0.70390869 254.9776416 0.50547363 255.96020508 0.30102539 C261.13685468 0.18886387 264.91358664 3.98839757 268.67578125 7.2421875 C271.35505466 11.26109762 270.83179373 13.48380673 270.67578125 18.2421875 C263.47039483 21.93174917 256.20814115 23.72289789 248.30078125 25.3046875 C247.02710693 25.56217773 245.75343262 25.81966797 244.44116211 26.08496094 C231.59431133 28.62115672 218.71124915 30.08548742 205.67578125 31.2421875 C204.62843307 31.33578049 203.5810849 31.42937347 202.5019989 31.52580261 C180.41727586 33.41948961 158.38826076 33.55393727 136.23608398 33.50292969 C131.243615 33.49154389 126.25135947 33.49831234 121.25889778 33.50980663 C98.64691545 33.55401978 76.21500926 33.18953289 53.67578125 31.2421875 C52.75121124 31.16421936 51.82664124 31.08625122 50.87405396 31.00592041 C45.63214121 30.55489529 40.40295176 30.02684924 35.17578125 29.4296875 C34.43359344 29.34637177 33.69140564 29.26305603 32.92672729 29.17721558 C15.38088899 27.18277243 -2.10384885 24.55847719 -18.32421875 17.2421875 C-17.76542008 12.11036299 -17.03750973 8.33286843 -13.01171875 4.8671875 C-11.79517389 3.97472221 -10.56689627 3.09789088 -9.32421875 2.2421875 C-8.56109375 1.5821875 -7.79796875 0.9221875 -7.01171875 0.2421875 C-3.99192258 -0.88145759 -3.06935541 -0.67825066 0 0 Z " fill="#171614" transform="translate(385.32421875,598.7578125)"/>
<path d="M0 0 C2.35125 0.268125 4.7025 0.53625 7.125 0.8125 C8.82150776 0.99448815 10.51811571 1.1755459 12.21484375 1.35546875 C16.13349349 1.77799556 20.03600618 2.27037167 23.94140625 2.80078125 C61.49149204 7.57042912 102.12690313 7.96335174 139.30566406 0.38037109 C142 0 142 0 149 0 C149 5.61 149 11.22 149 17 C129.27976801 21.35920918 109.18401495 23.53349734 89 24 C88.11699219 24.02191406 87.23398437 24.04382813 86.32421875 24.06640625 C56.89270921 24.69083715 27.6839051 21.52509158 -1 15 C-0.67 10.05 -0.34 5.1 0 0 Z " fill="#171714" transform="translate(438,377)"/>
</svg>
