<?xml version="1.0" encoding="UTF-8"?>
<svg version="1.1" xmlns="http://www.w3.org/2000/svg" width="1024" height="1024">
<path d="M0 0 C6.59537107 7.05551324 9.07509857 15.26681896 8.9609375 24.7421875 C8.25121349 32.87359687 3.74067475 39.55080973 -2.3125 44.875 C-5.75 46.375 -5.75 46.375 -8.3125 46.875 C-6.25008556 51.45140327 -3.86484835 54.78132276 -0.4375 58.4375 C0.03864746 58.94998291 0.51479492 59.46246582 1.00537109 59.99047852 C3.60030147 62.75865594 6.25607678 65.44922526 8.984375 68.0859375 C28.32551414 86.78010191 36.47249854 107.6976225 40.6875 133.875 C41.87637078 132.77770293 41.87637078 132.77770293 42.9375 130.625 C44.88128278 127.5704842 47.06865194 125.36914101 49.6875 122.875 C53.06482802 119.58427014 56.1289712 116.20701628 59.0625 112.5234375 C61.06341721 110.49366091 63.23037682 109.32181609 65.6875 107.875 C67.2948499 106.65835354 68.90135537 105.44047781 70.49584961 104.20703125 C76.89926074 99.29152468 83.47169436 95.12006496 90.625 91.375 C91.79506592 90.76192993 91.79506592 90.76192993 92.98876953 90.13647461 C97.78390069 87.68980165 102.55432336 85.51407258 107.6875 83.875 C108.6775 84.205 109.6675 84.535 110.6875 84.875 C110.130625 85.844375 109.57375 86.81375 109 87.8125 C84.46259732 130.79088795 71.43303263 175.82174289 65.6875 224.875 C66.6775 225.205 67.6675 225.535 68.6875 225.875 C74.53735845 230.99362614 77.34864824 236.46992711 77.9375 244.125 C77.56065488 249.77767684 76.25486805 254.03103759 72.5625 258.375 C68.56780259 260.45918995 65.1041639 260.22140501 60.6875 259.875 C62.53604107 266.41599148 64.57492347 270.92752155 70.52734375 274.4453125 C75.65309714 276.76425655 80.96625692 278.55729942 86.328125 280.25268555 C93.35257806 282.52133885 100.29091869 285.0554401 104.25 291.625 C107.73697226 300.06878932 103.83077894 308.49667484 100.6171875 316.49609375 C97.30295247 324.29419067 92.94593133 331.5655831 88.6875 338.875 C68.96426216 372.87358489 63.45039149 407.65543692 63.5 446.5625 C63.50093658 447.5140799 63.50187317 448.46565979 63.50283813 449.44607544 C63.6081875 498.99193607 65.72979542 590.50211247 101.11547852 628.40454102 C106.35835146 633.24452691 112.43709179 635.75068721 118.92382812 638.52929688 C124.46862501 641.00488819 127.8875605 643.275121 130.6875 648.875 C132.19299765 661.26450526 126.68188462 671.49552597 120.4921875 681.74609375 C117.44804845 687.02391924 116.438604 690.55464787 116.5625 696.6875 C116.58054687 697.84894531 116.59859375 699.01039063 116.6171875 700.20703125 C116.65199219 701.52767578 116.65199219 701.52767578 116.6875 702.875 C117.6775 702.875 118.6675 702.875 119.6875 702.875 C119.76871094 703.75671875 119.84992188 704.6384375 119.93359375 705.546875 C120.80736444 709.40414251 122.17401463 711.16284399 124.75 714.125 C128.6875 718.6922232 128.6875 718.6922232 128.6875 720.875 C129.27402344 721.13152344 129.86054687 721.38804687 130.46484375 721.65234375 C132.89062929 722.98673896 134.36278701 724.41985328 136.25 726.4375 C139.34282096 729.61623266 142.54393492 732.47033623 146 735.25 C158.87650607 745.68655955 173.95834248 758.10382303 175.90185547 775.83007812 C177.01315343 790.88279946 172.97558537 802.47544462 163.3125 814.0625 C160.10445684 817.63717666 156.7017718 820.25343474 152.6875 822.875 C155.89969857 825.4044124 159.2868695 827.43559467 162.8125 829.5 C169.1060844 833.27739672 174.43834868 837.73218507 179.6875 842.875 C180.41582031 843.535 181.14414062 844.195 181.89453125 844.875 C183.871012 847.07970184 184.33839344 848.24001116 184.8125 851.125 C184.95558594 851.99511719 185.09867188 852.86523438 185.24609375 853.76171875 C185.39175781 854.78910156 185.53742188 855.81648437 185.6875 856.875 C185.88472656 858.16019531 186.08195312 859.44539062 186.28515625 860.76953125 C188.81610502 878.1134925 188.81610502 878.1134925 184.9765625 884.8984375 C171.92507097 901.86983092 136.72697728 901.78814586 116.80923462 904.41360474 C103.28986647 906.14846419 89.71954897 907.4149424 76.14404297 908.61962891 C74.84090652 908.73617325 74.84090652 908.73617325 73.51144409 908.85507202 C71.88291867 908.9997089 70.25412354 909.14135241 68.62503052 909.27944946 C64.68784034 909.59812559 64.68784034 909.59812559 60.82617188 910.38058472 C55.65825167 911.57529755 50.1620103 911.2815637 44.875 911.4296875 C44.16444458 911.45062344 43.45388916 911.47155937 42.72180176 911.49312973 C23.42675949 912.04890421 4.12660617 912.02712029 -15.17480469 912.00537109 C-20.3299331 911.9996137 -25.48501008 912.00301041 -30.64013672 912.00894356 C-34.68803282 912.01258327 -38.73591699 912.01139606 -42.78381348 912.00881577 C-44.68444831 912.00815907 -46.5850843 912.00892968 -48.48571777 912.01129532 C-58.85426257 912.0214004 -69.14414165 911.82198642 -79.48876953 911.08908081 C-84.84475915 910.78921276 -90.16752343 910.84735333 -95.53125 910.9375 C-98.3125 910.875 -98.3125 910.875 -99.3125 909.875 C-102.34678126 909.53485372 -105.36774551 909.2531392 -108.41015625 909.0078125 C-110.33586128 908.84413619 -112.26156094 908.68039676 -114.18725586 908.51660156 C-115.19915985 908.43220825 -116.21106384 908.34781494 -117.25363159 908.26086426 C-132.0494799 907.0243207 -146.82291328 905.77999967 -161.53344727 903.73876953 C-165.85108078 903.14349298 -169.94503603 902.85532674 -174.3125 902.875 C-176.3125 902.20833333 -178.3125 901.54166667 -180.3125 900.875 C-181.3025 901.205 -182.2925 901.535 -183.3125 901.875 C-184.3025 902.205 -185.2925 902.535 -186.3125 902.875 C-186.9725 901.885 -187.6325 900.895 -188.3125 899.875 C-191.36679073 898.66215124 -191.36679073 898.66215124 -194.3125 897.875 C-194.3125 898.535 -194.3125 899.195 -194.3125 899.875 C-195.56945224 899.24652388 -196.81737906 898.599302 -198.05078125 897.92578125 C-200.80455768 896.64639289 -203.57693693 895.88319274 -206.5 895.0625 C-214.85987357 892.50105726 -221.77176018 890.15303969 -226.39404297 882.36767578 C-228.26218606 877.29756921 -227.14546716 872.16418259 -226.375 866.9375 C-226.24287109 865.80892578 -226.11074219 864.68035156 -225.97460938 863.51757812 C-224.31488757 850.83730354 -219.83531857 841.81770188 -209.6875 833.875 C-204.11270488 829.88670784 -198.18517202 826.40218411 -192.3125 822.875 C-192.7971875 822.55789063 -193.281875 822.24078125 -193.78125 821.9140625 C-202.72767757 815.68597254 -209.41395671 807.08993315 -213.3125 796.875 C-213.3125 795.885 -213.3125 794.895 -213.3125 793.875 C-213.9725 793.545 -214.6325 793.215 -215.3125 792.875 C-215.3125 785.615 -215.3125 778.355 -215.3125 770.875 C-214.6525 770.875 -213.9925 770.875 -213.3125 770.875 C-213.20679688 770.153125 -213.10109375 769.43125 -212.9921875 768.6875 C-212.2501132 765.61684771 -211.11321672 763.54280771 -209.4375 760.875 C-208.92445313 760.05 -208.41140625 759.225 -207.8828125 758.375 C-207.36460937 757.55 -206.84640625 756.725 -206.3125 755.875 C-205.82007813 755.00875 -205.32765625 754.1425 -204.8203125 753.25 C-203.37736037 750.97716348 -202.11877107 749.57929674 -200.0625 747.875 C-199.36382812 747.28460937 -198.66515625 746.69421875 -197.9453125 746.0859375 C-196.64207031 744.99152344 -196.64207031 744.99152344 -195.3125 743.875 C-190.89075052 740.07646739 -186.49241872 736.25058067 -182.09423828 732.42480469 C-180.53157602 731.06555832 -178.96710646 729.7083903 -177.40234375 728.3515625 C-170.22117414 722.02502977 -163.09966657 715.25254151 -158.3125 706.875 C-158.3125 705.885 -158.3125 704.895 -158.3125 703.875 C-157.6525 703.545 -156.9925 703.215 -156.3125 702.875 C-155.09621723 696.46187268 -154.54263686 690.52979471 -158.3125 684.875 C-160.37175139 684.15117533 -160.37175139 684.15117533 -162.3125 683.875 C-162.6425 682.225 -162.9725 680.575 -163.3125 678.875 C-162.6525 678.875 -161.9925 678.875 -161.3125 678.875 C-162.055 677.451875 -162.055 677.451875 -162.8125 676 C-164.3125 672.875 -164.3125 672.875 -164.3125 670.875 C-165.3025 670.875 -166.2925 670.875 -167.3125 670.875 C-167.43625 669.8025 -167.56 668.73 -167.6875 667.625 C-167.98984826 665.00619888 -168.39631674 662.49506423 -168.96484375 659.91796875 C-170.89207594 650.85199483 -170.89207594 650.85199483 -168.875 646.9375 C-163.48274898 640.49310243 -156.77282329 637.55693003 -149.09765625 634.55859375 C-144.4830803 632.66158834 -141.61733917 630.62991454 -138.3125 626.875 C-138.6425 626.215 -138.9725 625.555 -139.3125 624.875 C-138.6525 624.215 -137.9925 623.555 -137.3125 622.875 C-133.50447094 618.5702715 -132.09761352 613.23034056 -130.3125 607.875 C-129.6525 606.885 -128.9925 605.895 -128.3125 604.875 C-126.76569393 600.94944346 -125.46608969 596.93736435 -124.125 592.9375 C-123.55362305 591.29104492 -123.55362305 591.29104492 -122.97070312 589.61132812 C-122.43799805 588.02674805 -122.43799805 588.02674805 -121.89453125 586.41015625 C-121.56686768 585.444729 -121.2392041 584.47930176 -120.90161133 583.48461914 C-120.11307953 580.94144704 -120.11307953 580.94144704 -120.90112305 578.71655273 C-121.03687744 578.10884033 -121.17263184 577.50112793 -121.3125 576.875 C-120.33103642 575.85680098 -119.32766063 574.85960595 -118.3125 573.875 C-117.35179577 571.17000324 -117.35179577 571.17000324 -116.70703125 568.0703125 C-116.44599609 566.92949219 -116.18496094 565.78867187 -115.91601562 564.61328125 C-115.52446289 562.82470703 -115.52446289 562.82470703 -115.125 561 C-114.85236328 559.81535156 -114.57972656 558.63070312 -114.29882812 557.41015625 C-112.66157705 550.21530828 -112.66157705 550.21530828 -112.3125 542.875 C-111.6525 542.875 -110.9925 542.875 -110.3125 542.875 C-110.26859131 542.1951001 -110.22468262 541.5152002 -110.17944336 540.81469727 C-109.59372342 532.80186187 -108.46312053 524.91880197 -107.2137146 516.98831177 C-103.56635716 493.55866557 -102.1476291 470.51198416 -102.125 446.8125 C-102.12382172 445.83733429 -102.12264343 444.86216858 -102.12142944 443.85745239 C-102.12181058 441.08066726 -102.13099794 438.30409314 -102.14453125 435.52734375 C-102.14574982 434.68283661 -102.14696838 433.83832947 -102.14822388 432.9682312 C-102.07211473 428.78797876 -102.07211473 428.78797876 -103.3125 424.875 C-103.35215829 423.37681784 -103.33897938 421.87702166 -103.296875 420.37890625 C-103.24753993 415.089617 -103.77958983 410.03701496 -104.5625 404.8125 C-104.69382324 403.91362061 -104.82514648 403.01474121 -104.96044922 402.08862305 C-106.80929879 388.10267635 -106.80929879 388.10267635 -111.3125 374.875 C-112.3025 374.545 -113.2925 374.215 -114.3125 373.875 C-114.355221 372.20888095 -114.35313832 370.54117115 -114.3125 368.875 C-113.9825 368.545 -113.6525 368.215 -113.3125 367.875 C-114.02325338 365.95142916 -114.75695878 364.03633066 -115.5 362.125 C-115.90605469 361.05765625 -116.31210937 359.9903125 -116.73046875 358.890625 C-118.4728644 355.56931773 -120.25592059 353.9914886 -123.3125 351.875 C-122.9825 350.885 -122.6525 349.895 -122.3125 348.875 C-123.51689911 346.07895618 -123.51689911 346.07895618 -125.25 343.1875 C-125.81589844 342.19363281 -126.38179688 341.19976562 -126.96484375 340.17578125 C-127.40957031 339.41652344 -127.85429687 338.65726562 -128.3125 337.875 C-129.3025 337.875 -130.2925 337.875 -131.3125 337.875 C-131.395 336.87726563 -131.4775 335.87953125 -131.5625 334.8515625 C-132.19402067 330.43314146 -134.09321745 327.06778676 -136.3125 323.25 C-138.66226444 319.15845213 -140.47670312 315.55894503 -141.3125 310.875 C-141.9725 310.545 -142.6325 310.215 -143.3125 309.875 C-142.9825 309.215 -142.6525 308.555 -142.3125 307.875 C-142.9725 307.545 -143.6325 307.215 -144.3125 306.875 C-144.92991425 295.31563325 -144.92991425 295.31563325 -142.8125 290.375 C-136.48141617 284.04391617 -128.70087961 281.35039541 -120.37890625 278.55859375 C-113.53168891 276.1726104 -106.04879746 273.41774629 -102.375 266.75 C-101.99472656 266.08742188 -101.61445313 265.42484375 -101.22265625 264.7421875 C-100.19104538 262.72967546 -100.19104538 262.72967546 -99.3125 259.875 C-99.97636719 259.93300781 -100.64023437 259.99101562 -101.32421875 260.05078125 C-108.58357062 260.42169704 -108.58357062 260.42169704 -112.3125 257.625 C-116.96899847 251.2223146 -117.07893487 245.69824369 -116.3125 237.875 C-114.81770947 232.96684757 -112.26990432 229.17283693 -108.3125 225.875 C-107.6525 225.545 -106.9925 225.215 -106.3125 224.875 C-105.9825 224.215 -105.6525 223.555 -105.3125 222.875 C-105.3125 223.865 -105.3125 224.855 -105.3125 225.875 C-104.6525 225.875 -103.9925 225.875 -103.3125 225.875 C-103.6425 225.215 -103.9725 224.555 -104.3125 223.875 C-104.66383531 221.67251144 -104.96820237 219.46246072 -105.25 217.25 C-105.33499756 216.58846924 -105.41999512 215.92693848 -105.50756836 215.24536133 C-105.6874216 213.84006179 -105.8655142 212.43453598 -106.04199219 211.02880859 C-106.30802549 208.91062645 -106.57927757 206.79316784 -106.8515625 204.67578125 C-107.02640064 203.30473323 -107.20088439 201.93363997 -107.375 200.5625 C-107.45999756 199.89516846 -107.54499512 199.22783691 -107.63256836 198.5402832 C-108.21275704 193.9004988 -108.65721293 189.2629239 -108.96875 184.59765625 C-109.0821875 184.02917969 -109.195625 183.46070313 -109.3125 182.875 C-109.9725 182.545 -110.6325 182.215 -111.3125 181.875 C-111.5691831 180.0097695 -111.81486751 178.14242828 -112.0078125 176.26953125 C-113.6870333 163.07257806 -118.42007312 149.95230485 -123.0625 137.5625 C-123.45115234 136.52480469 -123.83980469 135.48710937 -124.24023438 134.41796875 C-126.08478331 129.21630956 -126.08478331 129.21630956 -129.3125 124.875 C-131.63345616 121.39356576 -131.80764472 118.98596446 -132.3125 114.875 C-132.62153983 113.53582739 -132.94192911 112.19846746 -133.3125 110.875 C-134.7975 111.37 -134.7975 111.37 -136.3125 111.875 C-135.8175 110.39 -135.8175 110.39 -135.3125 108.875 C-136.49624603 106.25322176 -137.72616655 103.81430534 -139.125 101.3125 C-139.49431641 100.62736328 -139.86363281 99.94222656 -140.24414062 99.23632812 C-141.74400382 96.49241324 -143.09027385 94.09722615 -145.3125 91.875 C-148.3125 86.33653846 -148.3125 86.33653846 -148.3125 83.875 C-131.12529195 87.84127878 -115.69559587 98.12826438 -102.37109375 109.30859375 C-100.3020758 111.05781365 -100.3020758 111.05781365 -97.3125 111.875 C-97.6425 112.535 -97.9725 113.195 -98.3125 113.875 C-97.75820313 114.0915625 -97.20390625 114.308125 -96.6328125 114.53125 C-93.52059917 116.33360924 -91.5613582 118.68226532 -89.1875 121.375 C-88.31867188 122.3546875 -87.44984375 123.334375 -86.5546875 124.34375 C-85.81476563 125.1790625 -85.07484375 126.014375 -84.3125 126.875 C-83.6525 127.535 -82.9925 128.195 -82.3125 128.875 C-81.3125 129.875 -80.3125 130.875 -79.3125 131.875 C-79.12457886 130.97744995 -79.12457886 130.97744995 -78.93286133 130.06176758 C-75.13639171 112.13313349 -70.23778208 97.02694503 -60.328125 81.50390625 C-59.25839988 79.84491258 -59.25839988 79.84491258 -58.3125 77.875 C-57.32292112 76.96666999 -56.30044681 76.09387628 -55.26171875 75.2421875 C-51.02860637 71.67803008 -47.06439085 67.88390647 -43.125 64 C-42.42697266 63.33097656 -41.72894531 62.66195312 -41.00976562 61.97265625 C-36.57402244 57.59177954 -33.79204844 53.60294911 -31.3125 47.875 C-31.89257812 47.61847656 -32.47265625 47.36195312 -33.0703125 47.09765625 C-39.63738073 43.87914261 -42.72849875 40.14993989 -46.3125 33.875 C-46.9725 32.885 -47.6325 31.895 -48.3125 30.875 C-48.9725 29.885 -49.6325 28.895 -50.3125 27.875 C-49.9825 27.545 -49.6525 27.215 -49.3125 26.875 C-49.03967524 24.52336922 -48.79461793 22.16849702 -48.5625 19.8125 C-47.39910173 10.14104037 -43.98483778 4.4934402 -36.46875 -1.6484375 C-24.9641277 -9.52660277 -11.13383476 -7.14246003 0 0 Z M-121.3125 349.875 C-120.3125 351.875 -120.3125 351.875 -120.3125 351.875 Z M-112.3125 370.875 C-111.3125 372.875 -111.3125 372.875 -111.3125 372.875 Z M-159.3125 681.875 C-158.3125 683.875 -158.3125 683.875 -158.3125 683.875 Z " fill="#0F0F0E" transform="translate(531.3125,65.125)"/>
<path d="M0 0 C4.09904322 1.61033841 6.76176505 4.57835106 9.75 7.6875 C13.70842726 11.72682155 17.70139386 15.62089809 22.0078125 19.29296875 C24.37581718 21.32202374 26.68702022 23.40847573 29 25.5 C36.23496825 32.40268274 36.23496825 32.40268274 44.20703125 38.3515625 C46 40 46 40 46.42578125 42.53125 C46.38839844 43.5109375 46.35101562 44.490625 46.3125 45.5 C46.27576172 46.93859375 46.27576172 46.93859375 46.23828125 48.40625 C46.11058371 50.33218018 45.97198274 52.25835301 45.7638855 54.17726135 C44.8642395 62.61552332 44.8361154 71.02243003 44.83203125 79.49609375 C44.82880436 81.09481331 44.82543931 82.69353259 44.82194519 84.29225159 C44.81598412 87.63990966 44.81410167 90.98754208 44.81469727 94.33520508 C44.81477779 97.70635428 44.80795014 101.07736548 44.79418945 104.44848633 C44.29886881 141.40600196 44.29886881 141.40600196 48.58984375 178.01171875 C49.11990061 182.09136989 49.21050945 185.30332529 46.734375 188.77392578 C43.32145873 192.64141433 39.50799574 196.07003609 35.65722656 199.49316406 C33.72111986 201.25357222 31.9977063 203.12433636 30.3125 205.125 C27.99991085 207.86069443 25.60997952 210.50029062 23.16113281 213.11499023 C18.00785727 218.62935169 13.24341427 224.3353828 8.70410156 230.36767578 C6.38939726 233.40648946 4.21264455 235.9054452 1 238 C-0.17755859 236.62328125 -0.17755859 236.62328125 -1.37890625 235.21875 C-11.26022226 223.67296371 -21.21403278 212.2103482 -31.55712891 201.07299805 C-32.60172203 199.94170792 -33.63920699 198.80381244 -34.66943359 197.65942383 C-36.81311744 195.28677926 -38.84308851 193.12438424 -41.35546875 191.1328125 C-44.16187527 188.79133959 -45.79082935 186.85039268 -46.21289062 183.11669922 C-46.36735882 176.72200187 -45.62108144 170.35566723 -45 164 C-43.14827207 143.7364292 -42.80558149 123.54747779 -42.81196976 103.21384811 C-42.81249453 101.14656116 -42.81133385 99.07927991 -42.81002808 97.01199341 C-42.79803824 73.49775086 -42.79803824 73.49775086 -44.40942383 50.05151367 C-44.92200336 44.80042109 -45.11149702 41.45534142 -41.828125 37.15625 C-39.00252031 34.56481144 -36.08692539 32.27112439 -33 30 C-31.63251086 28.82786645 -30.27664944 27.64190956 -28.9375 26.4375 C-28.30714844 25.88964844 -27.67679687 25.34179688 -27.02734375 24.77734375 C-23.80361908 21.95114967 -20.63021003 19.06940876 -17.44921875 16.1953125 C-15.25700786 14.2303643 -13.04152299 12.29790958 -10.8125 10.375 C-7.03151065 7.08684837 -3.49257991 3.59080872 0 0 Z " fill="#0E0F0D" transform="translate(511,422)"/>
<path d="M0 0 C1.87490622 -0.02803016 3.74994968 -0.04683729 5.625 -0.0625 C6.66914063 -0.07410156 7.71328125 -0.08570313 8.7890625 -0.09765625 C12.2023213 -0.07021527 15.56732133 0.20849607 18.96777344 0.49780273 C28.5510364 1.19204886 38.12253549 1.14443101 47.7265625 1.1328125 C49.72455863 1.13348871 51.72255468 1.13446135 53.72055054 1.13571167 C57.89769274 1.13717853 62.07481344 1.13507001 66.25195312 1.13037109 C71.51842103 1.12472568 76.7848378 1.12801176 82.05130386 1.13382339 C104.0541044 1.15428946 126.01931597 1.08558884 148 0 C148.03841003 0.57050583 148.07682007 1.14101166 148.11639404 1.72880554 C149.28340601 18.63033126 152.99966704 28.96927818 165.5859375 40.6015625 C166.38257813 41.39304687 167.17921875 42.18453125 168 43 C168 43.66 168 44.32 168 45 C168.55816406 45.23589844 169.11632812 45.47179687 169.69140625 45.71484375 C177.04877397 49.8105696 184.3682376 57.91768399 187 66 C187.69328943 71.40467565 188.05467411 77.30528458 185 82 C179.15988281 85.03132179 172.38132038 85.74060895 165.9375 86.5625 C165.11056641 86.67529297 164.28363281 86.78808594 163.43164062 86.90429688 C161.64552728 87.14522701 159.85841745 87.37884494 158.07055664 87.60644531 C155.84948222 87.89112147 153.63009039 88.18903019 151.41186523 88.49511719 C141.01700605 89.8858464 130.66104243 90.63548106 120.1875 91.125 C119.3160434 91.16702545 118.44458679 91.2090509 117.54672241 91.25234985 C-7.48786221 97.1561537 -7.48786221 97.1561537 -37 82 C-40.00905731 76.84288408 -39.837055 70.76889258 -39 65 C-37.51396406 61.80756537 -35.41792449 59.5335425 -33 57 C-32.36964844 56.2678125 -31.73929687 55.535625 -31.08984375 54.78125 C-27.70088271 50.87919392 -24.17553601 47.14724267 -20.484375 43.53125 C-19.86820312 42.92619629 -19.25203125 42.32114258 -18.6171875 41.69775391 C-17.40588248 40.5152744 -16.18750263 39.33998272 -14.9609375 38.17333984 C-3.70115892 27.20970363 -1.5675272 15.02981959 0 0 Z " fill="#2F2F2D" transform="translate(438,761)"/>
<path d="M0 0 C2.6328125 1.546875 2.6328125 1.546875 5.125 3.75 C6.53072266 4.97589844 6.53072266 4.97589844 7.96484375 6.2265625 C8.97892253 7.1484523 9.99054626 8.07304816 11 9 C11.54027832 9.49209961 12.08055664 9.98419922 12.63720703 10.49121094 C15.44049404 13.049139 18.22652648 15.62463757 21 18.21484375 C23.9621924 20.97666341 26.9902134 23.65302434 30.0546875 26.30078125 C32.3366529 28.29406428 34.57228574 30.33493027 36.8125 32.375 C40.37312094 35.59546917 44.01454391 38.67176544 47.75 41.6875 C48.65878906 42.43515625 49.56757812 43.1828125 50.50390625 43.953125 C51.9930018 45.17422996 53.49635618 46.37872264 55.02734375 47.546875 C57.28861935 49.44102586 58.88187995 51.06407351 59.26016235 54.06140137 C59.13115744 59.6712761 58.79364366 65.23365642 58.30752563 70.82409668 C56.9028541 86.99087168 56.60455537 103.11782759 56.62304688 119.33247757 C56.62503048 121.53382547 56.62301534 123.73514583 56.62060547 125.93649292 C56.61043323 150.97890659 57.80202835 175.79042842 60.39022827 200.71424866 C60.82726327 205.10007551 61.1199312 209.47823983 61.24609375 213.88452148 C61.27372803 214.77388901 61.3013623 215.66325653 61.32983398 216.57957458 C60.71381613 221.10010713 57.32608383 223.21735113 54 226 C52.87049348 227.22715078 51.76655366 228.47825819 50.6875 229.75 C47.89254158 232.99515307 45.02534094 236.16112492 42.125 239.3125 C37.68550047 244.18528402 33.48732058 249.20653855 29.35009766 254.33642578 C26.56862574 257.76372228 23.7482971 261.1592528 20.9375 264.5625 C16.4732655 269.97369333 12.05146923 275.41366804 7.6875 280.90625 C5.19448662 283.99943327 2.60670646 287.00228757 0 290 C-7.76361033 286.44517195 -12.57312651 279.12350603 -17.67236328 272.53808594 C-22.14268253 266.77257084 -26.8188047 261.20532312 -31.56884766 255.66943359 C-33.06430055 253.92499366 -34.55399955 252.17575744 -36.04296875 250.42578125 C-44.38823894 240.63082596 -52.81133266 231.02351506 -62.03125 222.03125 C-65.2367522 218.72398583 -65.17622725 216.42484502 -65.12451172 211.88476562 C-64.86272708 205.81957496 -64.18581437 199.7866877 -63.5625 193.75 C-63.35740068 191.73314934 -63.15364698 189.71617443 -62.95140076 187.69903564 C-62.7664013 185.85867485 -62.57778934 184.0186782 -62.38891602 182.17871094 C-62.25694586 180.78602625 -62.12761949 179.3930901 -62 178 C-61.91299332 177.07512283 -61.82598663 176.15024567 -61.73634338 175.19734192 C-60.97224345 166.35169673 -60.83643765 157.53958645 -60.83203125 148.66796875 C-60.82880099 147.10411044 -60.82543575 145.5402524 -60.82194519 143.97639465 C-60.81599328 140.70455226 -60.81410064 137.43273609 -60.81469727 134.16088867 C-60.81477764 130.879256 -60.80797181 127.59776555 -60.79418945 124.31616211 C-60.71259765 104.61847353 -61.12942481 85.08774772 -62.5690918 65.4387207 C-63.5318463 51.87920842 -63.5318463 51.87920842 -61.75 48.93359375 C-61.1725 48.43988281 -60.595 47.94617188 -60 47.4375 C-59.35675781 46.86644531 -58.71351563 46.29539062 -58.05078125 45.70703125 C-57.37402344 45.14371094 -56.69726562 44.58039063 -56 44 C-54.72871891 42.875506 -53.45789116 41.7504993 -52.1875 40.625 C-51.51589844 40.04492188 -50.84429687 39.46484375 -50.15234375 38.8671875 C-43.95343042 33.48954581 -37.91532755 27.92929145 -31.875 22.375 C-27.98833621 18.80147104 -24.07742415 15.26535187 -20.0625 11.8359375 C-18.43606373 10.38816279 -16.86342912 8.87994905 -15.3125 7.3515625 C-14.8369165 6.89080322 -14.36133301 6.43004395 -13.87133789 5.95532227 C-12.50581422 4.62886006 -11.15673006 3.28553621 -9.80859375 1.94140625 C-6.20734124 -0.54791572 -4.29884849 -0.64169119 0 0 Z M-5.7578125 25.59765625 C-6.88432896 26.74858534 -8.00647232 27.90380551 -9.125 29.0625 C-13.30788226 33.32272633 -17.50098034 37.46814439 -22.0546875 41.3359375 C-24.35232932 43.30139014 -26.57873123 45.33729871 -28.8125 47.375 C-33.33344313 51.46137185 -38.00448043 55.33031307 -42.75 59.15234375 C-45.02119749 60.95605161 -45.02119749 60.95605161 -47 63 C-47.60710416 70.00742262 -47.01041972 77.16589335 -46.50390625 84.16796875 C-45.71795129 96.50456105 -45.76119782 108.86660272 -45.75161743 121.22349167 C-45.75053388 122.58108969 -45.74879831 123.93868734 -45.74642944 125.29628372 C-45.70677046 148.5827885 -46.51499015 171.72022608 -48.54266357 194.92912292 C-49.69933297 203.46663596 -49.69933297 203.46663596 -46.796875 211.0703125 C-45.79822305 212.10519368 -44.78136357 213.12271563 -43.75 214.125 C-42.64277809 215.2599768 -41.53602026 216.39540648 -40.4296875 217.53125 C-39.85959961 218.10488281 -39.28951172 218.67851563 -38.70214844 219.26953125 C-36.02446568 221.99176524 -33.45285591 224.80862511 -30.875 227.625 C-29.87794982 228.70734976 -28.88055776 229.7893847 -27.8828125 230.87109375 C-27.40102539 231.39429199 -26.91923828 231.91749023 -26.42285156 232.45654297 C-25.05239106 233.9431681 -23.67860408 235.42672458 -22.3046875 236.91015625 C-17.58115496 242.04537282 -13.07453564 247.27665548 -8.76171875 252.76171875 C-6.56245577 255.55590431 -4.29030165 258.28026679 -2 261 C1.35049434 258.45983105 4.01535094 255.96421555 6.5625 252.625 C13.38368748 243.90473192 20.44951299 235.25744401 28.4296875 227.56640625 C30.82240878 225.17963701 32.98155095 222.60445762 35.15625 220.01953125 C37 218 37 218 39.21875 216.13671875 C43.47149301 212.52108978 43.47149301 212.52108978 45.57421875 207.49609375 C45.63254654 204.27011823 45.36721524 201.20701307 45 198 C44.85143886 196.54571785 44.70439628 195.09128006 44.55859375 193.63671875 C44.32351247 191.33155046 44.08129821 189.02940882 43.80126953 186.72924805 C42.08333471 172.28756291 41.84538821 157.74830262 41.8671875 143.22265625 C41.8665108 141.5932158 41.86553776 139.96377544 41.86428833 138.33433533 C41.86283148 134.95717384 41.86490194 131.58003918 41.86962891 128.20288086 C41.87535736 123.90429358 41.87201474 119.60576834 41.86605644 115.30718327 C41.86242333 111.95691977 41.86360145 108.60667074 41.86618423 105.25640678 C41.86684424 103.67178782 41.86605807 102.08716748 41.86370468 100.50255013 C41.85377672 91.95323709 42.00738407 83.50428447 43 75 C44.04739225 67.66014241 44.04739225 67.66014241 41.56640625 61.00390625 C39.46896191 59.17655535 37.27097714 57.60585277 35 56 C33.31548538 54.52007154 31.64929122 53.01908402 30 51.5 C27.06321535 48.84886006 24.11397458 46.21709829 21.125 43.625 C17.66594342 40.6088714 14.26224323 37.53383027 10.875 34.4375 C10.35647461 33.96352783 9.83794922 33.48955566 9.30371094 33.0012207 C6.58738628 30.50399664 3.93953392 27.96503263 1.375 25.3125 C-2.04452256 21.98296487 -2.26669436 22.3092801 -5.7578125 25.59765625 Z " fill="#302F2D" transform="translate(514,399)"/>
<path d="M0 0 C10.91998708 0.67392062 21.71760099 2.03219078 32.5625 3.4375 C68.18418549 8.0464835 103.53931739 10.36845282 139.45141602 10.31567383 C142.84640806 10.31105567 146.24104058 10.31794375 149.63598633 10.33618164 C182.64048054 10.51137355 215.22117803 8.26139457 248 4.4375 C249.86321307 4.22661029 251.72649501 4.01632817 253.58984375 3.80664062 C263.74336416 2.65573358 273.87777377 1.40035791 284 0 C280.17819458 8.18838343 270.03267059 11.85477375 262 15 C257.79223982 16.25486229 253.55135187 17.18779515 249.25 18.0625 C247.43894775 18.43810059 247.43894775 18.43810059 245.59130859 18.82128906 C231.49037831 21.64256162 217.29906472 23.52377703 203 25 C201.86095215 25.11859375 200.7219043 25.2371875 199.54833984 25.359375 C145.52128677 30.65259262 52.43198425 37.81050171 4.75 6.375 C2.19677771 4.16994438 1.32540223 2.96339932 0 0 Z " fill="#31302F" transform="translate(370,897)"/>
<path d="M0 0 C0.90980118 -0.00095673 1.81960236 -0.00191345 2.75697327 -0.00289917 C4.68588327 -0.00357787 6.61479559 -0.00174522 8.54370117 0.00244141 C11.40484194 0.00768814 14.26581791 0.00254166 17.12695312 -0.00390625 C26.72816086 -0.00711601 36.2925527 0.17070447 45.8828125 0.6328125 C59.79929655 1.28813812 73.71249286 1.28505997 87.640625 1.26318359 C91.27903153 1.2575295 94.91736411 1.26084688 98.55576801 1.26663303 C116.12153701 1.29012728 133.64937907 1.00071941 151.20385742 0.36547852 C158.91833414 0.09696767 166.62906402 0.00408914 174.34765625 -0.0546875 C175.57221527 -0.06445618 176.79677429 -0.07422485 178.05844116 -0.08428955 C192.33872011 -0.14424414 192.33872011 -0.14424414 198.53515625 2.1328125 C200.33911133 4.21020508 200.33911133 4.21020508 201.53515625 6.1328125 C173.84686909 28.74598438 106.2953092 19.55154749 73.53515625 19.1328125 C71.63509258 19.11168659 69.73502755 19.0906834 67.83496094 19.06982422 C-5.6833688 18.19547675 -5.6833688 18.19547675 -19.46484375 8.1328125 C-20.21875 5.5 -20.21875 5.5 -20.46484375 3.1328125 C-14.33641754 -0.54424323 -6.91774752 -0.01645436 0 0 Z " fill="#30302E" transform="translate(420.46484375,711.8671875)"/>
<path d="M0 0 C3.51751584 0.00259675 7.03502956 0.00016675 10.55254555 -0.00138617 C16.44183266 -0.00318522 22.33110706 -0.00086003 28.22039223 0.00395441 C34.97454956 0.00941301 41.72867676 0.0076136 48.48283339 0.00212801 C54.35365664 -0.00244421 60.22447096 -0.00303437 66.09529543 -0.00043333 C69.57081183 0.00110446 73.04631417 0.00139315 76.52182961 -0.00196981 C115.05816201 -0.02756994 115.05816201 -0.02756994 123.70574379 2.1343255 C123.70574379 6.4243255 123.70574379 10.7143255 123.70574379 15.1343255 C104.62783157 16.03999104 85.58420147 16.28530226 66.49002528 16.26865101 C62.57992094 16.26606555 58.66981859 16.26848094 54.75971413 16.27003717 C48.22064215 16.27183758 41.6815816 16.26950547 35.14251137 16.2646966 C27.6076929 16.25921911 20.07290135 16.26105028 12.53808349 16.266523 C6.01432804 16.27106913 -0.50941936 16.2716985 -7.03317589 16.26908433 C-10.90691027 16.26753477 -14.78063199 16.26729205 -18.65436554 16.27062082 C-22.28175937 16.27352283 -25.90911845 16.27148132 -29.53650856 16.26572657 C-31.48711411 16.26379056 -33.43772263 16.26673016 -35.38832664 16.26985407 C-41.77638813 16.254563 -47.96196625 15.98972554 -54.29425621 15.1343255 C-54.29425621 10.5143255 -54.29425621 5.8943255 -54.29425621 1.1343255 C-36.18836177 0.2954696 -18.12429781 -0.01767419 0 0 Z " fill="#2F2F2D" transform="translate(477.29425621032715,360.865674495697)"/>
<path d="M0 0 C2.37109375 0.0859375 2.37109375 0.0859375 5 1 C6.66015625 3.4765625 6.66015625 3.4765625 8.0625 6.625 C9.62104876 10.01245803 11.11557692 13.18912587 13.0625 16.375 C16.2503632 21.81704261 18.1367832 28.00475137 20 34 C20.32455673 34.99626907 20.32455673 34.99626907 20.65567017 36.01266479 C22.41269429 42.27492902 21.52271266 46.13839821 18.984375 52.015625 C18.65334778 52.83448181 18.32232056 53.65333862 17.98126221 54.49700928 C16.92656145 57.09120047 15.8391842 59.67012463 14.75 62.25 C14.03293626 63.99648601 13.31807073 65.74387626 12.60546875 67.4921875 C11.01492046 71.38313938 9.40051274 75.26341394 7.77478027 79.13977051 C6.82622485 81.4172301 5.90663062 83.70555338 5 86 C4.34 86 3.68 86 3 86 C-1.46707034 76.4973231 -5.56136361 66.94925626 -8.9375 57 C-9.23148682 56.15348877 -9.52547363 55.30697754 -9.82836914 54.43481445 C-14.13167874 41.39227997 -13.77210914 31.01422921 -7.73388672 18.75073242 C-5.25263764 13.69181929 -3.38043331 8.58836949 -1.7265625 3.1953125 C-1 1 -1 1 0 0 Z " fill="#2F2F2D" transform="translate(508,163)"/>
<path d="M0 0 C1.3402977 -0.00503792 1.3402977 -0.00503792 2.70767212 -0.01017761 C5.64204318 -0.01962737 8.57635689 -0.02162714 11.51074219 -0.02270508 C13.55621362 -0.02591981 15.60168481 -0.02928405 17.64715576 -0.03279114 C21.92395563 -0.03876597 26.20073532 -0.04063253 30.47753906 -0.04003906 C35.9644046 -0.03993707 41.45114181 -0.05363453 46.93797684 -0.07081127 C51.15692748 -0.08190845 55.37584674 -0.08395904 59.59481049 -0.08342934 C61.61866451 -0.08461116 63.6425193 -0.08904421 65.66635895 -0.0967617 C68.4886032 -0.10652343 71.310564 -0.10369964 74.1328125 -0.09765625 C74.9712973 -0.10327576 75.8097821 -0.10889526 76.67367554 -0.11468506 C80.57234694 -0.09339523 82.48856281 -0.06743924 85.80761719 2.14526367 C85.80761719 6.43526367 85.80761719 10.72526367 85.80761719 15.14526367 C52.14761719 15.14526367 18.48761719 15.14526367 -16.19238281 15.14526367 C-16.19238281 10.52526367 -16.19238281 5.90526367 -16.19238281 1.14526367 C-10.75192728 0.23230663 -5.51080331 -0.00300753 0 0 Z " fill="#2F2E2C" transform="translate(477.1923828125,321.854736328125)"/>
<path d="M0 0 C1.45762142 -0.00067708 2.91524273 -0.00165043 4.37286377 -0.00289917 C7.40483695 -0.00435906 10.43678033 -0.00227868 13.46875 0.00244141 C17.29529441 0.00811787 21.1217689 0.0047773 24.94831085 -0.00101089 C40.43003941 -0.02075382 55.87788303 0.01097058 71.328125 1.1328125 C71.328125 5.4228125 71.328125 9.7128125 71.328125 14.1328125 C37.668125 14.1328125 4.008125 14.1328125 -30.671875 14.1328125 C-30.671875 9.8428125 -30.671875 5.5528125 -30.671875 1.1328125 C-20.43182665 0.32989364 -10.2746972 -0.01725953 0 0 Z " fill="#31312E" transform="translate(491.671875,281.8671875)"/>
<path d="M0 0 C3.54261337 0.00259276 7.08522462 0.00016819 10.62783813 -0.00138617 C16.55069456 -0.00318442 22.47353834 -0.00086018 28.39639282 0.00395441 C35.21432937 0.00943304 42.03223617 0.00759904 48.85017204 0.00212801 C54.76163422 -0.00242256 60.6730875 -0.00304538 66.58455086 -0.00043333 C70.09111139 0.00111362 73.59765794 0.00136634 77.10421753 -0.00196981 C80.99817044 -0.00541923 84.89209032 -0.00062711 88.78604126 0.00493097 C90.49423538 0.00189463 90.49423538 0.00189463 92.23693848 -0.00120306 C98.69973623 0.01582847 105.02645739 0.34566811 111.44229126 1.1343255 C111.44229126 1.4643255 111.44229126 1.7943255 111.44229126 2.1343255 C110.86783862 2.13248192 110.29338598 2.13063833 109.70152569 2.12873888 C95.73062059 2.08459044 81.75972769 2.05161146 67.78876781 2.03070116 C61.03254378 2.02038394 54.27636629 2.00631514 47.52017212 1.9834466 C41.00388576 1.96140059 34.48762965 1.94976684 27.97130775 1.94457102 C25.48133901 1.94086676 22.99137301 1.9336336 20.50142479 1.92286539 C17.02226343 1.90841335 13.54330383 1.90634494 10.06411743 1.90727472 C8.5093721 1.8964889 8.5093721 1.8964889 6.92321777 1.88548517 C5.97670853 1.8882345 5.03019928 1.89098383 4.05500793 1.89381647 C3.2318468 1.89197289 2.40868567 1.8901293 1.56058025 1.88822985 C-0.85888962 2.00651949 -0.85888962 2.00651949 -3.55770874 4.1343255 C-4.14840888 6.08035825 -4.14840888 6.08035825 -4.55770874 8.1343255 C-5.21770874 9.1243255 -5.87770874 10.1143255 -6.55770874 11.1343255 C-6.55770874 12.1243255 -6.55770874 13.1143255 -6.55770874 14.1343255 C35.68229126 14.1343255 77.92229126 14.1343255 121.44229126 14.1343255 C121.44229126 14.4643255 121.44229126 14.7943255 121.44229126 15.1343255 C103.10360068 16.11655188 84.78838073 16.28459993 66.42936063 16.26865101 C62.51390601 16.26607045 58.5984534 16.26847975 54.68299866 16.27003717 C48.13197397 16.27183937 41.58096069 16.26950107 35.02993774 16.2646966 C27.48039205 16.25922344 19.93087324 16.26104648 12.38132817 16.266523 C5.84912053 16.27106944 -0.68307904 16.27169821 -7.21528774 16.26908433 C-11.09575884 16.26753436 -14.97621729 16.26729313 -18.85668755 16.27062082 C-22.4922626 16.27352312 -26.12780299 16.2714808 -29.76337433 16.26572657 C-31.71876987 16.26379045 -33.67416837 16.26673025 -35.62956238 16.26985407 C-42.02505908 16.25458267 -48.21809981 15.99118099 -54.55770874 15.1343255 C-54.55770874 10.5143255 -54.55770874 5.8943255 -54.55770874 1.1343255 C-36.36479497 0.28963043 -18.21113921 -0.01759399 0 0 Z " fill="#393937" transform="translate(477.5577087402344,360.865674495697)"/>
<path d="M0 0 C7.90158503 -0.04632389 15.80311339 -0.0818694 23.70480061 -0.10362434 C27.37380581 -0.1140652 31.04271816 -0.1282298 34.71166992 -0.15087891 C38.25187786 -0.17259669 41.79199644 -0.18456636 45.33226585 -0.18975449 C47.34143905 -0.19525273 49.35057626 -0.21086735 51.35969543 -0.22659302 C52.58073471 -0.22674408 53.80177399 -0.22689514 55.05981445 -0.22705078 C56.67530937 -0.23371262 56.67530937 -0.23371262 58.32344055 -0.24050903 C61 0 61 0 64 2 C64 6.29 64 10.58 64 15 C30.34 15 -3.32 15 -38 15 C-38 10.38 -38 5.76 -38 1 C-34.7 1 -31.4 1 -28 1 C-28 1.33 -28 1.66 -28 2 C-30.64 2 -33.28 2 -36 2 C-35.979375 3.258125 -35.95875 4.51625 -35.9375 5.8125 C-35.89113917 8.64051087 -36.08307039 10.24921116 -37 13 C-5.98 13 25.04 13 57 13 C57 11.68 57 10.36 57 9 C56.34 9 55.68 9 55 9 C55 9.66 55 10.32 55 11 C53.68 11.33 52.36 11.66 51 12 C51 10.35 51 8.7 51 7 C50.34 7 49.68 7 49 7 C49.66 5.68 50.32 4.36 51 3 C45.13201419 2.14275578 39.49798706 1.89047166 33.57421875 1.97265625 C31.79101746 1.98528725 30.00781424 1.9976493 28.22460938 2.00976562 C25.44191354 2.03468824 22.65931988 2.06283533 19.87670898 2.09594727 C17.17170546 2.12606346 14.46683585 2.14388229 11.76171875 2.16015625 C10.92734787 2.17361588 10.09297699 2.1870755 9.23332214 2.20094299 C3.33996508 2.22664339 3.33996508 2.22664339 0 0 Z " fill="#373734" transform="translate(499,322)"/>
<path d="M0 0 C1.41023438 0.16371094 2.82046875 0.32742188 4.2734375 0.49609375 C10.06898174 1.07564817 15.80553416 1.11300271 21.625 1.0625 C22.62917969 1.05798828 23.63335937 1.05347656 24.66796875 1.04882812 C27.11204471 1.03718967 29.5559882 1.0208424 32 1 C31.01 1.495 31.01 1.495 30 2 C30.32960216 7.01535052 30.32960216 7.01535052 33 11 C29.36693942 13.42204038 27.68180977 13.23302891 23.36328125 13.1953125 C21.41518555 13.18564453 21.41518555 13.18564453 19.42773438 13.17578125 C18.05598693 13.1590706 16.68424214 13.14214071 15.3125 13.125 C13.92904282 13.11496674 12.54557873 13.10584149 11.16210938 13.09765625 C7.77466543 13.07405037 4.38731105 13.03817883 1 13 C0.67 8.71 0.34 4.42 0 0 Z " fill="#2D2D2B" transform="translate(423,362)"/>
<path d="M0 0 C4.28871637 3.80808436 6.71625568 9.44674721 7.171875 15.15234375 C6.74228146 20.08290595 4.94806883 25.01308787 2 29 C-0.13671875 30.2265625 -0.13671875 30.2265625 -2 31 C-1.505 30.1028125 -1.505 30.1028125 -1 29.1875 C0.20787988 26.94613529 0.20787988 26.94613529 0 24 C0.66 23.67 1.32 23.34 2 23 C3.3018914 16.13548172 3.26986511 10.32173921 0 4 C0 2.68 0 1.36 0 0 Z " fill="#181815" transform="translate(373,745)"/>
<path d="M0 0 C0.66 7.26 1.32 14.52 2 22 C0.35 21.01 -1.3 20.02 -3 19 C-2.67 18.34 -2.34 17.68 -2 17 C-1.92826194 14.44612508 -1.90712268 11.92723239 -1.9375 9.375 C-1.9684375 5.724375 -1.9684375 5.724375 -2 2 C-7.61 2 -13.22 2 -19 2 C-19 1.67 -19 1.34 -19 1 C-16.39590255 0.83218705 -13.7917318 0.66570349 -11.1875 0.5 C-10.08051758 0.42845703 -10.08051758 0.42845703 -8.95117188 0.35546875 C-5.96175412 0.16609387 -2.99625426 0 0 0 Z " fill="#3D3C3A" transform="translate(586,761)"/>
<path d="M0 0 C8.30085731 -0.51345509 14.51935975 0.29278005 22 4 C21.01 4.66 20.02 5.32 19 6 C16.9765625 5.50390625 16.9765625 5.50390625 14.625 4.5625 C8.30618607 2.4313024 2.51809519 3.15203464 -4 4 C-3.67 3.34 -3.34 2.68 -3 2 C-2.01 2 -1.02 2 0 2 C0 1.34 0 0.68 0 0 Z " fill="#1A1A17" transform="translate(506,59)"/>
<path d="M0 0 C1.485 0.99 1.485 0.99 3 2 C3.32279968 3.87295532 3.32279968 3.87295532 3.2487793 6.17431641 C3.22853195 7.03505768 3.20828461 7.89579895 3.18742371 8.78262329 C3.15006607 9.71287323 3.11270844 10.64312317 3.07421875 11.6015625 C3.03455742 13.02896255 3.03455742 13.02896255 2.99409485 14.48519897 C2.90613974 17.53242392 2.79705764 20.57848253 2.6875 23.625 C2.62426121 25.68745785 2.56239451 27.74995827 2.50195312 29.8125 C2.35056786 34.87563166 2.18022864 39.93781628 2 45 C1.67 45 1.34 45 1 45 C0.97494385 43.88963379 0.9498877 42.77926758 0.92407227 41.63525391 C0.83005085 37.52396681 0.72981743 33.41285077 0.62768555 29.30175781 C0.5843167 27.52087397 0.54264306 25.73994802 0.50268555 23.95898438 C0.4450301 21.40221452 0.3813223 18.84565702 0.31640625 16.2890625 C0.29969376 15.49005524 0.28298126 14.69104797 0.26576233 13.86782837 C0.24607009 9.80193632 0.24607009 9.80193632 -1 6 C-0.71887936 3.99199544 -0.38932033 1.98985949 0 0 Z " fill="#32312B" transform="translate(429,484)"/>
<path d="M0 0 C-0.99 1.485 -0.99 1.485 -2 3 C-4.43017578 3.34057617 -4.43017578 3.34057617 -7.4453125 3.29296875 C-8.52167969 3.28330078 -9.59804688 3.27363281 -10.70703125 3.26367188 C-11.83496094 3.23853516 -12.96289062 3.21339844 -14.125 3.1875 C-15.26066406 3.17396484 -16.39632812 3.16042969 -17.56640625 3.14648438 C-20.37807387 3.11104319 -23.18880417 3.06163517 -26 3 C-26 2.67 -26 2.34 -26 2 C-24.02 1.67 -22.04 1.34 -20 1 C-20 0.67 -20 0.34 -20 0 C-17.22949974 -0.1946838 -14.45886998 -0.38102792 -11.6875 -0.5625 C-10.90181641 -0.61857422 -10.11613281 -0.67464844 -9.30664062 -0.73242188 C-8.1706543 -0.80493164 -8.1706543 -0.80493164 -7.01171875 -0.87890625 C-6.31522217 -0.9260376 -5.61872559 -0.97316895 -4.90112305 -1.02172852 C-3 -1 -3 -1 0 0 Z " fill="#1D1D19" transform="translate(592,973)"/>
<path d="M0 0 C0.33 0.99 0.66 1.98 1 3 C0.34 3.66 -0.32 4.32 -1 5 C-1.268125 5.763125 -1.53625 6.52625 -1.8125 7.3125 C-4.25717496 12.84518544 -9.04321194 15.8875982 -14 19 C-14.66 18.67 -15.32 18.34 -16 18 C-15.18015625 17.20335937 -14.3603125 16.40671875 -13.515625 15.5859375 C-12.42681394 14.51589905 -11.33828737 13.44557107 -10.25 12.375 C-9.71117187 11.85292969 -9.17234375 11.33085938 -8.6171875 10.79296875 C-5.21165806 7.42897016 -2.51949142 4.07277011 0 0 Z " fill="#1C1C18" transform="translate(370,776)"/>
<path d="M0 0 C0.66 0.33 1.32 0.66 2 1 C1.38120598 3.75153071 0.75523814 6.50108898 0.125 9.25 C-0.13603516 10.41595703 -0.13603516 10.41595703 -0.40234375 11.60546875 C-0.57636719 12.35957031 -0.75039063 13.11367188 -0.9296875 13.890625 C-1.08679199 14.58188477 -1.24389648 15.27314453 -1.40576172 15.98535156 C-2.04346845 18.14737125 -2.93799834 20.01604085 -4 22 C-4.33 21.67 -4.66 21.34 -5 21 C-3.69387755 3.69387755 -3.69387755 3.69387755 0 0 Z " fill="#1C1B18" transform="translate(602,435)"/>
<path d="M0 0 C2.375 0.3125 2.375 0.3125 5 1 C5.66 1.99 6.32 2.98 7 4 C0.24828263 9.96663395 0.24828263 9.96663395 -4 11 C-4.99 10.34 -5.98 9.68 -7 9 C-3.7 7.02 -0.4 5.04 3 3 C2.01 2.01 1.02 1.02 0 0 Z " fill="#171613" transform="translate(336,885)"/>
<path d="M0 0 C0.94875 0.825 1.8975 1.65 2.875 2.5 C7.48450321 6.45641138 12.24034752 10.22675437 17 14 C15.234375 14.67578125 15.234375 14.67578125 13 15 C11.078125 13.85546875 11.078125 13.85546875 9.25 12.1875 C8.63640625 11.64480469 8.0228125 11.10210938 7.390625 10.54296875 C6 9 6 9 6 7 C5.38125 6.896875 4.7625 6.79375 4.125 6.6875 C2 6 2 6 0 3 C0 2.01 0 1.02 0 0 Z " fill="#1C1B18" transform="translate(665,790)"/>
<path d="M0 0 C0 4.93034567 -3.68274569 7.59544953 -7 11 C-10.50026514 14.2830954 -14.00429411 17.33619608 -18 20 C-18 19.01 -18 18.02 -18 17 C-16.45400936 15.6257861 -14.89584265 14.2635535 -13.2890625 12.9609375 C-10.40053026 10.48646107 -7.73794979 7.82595497 -5.0625 5.125 C-4.56580811 4.62419922 -4.06911621 4.12339844 -3.55737305 3.60742188 C-2.36955851 2.40694673 -1.18448406 1.20376138 0 0 Z " fill="#252420" transform="translate(491,126)"/>
<path d="M0 0 C1.29421875 0.06703125 2.5884375 0.1340625 3.921875 0.203125 C7.25229645 0.75037735 8.31863574 1.0691511 10.25 3.75 C7.58311371 3.60756403 4.91654233 3.46113422 2.25 3.3125 C1.50621094 3.27318359 0.76242187 3.23386719 -0.00390625 3.19335938 C-4.95733918 2.91338273 -9.83313469 2.41489429 -14.75 1.75 C-14.75 1.42 -14.75 1.09 -14.75 0.75 C-9.71357684 -0.11115007 -5.13166714 -0.30913657 0 0 Z " fill="#161613" transform="translate(393.75,968.25)"/>
<path d="M0 0 C0.57492187 0.23847656 1.14984375 0.47695313 1.7421875 0.72265625 C-0.74507634 3.28098477 -3.18127355 5.66351252 -6.0078125 7.84765625 C-8.50833705 9.59697222 -8.50833705 9.59697222 -9.2578125 12.72265625 C-10.2478125 13.05265625 -11.2378125 13.38265625 -12.2578125 13.72265625 C-11.21681517 8.5176696 -6.22698411 -0.76490635 0 0 Z " fill="#161614" transform="translate(497.2578125,63.27734375)"/>
<path d="M0 0 C0.33 0.99 0.66 1.98 1 3 C1.66 3 2.32 3 3 3 C3.08089542 5.77141717 3.14044062 8.54047819 3.1875 11.3125 C3.21263672 12.09818359 3.23777344 12.88386719 3.26367188 13.69335938 C3.27333984 14.45068359 3.28300781 15.20800781 3.29296875 15.98828125 C3.3086792 16.68477783 3.32438965 17.38127441 3.34057617 18.09887695 C3 20 3 20 0 23 C0 15.41 0 7.82 0 0 Z " fill="#171714" transform="translate(704,836)"/>
<path d="M0 0 C0.99 0.33 1.98 0.66 3 1 C3.94921875 3.73046875 3.94921875 3.73046875 4.6875 7.1875 C4.93886719 8.31542969 5.19023437 9.44335938 5.44921875 10.60546875 C5.96925879 13.81053824 6.10321913 16.76088554 6 20 C2.05054811 15.92314644 1.39165168 12.46251022 1 7 C0.82369772 5.66513988 0.63696973 4.33159523 0.4375 3 C0.293125 2.01 0.14875 1.02 0 0 Z " fill="#11110E" transform="translate(418,232)"/>
<path d="M0 0 C0.33 0 0.66 0 1 0 C1 2.31 1 4.62 1 7 C1.99 7.33 2.98 7.66 4 8 C5.38576923 9.62332967 6.72641268 11.28724465 8 13 C1.375 12.25 1.375 12.25 -2 10 C-2.42905061 6.05273438 -2.08466413 3.38757921 0 0 Z " fill="#21211D" transform="translate(596,283)"/>
<path d="M0 0 C0.33 0 0.66 0 1 0 C1.33 7.59 1.66 15.18 2 23 C-2 19 -2 19 -2.27050781 16.80175781 C-2.16577148 16.02670898 -2.06103516 15.25166016 -1.953125 14.453125 C-1.85 13.60878906 -1.746875 12.76445313 -1.640625 11.89453125 C-1.51171875 11.02183594 -1.3828125 10.14914062 -1.25 9.25 C-1.1365625 8.36183594 -1.023125 7.47367188 -0.90625 6.55859375 C-0.62372375 4.36901532 -0.32109378 2.18419916 0 0 Z " fill="#2B2A26" transform="translate(306,925)"/>
<path d="M0 0 C4.91935902 4.11619836 9.52647956 8.40410362 14 13 C13.34 13.66 12.68 14.32 12 15 C10.5 13.625 10.5 13.625 9 12 C9 11.34 9 10.68 9 10 C8.443125 9.773125 7.88625 9.54625 7.3125 9.3125 C4.31958801 7.61382022 2.26472763 5.57927313 0 3 C0 2.01 0 1.02 0 0 Z " fill="#181714" transform="translate(535,129)"/>
<path d="M0 0 C1.62723299 0.45034123 3.25173664 0.91055354 4.875 1.375 C5.77992188 1.63023437 6.68484375 1.88546875 7.6171875 2.1484375 C10 3 10 3 12 5 C11.01 5.99 10.02 6.98 9 8 C8.01 7.01 7.02 6.02 6 5 C5.01 5.66 4.02 6.32 3 7 C0 2.25 0 2.25 0 0 Z " fill="#23221E" transform="translate(383,149)"/>
<path d="M0 0 C1.01573289 3.04719867 1.0097124 3.98833004 0.44140625 7.01171875 C0.30283203 7.76904297 0.16425781 8.52636719 0.02148438 9.30664062 C-0.12998047 10.09232422 -0.28144531 10.87800781 -0.4375 11.6875 C-0.58509766 12.48478516 -0.73269531 13.28207031 -0.88476562 14.10351562 C-1.24984964 16.07025852 -1.62405289 18.03530467 -2 20 C-2.33 20 -2.66 20 -3 20 C-4.46993777 13.53227381 -3.72366269 7.39065581 -2 1 C-1.34 0.67 -0.68 0.34 0 0 Z " fill="#24221F" transform="translate(602,248)"/>
<path d="M0 0 C0.33 0 0.66 0 1 0 C2.04977105 7.58870639 2.35421336 13.02323621 -1 20 C-2.25180279 15.78080897 -1.67252421 12.03911435 -1.0625 7.75 C-0.96259766 7.00492188 -0.86269531 6.25984375 -0.75976562 5.4921875 C-0.51319844 3.66054558 -0.25749609 1.83013749 0 0 Z " fill="#23231F" transform="translate(717,931)"/>
<path d="M0 0 C2.06277107 0.14194764 4.12521031 0.28872216 6.1875 0.4375 C7.91033203 0.55931641 7.91033203 0.55931641 9.66796875 0.68359375 C12.51598171 0.95403812 15.21210482 1.37521747 18 2 C18 2.33 18 2.66 18 3 C13.38 3 8.76 3 4 3 C5.32 4.32 6.64 5.64 8 7 C3.49262311 5.65996903 2.22965321 4.04737636 0 0 Z " fill="#3A3A38" transform="translate(370,897)"/>
<path d="M0 0 C1.65 0.33 3.3 0.66 5 1 C4.01 1.495 4.01 1.495 3 2 C2.40494001 4.04524321 2.04533219 6.09333957 1.66015625 8.1875 C1.44230469 8.785625 1.22445313 9.38375 1 10 C0.01 10.33 -0.98 10.66 -2 11 C-3.13643966 7.59068103 -2.86747764 6.99664544 -1.5625 3.8125 C-1.13130859 2.73935547 -1.13130859 2.73935547 -0.69140625 1.64453125 C-0.46324219 1.10183594 -0.23507812 0.55914062 0 0 Z " fill="#21211F" transform="translate(508,163)"/>
<path d="M0 0 C1.9011219 0.23764024 3.80221123 0.47554432 5.703125 0.71484375 C7.19207616 0.89969653 8.68164205 1.07968837 10.171875 1.25390625 C17.58986928 2.13235294 17.58986928 2.13235294 20 3 C20.33 3.66 20.66 4.32 21 5 C13.60860415 4.59248958 7.00177279 3.41492814 0 1 C0 0.67 0 0.34 0 0 Z " fill="#3C3B39" transform="translate(395,911)"/>
<path d="M0 0 C0.33 0 0.66 0 1 0 C1.99 7.59 2.98 15.18 4 23 C3.01 22.01 2.02 21.02 1 20 C1.3125 17.3125 1.3125 17.3125 2 15 C1.34 15 0.68 15 0 15 C0.33 13.02 0.66 11.04 1 9 C0.34 9 -0.32 9 -1 9 C-0.67 6.03 -0.34 3.06 0 0 Z " fill="#23221D" transform="translate(598,577)"/>
<path d="M0 0 C1.41366158 0.20895363 2.83060623 0.39690406 4.25 0.5625 C5.4875 0.706875 6.725 0.85125 8 1 C8 1.33 8 1.66 8 2 C6.35492782 2.19406478 4.70890406 2.38007935 3.0625 2.5625 C1.68771484 2.71912109 1.68771484 2.71912109 0.28515625 2.87890625 C-0.46894531 2.91886719 -1.22304688 2.95882812 -2 3 C-2.33 2.67 -2.66 2.34 -3 2 C-5.34987262 1.76472227 -7.70556039 1.58613583 -10.0625 1.4375 C-11.35285156 1.35371094 -12.64320313 1.26992188 -13.97265625 1.18359375 C-15.47119141 1.09271484 -15.47119141 1.09271484 -17 1 C-17 0.67 -17 0.34 -17 0 C-14.9174133 -0.19561869 -12.83388144 -0.38119313 -10.75 -0.5625 C-9.58984375 -0.66691406 -8.4296875 -0.77132812 -7.234375 -0.87890625 C-4.41673932 -0.98439744 -2.64060937 -0.80560964 0 0 Z " fill="#272621" transform="translate(435,973)"/>
<path d="M0 0 C0.33 0.66 0.66 1.32 1 2 C-2.75 6.875 -2.75 6.875 -5 8 C-6.54023996 8.06950541 -8.08334988 8.08452357 -9.625 8.0625 C-10.85089844 8.04896484 -10.85089844 8.04896484 -12.1015625 8.03515625 C-13.04128906 8.01775391 -13.04128906 8.01775391 -14 8 C-14.33 8.66 -14.66 9.32 -15 10 C-15 9.01 -15 8.02 -15 7 C-12.36 7 -9.72 7 -7 7 C-7 6.34 -7 5.68 -7 5 C-6.401875 4.731875 -5.80375 4.46375 -5.1875 4.1875 C-3.02775192 3.01506533 -1.64209744 1.80630718 0 0 Z " fill="#23231E" transform="translate(606,317)"/>
<path d="M0 0 C0.53625 0.721875 1.0725 1.44375 1.625 2.1875 C4.2092888 5.247842 6.87248014 7.51220011 10 10 C9.01 10.66 8.02 11.32 7 12 C6.01 11.34 5.02 10.68 4 10 C4 9.34 4 8.68 4 8 C3.34 8 2.68 8 2 8 C0.93224776 6.03533587 -0.06553465 4.03144641 -1 2 C-0.67 1.34 -0.34 0.68 0 0 Z " fill="#201F1C" transform="translate(628,688)"/>
<path d="M0 0 C1.4049404 3.89060419 0.69513239 7.23092362 0.0625 11.25 C-0.13214844 12.51328125 -0.32679688 13.7765625 -0.52734375 15.078125 C-0.68332031 16.04234375 -0.83929687 17.0065625 -1 18 C-1.33 18 -1.66 18 -2 18 C-2.19504458 15.89651926 -2.38078496 13.79217415 -2.5625 11.6875 C-2.66691406 10.51574219 -2.77132812 9.34398437 -2.87890625 8.13671875 C-3 5 -3 5 -2 2 C-1.34 1.34 -0.68 0.68 0 0 Z " fill="#252420" transform="translate(597,459)"/>
<path d="M0 0 C1.1171875 1.671875 1.1171875 1.671875 2 4 C1.3203125 6.578125 1.3203125 6.578125 0.125 9.25 C-0.26429688 10.14203125 -0.65359375 11.0340625 -1.0546875 11.953125 C-1.36664062 12.62859375 -1.67859375 13.3040625 -2 14 C-2.66 13.67 -3.32 13.34 -4 13 C-3.71517632 11.58194169 -3.42181856 10.16559621 -3.125 8.75 C-2.96257813 7.96109375 -2.80015625 7.1721875 -2.6328125 6.359375 C-2.00849925 4.03168856 -1.15161458 2.10968048 0 0 Z " fill="#21211F" transform="translate(528,202)"/>
<path d="M0 0 C0.33 0 0.66 0 1 0 C1.33 6.93 1.66 13.86 2 21 C1.01 21 0.02 21 -1 21 C-0.67 14.07 -0.34 7.14 0 0 Z " fill="#312F2A" transform="translate(429,535)"/>
<path d="M0 0 C-0.99 0.495 -0.99 0.495 -2 1 C-2 1.66 -2 2.32 -2 3 C-3.62171239 3.38897161 -5.24754925 3.76078298 -6.875 4.125 C-7.77992188 4.33382813 -8.68484375 4.54265625 -9.6171875 4.7578125 C-10.40351563 4.83773438 -11.18984375 4.91765625 -12 5 C-12.66 4.34 -13.32 3.68 -14 3 C-12.23358317 2.3012307 -10.46167336 1.61633417 -8.6875 0.9375 C-7.20830078 0.36322266 -7.20830078 0.36322266 -5.69921875 -0.22265625 C-3 -1 -3 -1 0 0 Z " fill="#1D1C19" transform="translate(423,341)"/>
<path d="M0 0 C0.671875 1.76953125 0.671875 1.76953125 1 4 C-0.109375 5.88671875 -0.109375 5.88671875 -1.75 7.6875 C-2.28109375 8.28949219 -2.8121875 8.89148438 -3.359375 9.51171875 C-5 11 -5 11 -8 12 C-7.690625 11.236875 -7.38125 10.47375 -7.0625 9.6875 C-6.32106407 7.81210323 -5.63771783 5.91315348 -5 4 C-4.01 3.67 -3.02 3.34 -2 3 C-1.34 2.01 -0.68 1.02 0 0 Z " fill="#1B1B18" transform="translate(581,188)"/>
<path d="M0 0 C3.11105976 0.6030248 5.10690261 1.59201431 7.625 3.5 C9.41075549 4.84126613 10.99941261 5.99970631 13 7 C11.35 7.66 9.7 8.32 8 9 C6.5 7.625 6.5 7.625 5 6 C5 5.34 5 4.68 5 4 C4.360625 3.71125 3.72125 3.4225 3.0625 3.125 C1 2 1 2 0 0 Z " fill="#1C1B18" transform="translate(421,170)"/>
<path d="M0 0 C0.66 0.99 1.32 1.98 2 3 C1.3203125 5.26171875 1.3203125 5.26171875 0.125 7.6875 C-0.45894531 8.89986328 -0.45894531 8.89986328 -1.0546875 10.13671875 C-1.52261719 11.05904297 -1.52261719 11.05904297 -2 12 C-2.66 12 -3.32 12 -4 12 C-4 9.69 -4 7.38 -4 5 C-3.34 5 -2.68 5 -2 5 C-1.34 3.35 -0.68 1.7 0 0 Z " fill="#23221E" transform="translate(404,668)"/>
<path d="M0 0 C4.97209562 1.76429199 9.43438061 4.3939166 14 7 C10.25 8.125 10.25 8.125 8 7 C8 6.34 8 5.68 8 5 C6.8553125 4.814375 6.8553125 4.814375 5.6875 4.625 C3 4 3 4 0 2 C0 1.34 0 0.68 0 0 Z " fill="#22221E" transform="translate(400,156)"/>
<path d="M0 0 C5.12583611 -0.10251672 9.94997778 -0.03590199 15 1 C15 1.33 15 1.66 15 2 C13.88625 2.12375 12.7725 2.2475 11.625 2.375 C7.96896323 2.6465813 7.96896323 2.6465813 6 5 C5.566875 4.54625 5.13375 4.0925 4.6875 3.625 C2.89201658 1.79975666 2.89201658 1.79975666 0 0 Z " fill="#373836" transform="translate(389,900)"/>
<path d="M0 0 C4.29 2.31 8.58 4.62 13 7 C9 8 9 8 7 7 C7 6.34 7 5.68 7 5 C6.21625 5.04125 5.4325 5.0825 4.625 5.125 C2 5 2 5 0 3 C0 2.01 0 1.02 0 0 Z " fill="#1B1A17" transform="translate(682,888)"/>
<path d="M0 0 C0.99 0.33 1.98 0.66 3 1 C3.75612577 6.23471686 4.2063366 10.77254141 3 16 C2.67 16 2.34 16 2 16 C1.34 10.72 0.68 5.44 0 0 Z " fill="#24231F" transform="translate(425,455)"/>
<path d="M0 0 C0 0.66 0 1.32 0 2 C-1.32 1.67 -2.64 1.34 -4 1 C-4 1.66 -4 2.32 -4 3 C-7.50776784 4.60355101 -10.14354879 5.22036864 -14 5 C-10.63156097 2.05261585 -4.40469071 -2.20234535 0 0 Z " fill="#1C1C19" transform="translate(409,346)"/>
<path d="M0 0 C0.33 0 0.66 0 1 0 C1.05429959 1.74965358 1.09292823 3.49979787 1.125 5.25 C1.14820313 6.22453125 1.17140625 7.1990625 1.1953125 8.203125 C0.99862781 11.0196498 0.44568916 12.60949036 -1 15 C-1.33 15 -1.66 15 -2 15 C-2 12.36 -2 9.72 -2 7 C-1.34 7 -0.68 7 0 7 C0 4.69 0 2.38 0 0 Z " fill="#22201C" transform="translate(594,480)"/>
<path d="M0 0 C0.66 0.33 1.32 0.66 2 1 C0.88121617 2.17262904 -0.24523051 3.33795138 -1.375 4.5 C-2.00148438 5.1496875 -2.62796875 5.799375 -3.2734375 6.46875 C-5 8 -5 8 -7 8 C-6.8125 5.625 -6.8125 5.625 -6 3 C-3.5 1.75 -3.5 1.75 -1 1 C-0.67 0.67 -0.34 0.34 0 0 Z " fill="#353533" transform="translate(506,425)"/>
<path d="M0 0 C0.928125 0.5259375 0.928125 0.5259375 1.875 1.0625 C2.57625 1.371875 3.2775 1.68125 4 2 C4.66 1.67 5.32 1.34 6 1 C6.66 3.64 7.32 6.28 8 9 C7.01 9.495 7.01 9.495 6 10 C5.5875 9.236875 5.175 8.47375 4.75 7.6875 C3.04124191 5.0633358 1.58982247 3.69678024 -1 2 C-0.67 1.34 -0.34 0.68 0 0 Z " fill="#23221E" transform="translate(409,415)"/>
<path d="M0 0 C0.66 0 1.32 0 2 0 C1.21824485 4.84688192 -0.39844278 9.3766367 -2 14 C-2.33 14 -2.66 14 -3 14 C-2.58846263 9.02906176 -2.20399168 4.55491614 0 0 Z " fill="#171714" transform="translate(615,198)"/>
<path d="M0 0 C0.66 0 1.32 0 2 0 C1.71517632 1.41805831 1.42181856 2.83440379 1.125 4.25 C0.88136719 5.43335938 0.88136719 5.43335938 0.6328125 6.640625 C0.00849925 8.96831144 -0.84838542 10.89031952 -2 13 C-3.18771723 9.57056481 -2.80226223 7.62215325 -1.5625 4.25 C-1.27503906 3.45078125 -0.98757813 2.6515625 -0.69140625 1.828125 C-0.46324219 1.22484375 -0.23507812 0.6215625 0 0 Z " fill="#171714" transform="translate(610,212)"/>
<path d="M0 0 C2.80435411 -0.05632424 5.35146678 0.04185298 8.125 0.3125 C9.25615234 0.4043457 9.25615234 0.4043457 10.41015625 0.49804688 C12.27463438 0.6514533 14.13752498 0.82393459 16 1 C16 1.33 16 1.66 16 2 C10.06 2.33 4.12 2.66 -2 3 C-1.34 2.01 -0.68 1.02 0 0 Z " fill="#2C2B26" transform="translate(602,971)"/>
<path d="M0 0 C0.33 0 0.66 0 1 0 C1.36630156 3.93774177 1.30233203 5.56539771 -1 8.875 C-1.66 9.57625 -2.32 10.2775 -3 11 C-3.66 10.67 -4.32 10.34 -5 10 C-4.34 9.01 -3.68 8.02 -3 7 C-3 6.01 -3 5.02 -3 4 C-2.34 3.67 -1.68 3.34 -1 3 C-0.67 2.01 -0.34 1.02 0 0 Z " fill="#20201C" transform="translate(376,765)"/>
<path d="M0 0 C0.33 0.99 0.66 1.98 1 3 C-0.14453125 5.26171875 -0.14453125 5.26171875 -1.8125 7.6875 C-2.35519531 8.49574219 -2.89789063 9.30398437 -3.45703125 10.13671875 C-3.96621094 10.75160156 -4.47539062 11.36648437 -5 12 C-5.66 12 -6.32 12 -7 12 C-5.44298069 7.32894208 -2.91552627 3.91294315 0 0 Z " fill="#1E1E1B" transform="translate(472,146)"/>
<path d="M0 0 C-1.3125 1.5 -1.3125 1.5 -3 3 C-3.99 3 -4.98 3 -6 3 C-6 3.66 -6 4.32 -6 5 C-7.65 4.67 -9.3 4.34 -11 4 C-3.77464789 -1.88732394 -3.77464789 -1.88732394 0 0 Z " fill="#201F1C" transform="translate(636,152)"/>
<path d="M0 0 C0.33 0 0.66 0 1 0 C1.3690205 12.66970387 1.3690205 12.66970387 -1 18 C-2.0625 16.1875 -2.0625 16.1875 -3 14 C-2.67 13.01 -2.34 12.02 -2 11 C-1.34 11 -0.68 11 0 11 C0 7.37 0 3.74 0 0 Z " fill="#2E2D28" transform="translate(539,81)"/>
<path d="M0 0 C4.875 4.625 4.875 4.625 6 8 C6.99 8.33 7.98 8.66 9 9 C8.01 9.33 7.02 9.66 6 10 C2.46413986 6.82679218 0.41421969 4.83256305 0 0 Z " fill="#201F1C" transform="translate(654,778)"/>
<path d="M0 0 C0.66 0.99 1.32 1.98 2 3 C-0.46153846 7.8 -0.46153846 7.8 -3.1875 8.8125 C-3.785625 8.874375 -4.38375 8.93625 -5 9 C-4.34 8.01 -3.68 7.02 -3 6 C-3.33 5.34 -3.66 4.68 -4 4 C-2.66666667 2.66666667 -1.33333333 1.33333333 0 0 Z " fill="#262521" transform="translate(396,686)"/>
<path d="M0 0 C0.66 0 1.32 0 2 0 C0.74194623 4.50802601 -0.90407165 7.4912812 -4 11 C-3.49357808 6.64477147 -2.61588503 3.55760365 0 0 Z " fill="#1E1D19" transform="translate(627,386)"/>
<path d="M0 0 C1.41687119 4.25061356 0.19320039 6.71851625 -1 11 C-1.66 11 -2.32 11 -3 11 C-2.88590407 9.54077307 -2.75834456 8.08259402 -2.625 6.625 C-2.55539062 5.81289062 -2.48578125 5.00078125 -2.4140625 4.1640625 C-2 2 -2 2 0 0 Z " fill="#1C1C19" transform="translate(607,226)"/>
<path d="M0 0 C1.32 0 2.64 0 4 0 C4.33 2.97 4.66 5.94 5 9 C4.01 8.67 3.02 8.34 2 8 C1.26953125 6.15234375 1.26953125 6.15234375 0.8125 3.9375 C0.65394531 3.20402344 0.49539063 2.47054687 0.33203125 1.71484375 C0.22246094 1.14894531 0.11289062 0.58304688 0 0 Z " fill="#1D1C18" transform="translate(711,912)"/>
<path d="M0 0 C3 1 3 1 4.16796875 2.84765625 C4.50441406 3.57855469 4.84085937 4.30945313 5.1875 5.0625 C5.53167969 5.79597656 5.87585938 6.52945313 6.23046875 7.28515625 C6.48441406 7.85105469 6.73835938 8.41695312 7 9 C6.01 9 5.02 9 4 9 C0 2.25 0 2.25 0 0 Z " fill="#1D1B18" transform="translate(320,865)"/>
<path d="M0 0 C0.66 0.33 1.32 0.66 2 1 C-0.52956528 4.0916909 -3.22454612 4.90931332 -7 6 C-7.66 5.34 -8.32 4.68 -9 4 C-7.54618103 3.30300448 -6.08677047 2.61766134 -4.625 1.9375 C-3.40683594 1.36322266 -3.40683594 1.36322266 -2.1640625 0.77734375 C-1.44992187 0.52082031 -0.73578125 0.26429688 0 0 Z " fill="#21201C" transform="translate(386,698)"/>
<path d="M0 0 C2.22825644 2.22825644 2.69239369 3.65761628 3.625 6.625 C3.88539063 7.44226563 4.14578125 8.25953125 4.4140625 9.1015625 C4.60742188 9.72804688 4.80078125 10.35453125 5 11 C2 10 2 10 1.015625 8.22265625 C0.76296875 7.50980469 0.5103125 6.79695312 0.25 6.0625 C-0.01296875 5.35222656 -0.2759375 4.64195312 -0.546875 3.91015625 C-1 2 -1 2 0 0 Z " fill="#1E1D1A" transform="translate(621,673)"/>
<path d="M0 0 C0 3 0 3 -2.5 5.6875 C-3.325 6.450625 -4.15 7.21375 -5 8 C-5 5.69 -5 3.38 -5 1 C-3.35 0.67 -1.7 0.34 0 0 Z " fill="#373634" transform="translate(536,659)"/>
<path d="M0 0 C0.33 0 0.66 0 1 0 C1.33 5.28 1.66 10.56 2 16 C1.67 15.01 1.34 14.02 1 13 C0.34 13 -0.32 13 -1 13 C-0.67 8.71 -0.34 4.42 0 0 Z " fill="#2D2C26" transform="translate(595,550)"/>
<path d="M0 0 C1.32 0.66 2.64 1.32 4 2 C3.67 4.31 3.34 6.62 3 9 C1 6 1 6 1 3 C0.34 2.67 -0.32 2.34 -1 2 C-0.67 1.34 -0.34 0.68 0 0 Z " fill="#21201C" transform="translate(317,856)"/>
<path d="M0 0 C0.99 0.33 1.98 0.66 3 1 C4.25 7.625 4.25 7.625 2 11 C1.34 7.37 0.68 3.74 0 0 Z " fill="#23211D" transform="translate(418,232)"/>
<path d="M0 0 C3.0210714 2.0140476 4.60667426 3.63279613 6 7 C5.34 7 4.68 7 4 7 C3.67 7.66 3.34 8.32 3 9 C0.70620251 5.55930376 0 4.27709699 0 0 Z " fill="#1A1916" transform="translate(445,191)"/>
<path d="M0 0 C2.56616632 3.84924948 2.55097676 6.4349304 3 11 C0 9 0 9 -0.75 6.0625 C-1 3 -1 3 0 0 Z " fill="#1C1C19" transform="translate(566,175)"/>
<path d="M0 0 C0.99 0.33 1.98 0.66 3 1 C1.68 3.31 0.36 5.62 -1 8 C-2.0625 6.1875 -2.0625 6.1875 -3 4 C-2.67 3.01 -2.34 2.02 -2 1 C-1.34 0.67 -0.68 0.34 0 0 Z " fill="#24241F" transform="translate(639,149)"/>
<path d="M0 0 C2.31 1.98 4.62 3.96 7 6 C6.67 6.66 6.34 7.32 6 8 C2.83884224 6.63016497 2.0072908 6.0109362 0 3 C0 2.01 0 1.02 0 0 Z " fill="#24221E" transform="translate(704,902)"/>
<path d="M0 0 C2.31 0.33 4.62 0.66 7 1 C5.68 2.32 4.36 3.64 3 5 C1.68 4.34 0.36 3.68 -1 3 C-0.67 2.01 -0.34 1.02 0 0 Z " fill="#2A2A28" transform="translate(644,898)"/>
<path d="M0 0 C2.4375 0.8125 2.4375 0.8125 5 2 C5.33 2.99 5.66 3.98 6 5 C5.01 6.485 5.01 6.485 4 8 C2 6 2 6 0 3 C0 2.01 0 1.02 0 0 Z " fill="#2E2C27" transform="translate(400,184)"/>
<path d="M0 0 C2.475 0.495 2.475 0.495 5 1 C5.66 2.98 6.32 4.96 7 7 C6.01 7.495 6.01 7.495 5 8 C4.54625 7.05125 4.0925 6.1025 3.625 5.125 C2.19761746 1.99686321 2.19761746 1.99686321 0 0 Z " fill="#1D1C19" transform="translate(386,157)"/>
<path d="M0 0 C4.21912747 0.4794463 6.79663178 1.16625119 10 4 C6.37673261 5.2077558 5.35853631 4.54311128 2 3 C2 2.34 2 1.68 2 1 C1.34 0.67 0.68 0.34 0 0 Z " fill="#21201D" transform="translate(518,60)"/>
<path d="M0 0 C2.26609984 4.53219967 1.92735976 6.17772925 1 11 C0.34 10.67 -0.32 10.34 -1 10 C-0.67 6.7 -0.34 3.4 0 0 Z " fill="#1F1E1B" transform="translate(419,613)"/>
<path d="M0 0 C0.66 0.33 1.32 0.66 2 1 C0.25 6.75 0.25 6.75 -2 9 C-2 6.69 -2 4.38 -2 2 C-1.34 2 -0.68 2 0 2 C0 1.34 0 0.68 0 0 Z " fill="#1A1A16" transform="translate(610,415)"/>
<path d="M0 0 C0.33 0.66 0.66 1.32 1 2 C1.66 2 2.32 2 3 2 C4.35439668 4.70879335 4.06501451 7.00933268 4 10 C2 8 2 8 1.5 5.4375 C1.335 4.633125 1.17 3.82875 1 3 C0.34 2.67 -0.32 2.34 -1 2 C-0.67 1.34 -0.34 0.68 0 0 Z " fill="#2B2925" transform="translate(389,373)"/>
<path d="M0 0 C0.33 0 0.66 0 1 0 C1.66 3.63 2.32 7.26 3 11 C2.01 11.495 2.01 11.495 1 12 C1 10.68 1 9.36 1 8 C0.34 8 -0.32 8 -1 8 C-0.67 5.36 -0.34 2.72 0 0 Z " fill="#25241F" transform="translate(569,188)"/>
<path d="M0 0 C0 0.66 0 1.32 0 2 C0.99 2.33 1.98 2.66 3 3 C-1.29 2.67 -5.58 2.34 -10 2 C-10 1.67 -10 1.34 -10 1 C-3.375 0 -3.375 0 0 0 Z " fill="#292823" transform="translate(389,968)"/>
<path d="M0 0 C0 0.66 0 1.32 0 2 C-0.99 2 -1.98 2 -3 2 C-3 2.66 -3 3.32 -3 4 C-5.21736634 2.89131683 -7.03617993 1.50559539 -9 0 C-5.67465243 -1.10844919 -3.37817425 -0.84454356 0 0 Z " fill="#24231F" transform="translate(340,961)"/>
<path d="M0 0 C0 3 0 3 -1.3125 4.38671875 C-2.875 5.59114583 -4.4375 6.79557292 -6 8 C-6.66 7.67 -7.32 7.34 -8 7 C-5.61042731 3.75700849 -3.7952131 1.49097658 0 0 Z " fill="#080907" transform="translate(344,804)"/>
<path d="M0 0 C0.33 0.99 0.66 1.98 1 3 C1.99 3 2.98 3 4 3 C3.34 4.65 2.68 6.3 2 8 C0.4375 6.25 0.4375 6.25 -1 4 C-0.6875 1.75 -0.6875 1.75 0 0 Z " fill="#21201C" transform="translate(647,765)"/>
<path d="M0 0 C0.99 0.33 1.98 0.66 3 1 C1.84826645 3.46800047 0.95216435 5.04783565 -1 7 C-2 4 -2 4 -1.0625 1.8125 C-0.5365625 0.9153125 -0.5365625 0.9153125 0 0 Z " fill="#181816" transform="translate(399,680)"/>
<path d="M0 0 C0.33 0 0.66 0 1 0 C1.33 2.97 1.66 5.94 2 9 C1.34 9 0.68 9 0 9 C-0.33 9.99 -0.66 10.98 -1 12 C-0.67 8.04 -0.34 4.08 0 0 Z " fill="#282823" transform="translate(427,562)"/>
<path d="M0 0 C3.3 0.99 6.6 1.98 10 3 C8.02 3.99 8.02 3.99 6 5 C2.75 3.625 2.75 3.625 0 2 C0 1.34 0 0.68 0 0 Z " fill="#1B1B18" transform="translate(603,341)"/>
<path d="M0 0 C0.66 0.66 1.32 1.32 2 2 C1.625 4.625 1.625 4.625 1 7 C0.34 7 -0.32 7 -1 7 C-2 4 -2 4 -1.0625 1.8125 C-0.5365625 0.9153125 -0.5365625 0.9153125 0 0 Z " fill="#292927" transform="translate(512,242)"/>
<path d="M0 0 C0.33 0 0.66 0 1 0 C1.33 3.96 1.66 7.92 2 12 C1.67 11.01 1.34 10.02 1 9 C0.34 9 -0.32 9 -1 9 C-0.67 6.03 -0.34 3.06 0 0 Z " fill="#31302B" transform="translate(598,577)"/>
<path d="M0 0 C0.33 0 0.66 0 1 0 C1.28571429 7.42857143 1.28571429 7.42857143 -1 11 C-2.26264601 6.70700357 -1.62950412 4.12168689 0 0 Z " fill="#34332E" transform="translate(608,306)"/>
<path d="M0 0 C1.4606285 2.64738916 2 3.89448334 2 7 C1.01 7.33 0.02 7.66 -1 8 C-2.2077558 4.37673261 -1.54311128 3.35853631 0 0 Z " fill="#272724" transform="translate(507,166)"/>
<path d="M0 0 C0.99 0.33 1.98 0.66 3 1 C1.37660195 2.70884005 -0.29319053 4.37446717 -2 6 C-2.66 6 -3.32 6 -4 6 C-2.84826645 3.53199953 -1.95216435 1.95216435 0 0 Z " fill="#1B1B17" transform="translate(531,104)"/>
<path d="M0 0 C0.33 0 0.66 0 1 0 C1 3.3 1 6.6 1 10 C-1.17766075 5.64467851 -1.03039555 4.53374042 0 0 Z " fill="#45433C" transform="translate(385,359)"/>
<path d="M0 0 C1.98 0.99 1.98 0.99 4 2 C3.67 2.66 3.34 3.32 3 4 C2.01 3.67 1.02 3.34 0 3 C0 2.01 0 1.02 0 0 Z " fill="#3C3B35" transform="translate(400,404)"/>
<path d="M0 0 C4.75 0.75 4.75 0.75 7 3 C2.25 2.25 2.25 2.25 0 0 Z " fill="#3A3932" transform="translate(313,957)"/>
<path d="M0 0 C0.33 0 0.66 0 1 0 C1 2.31 1 4.62 1 7 C0.67 7 0.34 7 0 7 C0 4.69 0 2.38 0 0 Z " fill="#3A3934" transform="translate(304,929)"/>
<path d="M0 0 C1.65 0 3.3 0 5 0 C3.02 0.99 3.02 0.99 1 2 C0.67 1.34 0.34 0.68 0 0 Z " fill="#3F3E37" transform="translate(366,704)"/>
<path d="M0 0 C0.99 1.485 0.99 1.485 2 3 C1.67 3.99 1.34 4.98 1 6 C0.67 4.02 0.34 2.04 0 0 Z " fill="#393730" transform="translate(416,232)"/>
<path d="M0 0 C1.32 0.33 2.64 0.66 4 1 C3.67 1.66 3.34 2.32 3 3 C2.01 2.67 1.02 2.34 0 2 C0 1.34 0 0.68 0 0 Z " fill="#33312C" transform="translate(586,176)"/>
<path d="M0 0 C1.98 0 3.96 0 6 0 C6 0.33 6 0.66 6 1 C4.02 1 2.04 1 0 1 C0 0.67 0 0.34 0 0 Z " fill="#2F2F29" transform="translate(381,971)"/>
<path d="M0 0 C0.33 0 0.66 0 1 0 C1 1.98 1 3.96 1 6 C0.67 6 0.34 6 0 6 C0 4.02 0 2.04 0 0 Z " fill="#3C3B35" transform="translate(481,80)"/>
<path d="M0 0 C1.65 0 3.3 0 5 0 C5 0.33 5 0.66 5 1 C3.35 1 1.7 1 0 1 C0 0.67 0 0.34 0 0 Z " fill="#2F2D28" transform="translate(399,973)"/>
<path d="M0 0 C0.99 0.99 1.98 1.98 3 3 C2.01 2.67 1.02 2.34 0 2 C0 1.34 0 0.68 0 0 Z " fill="#42413A" transform="translate(360,726)"/>
<path d="M0 0 C0.99 0.495 0.99 0.495 2 1 C1.01 2.485 1.01 2.485 0 4 C0 2.68 0 1.36 0 0 Z " fill="#43413B" transform="translate(360,704)"/>
<path d="M0 0 C1.485 0.99 1.485 0.99 3 2 C2.01 2.33 1.02 2.66 0 3 C0 2.01 0 1.02 0 0 Z " fill="#37362F" transform="translate(598,168)"/>
<path d="M0 0 C4 1 4 1 4 1 Z " fill="#302F29" transform="translate(601,975)"/>
<path d="M0 0 C4 1 4 1 4 1 Z " fill="#2D2B26" transform="translate(409,974)"/>
<path d="M0 0 C1 4 1 4 1 4 Z " fill="#3A3934" transform="translate(719,932)"/>
<path d="M0 0 C0.66 0 1.32 0 2 0 C1.67 0.99 1.34 1.98 1 3 C0.67 2.01 0.34 1.02 0 0 Z " fill="#414039" transform="translate(363,704)"/>
<path d="M0 0 C1 4 1 4 1 4 Z " fill="#3D3B34" transform="translate(408,640)"/>
<path d="M0 0 C1 4 1 4 1 4 Z " fill="#3E3C36" transform="translate(427,484)"/>
<path d="M0 0 C1 4 1 4 1 4 Z " fill="#3C3B34" transform="translate(426,473)"/>
<path d="M0 0 C1 4 1 4 1 4 Z " fill="#3A3933" transform="translate(416,430)"/>
<path d="M0 0 C0.99 1.485 0.99 1.485 2 3 C1.34 3 0.68 3 0 3 C0 2.01 0 1.02 0 0 Z " fill="#3A3932" transform="translate(412,421)"/>
<path d="M0 0 C0.99 0.33 1.98 0.66 3 1 C2.01 1.33 1.02 1.66 0 2 C0 1.34 0 0.68 0 0 Z " fill="#302E29" transform="translate(593,326)"/>
<path d="M0 0 C1 4 1 4 1 4 Z " fill="#3A3831" transform="translate(425,282)"/>
<path d="M0 0 C1 4 1 4 1 4 Z " fill="#36352F" transform="translate(419,243)"/>
<path d="M0 0 C0.33 0.99 0.66 1.98 1 3 C0.34 2.67 -0.32 2.34 -1 2 C-0.67 1.34 -0.34 0.68 0 0 Z " fill="#36342D" transform="translate(410,210)"/>
<path d="M0 0 C0.99 0.33 1.98 0.66 3 1 C2.01 1 1.02 1 0 1 C0 0.67 0 0.34 0 0 Z " fill="#403F39" transform="translate(624,152)"/>
<path d="M0 0 C0.33 0.66 0.66 1.32 1 2 C0.01 1.67 -0.98 1.34 -2 1 C-1.34 0.67 -0.68 0.34 0 0 Z " fill="#3A3A32" transform="translate(511,56)"/>
<path d="M0 0 C3 1 3 1 3 1 Z " fill="#2C2B26" transform="translate(485,978)"/>
<path d="M0 0 C3 1 3 1 3 1 Z " fill="#2E2B25" transform="translate(597,975)"/>
<path d="M0 0 C3 1 3 1 3 1 Z " fill="#2E2B26" transform="translate(420,975)"/>
<path d="M0 0 C3 1 3 1 3 1 Z " fill="#3B3833" transform="translate(312,904)"/>
<path d="M0 0 C0.33 0.66 0.66 1.32 1 2 C0.34 1.67 -0.32 1.34 -1 1 C-0.67 0.67 -0.34 0.34 0 0 Z " fill="#3B3932" transform="translate(702,897)"/>
<path d="M0 0 C0.66 0 1.32 0 2 0 C1.67 0.66 1.34 1.32 1 2 C0.67 1.34 0.34 0.68 0 0 Z " fill="#403F38" transform="translate(312,833)"/>
<path d="M0 0 C0.99 0.495 0.99 0.495 2 1 C1.01 1.495 1.01 1.495 0 2 C0 1.34 0 0.68 0 0 Z " fill="#3B3B34" transform="translate(334,808)"/>
<path d="M0 0 C0.99 0.495 0.99 0.495 2 1 C1.01 1.495 1.01 1.495 0 2 C0 1.34 0 0.68 0 0 Z " fill="#393933" transform="translate(343,800)"/>
<path d="M0 0 C0.99 0.495 0.99 0.495 2 1 C1.01 1.495 1.01 1.495 0 2 C0 1.34 0 0.68 0 0 Z " fill="#3B3A34" transform="translate(338,800)"/>
<path d="M0 0 C0.99 0.495 0.99 0.495 2 1 C1.01 1.495 1.01 1.495 0 2 C0 1.34 0 0.68 0 0 Z " fill="#35352E" transform="translate(368,768)"/>
<path d="" fill="#403E38" transform="translate(0,0)"/>
<path d="" fill="#42413B" transform="translate(0,0)"/>
<path d="M0 0 C0.66 0 1.32 0 2 0 C1.67 0.66 1.34 1.32 1 2 C0.67 1.34 0.34 0.68 0 0 Z " fill="#3C3B35" transform="translate(377,698)"/>
<path d="" fill="#393731" transform="translate(0,0)"/>
<path d="" fill="#3C3B35" transform="translate(0,0)"/>
<path d="" fill="#3D3B35" transform="translate(0,0)"/>
<path d="" fill="#3D3D37" transform="translate(0,0)"/>
<path d="" fill="#3C3B34" transform="translate(0,0)"/>
<path d="" fill="#373631" transform="translate(0,0)"/>
<path d="" fill="#424039" transform="translate(0,0)"/>
<path d="M0 0 C0.99 0.495 0.99 0.495 2 1 C1.01 1.495 1.01 1.495 0 2 C0 1.34 0 0.68 0 0 Z " fill="#3E3C34" transform="translate(398,346)"/>
<path d="" fill="#42423A" transform="translate(0,0)"/>
<path d="M0 0 C0.99 0.495 0.99 0.495 2 1 C1.01 1.495 1.01 1.495 0 2 C0 1.34 0 0.68 0 0 Z " fill="#302F29" transform="translate(424,326)"/>
<path d="" fill="#383730" transform="translate(0,0)"/>
<path d="M0 0 C0.99 0.495 0.99 0.495 2 1 C1.01 1.495 1.01 1.495 0 2 C0 1.34 0 0.68 0 0 Z " fill="#2D2B25" transform="translate(572,196)"/>
<path d="M0 0 C0.99 0.495 0.99 0.495 2 1 C1.01 1.495 1.01 1.495 0 2 C0 1.34 0 0.68 0 0 Z " fill="#35332D" transform="translate(620,193)"/>
<path d="M0 0 C0.33 0.66 0.66 1.32 1 2 C0.34 1.67 -0.32 1.34 -1 1 C-0.67 0.67 -0.34 0.34 0 0 Z " fill="#312E29" transform="translate(451,192)"/>
<path d="" fill="#32322B" transform="translate(0,0)"/>
<path d="M0 0 C2 1 2 1 2 1 Z " fill="#2C2B25" transform="translate(427,975)"/>
<path d="M0 0 C2 1 2 1 2 1 Z " fill="#312F2A" transform="translate(617,974)"/>
<path d="M0 0 C2 1 2 1 2 1 Z " fill="#302F29" transform="translate(611,974)"/>
<path d="M0 0 C2 1 2 1 2 1 Z " fill="#32302B" transform="translate(640,971)"/>
<path d="M0 0 C2 1 2 1 2 1 Z " fill="#37342E" transform="translate(670,967)"/>
<path d="M0 0 C2 1 2 1 2 1 Z " fill="#373730" transform="translate(675,966)"/>
<path d="M0 0 C2 1 2 1 2 1 Z " fill="#37352F" transform="translate(680,965)"/>
<path d="" fill="#3D3C36" transform="translate(0,0)"/>
<path d="" fill="#3C3A34" transform="translate(0,0)"/>
<path d="" fill="#3A3831" transform="translate(0,0)"/>
<path d="" fill="#3B3933" transform="translate(0,0)"/>
<path d="" fill="#3B3932" transform="translate(0,0)"/>
<path d="M0 0 C2 1 2 1 2 1 Z " fill="#383631" transform="translate(320,898)"/>
<path d="M0 0 C2 1 2 1 2 1 Z " fill="#393730" transform="translate(698,896)"/>
<path d="M0 0 C2 1 2 1 2 1 Z " fill="#30312B" transform="translate(335,888)"/>
<path d="" fill="#36342F" transform="translate(0,0)"/>
<path d="" fill="#363430" transform="translate(0,0)"/>
<path d="M0 0 C2 1 2 1 2 1 Z " fill="#3C3B35" transform="translate(695,879)"/>
<path d="" fill="#3E3D36" transform="translate(0,0)"/>
<path d="" fill="#414038" transform="translate(0,0)"/>
<path d="" fill="#3E3E36" transform="translate(0,0)"/>
<path d="" fill="#3D3D35" transform="translate(0,0)"/>
<path d="" fill="#42413A" transform="translate(0,0)"/>
<path d="" fill="#403D37" transform="translate(0,0)"/>
<path d="" fill="#393731" transform="translate(0,0)"/>
<path d="" fill="#413F3A" transform="translate(0,0)"/>
<path d="" fill="#424139" transform="translate(0,0)"/>
<path d="M0 0 C2 1 2 1 2 1 Z " fill="#3D3C33" transform="translate(640,698)"/>
<path d="M0 0 C2 1 2 1 2 1 Z " fill="#3B3A35" transform="translate(638,697)"/>
<path d="" fill="#3D3C36" transform="translate(0,0)"/>
<path d="" fill="#3E3E38" transform="translate(0,0)"/>
<path d="" fill="#3C3B33" transform="translate(0,0)"/>
<path d="" fill="#373932" transform="translate(0,0)"/>
<path d="" fill="#3A3933" transform="translate(0,0)"/>
<path d="M0 0 C2 1 2 1 2 1 Z " fill="#383730" transform="translate(419,601)"/>
<path d="" fill="#393731" transform="translate(0,0)"/>
<path d="" fill="#393832" transform="translate(0,0)"/>
<path d="" fill="#383631" transform="translate(0,0)"/>
<path d="" fill="#383831" transform="translate(0,0)"/>
<path d="" fill="#393732" transform="translate(0,0)"/>
<path d="" fill="#3C3933" transform="translate(0,0)"/>
<path d="" fill="#3A3933" transform="translate(0,0)"/>
<path d="" fill="#3A3933" transform="translate(0,0)"/>
<path d="M0 0 C2 1 2 1 2 1 Z " fill="#3D3B36" transform="translate(426,491)"/>
<path d="" fill="#3E3D36" transform="translate(0,0)"/>
<path d="" fill="#413F38" transform="translate(0,0)"/>
<path d="M0 0 C2 1 2 1 2 1 Z " fill="#403F37" transform="translate(393,349)"/>
<path d="M0 0 C2 1 2 1 2 1 Z " fill="#3D3C36" transform="translate(399,344)"/>
<path d="M0 0 C2 1 2 1 2 1 Z " fill="#33332B" transform="translate(598,336)"/>
<path d="M0 0 C2 1 2 1 2 1 Z " fill="#34342D" transform="translate(418,336)"/>
<path d="" fill="#302E2B" transform="translate(0,0)"/>
<path d="M0 0 C2 1 2 1 2 1 Z " fill="#302F2B" transform="translate(424,329)"/>
<path d="M0 0 C2 1 2 1 2 1 Z " fill="#3D3B35" transform="translate(606,296)"/>
<path d="" fill="#383630" transform="translate(0,0)"/>
<path d="" fill="#34322C" transform="translate(0,0)"/>
<path d="" fill="#393731" transform="translate(0,0)"/>
<path d="M0 0 C2 1 2 1 2 1 Z " fill="#292623" transform="translate(571,192)"/>
<path d="" fill="#3C3934" transform="translate(0,0)"/>
<path d="" fill="#2E2B26" transform="translate(0,0)"/>
<path d="" fill="#434139" transform="translate(0,0)"/>
<path d="" fill="#3A3B34" transform="translate(0,0)"/>
<path d="" fill="#403E37" transform="translate(0,0)"/>
<path d="M0 0 C2 1 2 1 2 1 Z " fill="#45433C" transform="translate(634,149)"/>
<path d="M0 0 C2 1 2 1 2 1 Z " fill="#37362F" transform="translate(472,138)"/>
<path d="M0 0 C2 1 2 1 2 1 Z " fill="#34342E" transform="translate(483,129)"/>
<path d="" fill="#303029" transform="translate(0,0)"/>
<path d="M0 0 C2 1 2 1 2 1 Z " fill="#36362F" transform="translate(527,111)"/>
<path d="" fill="#39362F" transform="translate(0,0)"/>
<path d="" fill="#3B3B35" transform="translate(0,0)"/>
<path d="" fill="#3D3C36" transform="translate(0,0)"/>
<path d="" fill="#3B3933" transform="translate(0,0)"/>
<path d="" fill="#31302B" transform="translate(0,0)"/>
<path d="" fill="#2F3029" transform="translate(0,0)"/>
<path d="" fill="#2E2D26" transform="translate(0,0)"/>
<path d="" fill="#2B2A27" transform="translate(0,0)"/>
<path d="" fill="#2C2A27" transform="translate(0,0)"/>
<path d="" fill="#302E29" transform="translate(0,0)"/>
<path d="" fill="#30302A" transform="translate(0,0)"/>
<path d="" fill="#302F29" transform="translate(0,0)"/>
<path d="" fill="#302F29" transform="translate(0,0)"/>
<path d="" fill="#2B2925" transform="translate(0,0)"/>
<path d="" fill="#2C2C25" transform="translate(0,0)"/>
<path d="" fill="#2D2A25" transform="translate(0,0)"/>
<path d="" fill="#2E2C27" transform="translate(0,0)"/>
<path d="" fill="#2E2B26" transform="translate(0,0)"/>
<path d="" fill="#37362E" transform="translate(0,0)"/>
<path d="" fill="#2F2C27" transform="translate(0,0)"/>
<path d="" fill="#2E2D27" transform="translate(0,0)"/>
<path d="" fill="#302E28" transform="translate(0,0)"/>
<path d="" fill="#32322C" transform="translate(0,0)"/>
<path d="" fill="#2D2A26" transform="translate(0,0)"/>
<path d="" fill="#30312C" transform="translate(0,0)"/>
<path d="" fill="#302E29" transform="translate(0,0)"/>
<path d="" fill="#2F2D28" transform="translate(0,0)"/>
<path d="" fill="#2F2E28" transform="translate(0,0)"/>
<path d="" fill="#32312B" transform="translate(0,0)"/>
<path d="" fill="#34312B" transform="translate(0,0)"/>
<path d="" fill="#303028" transform="translate(0,0)"/>
<path d="" fill="#37322D" transform="translate(0,0)"/>
<path d="" fill="#38342F" transform="translate(0,0)"/>
<path d="" fill="#2E2D27" transform="translate(0,0)"/>
<path d="" fill="#32332D" transform="translate(0,0)"/>
<path d="" fill="#363730" transform="translate(0,0)"/>
<path d="" fill="#34342C" transform="translate(0,0)"/>
<path d="" fill="#34352E" transform="translate(0,0)"/>
<path d="" fill="#373630" transform="translate(0,0)"/>
<path d="" fill="#373831" transform="translate(0,0)"/>
<path d="" fill="#3E3C35" transform="translate(0,0)"/>
<path d="" fill="#39352F" transform="translate(0,0)"/>
<path d="" fill="#3A3934" transform="translate(0,0)"/>
<path d="" fill="#3C3C35" transform="translate(0,0)"/>
<path d="" fill="#3A3B34" transform="translate(0,0)"/>
<path d="" fill="#31312A" transform="translate(0,0)"/>
<path d="" fill="#38352F" transform="translate(0,0)"/>
<path d="" fill="#3B3B33" transform="translate(0,0)"/>
<path d="" fill="#3B3A34" transform="translate(0,0)"/>
<path d="" fill="#3D3B37" transform="translate(0,0)"/>
<path d="" fill="#3C3D35" transform="translate(0,0)"/>
<path d="" fill="#424038" transform="translate(0,0)"/>
<path d="" fill="#3C3C33" transform="translate(0,0)"/>
<path d="" fill="#3B3A35" transform="translate(0,0)"/>
<path d="" fill="#3A3A34" transform="translate(0,0)"/>
<path d="" fill="#3C3C35" transform="translate(0,0)"/>
<path d="" fill="#36352E" transform="translate(0,0)"/>
<path d="" fill="#3C3A33" transform="translate(0,0)"/>
<path d="" fill="#383530" transform="translate(0,0)"/>
<path d="" fill="#3B3733" transform="translate(0,0)"/>
<path d="" fill="#37382D" transform="translate(0,0)"/>
<path d="" fill="#383530" transform="translate(0,0)"/>
<path d="" fill="#35332E" transform="translate(0,0)"/>
<path d="" fill="#36332E" transform="translate(0,0)"/>
<path d="" fill="#353530" transform="translate(0,0)"/>
<path d="" fill="#3B3B34" transform="translate(0,0)"/>
<path d="" fill="#3D3D35" transform="translate(0,0)"/>
<path d="" fill="#3F3C36" transform="translate(0,0)"/>
<path d="" fill="#3F3F38" transform="translate(0,0)"/>
<path d="" fill="#413F38" transform="translate(0,0)"/>
<path d="" fill="#413E38" transform="translate(0,0)"/>
<path d="" fill="#413F38" transform="translate(0,0)"/>
<path d="" fill="#404039" transform="translate(0,0)"/>
<path d="" fill="#3F3D37" transform="translate(0,0)"/>
<path d="" fill="#3E3C35" transform="translate(0,0)"/>
<path d="" fill="#3F3D37" transform="translate(0,0)"/>
<path d="" fill="#3F3D37" transform="translate(0,0)"/>
<path d="" fill="#3E3D37" transform="translate(0,0)"/>
<path d="" fill="#3F3F38" transform="translate(0,0)"/>
<path d="" fill="#413F37" transform="translate(0,0)"/>
<path d="" fill="#403D36" transform="translate(0,0)"/>
<path d="" fill="#3D3B34" transform="translate(0,0)"/>
<path d="" fill="#44403A" transform="translate(0,0)"/>
<path d="" fill="#414037" transform="translate(0,0)"/>
<path d="" fill="#3F3D36" transform="translate(0,0)"/>
<path d="" fill="#3C3934" transform="translate(0,0)"/>
<path d="" fill="#403E36" transform="translate(0,0)"/>
<path d="" fill="#3D3D35" transform="translate(0,0)"/>
<path d="" fill="#49473D" transform="translate(0,0)"/>
<path d="" fill="#35342E" transform="translate(0,0)"/>
<path d="" fill="#3F3B36" transform="translate(0,0)"/>
<path d="" fill="#3D3C35" transform="translate(0,0)"/>
<path d="" fill="#3E3D36" transform="translate(0,0)"/>
<path d="" fill="#3D3C35" transform="translate(0,0)"/>
<path d="" fill="#3D3D36" transform="translate(0,0)"/>
<path d="" fill="#3E3D35" transform="translate(0,0)"/>
<path d="" fill="#3A3A32" transform="translate(0,0)"/>
<path d="" fill="#3D3D31" transform="translate(0,0)"/>
<path d="" fill="#3A3B33" transform="translate(0,0)"/>
<path d="" fill="#3A3D33" transform="translate(0,0)"/>
<path d="" fill="#38372F" transform="translate(0,0)"/>
<path d="" fill="#353530" transform="translate(0,0)"/>
<path d="" fill="#36372E" transform="translate(0,0)"/>
<path d="" fill="#393731" transform="translate(0,0)"/>
<path d="" fill="#373531" transform="translate(0,0)"/>
<path d="" fill="#383632" transform="translate(0,0)"/>
<path d="" fill="#383934" transform="translate(0,0)"/>
<path d="" fill="#393733" transform="translate(0,0)"/>
<path d="" fill="#39382F" transform="translate(0,0)"/>
<path d="" fill="#38362F" transform="translate(0,0)"/>
<path d="" fill="#373730" transform="translate(0,0)"/>
<path d="" fill="#383831" transform="translate(0,0)"/>
<path d="" fill="#35342A" transform="translate(0,0)"/>
<path d="" fill="#37352F" transform="translate(0,0)"/>
<path d="" fill="#3A3732" transform="translate(0,0)"/>
<path d="" fill="#3A3833" transform="translate(0,0)"/>
<path d="" fill="#3A3832" transform="translate(0,0)"/>
<path d="" fill="#3C3B34" transform="translate(0,0)"/>
<path d="" fill="#3E3C37" transform="translate(0,0)"/>
<path d="" fill="#3F3F37" transform="translate(0,0)"/>
<path d="" fill="#42413B" transform="translate(0,0)"/>
<path d="" fill="#40403A" transform="translate(0,0)"/>
<path d="" fill="#43423C" transform="translate(0,0)"/>
<path d="" fill="#424039" transform="translate(0,0)"/>
<path d="" fill="#44423C" transform="translate(0,0)"/>
<path d="" fill="#43413C" transform="translate(0,0)"/>
<path d="" fill="#434139" transform="translate(0,0)"/>
<path d="" fill="#434239" transform="translate(0,0)"/>
<path d="" fill="#414139" transform="translate(0,0)"/>
<path d="" fill="#413F38" transform="translate(0,0)"/>
<path d="" fill="#3F3E39" transform="translate(0,0)"/>
<path d="" fill="#3D3D37" transform="translate(0,0)"/>
<path d="" fill="#3C3A35" transform="translate(0,0)"/>
<path d="" fill="#3E3C35" transform="translate(0,0)"/>
<path d="" fill="#3E3E35" transform="translate(0,0)"/>
<path d="" fill="#3A3933" transform="translate(0,0)"/>
<path d="" fill="#3D3C35" transform="translate(0,0)"/>
<path d="" fill="#32322B" transform="translate(0,0)"/>
<path d="" fill="#3D3D36" transform="translate(0,0)"/>
<path d="" fill="#3C3A35" transform="translate(0,0)"/>
<path d="" fill="#3D3B34" transform="translate(0,0)"/>
<path d="" fill="#3C3D36" transform="translate(0,0)"/>
<path d="" fill="#3B3B35" transform="translate(0,0)"/>
<path d="" fill="#3E3D37" transform="translate(0,0)"/>
<path d="" fill="#3D3B36" transform="translate(0,0)"/>
<path d="" fill="#3E3C34" transform="translate(0,0)"/>
<path d="" fill="#413C36" transform="translate(0,0)"/>
<path d="" fill="#3F3E38" transform="translate(0,0)"/>
<path d="" fill="#403E38" transform="translate(0,0)"/>
<path d="" fill="#424038" transform="translate(0,0)"/>
<path d="" fill="#3C3934" transform="translate(0,0)"/>
<path d="" fill="#423E38" transform="translate(0,0)"/>
<path d="" fill="#3D3B36" transform="translate(0,0)"/>
<path d="" fill="#3D3A34" transform="translate(0,0)"/>
<path d="" fill="#3E3C36" transform="translate(0,0)"/>
<path d="" fill="#3E3C34" transform="translate(0,0)"/>
<path d="" fill="#3E3C37" transform="translate(0,0)"/>
<path d="" fill="#3D3A35" transform="translate(0,0)"/>
<path d="" fill="#3D3B36" transform="translate(0,0)"/>
<path d="" fill="#3E3C35" transform="translate(0,0)"/>
<path d="" fill="#2D2C25" transform="translate(0,0)"/>
<path d="" fill="#4A483F" transform="translate(0,0)"/>
<path d="" fill="#2B2A25" transform="translate(0,0)"/>
<path d="" fill="#32312B" transform="translate(0,0)"/>
<path d="" fill="#3C3935" transform="translate(0,0)"/>
<path d="" fill="#3C3A36" transform="translate(0,0)"/>
<path d="" fill="#3B3A34" transform="translate(0,0)"/>
<path d="" fill="#393832" transform="translate(0,0)"/>
<path d="" fill="#3B3B32" transform="translate(0,0)"/>
<path d="" fill="#393832" transform="translate(0,0)"/>
<path d="" fill="#393934" transform="translate(0,0)"/>
<path d="" fill="#3D3B36" transform="translate(0,0)"/>
<path d="" fill="#3A3A34" transform="translate(0,0)"/>
<path d="" fill="#33312C" transform="translate(0,0)"/>
<path d="" fill="#393631" transform="translate(0,0)"/>
<path d="" fill="#3A3A33" transform="translate(0,0)"/>
<path d="" fill="#3A3833" transform="translate(0,0)"/>
<path d="" fill="#35342D" transform="translate(0,0)"/>
<path d="" fill="#3C3B33" transform="translate(0,0)"/>
<path d="" fill="#353530" transform="translate(0,0)"/>
<path d="" fill="#393832" transform="translate(0,0)"/>
<path d="" fill="#393732" transform="translate(0,0)"/>
<path d="" fill="#3A3834" transform="translate(0,0)"/>
<path d="" fill="#3C3D34" transform="translate(0,0)"/>
<path d="" fill="#3B3B34" transform="translate(0,0)"/>
<path d="" fill="#3D3D35" transform="translate(0,0)"/>
<path d="" fill="#3E3D35" transform="translate(0,0)"/>
<path d="" fill="#3F3C36" transform="translate(0,0)"/>
<path d="" fill="#3E3C35" transform="translate(0,0)"/>
<path d="" fill="#3C3A36" transform="translate(0,0)"/>
<path d="" fill="#3D3D37" transform="translate(0,0)"/>
<path d="" fill="#2D2C27" transform="translate(0,0)"/>
<path d="" fill="#44433B" transform="translate(0,0)"/>
<path d="" fill="#2B2A25" transform="translate(0,0)"/>
<path d="" fill="#35332C" transform="translate(0,0)"/>
<path d="" fill="#393832" transform="translate(0,0)"/>
<path d="" fill="#3D3B33" transform="translate(0,0)"/>
<path d="" fill="#3E3A35" transform="translate(0,0)"/>
<path d="" fill="#393934" transform="translate(0,0)"/>
<path d="" fill="#48463E" transform="translate(0,0)"/>
<path d="" fill="#3B3A34" transform="translate(0,0)"/>
<path d="" fill="#3E3B35" transform="translate(0,0)"/>
<path d="" fill="#3D3D35" transform="translate(0,0)"/>
<path d="" fill="#393833" transform="translate(0,0)"/>
<path d="" fill="#36372F" transform="translate(0,0)"/>
<path d="" fill="#3A3531" transform="translate(0,0)"/>
<path d="" fill="#3F3D37" transform="translate(0,0)"/>
<path d="" fill="#414038" transform="translate(0,0)"/>
<path d="" fill="#3D3C36" transform="translate(0,0)"/>
<path d="" fill="#3F3E37" transform="translate(0,0)"/>
<path d="" fill="#3F3F38" transform="translate(0,0)"/>
<path d="" fill="#34342E" transform="translate(0,0)"/>
<path d="" fill="#43413A" transform="translate(0,0)"/>
<path d="" fill="#45423C" transform="translate(0,0)"/>
<path d="" fill="#43433A" transform="translate(0,0)"/>
<path d="" fill="#47433D" transform="translate(0,0)"/>
<path d="" fill="#2A2B25" transform="translate(0,0)"/>
<path d="" fill="#302F2A" transform="translate(0,0)"/>
<path d="" fill="#424139" transform="translate(0,0)"/>
<path d="" fill="#3B3A35" transform="translate(0,0)"/>
<path d="" fill="#40413A" transform="translate(0,0)"/>
<path d="" fill="#3A3832" transform="translate(0,0)"/>
<path d="" fill="#373531" transform="translate(0,0)"/>
<path d="" fill="#36342E" transform="translate(0,0)"/>
<path d="" fill="#35332E" transform="translate(0,0)"/>
<path d="" fill="#33332C" transform="translate(0,0)"/>
<path d="" fill="#33332D" transform="translate(0,0)"/>
<path d="" fill="#35352E" transform="translate(0,0)"/>
<path d="" fill="#373530" transform="translate(0,0)"/>
<path d="" fill="#35332D" transform="translate(0,0)"/>
<path d="" fill="#2F2E2C" transform="translate(0,0)"/>
<path d="" fill="#46443C" transform="translate(0,0)"/>
<path d="" fill="#35302C" transform="translate(0,0)"/>
<path d="" fill="#35322E" transform="translate(0,0)"/>
<path d="" fill="#36342E" transform="translate(0,0)"/>
<path d="" fill="#383631" transform="translate(0,0)"/>
<path d="" fill="#35312C" transform="translate(0,0)"/>
<path d="" fill="#3B3831" transform="translate(0,0)"/>
<path d="" fill="#383530" transform="translate(0,0)"/>
<path d="" fill="#3A382F" transform="translate(0,0)"/>
<path d="" fill="#3F4139" transform="translate(0,0)"/>
<path d="" fill="#4B4840" transform="translate(0,0)"/>
<path d="" fill="#3C3C36" transform="translate(0,0)"/>
<path d="" fill="#3E3C34" transform="translate(0,0)"/>
<path d="" fill="#393936" transform="translate(0,0)"/>
<path d="" fill="#3C3933" transform="translate(0,0)"/>
<path d="" fill="#3B3C34" transform="translate(0,0)"/>
<path d="" fill="#3A3933" transform="translate(0,0)"/>
<path d="" fill="#393830" transform="translate(0,0)"/>
<path d="" fill="#36352F" transform="translate(0,0)"/>
<path d="" fill="#34352E" transform="translate(0,0)"/>
<path d="" fill="#383730" transform="translate(0,0)"/>
<path d="" fill="#34322E" transform="translate(0,0)"/>
<path d="" fill="#373431" transform="translate(0,0)"/>
<path d="" fill="#35322C" transform="translate(0,0)"/>
<path d="" fill="#37362D" transform="translate(0,0)"/>
<path d="" fill="#37372F" transform="translate(0,0)"/>
<path d="" fill="#373631" transform="translate(0,0)"/>
<path d="" fill="#39352F" transform="translate(0,0)"/>
<path d="" fill="#32332D" transform="translate(0,0)"/>
<path d="" fill="#35322E" transform="translate(0,0)"/>
<path d="" fill="#36332D" transform="translate(0,0)"/>
<path d="" fill="#363630" transform="translate(0,0)"/>
<path d="" fill="#37352F" transform="translate(0,0)"/>
<path d="" fill="#323029" transform="translate(0,0)"/>
<path d="" fill="#37342F" transform="translate(0,0)"/>
<path d="" fill="#292823" transform="translate(0,0)"/>
<path d="" fill="#2B2A26" transform="translate(0,0)"/>
<path d="" fill="#3B3A31" transform="translate(0,0)"/>
<path d="" fill="#302D27" transform="translate(0,0)"/>
<path d="" fill="#2C2A25" transform="translate(0,0)"/>
<path d="" fill="#3B3A33" transform="translate(0,0)"/>
<path d="" fill="#302E27" transform="translate(0,0)"/>
<path d="" fill="#2D2A26" transform="translate(0,0)"/>
<path d="" fill="#2D2D25" transform="translate(0,0)"/>
<path d="" fill="#2B2825" transform="translate(0,0)"/>
<path d="" fill="#2C2925" transform="translate(0,0)"/>
<path d="" fill="#34312C" transform="translate(0,0)"/>
<path d="" fill="#302E28" transform="translate(0,0)"/>
<path d="" fill="#3C3B34" transform="translate(0,0)"/>
<path d="" fill="#33312B" transform="translate(0,0)"/>
<path d="" fill="#3B3832" transform="translate(0,0)"/>
<path d="" fill="#3B3932" transform="translate(0,0)"/>
<path d="" fill="#3E3D37" transform="translate(0,0)"/>
<path d="" fill="#3E3B38" transform="translate(0,0)"/>
<path d="" fill="#393831" transform="translate(0,0)"/>
<path d="" fill="#302F28" transform="translate(0,0)"/>
<path d="" fill="#403E36" transform="translate(0,0)"/>
<path d="" fill="#373631" transform="translate(0,0)"/>
<path d="" fill="#393734" transform="translate(0,0)"/>
<path d="" fill="#3E3E35" transform="translate(0,0)"/>
<path d="" fill="#393733" transform="translate(0,0)"/>
<path d="" fill="#33302B" transform="translate(0,0)"/>
<path d="" fill="#31312A" transform="translate(0,0)"/>
<path d="" fill="#393B34" transform="translate(0,0)"/>
<path d="" fill="#3C3A35" transform="translate(0,0)"/>
<path d="" fill="#32312A" transform="translate(0,0)"/>
<path d="" fill="#3E3C36" transform="translate(0,0)"/>
<path d="" fill="#2E2D26" transform="translate(0,0)"/>
<path d="" fill="#424039" transform="translate(0,0)"/>
<path d="" fill="#3F3D36" transform="translate(0,0)"/>
<path d="" fill="#3F3F38" transform="translate(0,0)"/>
<path d="" fill="#48463F" transform="translate(0,0)"/>
<path d="" fill="#3C3C36" transform="translate(0,0)"/>
<path d="" fill="#45423C" transform="translate(0,0)"/>
<path d="" fill="#44423A" transform="translate(0,0)"/>
<path d="" fill="#36332F" transform="translate(0,0)"/>
<path d="" fill="#45443A" transform="translate(0,0)"/>
<path d="" fill="#45423B" transform="translate(0,0)"/>
<path d="" fill="#32332C" transform="translate(0,0)"/>
<path d="" fill="#43413B" transform="translate(0,0)"/>
<path d="" fill="#353630" transform="translate(0,0)"/>
<path d="" fill="#43423C" transform="translate(0,0)"/>
<path d="" fill="#403E39" transform="translate(0,0)"/>
<path d="" fill="#44413A" transform="translate(0,0)"/>
<path d="" fill="#43423C" transform="translate(0,0)"/>
<path d="" fill="#444339" transform="translate(0,0)"/>
<path d="" fill="#36312C" transform="translate(0,0)"/>
<path d="" fill="#47473F" transform="translate(0,0)"/>
<path d="" fill="#33332C" transform="translate(0,0)"/>
<path d="" fill="#494740" transform="translate(0,0)"/>
<path d="" fill="#33312D" transform="translate(0,0)"/>
<path d="" fill="#403E38" transform="translate(0,0)"/>
<path d="" fill="#35332C" transform="translate(0,0)"/>
<path d="" fill="#37352F" transform="translate(0,0)"/>
<path d="" fill="#33322C" transform="translate(0,0)"/>
<path d="" fill="#33332B" transform="translate(0,0)"/>
<path d="" fill="#33312C" transform="translate(0,0)"/>
<path d="" fill="#31322D" transform="translate(0,0)"/>
<path d="" fill="#31312B" transform="translate(0,0)"/>
<path d="" fill="#35312B" transform="translate(0,0)"/>
<path d="" fill="#2F2F2A" transform="translate(0,0)"/>
<path d="" fill="#33342A" transform="translate(0,0)"/>
<path d="" fill="#2D2C27" transform="translate(0,0)"/>
<path d="" fill="#2E2F28" transform="translate(0,0)"/>
<path d="" fill="#30302C" transform="translate(0,0)"/>
<path d="" fill="#34332D" transform="translate(0,0)"/>
<path d="" fill="#33312B" transform="translate(0,0)"/>
<path d="" fill="#312E28" transform="translate(0,0)"/>
<path d="" fill="#323027" transform="translate(0,0)"/>
<path d="" fill="#322F2B" transform="translate(0,0)"/>
<path d="" fill="#323028" transform="translate(0,0)"/>
<path d="" fill="#2F2E29" transform="translate(0,0)"/>
<path d="" fill="#36362E" transform="translate(0,0)"/>
<path d="" fill="#32322C" transform="translate(0,0)"/>
<path d="" fill="#33332D" transform="translate(0,0)"/>
<path d="" fill="#3C3B34" transform="translate(0,0)"/>
<path d="" fill="#2E2E27" transform="translate(0,0)"/>
<path d="" fill="#3B3B37" transform="translate(0,0)"/>
<path d="" fill="#393931" transform="translate(0,0)"/>
<path d="" fill="#3C3B36" transform="translate(0,0)"/>
<path d="" fill="#383631" transform="translate(0,0)"/>
<path d="" fill="#3B3A33" transform="translate(0,0)"/>
<path d="" fill="#383731" transform="translate(0,0)"/>
<path d="" fill="#3E3C37" transform="translate(0,0)"/>
<path d="" fill="#3D3C37" transform="translate(0,0)"/>
<path d="" fill="#3F3E37" transform="translate(0,0)"/>
<path d="" fill="#3B3C35" transform="translate(0,0)"/>
<path d="" fill="#3B3B34" transform="translate(0,0)"/>
<path d="" fill="#3D3B34" transform="translate(0,0)"/>
<path d="" fill="#35362D" transform="translate(0,0)"/>
<path d="" fill="#46443B" transform="translate(0,0)"/>
<path d="" fill="#3D3D34" transform="translate(0,0)"/>
<path d="" fill="#3B3A35" transform="translate(0,0)"/>
<path d="" fill="#3E3D36" transform="translate(0,0)"/>
<path d="" fill="#3E3D36" transform="translate(0,0)"/>
<path d="" fill="#3D3D37" transform="translate(0,0)"/>
<path d="" fill="#3C3D37" transform="translate(0,0)"/>
<path d="" fill="#3B3B32" transform="translate(0,0)"/>
<path d="" fill="#3D3A35" transform="translate(0,0)"/>
<path d="" fill="#3C3C37" transform="translate(0,0)"/>
<path d="" fill="#414038" transform="translate(0,0)"/>
<path d="" fill="#44423A" transform="translate(0,0)"/>
<path d="" fill="#47453B" transform="translate(0,0)"/>
<path d="" fill="#4C4A41" transform="translate(0,0)"/>
</svg>
