<?xml version="1.0" encoding="UTF-8"?>
<svg version="1.1" xmlns="http://www.w3.org/2000/svg" width="1024" height="1024">
<path d="M0 0 C0.33 0.66 0.66 1.32 1 2 C2.62490954 2.02698189 4.24994633 2.04638757 5.875 2.0625 C7.23238281 2.07990234 7.23238281 2.07990234 8.6171875 2.09765625 C11.0168585 2.16249257 11.0168585 2.16249257 13 1 C14.85973733 1.23406305 16.71902615 1.47254502 18.57519531 1.73339844 C23.16271768 2.23778571 27.76506603 2.14331762 32.375 2.125 C33.37144531 2.12886719 34.36789062 2.13273438 35.39453125 2.13671875 C36.81958984 2.13478516 36.81958984 2.13478516 38.2734375 2.1328125 C39.13372559 2.13168457 39.99401367 2.13055664 40.88037109 2.12939453 C43.05542169 2.13557375 43.05542169 2.13557375 45 1 C47.125 1.9375 47.125 1.9375 49 3 C49.33 2.34 49.66 1.68 50 1 C50.66 1.33 51.32 1.66 52 2 C52.928125 1.814375 53.85625 1.62875 54.8125 1.4375 C58.30367922 0.95831854 59.89799055 1.44899528 63 3 C63.33 2.34 63.66 1.68 64 1 C64 1.66 64 2.32 64 3 C64.78375 2.814375 65.5675 2.62875 66.375 2.4375 C69 2 69 2 71 3 C71.33 2.34 71.66 1.68 72 1 C72.69996094 1.165 73.39992188 1.33 74.12109375 1.5 C77.17628135 2.03061603 79.9650041 2.06265478 83.0625 2 C90.18616208 1.85626911 90.18616208 1.85626911 93 3 C94.01781528 6.05344585 94.12097241 8.10283792 94.11352539 11.29760742 C94.11344986 12.37850143 94.11337433 13.45939545 94.11329651 14.57304382 C94.10813522 15.73874405 94.10297394 16.90444427 94.09765625 18.10546875 C94.09553383 19.89698112 94.09553383 19.89698112 94.09336853 21.72468567 C94.0877635 25.54564908 94.07521011 29.36655425 94.0625 33.1875 C94.05748565 35.77538978 94.05292263 38.36328048 94.04882812 40.95117188 C94.03779243 47.30080118 94.02104936 53.65039643 94 60 C95.10387054 59.8934182 95.10387054 59.8934182 96.2300415 59.78468323 C103.25334613 59.14691552 110.1847492 58.86381073 117.234375 58.90234375 C118.2384137 58.9037587 119.24245239 58.90517365 120.2769165 58.90663147 C123.43464336 58.91215908 126.59229515 58.92469719 129.75 58.9375 C131.9114573 58.94252438 134.07291572 58.94708563 136.234375 58.95117188 C141.48960827 58.96210463 146.74479877 58.97876852 152 59 C152.61032514 55.6083662 153.12592071 52.36232712 153.09765625 48.9140625 C153.09282227 47.86025391 153.09282227 47.86025391 153.08789062 46.78515625 C153.07951172 46.07230469 153.07113281 45.35945313 153.0625 44.625 C153.05573242 43.52091797 153.05573242 43.52091797 153.04882812 42.39453125 C153.03715142 40.59631842 153.01922011 38.79814803 153 37 C152.67 37 152.34 37 152 37 C152 29 152 21 152 13 C152.66 13 153.32 13 154 13 C153.67 10.03 153.34 7.06 153 4 C162.62326428 1.84485108 171.94360175 1.70676325 181.7421875 1.734375 C183.44084732 1.73302502 185.13950677 1.73108172 186.83816528 1.72857666 C190.37652307 1.72564588 193.91477913 1.72985987 197.453125 1.73925781 C201.98237039 1.75070382 206.51138004 1.74404757 211.04061699 1.73211288 C214.53907039 1.72488349 218.03746791 1.72718628 221.535923 1.73236847 C223.2064428 1.73369926 224.87696773 1.73207729 226.54748154 1.72740936 C228.87798278 1.72232052 231.20810143 1.7300849 233.53857422 1.74121094 C234.56569771 1.73513824 234.56569771 1.73513824 235.61357117 1.72894287 C239.49985776 1.7632494 242.56242768 2.13471547 246 4 C248.24340182 7.36510273 248.24575917 8.43876934 248.22946167 12.36958313 C248.22963539 14.04138641 248.22963539 14.04138641 248.22981262 15.7469635 C248.21442696 17.58211769 248.21442696 17.58211769 248.19873047 19.4543457 C248.19569412 20.74237091 248.19265778 22.03039612 248.18952942 23.35745239 C248.18044265 26.89278352 248.15821956 30.42791597 248.13258505 33.96316171 C248.11204121 36.91529991 248.09706195 39.86745696 248.08182538 42.81962651 C248.04544765 49.78665652 247.9975966 56.75354717 247.94335938 63.72045898 C247.88770304 70.903219 247.85423156 78.08584873 247.83125198 85.26878101 C247.81056236 91.43800732 247.77458198 97.60702188 247.7267276 103.776097 C247.69839997 107.45951928 247.67617104 111.1427276 247.66924667 114.82625771 C247.66087134 118.93703358 247.62070478 123.04691193 247.57763672 127.1574707 C247.57952499 128.37483414 247.58141327 129.59219757 247.58335876 130.84645081 C247.45725398 139.27434679 246.21008873 142.58773978 240.45703125 148.703125 C239.58433594 149.54359375 238.71164062 150.3840625 237.8125 151.25 C234.47848556 154.30893907 234.47848556 154.30893907 232 158 C231.34 158 230.68 158 230 158 C229.67 158.99 229.34 159.98 229 161 C227.58768349 162.17693042 226.17161078 163.34972712 224.734375 164.49609375 C222.16687767 166.72241463 220.03889911 169.2636459 217.83984375 171.84765625 C215.99780677 174.00256576 214.09761893 176.09290278 212.1875 178.1875 C208.92836216 181.85878562 205.83323194 185.63231279 202.8125 189.5 C202.01457031 190.5209375 201.21664063 191.541875 200.39453125 192.59375 C195.42222926 199.46086014 192.18812164 205.05391139 192.578125 213.66796875 C192.59780334 214.54664108 192.61748169 215.42531342 192.63775635 216.33061218 C192.72456626 219.55573449 192.86012192 222.7767443 193 226 C193.05302458 227.33707608 193.10548872 228.67417448 193.1574707 230.0112915 C193.57274355 240.55324222 194.08233262 251.08991677 194.61462402 261.62652588 C194.75151245 264.34250821 194.88671042 267.05857018 195.02148438 269.7746582 C196.71624382 303.86928741 198.63684383 337.94449127 201 372 C201.1166803 373.6869397 201.1166803 373.6869397 201.23571777 375.40795898 C202.97410113 400.37081471 205.21088405 425.25704216 208 450.125 C208.11970154 451.21760132 208.23940308 452.31020264 208.36273193 453.43591309 C209.90176811 477.74181936 209.90176811 477.74181936 222.46484375 496.9921875 C223.28082031 497.61351562 224.09679687 498.23484375 224.9375 498.875 C231.11836272 503.75705252 237.20235023 509.01468895 238.5 517.125 C237.78260654 522.68479933 235.04260112 526.38102862 232 531 C226.36654863 539.97913962 223.22851456 547.24223776 223 558 C223.33 558.66 223.66 559.32 224 560 C224.0825 560.845625 224.165 561.69125 224.25 562.5625 C227.05347751 575.41177194 238.5496366 585.65610287 247.58203125 594.55859375 C248.08025391 595.05073364 248.57847656 595.54287354 249.09179688 596.04992676 C251.59103563 598.51382153 254.10289457 600.96237681 256.63818359 603.38916016 C270.65397624 616.96356757 281.23798692 633.39463928 284 653 C284.103125 653.72574219 284.20625 654.45148437 284.3125 655.19921875 C285.10590074 667.02584852 278.59716693 677.94004204 271.1875 686.5 C270.13064339 687.67178132 269.07018358 688.84037745 268 690 C270.37534141 691.8383077 272.58808572 693.31666154 275.25 694.75 C283.43969918 699.42480683 288.78412841 705.05545027 292 714 C293.57390477 719.99072655 294.27471644 725.81888013 294 732 C294.66 732.33 295.32 732.66 296 733 C295.34 733 294.68 733 294 733 C294.33 733.99 294.66 734.98 295 736 C294.94714914 746.78157508 294.47194356 759.57011496 287 768 C248.96503858 800.58004554 175.08127134 799.36666377 127.421875 803.29492188 C126.44734375 803.37806641 125.4728125 803.46121094 124.46875 803.546875 C123.28442383 803.64500488 123.28442383 803.64500488 122.07617188 803.74511719 C119.98366339 803.9581538 119.98366339 803.9581538 117.9230957 804.52441406 C114.87645505 805.27785522 111.8048793 805.05388851 108.6875 805 C101.99644541 804.93997219 95.33725836 805.08134832 88.65185547 805.35595703 C53.28624706 806.77519992 17.73878681 806.61364389 -17.625 805.21875 C-24.56403635 804.95122089 -31.49435958 804.93404069 -38.43725586 805.03710938 C-40.29142336 805.05836292 -42.14603378 805.03461314 -44 805 C-44.33 804.67 -44.66 804.34 -45 804 C-47.69654854 803.92680379 -50.36691458 803.90757463 -53.0625 803.9375 C-54.20041992 803.94426758 -54.20041992 803.94426758 -55.36132812 803.95117188 C-57.24091871 803.9629932 -59.12046899 803.98092922 -61 804 C-61 803.34 -61 802.68 -61 802 C-61.81082031 802.01160156 -62.62164062 802.02320313 -63.45703125 802.03515625 C-69.79606343 802.08681309 -75.97485257 801.88167963 -82.27734375 801.22265625 C-86.84900159 800.8487904 -91.41691989 800.92021717 -96 801 C-96 800.34 -96 799.68 -96 799 C-97.12664062 799.04253906 -98.25328125 799.08507812 -99.4140625 799.12890625 C-107.89201859 799.13056664 -116.34563212 797.71185146 -124.74169922 796.63354492 C-127.0224525 796.3425817 -129.30409867 796.05964625 -131.5859375 795.77734375 C-132.28592865 795.68468735 -132.9859198 795.59203094 -133.7071228 795.49656677 C-136.89997494 795.10368579 -138.90192963 794.96730988 -142 796 C-142.33 795.34 -142.66 794.68 -143 794 C-145.21156358 793.41486182 -147.45399092 792.94542991 -149.703125 792.52734375 C-150.37792908 792.39936905 -151.05273315 792.27139435 -151.74798584 792.13954163 C-153.91388212 791.73068238 -156.08179662 791.33392345 -158.25 790.9375 C-159.69676495 790.66681808 -161.14338179 790.39534326 -162.58984375 790.12304688 C-165.25988701 789.62124591 -167.93074226 789.12507252 -170.60253906 788.63256836 C-172.66489814 788.24858069 -174.72191191 787.83125213 -176.76464844 787.35375977 C-179.16272898 786.798337 -179.16272898 786.798337 -182 788 C-182.99 787.34 -183.98 786.68 -185 786 C-188.92559268 784.45957756 -192.88206749 783.03982138 -196.859375 781.640625 C-216.24773265 774.76961139 -216.24773265 774.76961139 -223.140625 767.8515625 C-224.95856541 765.76640619 -224.95856541 765.76640619 -228 765 C-228.74834644 761.01147268 -229.38691044 757.01147341 -230 753 C-230.1119873 752.29810547 -230.22397461 751.59621094 -230.33935547 750.87304688 C-232.7618573 735.16286477 -233.00366032 717.47048645 -223.5390625 703.90625 C-218.70055768 697.818366 -212.3860058 693.46200193 -205 691 C-205.33 689.68 -205.66 688.36 -206 687 C-206.66 687 -207.32 687 -208 687 C-216.03718533 679.34746586 -220.02120832 668.64309768 -220.59179688 657.71557617 C-220.95589025 634.10572693 -206.15157507 616.08262684 -190.71630859 599.76464844 C-188.78651159 597.78049869 -186.81480646 595.84526134 -184.83203125 593.9140625 C-167.24737887 577.48771682 -167.24737887 577.48771682 -159.8828125 555.359375 C-160.36265953 544.1629443 -165.62510855 533.33607398 -173 525 C-173.99 524.67 -174.98 524.34 -176 524 C-175.67 523.01 -175.34 522.02 -175 521 C-174.938125 519.80375 -174.87625 518.6075 -174.8125 517.375 C-173.84566742 509.6119031 -168.82350137 504.42265632 -162.9375 499.6875 C-160.47593698 497.8325781 -158.08207541 496.04949586 -155.44140625 494.45703125 C-148.78608859 487.75911955 -148.02810526 476.82610071 -146.8125 467.875 C-146.64451904 466.69953613 -146.47653809 465.52407227 -146.3034668 464.31298828 C-145.18130034 456.16932978 -144.45209252 448.08030166 -144.17578125 439.8671875 C-144 437 -144 437 -143 436 C-142.65796622 433.51456737 -142.37655783 431.04651639 -142.1328125 428.55078125 C-142.05346466 427.76679962 -141.97411682 426.98281799 -141.8923645 426.17507935 C-141.63030743 423.55479566 -141.37676465 420.93379176 -141.125 418.3125 C-141.03762573 417.41306671 -140.95025146 416.51363342 -140.86022949 415.58694458 C-139.40987136 400.55362842 -138.24477474 385.50742678 -137.25 370.4375 C-137.18524475 369.47816559 -137.1204895 368.51883118 -137.05377197 367.53042603 C-136.28340032 356.00071183 -135.81506794 344.55722641 -136 333 C-135.34 333 -134.68 333 -134 333 C-134.01461525 331.36771454 -134.01461525 331.36771454 -134.02952576 329.70245361 C-134.09721215 318.70439095 -133.75289083 307.77709531 -133.16015625 296.796875 C-133.0723897 295.10087526 -132.98511663 293.40484991 -132.89830017 291.70880127 C-132.67074371 287.28157109 -132.43821659 282.85461884 -132.20404053 278.42773438 C-131.78769417 270.55108613 -131.37778766 262.67410765 -130.97265625 254.796875 C-130.90725584 253.52960823 -130.90725584 253.52960823 -130.84053421 252.23674011 C-130.03233976 236.49627317 -129.4416193 220.75500517 -129 205 C-129.66 204.67 -130.32 204.34 -131 204 C-131.28746094 203.10796875 -131.57492187 202.2159375 -131.87109375 201.296875 C-134.92592751 192.37549197 -142.95664664 184.71246561 -149.34765625 177.9609375 C-151 176 -151 176 -151 174 C-151.66 174 -152.32 174 -153 174 C-154.36621094 172.61035156 -154.36621094 172.61035156 -155.984375 170.640625 C-160.45413839 165.38344216 -165.33771657 160.59046642 -170.25 155.75 C-172.02838526 153.99716625 -173.80452196 152.24204748 -175.578125 150.484375 C-176.74456543 149.33533691 -176.74456543 149.33533691 -177.93457031 148.16308594 C-182.9058976 142.95670771 -182.9058976 142.95670771 -183.2578125 139.37890625 C-183.21398437 138.44949219 -183.17015625 137.52007812 -183.125 136.5625 C-182.969587 132.83776843 -183.14217348 129.63586472 -184 126 C-183.34 126 -182.68 126 -182 126 C-182.03029297 124.99960693 -182.06058594 123.99921387 -182.09179688 122.96850586 C-182.23211744 118.29162431 -182.36704271 113.61459624 -182.5 108.9375 C-182.53601318 107.67705368 -182.53601318 107.67705368 -182.57275391 106.3911438 C-182.88948642 95.14269575 -183.11292964 83.90796632 -182.96289062 72.65405273 C-182.95032227 71.40023804 -182.95032227 71.40023804 -182.9375 70.12109375 C-182.92589844 69.4139624 -182.91429687 68.70683105 -182.90234375 67.97827148 C-182.93792453 65.95567165 -182.93792453 65.95567165 -183.53125 63.87524414 C-184 62 -184 62 -183.5625 59.875 C-182.72481952 55.59352197 -182.9336653 51.34860794 -183 47 C-183 45.22001351 -182.9915851 43.43994186 -182.96484375 41.66015625 C-182.95582031 40.80292969 -182.94679688 39.94570312 -182.9375 39.0625 C-182.92589844 38.20785156 -182.91429687 37.35320312 -182.90234375 36.47265625 C-182.90726449 34.0757096 -182.90726449 34.0757096 -183.49609375 32.125 C-185.5685646 23.38527796 -184.02687112 12.8200894 -183 4 C-174.38267356 2.26725213 -166.2129165 1.81431978 -157.44995117 1.98632812 C-156.67111572 1.99986328 -155.89228027 2.01339844 -155.08984375 2.02734375 C-154.39753662 2.04531006 -153.70522949 2.06327637 -152.99194336 2.08178711 C-150.87122531 1.99471265 -149.04998188 1.5287518 -147 1 C-146.01 1 -145.02 1 -144 1 C-144 1.66 -144 2.32 -144 3 C-143.23171875 2.835 -142.4634375 2.67 -141.671875 2.5 C-136.84263613 1.84240152 -132.11593266 1.93343457 -127.25 2 C-125.35943144 2.02544507 -123.46879708 2.04649995 -121.578125 2.0625 C-120.74700195 2.07410156 -119.91587891 2.08570313 -119.05957031 2.09765625 C-116.93510779 2.13603277 -116.93510779 2.13603277 -115 1 C-115 1.66 -115 2.32 -115 3 C-114.37432129 2.99476318 -113.74864258 2.98952637 -113.10400391 2.98413086 C-110.27767943 2.96338382 -107.45137095 2.95034714 -104.625 2.9375 C-103.14773438 2.92493164 -103.14773438 2.92493164 -101.640625 2.91210938 C-100.22910156 2.90727539 -100.22910156 2.90727539 -98.7890625 2.90234375 C-97.48509521 2.89448853 -97.48509521 2.89448853 -96.15478516 2.88647461 C-94 3 -94 3 -92 4 C-91.03521491 6.89435526 -90.88347719 8.67875844 -90.90234375 11.68334961 C-90.90729858 13.10513771 -90.90729858 13.10513771 -90.91235352 14.5556488 C-90.92065186 15.57755814 -90.9289502 16.59946747 -90.9375 17.65234375 C-90.94317993 19.22986168 -90.94317993 19.22986168 -90.94897461 20.83924866 C-90.96534875 25.3446218 -90.99347396 29.84990485 -91.02050781 34.35522461 C-91.03856439 37.64176008 -91.05067732 40.92828091 -91.0625 44.21484375 C-91.07079834 45.23472885 -91.07909668 46.25461395 -91.08764648 47.30540466 C-91.09260132 48.73192101 -91.09260132 48.73192101 -91.09765625 50.18725586 C-91.10289307 51.02203964 -91.10812988 51.85682343 -91.11352539 52.71690369 C-91.00280768 54.94353506 -90.62073113 56.86443406 -90 59 C-89.32205887 58.99777939 -88.64411774 58.99555878 -87.94563293 58.99327087 C-80.889135 58.97114602 -73.83264692 58.95606325 -66.77612305 58.94506836 C-64.14265543 58.94003987 -61.50919061 58.93321625 -58.87573242 58.92456055 C-55.09032502 58.91243012 -51.30495454 58.90675682 -47.51953125 58.90234375 C-46.34227982 58.89718246 -45.16502838 58.89202118 -43.95210266 58.88670349 C-42.85133896 58.88662796 -41.75057526 58.88655243 -40.61645508 58.88647461 C-39.65048904 58.884254 -38.68452301 58.88203339 -37.68928528 58.87974548 C-35.0281485 58.99874131 -32.59273509 59.40531032 -30 60 C-30 59.34 -30 58.68 -30 58 C-30.66 57.67 -31.32 57.34 -32 57 C-31.34 57 -30.68 57 -30 57 C-30.32613281 56.46761719 -30.65226563 55.93523437 -30.98828125 55.38671875 C-32.25644217 52.39503412 -32.23090468 50.05206758 -32.1875 46.8125 C-32.17783203 45.21341797 -32.17783203 45.21341797 -32.16796875 43.58203125 C-32 41 -32 41 -31 40 C-31.33 40 -31.66 40 -32 40 C-32.05437607 38.41705218 -32.09296271 36.83355744 -32.125 35.25 C-32.14820313 34.36828125 -32.17140625 33.4865625 -32.1953125 32.578125 C-31.99139502 29.8864142 -31.36551721 28.30095026 -30 26 C-30.66 25.67 -31.32 25.34 -32 25 C-31.34 25 -30.68 25 -30 25 C-30 22.69 -30 20.38 -30 18 C-30.66 17.67 -31.32 17.34 -32 17 C-31.34 17 -30.68 17 -30 17 C-30 12.71 -30 8.42 -30 4 C-24.80579866 2.26859955 -21.21865817 1.77477524 -15.9375 1.9375 C-11.49227507 2.04894018 -7.35396139 2.03057068 -3 1 C-2.34 1 -1.68 1 -1 1 C-0.67 0.67 -0.34 0.34 0 0 Z M-31 30 C-31 32.31 -31 34.62 -31 37 C-30.67 37 -30.34 37 -30 37 C-30 34.69 -30 32.38 -30 30 C-30.33 30 -30.66 30 -31 30 Z M-31 42 C-30 45 -30 45 -30 45 Z M-31 46 C-30 49 -30 49 -30 49 Z " fill="#151513" transform="translate(480,155)"/>
<path d="M0 0 C1.74267403 0.08940605 1.74267403 0.08940605 3.52055359 0.18061829 C35.77561499 1.80473256 67.94986636 2.28779139 100.24212646 2.19561768 C104.99298777 2.18481602 109.74382039 2.1851907 114.49469185 2.18563652 C146.67318491 2.18482489 178.83059555 1.75391477 211 1 C211.31590088 2.11044678 211.63180176 3.22089355 211.95727539 4.36499023 C216.13645386 18.93389405 225.90846574 29.56762164 237.0703125 39.4140625 C254.4959944 54.79513106 254.4959944 54.79513106 255.17578125 63.1640625 C254.82246694 67.35672569 253.78160711 70.85947584 251 74 C186.12428831 106.43785585 65.03080542 89.0298313 -4.83447266 81.34375 C-7.71490219 81.03095926 -10.5962131 80.74359439 -13.48046875 80.46875 C-34.95224996 78.37724503 -34.95224996 78.37724503 -41.125 73.5625 C-45.02854996 68.22764838 -45.02854996 68.22764838 -44.9375 64.3125 C-41.63776674 52.65344247 -32.78148904 44.13935096 -23.765625 36.5078125 C-21.37373894 34.46518414 -19.19595506 32.25085394 -17 30 C-16.3709375 29.40445313 -15.741875 28.80890625 -15.09375 28.1953125 C-8.17810057 21.56351436 -4.43185083 16.03287212 -1.859375 6.7265625 C-1.50842773 5.46666504 -1.15748047 4.20676758 -0.79589844 2.90869141 C-0.53325195 1.94882324 -0.27060547 0.98895508 0 0 Z " fill="#272523" transform="translate(406,734)"/>
<path d="M0 0 C3.62928623 1.26806387 5.9505705 2.63294848 8.6875 5.3125 C27.97544078 22.99042903 52.81195444 38.9606964 79.0625 42.6875 C79.92810547 42.81705078 80.79371094 42.94660156 81.68554688 43.08007812 C83.78930608 43.39389856 85.89451257 43.69799214 88 44 C88.3905383 95.35800087 88.3905383 95.35800087 87.1875 117.375 C87.13496063 118.42959412 87.13496063 118.42959412 87.08135986 119.50549316 C85.62213893 147.81991101 75.88233884 168.0489384 55 187 C51.42344091 190.12514872 47.75107991 193.08770324 44 196 C42.93713548 196.84198798 41.87464955 197.68445404 40.8125 198.52734375 C34.13167215 203.78970741 27.25958061 208.56242399 20 213 C14.09386199 216.61711891 8.74912066 219.94448446 4 225 C3.34 225 2.68 225 2 225 C1.67 225.66 1.34 226.32 1 227 C0.45085937 226.27296875 0.45085937 226.27296875 -0.109375 225.53125 C-4.42215089 220.1916227 -9.13130001 216.66998982 -14.8984375 212.9921875 C-18.74478879 210.52160921 -22.40396185 207.84101803 -26.08203125 205.12890625 C-28.19060762 203.59052055 -30.30718454 202.07998022 -32.44921875 200.58984375 C-39.76031388 195.4901415 -46.54981542 190.18320675 -53 184 C-53.81984375 183.24332031 -54.6396875 182.48664063 -55.484375 181.70703125 C-81.46912732 156.97309776 -82.82503102 126.99860525 -83.84765625 92.95703125 C-84.23600653 76.31062707 -84.07709743 59.64948625 -84 43 C-83.43767166 42.92319504 -82.87534332 42.84639008 -82.29597473 42.76725769 C-79.70269153 42.40855675 -77.11117334 42.03833353 -74.51953125 41.66796875 C-73.63527466 41.54740112 -72.75101807 41.4268335 -71.83996582 41.3026123 C-44.67567645 37.37200775 -18.97715294 18.97715294 0 0 Z M-3.75 24.25 C-6.60109361 26.88209656 -9.33017696 29.38020619 -12.625 31.4375 C-13.40875 31.953125 -14.1925 32.46875 -15 33 C-15 33.66 -15 34.32 -15 35 C-15.69738281 35.25136719 -16.39476562 35.50273437 -17.11328125 35.76171875 C-20.37482425 37.16078388 -23.19464305 38.90596628 -26.1875 40.8125 C-38.75614186 48.62791003 -51.64885355 53.4481737 -66 57 C-66.0935409 65.94630665 -66.16418423 74.89243963 -66.20724869 83.83913231 C-66.22793922 87.99547225 -66.25590773 92.1514726 -66.30175781 96.30761719 C-66.61129304 125.13738997 -65.94134898 148.65527772 -44.6875 170.5625 C-42.79784402 172.52604556 -42.79784402 172.52604556 -41 174 C-40.34 174 -39.68 174 -39 174 C-39 174.66 -39 175.32 -39 176 C-37.24379357 177.50575612 -35.41507854 178.92703429 -33.5625 180.3125 C-32.36834607 181.21204909 -31.17434334 182.11179895 -29.98046875 183.01171875 C-29.33770996 183.49302246 -28.69495117 183.97432617 -28.03271484 184.47021484 C-25.19259214 186.60764084 -22.37764871 188.77722476 -19.5612793 190.94580078 C-17.39311086 192.61108972 -15.21707385 194.26558183 -13.0390625 195.91796875 C-10.549903 197.80732375 -8.08634975 199.72085162 -5.6484375 201.67578125 C-4.69195312 202.42214844 -3.73546875 203.16851563 -2.75 203.9375 C-1.94046875 204.58589844 -1.1309375 205.23429688 -0.296875 205.90234375 C1.95316739 207.26011895 1.95316739 207.26011895 4.40625 206.515625 C7.66466172 204.61161333 10.43579235 202.3027941 13.25 199.8125 C14.40767407 198.80983376 15.56653076 197.80853135 16.7265625 196.80859375 C17.28762695 196.32374512 17.84869141 195.83889648 18.42675781 195.33935547 C21.13150838 193.03670779 23.95163152 190.89137182 26.76953125 188.73046875 C30.25747222 186.02441297 33.66413974 183.22198395 37.0703125 180.4140625 C39.16194967 178.69055348 41.26027256 176.97800276 43.3671875 175.2734375 C44.47413463 174.37000763 45.58090938 173.46636651 46.6875 172.5625 C47.70199219 171.73878906 48.71648437 170.91507813 49.76171875 170.06640625 C50.86966797 169.04353516 50.86966797 169.04353516 52 168 C52 167.34 52 166.68 52 166 C52.66 166 53.32 166 54 166 C68.84057104 148.52538821 70.18262261 128.90738339 70.09765625 106.8046875 C70.09578696 105.36166432 70.09436548 103.9186405 70.09336853 102.47561646 C70.08958356 98.71100048 70.07978849 94.94642421 70.06866455 91.18182373 C70.05836313 87.32695045 70.05385236 83.47207063 70.04882812 79.6171875 C70.03816187 72.07810707 70.02113486 64.53905913 70 57 C68.86344971 56.74532959 67.72689941 56.49065918 66.5559082 56.22827148 C65.03330069 55.88033073 63.51076202 55.53208867 61.98828125 55.18359375 C60.87024109 54.93434143 60.87024109 54.93434143 59.72961426 54.68005371 C39.93354185 50.11669084 20.66438905 37.90095014 6 24 C5.505 23.01 5.505 23.01 5 22 C4.34 22 3.68 22 3 22 C3 21.34 3 20.68 3 20 C-0.17389557 20 -1.48876324 22.1258079 -3.75 24.25 Z " fill="#262422" transform="translate(510,399)"/>
<path d="M0 0 C10.1928685 -0.23136398 20.23780491 0.43396904 30.39624023 1.16830444 C87.21370701 5.1953524 144.12068068 5.44386468 201.04971313 5.01436615 C202.84652977 5.00113049 204.64335743 4.98941632 206.44018555 4.97784424 C232.40691079 4.80634643 258.24939558 3.20935913 284.14331055 1.37207031 C285.4059523 1.28266678 286.66859406 1.19326324 287.96949768 1.10115051 C290.34829659 0.93146915 292.72692122 0.75931985 295.10533142 0.58427429 C306.84127518 -0.25880782 306.84127518 -0.25880782 311 0 C311.66 0.66 312.32 1.32 313 2 C312.9375 4.875 312.9375 4.875 312 8 C281.56013615 36.57843332 203.26395936 26.30540242 164.93988037 26.19561768 C160.18865645 26.18479855 155.43746094 26.18519715 150.68622684 26.18561649 C86.39682205 26.18435138 86.39682205 26.18435138 58.8125 23.6875 C58.09015167 23.6244165 57.36780334 23.56133301 56.62356567 23.49633789 C44.89432872 22.45964794 33.43549545 20.85597145 22 18 C20.98808594 17.76539063 19.97617187 17.53078125 18.93359375 17.2890625 C11.97544422 15.48313056 5.11898352 12.11898352 0 7 C-0.125 3.375 -0.125 3.375 0 0 Z " fill="#262523" transform="translate(356,665)"/>
<path d="M0 0 C8.51606865 -0.10666048 16.98469656 -0.01111196 25.48974609 0.4309082 C64.67214121 2.43056177 103.83983632 2.27255205 143.06158614 2.20059502 C150.70651805 2.18723607 158.35142127 2.18489748 165.99636328 2.1855461 C175.3301885 2.1862299 184.66399735 2.17925762 193.99781752 2.1700995 C196.61414246 2.16800864 199.23046462 2.16726409 201.84679031 2.16686058 C227.80902302 2.15911287 253.79045479 2.03195038 279.69921875 0.1875 C285.13231561 -0.12112562 290.56049847 -0.08382793 296 0 C296.1138742 4.10516488 296.18425882 6.98916992 293.66015625 10.41796875 C285.62942073 18.07078731 275.39909266 21.15986251 264.57739258 21.6262207 C263.74296568 21.66736937 262.90853878 21.70851803 262.04882622 21.75091362 C259.22695583 21.88381478 256.4047651 22.0002566 253.58203125 22.11328125 C252.0776094 22.17627128 252.0776094 22.17627128 250.54279518 22.24053383 C220.66444122 23.45666747 190.75828116 23.26584709 160.86142552 23.20059693 C155.28789977 23.18898872 149.71440635 23.18485699 144.14086914 23.18530273 C114.54898276 23.18728094 84.95486154 23.1798348 55.36652565 22.668787 C53.25554595 22.63242086 51.14451973 22.5986425 49.03345299 22.56773949 C22.60188957 22.16354269 22.60188957 22.16354269 12.0625 16.125 C11.11407227 15.61646484 11.11407227 15.61646484 10.14648438 15.09765625 C6.59101135 13.13524406 3.54743481 11.18584304 1 8 C0.22870644 5.29058418 0.18916678 2.83750169 0 0 Z " fill="#252422" transform="translate(365,322)"/>
<path d="M0 0 C10.25684986 -0.38950063 20.32141935 0.68220512 30.51611328 1.67041016 C34.42475978 2.040184 38.33494699 2.38834308 42.24609375 2.73046875 C43.33289429 2.82555473 43.33289429 2.82555473 44.44165039 2.92256165 C47.34112093 3.17583371 50.240646 3.42847618 53.14019775 3.68081665 C55.18858386 3.85937551 57.23688086 4.03892591 59.28515625 4.21875 C59.98115936 4.2794014 60.67716248 4.3400528 61.39425659 4.40254211 C65.17217293 4.73554741 68.94622256 5.09239793 72.71875 5.48193359 C87.74616028 7.01874679 102.78797216 7.9063239 117.875 8.625 C118.55195671 8.65755764 119.22891342 8.69011528 119.92638397 8.72365952 C169.86930079 11.10978834 220.09404554 11.20586109 270 8 C271.64032196 7.89464935 271.64032196 7.89464935 273.31378174 7.78717041 C299.33672427 6.09790187 325.34718738 4.26404733 351.25976562 1.29931641 C355.83370818 0.79970365 360.41616253 0.39695898 365 0 C364.65307617 1.90454102 364.65307617 1.90454102 364 4 C335.78134501 21.59727927 296.2489388 24.43140831 264.00836182 26.84570312 C262.08735567 26.99328871 260.16741282 27.15452394 258.24755859 27.31640625 C212.27674064 31.14579296 164.97656587 30.31257707 119 27 C118.24382385 26.94672546 117.48764771 26.89345093 116.70855713 26.83856201 C27.23823649 20.50850547 27.23823649 20.50850547 1 3 C0.67 2.01 0.34 1.02 0 0 Z " fill="#272624" transform="translate(329,864)"/>
<path d="M0 0 C1.16144783 -0.00262848 1.16144783 -0.00262848 2.34635925 -0.00531006 C4.90809363 -0.00971428 7.46975905 -0.00679531 10.03149414 -0.00341797 C11.81124383 -0.00409149 13.59099343 -0.00506191 15.3707428 -0.00631714 C19.102314 -0.00779223 22.83386127 -0.00564585 26.56542969 -0.00097656 C31.34828824 0.00471647 36.13109062 0.00144322 40.91394711 -0.00454903 C44.58993452 -0.00816324 48.26590863 -0.00701201 51.94189644 -0.00442123 C53.7053484 -0.00375414 55.46880157 -0.00457282 57.23225212 -0.00690079 C59.69783601 -0.00944093 62.16332911 -0.00556726 64.62890625 0 C65.35787109 -0.00202423 66.08683594 -0.00404846 66.83789062 -0.00613403 C73.80931229 0.02301963 73.80931229 0.02301963 76.37915039 1.12939453 C77.40721752 4.21359593 77.50245013 6.3083719 77.49940491 9.53935242 C77.5014669 11.22416214 77.5014669 11.22416214 77.50357056 12.94300842 C77.49817764 14.79230202 77.49817764 14.79230202 77.49267578 16.67895508 C77.49282181 17.97661804 77.49296783 19.27428101 77.49311829 20.61126709 C77.49340553 24.17090708 77.48752058 27.73051346 77.48054433 31.29014564 C77.47429865 35.00973831 77.47370603 38.72933173 77.47251892 42.44892883 C77.46940919 49.49307226 77.46120062 56.53720019 77.45116943 63.5813368 C77.43999718 71.60059869 77.43449504 79.61986131 77.429474 87.63912904 C77.41901773 104.13589328 77.4014252 120.63264193 77.37915039 137.12939453 C76.71915039 137.45939453 76.05915039 137.78939453 75.37915039 138.12939453 C75.37915039 93.57939453 75.37915039 49.02939453 75.37915039 3.12939453 C46.66915039 3.12939453 17.95915039 3.12939453 -11.62084961 3.12939453 C-9.48586482 -1.14057504 -4.17879127 -0.01157177 0 0 Z " fill="#050504" transform="translate(648.620849609375,156.87060546875)"/>
<path d="M0 0 C4.68292681 0.46298896 9.36579118 0.40385382 14.06738281 0.38500977 C15.5552832 0.39081055 15.5552832 0.39081055 17.07324219 0.39672852 C18.01876953 0.39543945 18.96429687 0.39415039 19.93847656 0.39282227 C20.7923999 0.39169434 21.64632324 0.39056641 22.52612305 0.3894043 C24.68765525 0.39423226 24.68765525 0.39423226 26.62988281 -0.73999023 C28.75488281 0.19750977 28.75488281 0.19750977 30.62988281 1.26000977 C30.95988281 0.60000977 31.28988281 -0.05999023 31.62988281 -0.73999023 C32.28988281 -0.40999023 32.94988281 -0.07999023 33.62988281 0.26000977 C35.02207031 -0.01842773 35.02207031 -0.01842773 36.44238281 -0.30249023 C39.93356203 -0.7816717 41.52787337 -0.29099496 44.62988281 1.26000977 C44.95988281 0.60000977 45.28988281 -0.05999023 45.62988281 -0.73999023 C45.62988281 -0.07999023 45.62988281 0.58000977 45.62988281 1.26000977 C46.41363281 1.07438477 47.19738281 0.88875977 48.00488281 0.69750977 C50.62988281 0.26000977 50.62988281 0.26000977 52.62988281 1.26000977 C52.95988281 0.60000977 53.28988281 -0.05999023 53.62988281 -0.73999023 C54.32984375 -0.57499023 55.02980469 -0.40999023 55.75097656 -0.23999023 C58.80616416 0.29062579 61.59488691 0.32266455 64.69238281 0.26000977 C68.39061445 0.18539223 70.99336402 0.35088007 74.62988281 1.26000977 C74.62988281 20.40000977 74.62988281 39.54000977 74.62988281 59.26000977 C73.96988281 58.93000977 73.30988281 58.60000977 72.62988281 58.26000977 C72.62988281 40.44000977 72.62988281 22.62000977 72.62988281 4.26000977 C42.59988281 4.26000977 12.56988281 4.26000977 -18.37011719 4.26000977 C-18.37011719 3.93000977 -18.37011719 3.60000977 -18.37011719 3.26000977 C-16.79230469 2.82688477 -16.79230469 2.82688477 -15.18261719 2.38500977 C-11.53821699 1.43103941 -11.53821699 1.43103941 -8.99511719 0.07250977 C-5.80145788 -0.91600383 -3.27056129 -0.40337802 0 0 Z " fill="#0E0D0C" transform="translate(498.3701171875,156.739990234375)"/>
<path d="M0 0 C0.66 0 1.32 0 2 0 C3.26942299 2.53884599 3.12701165 4.31050291 3.12939453 7.15234375 C3.13254669 8.22685791 3.13569885 9.30137207 3.13894653 10.40844727 C3.1369223 11.57303467 3.13489807 12.73762207 3.1328125 13.9375 C3.13376923 15.12851318 3.13472595 16.31952637 3.13571167 17.54663086 C3.13639315 20.06852267 3.1345411 22.59041623 3.13037109 25.11230469 C3.12502243 28.98376384 3.13031721 32.85510698 3.13671875 36.7265625 C3.13605796 39.17187526 3.13477679 41.61718794 3.1328125 44.0625 C3.13483673 45.2270874 3.13686096 46.3916748 3.13894653 47.59155273 C3.13421829 49.20332397 3.13421829 49.20332397 3.12939453 50.84765625 C3.12859894 51.79648682 3.12780334 52.74531738 3.12698364 53.72290039 C3 56 3 56 2 58 C-5.93613787 58.02312764 -13.87226176 58.04091723 -21.80842495 58.05181217 C-25.49314498 58.05704008 -29.17784203 58.06413605 -32.86254883 58.07543945 C-36.41570831 58.08627162 -39.96884563 58.09227753 -43.52202034 58.09487724 C-44.88045666 58.0967309 -46.23889171 58.10035038 -47.59731865 58.10573006 C-49.49382223 58.11294475 -51.39034793 58.11340809 -53.28686523 58.11352539 C-54.90902199 58.11685631 -54.90902199 58.11685631 -56.56394958 58.12025452 C-59 58 -59 58 -60 57 C-60.0935919 55.28134591 -60.11744611 53.55884256 -60.11352539 51.83764648 C-60.11344986 50.73658066 -60.11337433 49.63551483 -60.11329651 48.50108337 C-60.10813522 47.3031868 -60.10297394 46.10529022 -60.09765625 44.87109375 C-60.0962413 43.65172623 -60.09482635 42.4323587 -60.09336853 41.17604065 C-60.08774967 37.2631693 -60.07519396 33.35035419 -60.0625 29.4375 C-60.05748743 26.79231853 -60.0529241 24.14713617 -60.04882812 21.50195312 C-60.03777411 15.00128274 -60.02101764 8.50064539 -60 2 C-59.67 2 -59.34 2 -59 2 C-59 19.82 -59 37.64 -59 56 C-53.06 55.505 -53.06 55.505 -47 55 C-43.24775585 54.92372821 -39.51640631 54.8818421 -35.765625 54.90234375 C-34.25956696 54.90446617 -34.25956696 54.90446617 -32.7230835 54.90663147 C-29.56535664 54.91215908 -26.40770485 54.92469719 -23.25 54.9375 C-21.0885427 54.94252438 -18.92708428 54.94708563 -16.765625 54.95117188 C-11.51039173 54.96210463 -6.25520123 54.97876852 -1 55 C-0.38967486 51.6083662 0.12592071 48.36232712 0.09765625 44.9140625 C0.09443359 44.21152344 0.09121094 43.50898438 0.08789062 42.78515625 C0.07951172 42.07230469 0.07113281 41.35945313 0.0625 40.625 C0.05798828 39.88894531 0.05347656 39.15289062 0.04882812 38.39453125 C0.03715142 36.59631842 0.01922011 34.79814803 0 33 C-0.33 33 -0.66 33 -1 33 C-1 25 -1 17 -1 9 C-0.34 9 0.32 9 1 9 C0.505 4.545 0.505 4.545 0 0 Z " fill="#1E1D1A" transform="translate(633,159)"/>
<path d="M0 0 C0.495 0.99 0.495 0.99 1 2 C1.76828125 1.835 2.5365625 1.67 3.328125 1.5 C8.15736387 0.84240152 12.88406734 0.93343457 17.75 1 C19.64056856 1.02544507 21.53120292 1.04649995 23.421875 1.0625 C24.25299805 1.07410156 25.08412109 1.08570313 25.94042969 1.09765625 C28.06489221 1.13603277 28.06489221 1.13603277 30 0 C30 0.66 30 1.32 30 2 C30.62567871 1.99476318 31.25135742 1.98952637 31.89599609 1.98413086 C34.72232057 1.96338382 37.54862905 1.95034714 40.375 1.9375 C41.35984375 1.92912109 42.3446875 1.92074219 43.359375 1.91210938 C44.77089844 1.90727539 44.77089844 1.90727539 46.2109375 1.90234375 C47.51490479 1.89448853 47.51490479 1.89448853 48.84521484 1.88647461 C51 2 51 2 53 3 C52.67 3.66 52.34 4.32 52 5 C22.96 5 -6.08 5 -36 5 C-35.67 4.01 -35.34 3.02 -35 2 C-26.17101197 1.36531023 -17.43354166 0.88464659 -8.57421875 1.0625 C-5.51631855 0.9882566 -3.08719175 0 0 0 Z " fill="#0C0C0B" transform="translate(335,156)"/>
<path d="M0 0 C0.33 0 0.66 0 1 0 C1.04628946 7.91885578 1.08185182 15.83765526 1.10362434 23.75661278 C1.11407274 27.4334935 1.12825102 31.11028183 1.15087891 34.78710938 C1.17256991 38.33379655 1.18456067 41.88039472 1.18975449 45.4271431 C1.193457 46.78197252 1.20068689 48.13679694 1.21146011 49.49158859 C1.22592448 51.38545757 1.22681649 53.27941564 1.22705078 55.17333984 C1.231492 56.25255707 1.23593323 57.33177429 1.24050903 58.44369507 C1 61 1 61 -1 63 C-2.19388403 24.14796541 -2.19388403 24.14796541 -2 7 C-1.34 7 -0.68 7 0 7 C0 4.69 0 2.38 0 0 Z " fill="#070606" transform="translate(299,217)"/>
<path d="M0 0 C1.98 1.65 3.96 3.3 6 5 C6.33 4.34 6.66 3.68 7 3 C9 5 9 5 10 7 C12.12576782 7.46651207 12.12576782 7.46651207 14.5625 7.625 C15.38878906 7.69976563 16.21507812 7.77453125 17.06640625 7.8515625 C17.70449219 7.90054688 18.34257812 7.94953125 19 8 C19.66 6.02 20.32 4.04 21 2 C22.04449911 5.13349732 21.93423645 5.98968256 21 9 C21.99 8.67 22.98 8.34 24 8 C25.83658197 8.06085061 27.67143277 8.19312638 29.5 8.375 C30.4590625 8.46523438 31.418125 8.55546875 32.40625 8.6484375 C35 9 35 9 38 10 C38 8.35 38 6.7 38 5 C38.66 5.33 39.32 5.66 40 6 C40 7.32 40 8.64 40 10 C43.63 10.66 47.26 11.32 51 12 C51 12.33 51 12.66 51 13 C8.50549043 10.80001177 8.50549043 10.80001177 1.75 4.4375 C0 2 0 2 0 0 Z " fill="#2D2B2A" transform="translate(363,803)"/>
<path d="M0 0 C0.33 0 0.66 0 1 0 C1.02529479 6.79930835 1.04284349 13.59860463 1.05493164 20.39794922 C1.05996943 22.71240696 1.06679981 25.0268615 1.07543945 27.34130859 C1.08752924 30.6624429 1.09323375 33.98353525 1.09765625 37.3046875 C1.10281754 38.34430634 1.10797882 39.38392517 1.11329651 40.45504761 C1.11337204 41.41589264 1.11344757 42.37673767 1.11352539 43.36669922 C1.115746 44.21497284 1.11796661 45.06324646 1.12025452 45.93722534 C1 48 1 48 0 50 C-0.66 49.67 -1.32 49.34 -2 49 C-2 44.66666667 -2 40.33333333 -2 36 C-2.01160156 35.30390625 -2.02320313 34.6078125 -2.03515625 33.890625 C-2.11146434 26.52144413 -1.86105586 19.17498952 -1.5625 11.8125 C-1.52326416 10.7719043 -1.48402832 9.73130859 -1.44360352 8.65917969 C-1.38064087 7.19786621 -1.38064087 7.19786621 -1.31640625 5.70703125 C-1.27974854 4.8250708 -1.24309082 3.94311035 -1.20532227 3.03442383 C-1 1 -1 1 0 0 Z " fill="#080807" transform="translate(299,163)"/>
<path d="M0 0 C0.33 0 0.66 0 1 0 C1.94242818 9.03721311 2.11157151 17.92551747 2 27 C2.99 27 3.98 27 5 27 C5 28.98 5 30.96 5 33 C4.01 33.495 4.01 33.495 3 34 C2.67 42.58 2.34 51.16 2 60 C1.67 60 1.34 60 1 60 C0.13364134 46.42248956 -0.12680684 32.91521584 -0.0625 19.3125 C-0.05746528 17.42382934 -0.05290592 15.53515735 -0.04882812 13.64648438 C-0.03800096 9.09762234 -0.02084999 4.54882668 0 0 Z " fill="#2C2A29" transform="translate(426,443)"/>
<path d="M0 0 C0.33 0.66 0.66 1.32 1 2 C2.98 2 4.96 2 7 2 C6.67 2.99 6.34 3.98 6 5 C-3.9 5.33 -13.8 5.66 -24 6 C-24 4.68 -24 3.36 -24 2 C-22.35451172 2.01740234 -22.35451172 2.01740234 -20.67578125 2.03515625 C-19.22135588 2.04453964 -17.76692865 2.05363925 -16.3125 2.0625 C-15.59126953 2.07087891 -14.87003906 2.07925781 -14.12695312 2.08789062 C-10.27463228 2.10548113 -6.74876675 1.88329012 -3 1 C-2.34 1 -1.68 1 -1 1 C-0.67 0.67 -0.34 0.34 0 0 Z " fill="#1C1A18" transform="translate(480,155)"/>
<path d="M0 0 C0.66 0.33 1.32 0.66 2 1 C2 1.66 2 2.32 2 3 C5.465 2.505 5.465 2.505 9 2 C9 2.66 9 3.32 9 4 C19.56 4 30.12 4 41 4 C41 4.33 41 4.66 41 5 C34.47535053 5.02570756 27.95071447 5.04301396 21.42602539 5.05493164 C19.21410636 5.05990874 17.00219054 5.06669282 14.7902832 5.07543945 C1.81956104 5.12538334 -11.06318829 4.9872625 -24 4 C-24 3.67 -24 3.34 -24 3 C-17.4 3 -10.8 3 -4 3 C-3.67 2.34 -3.34 1.68 -3 1 C-2.01 0.67 -1.02 0.34 0 0 Z " fill="#2F2E2C" transform="translate(496,888)"/>
<path d="M0 0 C14.19 0 28.38 0 43 0 C43 0.33 43 0.66 43 1 C30.625 1.495 30.625 1.495 18 2 C18 2.66 18 3.32 18 4 C16 6 16 6 14 7 C13.67 7.66 13.34 8.32 13 9 C11 9 11 9 8 8 C8.33 7.34 8.66 6.68 9 6 C9.66 6 10.32 6 11 6 C10.67 4.68 10.34 3.36 10 2 C6.7 1.67 3.4 1.34 0 1 C0 0.67 0 0.34 0 0 Z M12 9 C12.33 9.66 12.66 10.32 13 11 C12.34 10.67 11.68 10.34 11 10 C11.33 9.67 11.66 9.34 12 9 Z " fill="#2B2A28" transform="translate(556,325)"/>
<path d="M0 0 C1.32 0.33 2.64 0.66 4 1 C3.67 2.32 3.34 3.64 3 5 C6.82517513 7.39073445 10.59665524 7.55966552 15 8 C15 8.33 15 8.66 15 9 C9.68942541 9.8886833 4.60114055 10.13355881 -0.77734375 10.09765625 C-1.58869278 10.0962413 -2.40004181 10.09482635 -3.23597717 10.09336853 C-5.80319047 10.08781357 -8.37031348 10.07526967 -10.9375 10.0625 C-12.68814977 10.05747917 -14.43880093 10.05291729 -16.18945312 10.04882812 C-20.4596697 10.03785893 -24.72981959 10.02062582 -29 10 C-29 9.67 -29 9.34 -29 9 C-23.18363919 7.9815401 -17.58239816 7.91425603 -11.6875 8 C-9.89979931 8.0254477 -8.11202897 8.0465017 -6.32421875 8.0625 C-5.54135498 8.07410156 -4.75849121 8.08570313 -3.9519043 8.09765625 C-1.91912422 8.12704607 -1.91912422 8.12704607 0 7 C-0.185625 6.21625 -0.37125 5.4325 -0.5625 4.625 C-1 2 -1 2 0 0 Z " fill="#2C2B29" transform="translate(563,681)"/>
<path d="M0 0 C0.99 0.33 1.98 0.66 3 1 C4.22899346 7.06815522 5.27560214 12.79895188 5 19 C5.66 19.33 6.32 19.66 7 20 C6.34 20 5.68 20 5 20 C5.33 20.99 5.66 21.98 6 23 C5.75653872 25.40383032 5.43482615 27.80023235 5.0625 30.1875 C4.86785156 31.45980469 4.67320312 32.73210938 4.47265625 34.04296875 C4.31667969 35.01878906 4.16070313 35.99460937 4 37 C3.67 37 3.34 37 3 37 C2.98018066 36.35562988 2.96036133 35.71125977 2.93994141 35.04736328 C2.84354411 32.07289417 2.73433899 29.09902043 2.625 26.125 C2.5940625 25.11179687 2.563125 24.09859375 2.53125 23.0546875 C2.30830656 17.25815818 1.73313615 11.80565941 0.41552734 6.15185547 C0 4 0 4 0 0 Z " fill="#100F0E" transform="translate(769,868)"/>
<path d="M0 0 C10.3905794 -0.12288464 20.63946908 0.16639406 31 1 C31 1.33 31 1.66 31 2 C23.17927953 3.5960654 15.7763718 2.22518358 8 1 C8 1.99 8 2.98 8 4 C9.65 3.67 11.3 3.34 13 3 C12 5 12 5 10.25 5.6875 C7.60760177 6.05449975 5.57327078 5.64331769 3 5 C3.33 4.34 3.66 3.68 4 3 C3.34 2.67 2.68 2.34 2 2 C3.15585285 5.91211733 4.35534962 8.8745041 7 12 C4.53199953 10.84826645 2.95216435 9.95216435 1 8 C0.43479997 5.34462628 0.26211802 2.70855287 0 0 Z " fill="#2B2A28" transform="translate(365,322)"/>
<path d="M0 0 C4.50020684 0.13984456 9.00010606 0.28794995 13.5 0.4375 C15.40265625 0.49647461 15.40265625 0.49647461 17.34375 0.55664062 C23.62282914 0.76921362 29.78483581 1.06615589 36 2 C36 2.33 36 2.66 36 3 C31.50005528 3.05845252 27.00020937 3.09374855 22.5 3.125 C21.2315625 3.14175781 19.963125 3.15851562 18.65625 3.17578125 C12.07273681 3.21007038 6.28628128 3.01605485 0 1 C0 0.67 0 0.34 0 0 Z " fill="#0C0B0A" transform="translate(398,954)"/>
<path d="M0 0 C3.46629835 1.48653506 5.69022036 3.45722351 8.328125 6.1328125 C9.12734375 6.93847656 9.9265625 7.74414062 10.75 8.57421875 C11.575 9.41597656 12.4 10.25773438 13.25 11.125 C14.51070312 12.39923828 14.51070312 12.39923828 15.796875 13.69921875 C17.86915683 15.79504923 19.93662393 17.89540713 22 20 C21.34 20.66 20.68 21.32 20 22 C16.84605961 18.90397913 13.70328827 15.79685793 10.5625 12.6875 C9.66466797 11.80642578 8.76683594 10.92535156 7.84179688 10.01757812 C6.98779297 9.17001953 6.13378906 8.32246094 5.25390625 7.44921875 C4.46314697 6.66893311 3.6723877 5.88864746 2.85766602 5.0847168 C1 3 1 3 0 0 Z " fill="#0F0E0D" transform="translate(715,739)"/>
<path d="M0 0 C0.33 0 0.66 0 1 0 C2.64705882 25.08823529 2.64705882 25.08823529 1 36 C0.34 36 -0.32 36 -1 36 C-1.16631339 23.96999836 -0.6524986 12.0104862 0 0 Z " fill="#1C1B19" transform="translate(349,413)"/>
<path d="M0 0 C9.9 0 19.8 0 30 0 C30 0.33 30 0.66 30 1 C23.4 1 16.8 1 10 1 C10 1.99 10 2.98 10 4 C10.66 4.33 11.32 4.66 12 5 C11.67 5.66 11.34 6.32 11 7 C10.01 7 9.02 7 8 7 C8.33 6.34 8.66 5.68 9 5 C7.02 5.99 7.02 5.99 5 7 C4.67 6.34 4.34 5.68 4 5 C4.9375 2.875 4.9375 2.875 6 1 C4.02 1 2.04 1 0 1 C0 0.67 0 0.34 0 0 Z M3 7 C5 8 5 8 5 8 Z " fill="#2D2C2A" transform="translate(514,737)"/>
<path d="M0 0 C0.33 0 0.66 0 1 0 C1.71511973 12.34858538 2.14420386 24.63051353 2 37 C1.01 37.495 1.01 37.495 0 38 C-0.86732046 25.21703075 -1.00295343 12.77608367 0 0 Z " fill="#1E1D1A" transform="translate(674,425)"/>
<path d="M0 0 C0.33 0 0.66 0 1 0 C1.33 12.21 1.66 24.42 2 37 C1.67 37 1.34 37 1 37 C0.67 40.63 0.34 44.26 0 48 C-0.33 48 -0.66 48 -1 48 C-1.19531122 31.98448 -0.59510781 16.00143596 0 0 Z " fill="#2B2A27" transform="translate(351,360)"/>
<path d="M0 0 C0.33 0.99 0.66 1.98 1 3 C3.64 2.67 6.28 2.34 9 2 C9 2.66 9 3.32 9 4 C13.95 4 18.9 4 24 4 C24 3.34 24 2.68 24 2 C24.66 2.33 25.32 2.66 26 3 C25.67 3.66 25.34 4.32 25 5 C21.0495047 5.19224376 17.09865416 5.37096681 13.14697266 5.53710938 C11.80240434 5.59555475 10.45799202 5.65771076 9.11376953 5.72363281 C7.18306663 5.81767443 5.2516797 5.89732692 3.3203125 5.9765625 C2.15773926 6.02893066 0.99516602 6.08129883 -0.20263672 6.13525391 C-3 6 -3 6 -5 4 C-3 1 -3 1 0 0 Z " fill="#2D2C2A" transform="translate(550,814)"/>
<path d="M0 0 C0.33 0 0.66 0 1 0 C2.19388403 23.58238484 2.19388403 23.58238484 2 35 C1.67 35 1.34 35 1 35 C0.67 32.36 0.34 29.72 0 27 C-0.33 27 -0.66 27 -1 27 C-1.13534286 17.94706663 -0.75741925 9.02140429 0 0 Z " fill="#252421" transform="translate(672,381)"/>
<path d="M0 0 C3.3 0.66 6.6 1.32 10 2 C10 2.33 10 2.66 10 3 C5.88518795 3.75770785 1.90659766 4.17155355 -2.2734375 4.31640625 C-3.42714844 4.35830078 -4.58085938 4.40019531 -5.76953125 4.44335938 C-7.55423828 4.50233398 -7.55423828 4.50233398 -9.375 4.5625 C-11.19451172 4.62727539 -11.19451172 4.62727539 -13.05078125 4.69335938 C-16.03375032 4.79905513 -19.01679742 4.90115321 -22 5 C-18.85932755 1.85932755 -15.79211944 2.02178546 -11.44921875 1.90234375 C-10.20785156 1.91394531 -8.96648438 1.92554688 -7.6875 1.9375 C-6.43324219 1.94652344 -5.17898438 1.95554687 -3.88671875 1.96484375 C-2.93410156 1.97644531 -1.98148438 1.98804688 -1 2 C-0.67 1.34 -0.34 0.68 0 0 Z " fill="#2E2D2B" transform="translate(587,887)"/>
<path d="M0 0 C0.33 0 0.66 0 1 0 C1.25441431 4.43643308 1.4742144 8.87391449 1.6875 13.3125 C1.76033203 14.57513672 1.83316406 15.83777344 1.90820312 17.13867188 C1.96298828 18.34716797 2.01777344 19.55566406 2.07421875 20.80078125 C2.13182373 21.91622314 2.18942871 23.03166504 2.2487793 24.1809082 C2 27 2 27 -1 30 C-1.33 26.04 -1.66 22.08 -2 18 C-1.34 18 -0.68 18 0 18 C0 12.06 0 6.12 0 0 Z " fill="#282725" transform="translate(346,470)"/>
<path d="M0 0 C25.38131288 -0.37945484 25.38131288 -0.37945484 31 3 C29.20909747 3.19466332 27.41723495 3.38051213 25.625 3.5625 C24.12839844 3.71912109 24.12839844 3.71912109 22.6015625 3.87890625 C20 4 20 4 18 3 C16.62793479 2.78308608 15.24860728 2.61076837 13.8671875 2.46484375 C13.06152344 2.37783203 12.25585938 2.29082031 11.42578125 2.20117188 C10.58402344 2.11416016 9.74226563 2.02714844 8.875 1.9375 C7.60076172 1.80118164 7.60076172 1.80118164 6.30078125 1.66210938 C4.2008855 1.4379632 2.10048707 1.21853552 0 1 C0 0.67 0 0.34 0 0 Z " fill="#2E2C2A" transform="translate(391,870)"/>
<path d="M0 0 C11.22 0 22.44 0 34 0 C33.67 0.66 33.34 1.32 33 2 C32.34 2 31.68 2 31 2 C31 2.66 31 3.32 31 4 C30.34 4 29.68 4 29 4 C29 3.34 29 2.68 29 2 C28.2471875 2.01160156 27.494375 2.02320313 26.71875 2.03515625 C17.76939052 2.11118236 8.91983222 1.64122029 0 1 C0 0.67 0 0.34 0 0 Z " fill="#2C2B29" transform="translate(521,325)"/>
<path d="M0 0 C0.33 0.66 0.66 1.32 1 2 C0.01 2 -0.98 2 -2 2 C-2 2.66 -2 3.32 -2 4 C-1.01 4 -0.02 4 1 4 C1 4.66 1 5.32 1 6 C2.98 6 4.96 6 7 6 C7 6.33 7 6.66 7 7 C1.72 7 -3.56 7 -9 7 C-9 5 -9 5 -7 3 C-6.34 2.67 -5.68 2.34 -5 2 C-5 2.66 -5 3.32 -5 4 C-4.34 4 -3.68 4 -3 4 C-3 3.01 -3 2.02 -3 1 C-2.01 0.67 -1.02 0.34 0 0 Z " fill="#2F2D2B" transform="translate(442,811)"/>
<path d="M0 0 C3.37498158 -0.02922646 6.74993021 -0.04687468 10.125 -0.0625 C11.55199219 -0.07506836 11.55199219 -0.07506836 13.0078125 -0.08789062 C17.79018487 -0.10449608 22.29771569 -0.00537055 27 1 C27 1.33 27 1.66 27 2 C24.36 2 21.72 2 19 2 C19 2.66 19 3.32 19 4 C17.68 4.33 16.36 4.66 15 5 C15 4.01 15 3.02 15 2 C10.05 1.67 5.1 1.34 0 1 C0 0.67 0 0.34 0 0 Z " fill="#2D2C2A" transform="translate(431,873)"/>
<path d="M0 0 C7.92 0 15.84 0 24 0 C24 0.33 24 0.66 24 1 C22.85660156 1.04898438 21.71320312 1.09796875 20.53515625 1.1484375 C19.04424527 1.22345189 17.55336108 1.29900028 16.0625 1.375 C14.93038086 1.42140625 14.93038086 1.42140625 13.77539062 1.46875 C11.84492605 1.5726315 9.92057919 1.77895614 8 2 C7.67 2.66 7.34 3.32 7 4 C7 3.34 7 2.68 7 2 C5.02 2.99 5.02 2.99 3 4 C2.01 2.68 1.02 1.36 0 0 Z " fill="#2C2B29" transform="translate(561,874)"/>
<path d="M0 0 C0 5 0 5 -2.125 7.375 C-4.94082965 9.9459749 -7.77963076 11.96976722 -11 14 C-11.99 14.66 -12.98 15.32 -14 16 C-12.34136495 11.67495164 -9.128959 8.90581175 -5.875 5.75 C-5.31167969 5.19570313 -4.74835938 4.64140625 -4.16796875 4.0703125 C-2.78313972 2.70895515 -1.39216796 1.35385141 0 0 Z " fill="#1D1C1A" transform="translate(297,747)"/>
<path d="M0 0 C0.66 0.33 1.32 0.66 2 1 C0.56760415 2.79574993 -0.8711004 4.58646907 -2.3125 6.375 C-3.51326172 7.87160156 -3.51326172 7.87160156 -4.73828125 9.3984375 C-7 12 -7 12 -10 14 C-9.39056837 10.35175862 -7.84549908 8.1840477 -5.5625 5.3125 C-4.94503906 4.52488281 -4.32757813 3.73726562 -3.69140625 2.92578125 C-2 1 -2 1 0 0 Z " fill="#0F0E0D" transform="translate(317,726)"/>
<path d="M0 0 C1.69141656 0.08963062 3.37959602 0.24577676 5.0625 0.4375 C6.44115234 0.59025391 6.44115234 0.59025391 7.84765625 0.74609375 C8.55792969 0.82988281 9.26820313 0.91367187 10 1 C2.75287617 5.14602898 -6.88246158 4.15847689 -15 4 C-15 3.67 -15 3.34 -15 3 C-14.00097656 2.86722656 -13.00195312 2.73445312 -11.97265625 2.59765625 C-10.68230469 2.42105469 -9.39195312 2.24445312 -8.0625 2.0625 C-6.77472656 1.88847656 -5.48695313 1.71445312 -4.16015625 1.53515625 C-1.14533687 1.33837577 -1.14533687 1.33837577 0 0 Z " fill="#2F2D2B" transform="translate(618,684)"/>
<path d="M0 0 C6.6 0.33 13.2 0.66 20 1 C20 1.33 20 1.66 20 2 C19.25234375 2.06058594 18.5046875 2.12117187 17.734375 2.18359375 C16.74953125 2.26738281 15.7646875 2.35117187 14.75 2.4375 C13.77546875 2.51871094 12.8009375 2.59992187 11.796875 2.68359375 C9.0848799 2.92333387 9.0848799 2.92333387 6.84375 3.5625 C4.10119816 4.21327501 1.72532534 3.55745291 -1 3 C-0.67 2.01 -0.34 1.02 0 0 Z " fill="#292724" transform="translate(591,956)"/>
<path d="M0 0 C1.65 0 3.3 0 5 0 C5.33 0.66 5.66 1.32 6 2 C8.52733235 2.65555119 8.52733235 2.65555119 11 3 C7.36576791 5.32590854 4.22911669 5.16265833 0 5 C-0.33 4.01 -0.66 3.02 -1 2 C-0.67 1.34 -0.34 0.68 0 0 Z " fill="#242321" transform="translate(336,864)"/>
<path d="M0 0 C0.33 0.66 0.66 1.32 1 2 C1.66 2 2.32 2 3 2 C3 6.29 3 10.58 3 15 C2.01 15.495 2.01 15.495 1 16 C0.67 10.72 0.34 5.44 0 0 Z " fill="#0C0B0A" transform="translate(760,799)"/>
<path d="M0 0 C1.24523437 0.11085938 2.49046875 0.22171875 3.7734375 0.3359375 C5.18496094 0.47902344 5.18496094 0.47902344 6.625 0.625 C6.625 0.955 6.625 1.285 6.625 1.625 C-0.07519789 2.32632913 -6.63757354 2.73544961 -13.375 2.625 C-13.375 2.295 -13.375 1.965 -13.375 1.625 C-8.62989009 -0.2876443 -5.0722715 -0.47851618 0 0 Z " fill="#272522" transform="translate(629.375,954.375)"/>
<path d="M0 0 C0.33 0.99 0.66 1.98 1 3 C-4.61 3 -10.22 3 -16 3 C-16 2.34 -16 1.68 -16 1 C-10.62915894 0.31798844 -5.41499441 -0.11521265 0 0 Z " fill="#22211E" transform="translate(400,953)"/>
<path d="M0 0 C6.15234375 -0.09765625 6.15234375 -0.09765625 8 0 C9 1 9 1 9.0625 4.5625 C9.041875 5.696875 9.02125 6.83125 9 8 C8.01 7.34 7.02 6.68 6 6 C5.34 5.67 4.68 5.34 4 5 C4.99 3.68 5.98 2.36 7 1 C4.36 1.33 1.72 1.66 -1 2 C-0.67 1.34 -0.34 0.68 0 0 Z " fill="#2C2B29" transform="translate(609,735)"/>
<path d="M0 0 C0.33 0 0.66 0 1 0 C1.33 6.27 1.66 12.54 2 19 C-1 16 -1 16 -1.07421875 12.20703125 C-0.96143619 10.74085796 -0.83192243 9.27589543 -0.6875 7.8125 C-0.62626953 7.06291016 -0.56503906 6.31332031 -0.50195312 5.54101562 C-0.34891389 3.69277255 -0.17633121 1.8461665 0 0 Z " fill="#262522" transform="translate(681,541)"/>
<path d="M0 0 C-3.31371 2.20914 -4.3446021 2.22481553 -8.1875 2.125 C-9.08855469 2.10695313 -9.98960937 2.08890625 -10.91796875 2.0703125 C-11.60503906 2.04710937 -12.29210937 2.02390625 -13 2 C-9.55192297 -1.44807703 -4.50554126 -1.62199485 0 0 Z " fill="#0E0E0D" transform="translate(709,944)"/>
<path d="M0 0 C1.41750563 0.11509661 2.83401169 0.24253658 4.25 0.375 C5.03890625 0.44460938 5.8278125 0.51421875 6.640625 0.5859375 C9.085877 1.01507113 10.84836903 1.78600638 13 3 C4.80743982 3.4726477 4.80743982 3.4726477 1.4375 1.5 C0.963125 1.005 0.48875 0.51 0 0 Z " fill="#0D0D0B" transform="translate(307,941)"/>
<path d="M0 0 C3 1 3 1 5 4 C4.625 6.1875 4.625 6.1875 4 8 C2.0625 7.25 2.0625 7.25 0 6 C-0.8125 4 -0.8125 4 -1 2 C-0.67 1.34 -0.34 0.68 0 0 Z " fill="#232220" transform="translate(252,914)"/>
<path d="M0 0 C0.33 0.99 0.66 1.98 1 3 C0.01 4.485 0.01 4.485 -1 6 C-1.66 6 -2.32 6 -3 6 C-4.62514468 7.45833358 -4.62514468 7.45833358 -6 9 C-6.66 8.67 -7.32 8.34 -8 8 C-5.36 5.36 -2.72 2.72 0 0 Z " fill="#1F1D1B" transform="translate(306,738)"/>
<path d="M0 0 C0 0.66 0 1.32 0 2 C1.65 2 3.3 2 5 2 C5 2.33 5 2.66 5 3 C0.1666528 3.08333357 -4.23692563 2.95261487 -9 2 C-9 1.67 -9 1.34 -9 1 C-5.94152152 0.45627049 -3.11227195 0 0 0 Z " fill="#262522" transform="translate(360,949)"/>
<path d="M0 0 C0.66 0.66 1.32 1.32 2 2 C1.54545455 7.45454545 1.54545455 7.45454545 -1 10 C-1 9.01 -1 8.02 -1 7 C-1.020625 5.96875 -1.04125 4.9375 -1.0625 3.875 C-1 1 -1 1 0 0 Z " fill="#2B2826" transform="translate(306,670)"/>
<path d="M0 0 C-3.26545761 1.88391785 -6.28111761 2.49287967 -10 3 C-10 2.34 -10 1.68 -10 1 C-6.21812119 -0.83691257 -4.05431692 -1.15837626 0 0 Z " fill="#1C1B19" transform="translate(734,938)"/>
<path d="M0 0 C0.33 0 0.66 0 1 0 C0.67 3.3 0.34 6.6 0 10 C-0.66 10 -1.32 10 -2 10 C-2.17942163 6.05272412 -2.09350689 3.4019487 0 0 Z " fill="#0B0A09" transform="translate(333,632)"/>
<path d="M0 0 C3.125 0.75 3.125 0.75 6 2 C6.33 2.66 6.66 3.32 7 4 C3.7 3.34 0.4 2.68 -3 2 C-2.01 1.34 -1.02 0.68 0 0 Z " fill="#1C1A18" transform="translate(290,936)"/>
<path d="M0 0 C0.99 0.33 1.98 0.66 3 1 C3 2.98 3 4.96 3 7 C2.01 7.495 2.01 7.495 1 8 C0.67 5.36 0.34 2.72 0 0 Z " fill="#0C0C0A" transform="translate(769,868)"/>
<path d="M0 0 C1 3 1 3 -0.4375 6.1875 C-1.2109375 7.5796875 -1.2109375 7.5796875 -2 9 C-3.32 9 -4.64 9 -6 9 C-6 8.34 -6 7.68 -6 7 C-5.071875 6.6596875 -5.071875 6.6596875 -4.125 6.3125 C-1.38589791 4.62070165 -0.94975528 3.00755839 0 0 Z " fill="#2D2C29" transform="translate(660,797)"/>
<path d="M0 0 C2.64 0.33 5.28 0.66 8 1 C8 1.33 8 1.66 8 2 C3.545 2.495 3.545 2.495 -1 3 C-0.67 2.01 -0.34 1.02 0 0 Z " fill="#1E1C1A" transform="translate(687,946)"/>
<path d="M0 0 C0.33 0.99 0.66 1.98 1 3 C-0.4375 5.1875 -0.4375 5.1875 -2 7 C-2.99 6.67 -3.98 6.34 -5 6 C-3.35 4.02 -1.7 2.04 0 0 Z " fill="#0F0E0D" transform="translate(725,294)"/>
<path d="M0 0 C0.33 0 0.66 0 1 0 C1 2.31 1 4.62 1 7 C0.67 7 0.34 7 0 7 C0 4.69 0 2.38 0 0 Z " fill="#35322D" transform="translate(632,193)"/>
<path d="M0 0 C1.98 0 3.96 0 6 0 C6 0.33 6 0.66 6 1 C4.02 1 2.04 1 0 1 C0 0.67 0 0.34 0 0 Z " fill="#383530" transform="translate(602,959)"/>
<path d="M0 0 C1.65 0 3.3 0 5 0 C5 0.33 5 0.66 5 1 C3.35 1 1.7 1 0 1 C0 0.67 0 0.34 0 0 Z " fill="#383530" transform="translate(427,959)"/>
<path d="M0 0 C1.65 0 3.3 0 5 0 C5 0.33 5 0.66 5 1 C3.35 1 1.7 1 0 1 C0 0.67 0 0.34 0 0 Z " fill="#383530" transform="translate(408,958)"/>
<path d="M0 0 C0.33 0 0.66 0 1 0 C1 1.65 1 3.3 1 5 C0.67 5 0.34 5 0 5 C0 3.35 0 1.7 0 0 Z " fill="#3A3833" transform="translate(258,811)"/>
<path d="M0 0 C0.33 0 0.66 0 1 0 C1 1.65 1 3.3 1 5 C0.67 5 0.34 5 0 5 C0 3.35 0 1.7 0 0 Z " fill="#373330" transform="translate(336,584)"/>
<path d="M0 0 C0.99 0.495 0.99 0.495 2 1 C1.01 2.485 1.01 2.485 0 4 C0 2.68 0 1.36 0 0 Z " fill="#36342F" transform="translate(337,570)"/>
<path d="M0 0 C0.99 0 1.98 0 3 0 C2.67 0.99 2.34 1.98 2 3 C2 2.34 2 1.68 2 1 C1.34 0.67 0.68 0.34 0 0 Z " fill="#35342F" transform="translate(336,563)"/>
<path d="M0 0 C0.33 0 0.66 0 1 0 C1 1.65 1 3.3 1 5 C0.67 5 0.34 5 0 5 C0 3.35 0 1.7 0 0 Z " fill="#393632" transform="translate(344,472)"/>
<path d="M0 0 C0.33 0 0.66 0 1 0 C1 1.65 1 3.3 1 5 C0.67 5 0.34 5 0 5 C0 3.35 0 1.7 0 0 Z " fill="#34332E" transform="translate(448,174)"/>
<path d="M0 0 C4 1 4 1 4 1 Z " fill="#35322D" transform="translate(388,956)"/>
<path d="M0 0 C0.66 0 1.32 0 2 0 C1.67 0.99 1.34 1.98 1 3 C0.67 2.01 0.34 1.02 0 0 Z " fill="#3A3834" transform="translate(258,819)"/>
<path d="M0 0 C0.66 0 1.32 0 2 0 C2 0.66 2 1.32 2 2 C1.34 2 0.68 2 0 2 C0 1.34 0 0.68 0 0 Z " fill="#3B3934" transform="translate(267,777)"/>
<path d="M0 0 C0.66 0 1.32 0 2 0 C2 0.66 2 1.32 2 2 C1.34 2 0.68 2 0 2 C0 1.34 0 0.68 0 0 Z " fill="#36332E" transform="translate(336,578)"/>
<path d="M0 0 C1 4 1 4 1 4 Z " fill="#393733" transform="translate(679,484)"/>
<path d="M0 0 C1 4 1 4 1 4 Z " fill="#373431" transform="translate(345,458)"/>
<path d="M0 0 C1 4 1 4 1 4 Z " fill="#3A3834" transform="translate(296,192)"/>
<path d="M0 0 C3 1 3 1 3 1 Z " fill="#383531" transform="translate(620,958)"/>
<path d="M0 0 C3 1 3 1 3 1 Z " fill="#373531" transform="translate(400,957)"/>
<path d="M0 0 C3 1 3 1 3 1 Z " fill="#37352F" transform="translate(346,951)"/>
<path d="M0 0 C3 1 3 1 3 1 Z " fill="#383631" transform="translate(734,939)"/>
<path d="" fill="#373532" transform="translate(0,0)"/>
<path d="M0 0 C0.66 0 1.32 0 2 0 C1.67 0.66 1.34 1.32 1 2 C0.67 1.34 0.34 0.68 0 0 Z " fill="#373630" transform="translate(249,867)"/>
<path d="" fill="#3A3A34" transform="translate(0,0)"/>
<path d="" fill="#393532" transform="translate(0,0)"/>
<path d="M0 0 C0.33 0.66 0.66 1.32 1 2 C0.34 1.67 -0.32 1.34 -1 1 C-0.67 0.67 -0.34 0.34 0 0 Z " fill="#36332E" transform="translate(337,575)"/>
<path d="" fill="#383632" transform="translate(0,0)"/>
<path d="M0 0 C0.66 0.66 1.32 1.32 2 2 C1.34 2 0.68 2 0 2 C0 1.34 0 0.68 0 0 Z " fill="#383731" transform="translate(676,438)"/>
<path d="" fill="#383733" transform="translate(0,0)"/>
<path d="M0 0 C0.33 0.66 0.66 1.32 1 2 C0.34 1.67 -0.32 1.34 -1 1 C-0.67 0.67 -0.34 0.34 0 0 Z " fill="#373531" transform="translate(345,351)"/>
<path d="" fill="#393733" transform="translate(0,0)"/>
<path d="" fill="#373632" transform="translate(0,0)"/>
<path d="M0 0 C2 1 2 1 2 1 Z " fill="#373530" transform="translate(616,958)"/>
<path d="M0 0 C2 1 2 1 2 1 Z " fill="#37352F" transform="translate(642,956)"/>
<path d="M0 0 C2 1 2 1 2 1 Z " fill="#36332F" transform="translate(652,955)"/>
<path d="M0 0 C2 1 2 1 2 1 Z " fill="#34322F" transform="translate(325,951)"/>
<path d="M0 0 C2 1 2 1 2 1 Z " fill="#36332F" transform="translate(686,950)"/>
<path d="M0 0 C2 1 2 1 2 1 Z " fill="#34322F" transform="translate(322,947)"/>
<path d="M0 0 C2 1 2 1 2 1 Z " fill="#31312C" transform="translate(304,943)"/>
<path d="M0 0 C2 1 2 1 2 1 Z " fill="#363531" transform="translate(276,935)"/>
<path d="M0 0 C2 1 2 1 2 1 Z " fill="#353330" transform="translate(269,932)"/>
<path d="" fill="#363431" transform="translate(0,0)"/>
<path d="" fill="#393532" transform="translate(0,0)"/>
<path d="" fill="#353330" transform="translate(0,0)"/>
<path d="M0 0 C2 1 2 1 2 1 Z " fill="#33312E" transform="translate(272,845)"/>
<path d="" fill="#3B3A36" transform="translate(0,0)"/>
<path d="M0 0 C2 1 2 1 2 1 Z " fill="#393531" transform="translate(312,693)"/>
<path d="" fill="#3D3A37" transform="translate(0,0)"/>
<path d="" fill="#353330" transform="translate(0,0)"/>
<path d="" fill="#393731" transform="translate(0,0)"/>
<path d="" fill="#363430" transform="translate(0,0)"/>
<path d="" fill="#373531" transform="translate(0,0)"/>
<path d="" fill="#383832" transform="translate(0,0)"/>
<path d="" fill="#393530" transform="translate(0,0)"/>
<path d="" fill="#363330" transform="translate(0,0)"/>
<path d="" fill="#383531" transform="translate(0,0)"/>
<path d="" fill="#35332E" transform="translate(0,0)"/>
<path d="M0 0 C2 1 2 1 2 1 Z " fill="#37342F" transform="translate(323,326)"/>
<path d="" fill="#373530" transform="translate(0,0)"/>
<path d="" fill="#3A3734" transform="translate(0,0)"/>
<path d="" fill="#383734" transform="translate(0,0)"/>
<path d="" fill="#3A3935" transform="translate(0,0)"/>
<path d="" fill="#373432" transform="translate(0,0)"/>
<path d="" fill="#383732" transform="translate(0,0)"/>
<path d="" fill="#363430" transform="translate(0,0)"/>
<path d="M0 0 C2 1 2 1 2 1 Z " fill="#3C3A35" transform="translate(636,156)"/>
<path d="" fill="#3D3A36" transform="translate(0,0)"/>
<path d="M0 0 C2 1 2 1 2 1 Z " fill="#403F39" transform="translate(721,155)"/>
<path d="" fill="#393730" transform="translate(0,0)"/>
<path d="" fill="#373530" transform="translate(0,0)"/>
<path d="" fill="#3A3631" transform="translate(0,0)"/>
<path d="" fill="#3B3832" transform="translate(0,0)"/>
<path d="" fill="#36332F" transform="translate(0,0)"/>
<path d="" fill="#393531" transform="translate(0,0)"/>
<path d="" fill="#3A3733" transform="translate(0,0)"/>
<path d="" fill="#373431" transform="translate(0,0)"/>
<path d="" fill="#363430" transform="translate(0,0)"/>
<path d="" fill="#36332F" transform="translate(0,0)"/>
<path d="" fill="#363530" transform="translate(0,0)"/>
<path d="" fill="#36342F" transform="translate(0,0)"/>
<path d="" fill="#36342F" transform="translate(0,0)"/>
<path d="" fill="#35342E" transform="translate(0,0)"/>
<path d="" fill="#373430" transform="translate(0,0)"/>
<path d="" fill="#353430" transform="translate(0,0)"/>
<path d="" fill="#373630" transform="translate(0,0)"/>
<path d="" fill="#393631" transform="translate(0,0)"/>
<path d="" fill="#33312E" transform="translate(0,0)"/>
<path d="" fill="#383630" transform="translate(0,0)"/>
<path d="" fill="#34312E" transform="translate(0,0)"/>
<path d="" fill="#343230" transform="translate(0,0)"/>
<path d="" fill="#373731" transform="translate(0,0)"/>
<path d="" fill="#363330" transform="translate(0,0)"/>
<path d="" fill="#383530" transform="translate(0,0)"/>
<path d="" fill="#373632" transform="translate(0,0)"/>
<path d="" fill="#383431" transform="translate(0,0)"/>
<path d="" fill="#353533" transform="translate(0,0)"/>
<path d="" fill="#363432" transform="translate(0,0)"/>
<path d="" fill="#3E3E3A" transform="translate(0,0)"/>
<path d="" fill="#373431" transform="translate(0,0)"/>
<path d="" fill="#383632" transform="translate(0,0)"/>
<path d="" fill="#363532" transform="translate(0,0)"/>
<path d="" fill="#393732" transform="translate(0,0)"/>
<path d="" fill="#36352F" transform="translate(0,0)"/>
<path d="" fill="#40403B" transform="translate(0,0)"/>
<path d="" fill="#363531" transform="translate(0,0)"/>
<path d="" fill="#363531" transform="translate(0,0)"/>
<path d="" fill="#373532" transform="translate(0,0)"/>
<path d="" fill="#393734" transform="translate(0,0)"/>
<path d="" fill="#373530" transform="translate(0,0)"/>
<path d="" fill="#3B3935" transform="translate(0,0)"/>
<path d="" fill="#393732" transform="translate(0,0)"/>
<path d="" fill="#36342F" transform="translate(0,0)"/>
<path d="" fill="#383630" transform="translate(0,0)"/>
<path d="" fill="#393330" transform="translate(0,0)"/>
<path d="" fill="#34332E" transform="translate(0,0)"/>
<path d="" fill="#33332E" transform="translate(0,0)"/>
<path d="" fill="#363431" transform="translate(0,0)"/>
<path d="" fill="#302E27" transform="translate(0,0)"/>
<path d="" fill="#383634" transform="translate(0,0)"/>
<path d="" fill="#393734" transform="translate(0,0)"/>
<path d="" fill="#383833" transform="translate(0,0)"/>
<path d="" fill="#3A3734" transform="translate(0,0)"/>
<path d="" fill="#383832" transform="translate(0,0)"/>
<path d="" fill="#393834" transform="translate(0,0)"/>
<path d="" fill="#393832" transform="translate(0,0)"/>
<path d="" fill="#3C3B36" transform="translate(0,0)"/>
<path d="" fill="#3D3D38" transform="translate(0,0)"/>
<path d="" fill="#3D3C38" transform="translate(0,0)"/>
<path d="" fill="#3D3C38" transform="translate(0,0)"/>
<path d="" fill="#3C3834" transform="translate(0,0)"/>
<path d="" fill="#3D3936" transform="translate(0,0)"/>
<path d="" fill="#3E3C36" transform="translate(0,0)"/>
<path d="" fill="#3C3733" transform="translate(0,0)"/>
<path d="" fill="#393832" transform="translate(0,0)"/>
<path d="" fill="#373530" transform="translate(0,0)"/>
<path d="" fill="#383431" transform="translate(0,0)"/>
<path d="" fill="#383331" transform="translate(0,0)"/>
<path d="" fill="#363431" transform="translate(0,0)"/>
<path d="" fill="#34332F" transform="translate(0,0)"/>
<path d="" fill="#393330" transform="translate(0,0)"/>
<path d="" fill="#373430" transform="translate(0,0)"/>
<path d="" fill="#35312F" transform="translate(0,0)"/>
<path d="" fill="#363631" transform="translate(0,0)"/>
<path d="" fill="#37342F" transform="translate(0,0)"/>
<path d="" fill="#36312F" transform="translate(0,0)"/>
<path d="" fill="#3C3733" transform="translate(0,0)"/>
<path d="" fill="#373530" transform="translate(0,0)"/>
<path d="" fill="#3A3830" transform="translate(0,0)"/>
<path d="" fill="#393732" transform="translate(0,0)"/>
<path d="" fill="#383632" transform="translate(0,0)"/>
<path d="" fill="#41403A" transform="translate(0,0)"/>
<path d="" fill="#3A3835" transform="translate(0,0)"/>
<path d="" fill="#383630" transform="translate(0,0)"/>
<path d="" fill="#373532" transform="translate(0,0)"/>
<path d="" fill="#393833" transform="translate(0,0)"/>
<path d="" fill="#34312E" transform="translate(0,0)"/>
<path d="" fill="#393834" transform="translate(0,0)"/>
<path d="" fill="#393833" transform="translate(0,0)"/>
<path d="" fill="#373633" transform="translate(0,0)"/>
<path d="" fill="#3F3D3A" transform="translate(0,0)"/>
<path d="" fill="#3F3E3C" transform="translate(0,0)"/>
<path d="" fill="#383532" transform="translate(0,0)"/>
<path d="" fill="#383633" transform="translate(0,0)"/>
<path d="" fill="#383733" transform="translate(0,0)"/>
<path d="" fill="#383733" transform="translate(0,0)"/>
<path d="" fill="#3A3833" transform="translate(0,0)"/>
<path d="" fill="#393732" transform="translate(0,0)"/>
<path d="" fill="#35312E" transform="translate(0,0)"/>
<path d="" fill="#36332F" transform="translate(0,0)"/>
<path d="" fill="#363430" transform="translate(0,0)"/>
<path d="" fill="#383630" transform="translate(0,0)"/>
<path d="" fill="#35332F" transform="translate(0,0)"/>
<path d="" fill="#383734" transform="translate(0,0)"/>
<path d="" fill="#363330" transform="translate(0,0)"/>
<path d="" fill="#383733" transform="translate(0,0)"/>
<path d="" fill="#373632" transform="translate(0,0)"/>
<path d="" fill="#383632" transform="translate(0,0)"/>
<path d="" fill="#403F3C" transform="translate(0,0)"/>
<path d="" fill="#43433F" transform="translate(0,0)"/>
<path d="" fill="#383430" transform="translate(0,0)"/>
<path d="" fill="#36352F" transform="translate(0,0)"/>
<path d="" fill="#36372F" transform="translate(0,0)"/>
<path d="" fill="#363531" transform="translate(0,0)"/>
<path d="" fill="#373330" transform="translate(0,0)"/>
<path d="" fill="#373530" transform="translate(0,0)"/>
<path d="" fill="#383734" transform="translate(0,0)"/>
<path d="" fill="#35342F" transform="translate(0,0)"/>
<path d="" fill="#393733" transform="translate(0,0)"/>
<path d="" fill="#383631" transform="translate(0,0)"/>
<path d="" fill="#363431" transform="translate(0,0)"/>
<path d="" fill="#383531" transform="translate(0,0)"/>
<path d="" fill="#373632" transform="translate(0,0)"/>
<path d="" fill="#373431" transform="translate(0,0)"/>
<path d="" fill="#35352F" transform="translate(0,0)"/>
<path d="" fill="#383733" transform="translate(0,0)"/>
<path d="" fill="#34332F" transform="translate(0,0)"/>
<path d="" fill="#373531" transform="translate(0,0)"/>
<path d="" fill="#34342F" transform="translate(0,0)"/>
<path d="" fill="#454442" transform="translate(0,0)"/>
<path d="" fill="#373430" transform="translate(0,0)"/>
<path d="" fill="#36342F" transform="translate(0,0)"/>
<path d="" fill="#3E403C" transform="translate(0,0)"/>
<path d="" fill="#434240" transform="translate(0,0)"/>
<path d="" fill="#36322F" transform="translate(0,0)"/>
<path d="" fill="#35332E" transform="translate(0,0)"/>
<path d="" fill="#34322C" transform="translate(0,0)"/>
<path d="" fill="#43423E" transform="translate(0,0)"/>
<path d="" fill="#35312E" transform="translate(0,0)"/>
<path d="" fill="#34312E" transform="translate(0,0)"/>
<path d="" fill="#363130" transform="translate(0,0)"/>
<path d="" fill="#36332F" transform="translate(0,0)"/>
<path d="" fill="#35332F" transform="translate(0,0)"/>
<path d="" fill="#35332E" transform="translate(0,0)"/>
<path d="" fill="#393530" transform="translate(0,0)"/>
<path d="" fill="#383330" transform="translate(0,0)"/>
<path d="" fill="#373430" transform="translate(0,0)"/>
<path d="" fill="#3A3632" transform="translate(0,0)"/>
<path d="" fill="#363331" transform="translate(0,0)"/>
<path d="" fill="#3B3732" transform="translate(0,0)"/>
<path d="" fill="#3B3835" transform="translate(0,0)"/>
<path d="" fill="#3A3634" transform="translate(0,0)"/>
<path d="" fill="#393832" transform="translate(0,0)"/>
<path d="" fill="#3B3B36" transform="translate(0,0)"/>
<path d="" fill="#3A3834" transform="translate(0,0)"/>
<path d="" fill="#393733" transform="translate(0,0)"/>
<path d="" fill="#393834" transform="translate(0,0)"/>
<path d="" fill="#383533" transform="translate(0,0)"/>
<path d="" fill="#2F2D28" transform="translate(0,0)"/>
<path d="" fill="#312F2B" transform="translate(0,0)"/>
<path d="" fill="#322F2A" transform="translate(0,0)"/>
<path d="" fill="#3B3936" transform="translate(0,0)"/>
<path d="" fill="#312F29" transform="translate(0,0)"/>
<path d="" fill="#393735" transform="translate(0,0)"/>
<path d="" fill="#33312C" transform="translate(0,0)"/>
<path d="" fill="#373633" transform="translate(0,0)"/>
<path d="" fill="#3D3D39" transform="translate(0,0)"/>
<path d="" fill="#403E3B" transform="translate(0,0)"/>
<path d="" fill="#3D3C38" transform="translate(0,0)"/>
<path d="" fill="#3D3A36" transform="translate(0,0)"/>
<path d="" fill="#3E3D37" transform="translate(0,0)"/>
<path d="" fill="#413F3A" transform="translate(0,0)"/>
<path d="" fill="#3F3D38" transform="translate(0,0)"/>
<path d="" fill="#3E3B35" transform="translate(0,0)"/>
<path d="" fill="#3C3934" transform="translate(0,0)"/>
<path d="" fill="#3D3B37" transform="translate(0,0)"/>
<path d="" fill="#403C38" transform="translate(0,0)"/>
<path d="" fill="#3E3B37" transform="translate(0,0)"/>
<path d="" fill="#3D3A37" transform="translate(0,0)"/>
<path d="" fill="#403D38" transform="translate(0,0)"/>
<path d="" fill="#403E38" transform="translate(0,0)"/>
<path d="" fill="#413C38" transform="translate(0,0)"/>
<path d="" fill="#3F3C36" transform="translate(0,0)"/>
<path d="" fill="#3E3C37" transform="translate(0,0)"/>
<path d="" fill="#3F3D37" transform="translate(0,0)"/>
<path d="" fill="#3F3D37" transform="translate(0,0)"/>
<path d="" fill="#403F37" transform="translate(0,0)"/>
<path d="" fill="#3D3D36" transform="translate(0,0)"/>
<path d="" fill="#3E3B37" transform="translate(0,0)"/>
<path d="" fill="#403D37" transform="translate(0,0)"/>
<path d="" fill="#3E3C36" transform="translate(0,0)"/>
<path d="" fill="#3E3D36" transform="translate(0,0)"/>
<path d="" fill="#403C37" transform="translate(0,0)"/>
<path d="" fill="#3E3B36" transform="translate(0,0)"/>
<path d="" fill="#413E39" transform="translate(0,0)"/>
<path d="" fill="#3F3D3B" transform="translate(0,0)"/>
<path d="" fill="#3E3D38" transform="translate(0,0)"/>
<path d="" fill="#3F3E38" transform="translate(0,0)"/>
<path d="" fill="#3F3D38" transform="translate(0,0)"/>
<path d="" fill="#464441" transform="translate(0,0)"/>
<path d="" fill="#40403C" transform="translate(0,0)"/>
<path d="" fill="#494844" transform="translate(0,0)"/>
</svg>
