<?xml version="1.0" encoding="UTF-8"?>
<svg version="1.1" xmlns="http://www.w3.org/2000/svg" width="1024" height="1024">
<path d="M0 0 C0.66 0 1.32 0 2 0 C2.30852905 0.78310547 2.30852905 0.78310547 2.62329102 1.58203125 C9.40961294 18.77078565 16.60334984 35.53705968 25 52 C26.46347123 54.87242735 27.92076409 57.74788817 29.375 60.625 C29.70878662 61.27597656 30.04257324 61.92695313 30.38647461 62.59765625 C34.1949136 70.13423287 36.04341869 76.55670395 35 85 C34.10019206 87.22881298 33.09140136 89.13974338 31.77734375 91.1484375 C30.64467288 93.84635705 31.04848293 95.25348129 32 98 C33.90806015 100.5007384 33.90806015 100.5007384 36.375 102.9375 C41.86504862 108.76383365 46.77656644 114.9094806 51.65185547 121.25341797 C52.94550654 122.92940127 54.25327307 124.59316413 55.56640625 126.25390625 C61.83100091 134.21483168 67.53979809 142.46926889 73 151 C73.37479492 151.57911133 73.74958984 152.15822266 74.13574219 152.75488281 C84.27947275 168.53899312 92.99132813 185.88352729 98 204 C98.43892578 205.55074219 98.43892578 205.55074219 98.88671875 207.1328125 C102.34470058 220.59363932 103.72092706 235.12999018 103 249 C102.94634277 250.03568115 102.94634277 250.03568115 102.89160156 251.09228516 C101.56100596 273.67841703 95.33318075 294.75784109 86.84448242 315.62597656 C85.9754414 318.06903954 85.44610912 320.44869827 85 323 C86.36125 324.0209375 86.36125 324.0209375 87.75 325.0625 C91.83958908 328.53186704 94.58956878 332.09470038 95.34765625 337.4609375 C95.53299797 342.82778915 94.87978362 346.34475656 92 351 C89.22265625 353.4140625 89.22265625 353.4140625 86.0625 355.625 C79.38102076 359.79912922 79.38102076 359.79912922 75.43359375 366.18359375 C75.44052168 370.18101132 75.57562274 372.37758002 77.875 375.75 C83.93896374 380.11605389 90.31797509 382.81902694 97.36938477 385.18164062 C105.86601284 388.0288709 113.37809868 390.60606045 118.5 398.4375 C120.98980076 404.3507768 120.46279627 408.27067929 118.1875 414.125 C116.47166745 418.04759736 114.58555847 421.80849657 112.53515625 425.56640625 C99.02107702 450.33738481 89.69928238 477.78022966 87 506 C86.83564453 507.66482422 86.83564453 507.66482422 86.66796875 509.36328125 C83.64821719 546.2042503 88.15122614 583.98336914 100 619 C100.39960937 620.19753906 100.79921875 621.39507813 101.2109375 622.62890625 C106.86962274 638.40866273 115.32565549 652.68549651 129.625 661.8125 C131.2849298 662.90070476 132.94381503 663.99050485 134.6015625 665.08203125 C135.36919922 665.58581299 136.13683594 666.08959473 136.92773438 666.60864258 C142.70727589 670.48913352 146.64201982 674.31670939 148.609375 681.1015625 C149.75443406 687.58259681 147.72343074 692.187038 145 698 C141.13701146 706.57141227 139.55497894 712.57842351 142.75 721.625 C147.41643064 731.90393215 155.52621076 739.58175401 163.4296875 747.4296875 C163.91073441 747.90775848 164.39178131 748.38582947 164.8874054 748.87838745 C167.30028593 751.2712363 169.7251719 753.64853182 172.16967773 756.00927734 C182.54461559 766.14986236 192.83145379 778.39648896 193.03515625 793.62890625 C192.3581812 805.23655158 188.04459202 813.60672461 180.92578125 822.56640625 C179.00005057 824.82961853 179.00005057 824.82961853 178 827 C178.99580078 827.56267578 178.99580078 827.56267578 180.01171875 828.13671875 C184.95857053 831.00372628 189.19307327 833.66433345 193 838 C193.49113281 838.52335938 193.98226563 839.04671875 194.48828125 839.5859375 C202.64152736 848.52820742 206.81930135 860.51018196 206.28125 872.68359375 C205.39811036 879.95722995 204.22471644 887.16702537 198.91015625 892.546875 C188.26646859 900.64391347 172.87556625 903.2874687 160.0625 905.9375 C158.84248291 906.18983398 157.62246582 906.44216797 156.36547852 906.70214844 C133.20696502 911.30010204 109.51745856 914.01592013 86 916 C84.56672363 916.1252002 84.56672363 916.1252002 83.10449219 916.25292969 C79.92434688 916.52933391 76.74362241 916.79758858 73.5625 917.0625 C72.15230591 917.18177856 72.15230591 917.18177856 70.71362305 917.3034668 C67.47710787 917.56228983 64.23986025 917.78689173 61 918 C60.01939606 918.0667543 60.01939606 918.0667543 59.01898193 918.13485718 C41.59729917 919.27598815 24.14621195 919.1874489 6.69580078 919.18530273 C3.26052506 919.18522217 -0.17461532 919.19206725 -3.60986328 919.20581055 C-34.48523708 919.32715253 -65.23040043 918.36282959 -95.96655273 915.25 C-98.5257279 914.99107347 -101.08592613 914.74484187 -103.64648438 914.5 C-112.12108867 913.6760397 -120.53285079 912.71998379 -128.94165039 911.3671875 C-132.31880985 910.96172348 -135.60178657 910.94027463 -139 911 C-139 910.34 -139 909.68 -139 909 C-139.72268066 908.9597168 -140.44536133 908.91943359 -141.18994141 908.87792969 C-148.80996804 908.36086083 -155.97186646 907.09617945 -163.375 905.25 C-164.46554687 904.98123047 -165.55609375 904.71246094 -166.6796875 904.43554688 C-194.84727798 897.34334999 -194.84727798 897.34334999 -201.5 887.8125 C-206.22226159 878.95825952 -205.10790501 865.47194941 -202.4375 856 C-197.43726898 842.28856512 -188.79922496 833.6778565 -176 827 C-176.53625 826.195625 -177.0725 825.39125 -177.625 824.5625 C-178.17027344 823.73685547 -178.17027344 823.73685547 -178.7265625 822.89453125 C-179.61917557 821.56656395 -180.53255446 820.25243024 -181.4609375 818.94921875 C-188.0908647 809.47549029 -192.17765993 799.73053657 -190.59375 787.98828125 C-187.0351679 771.4451109 -174.76326066 759.41269992 -163 748 C-162.15566406 747.15179687 -161.31132812 746.30359375 -160.44140625 745.4296875 C-159.00272148 743.99790841 -157.54403386 742.58498891 -156.04296875 741.21875 C-148.10214862 733.86304293 -140.66159322 723.64206143 -139.8125 712.55078125 C-140.24625822 707.37279246 -141.52829763 703.64940921 -144 699.0625 C-147.3380113 692.78155603 -149.19357433 686.90594154 -147.46875 679.81640625 C-144.12628841 671.87805997 -136.57698862 666.87721176 -129.5 662.5 C-109.64800298 650.15133798 -101.34245695 628.65147813 -95 607 C-94.79133301 606.2898877 -94.58266602 605.57977539 -94.36767578 604.84814453 C-78.04988845 547.91500159 -81.37930383 482.24177251 -110.31079102 429.75390625 C-112.84955395 424.59330971 -112.84955395 424.59330971 -117 421 C-117.36270588 419.00511766 -117.69169075 417.00401011 -118 415 C-118.350625 414.2575 -118.70125 413.515 -119.0625 412.75 C-120.69829234 407.9516758 -121.08450244 402.80759515 -119.23046875 398.0078125 C-113.38562192 388.71388645 -101.98877334 385.69767329 -92.13256836 382.53515625 C-86.1527221 380.58179767 -81.20394592 378.63051609 -77.0625 373.6875 C-75.60980249 370.01302984 -75.96773204 367.78498251 -77 364 C-79.66511079 360.94734513 -82.63111086 358.78617225 -86 356.5625 C-90.21014691 353.66066089 -93.74050425 351.04378139 -95.75 346.1875 C-96.47770894 339.82004678 -96.54647801 335.50315553 -93 330 C-88.78947368 325.26315789 -88.78947368 325.26315789 -85 324 C-86.30594744 317.54784385 -88.10763712 311.54719826 -90.375 305.375 C-105.25271928 263.72277091 -106.17777837 220.56577685 -87.36328125 179.8828125 C-75.24842873 154.57133477 -59.4234377 131.53774582 -41.25 110.1875 C-40.79028809 109.6402124 -40.33057617 109.0929248 -39.85693359 108.52905273 C-37.90494792 106.20827993 -35.94050757 103.9384709 -33.83203125 101.7578125 C-32.08790084 99.8404241 -30.86109363 98.44628872 -30 96 C-30.57580816 93.24691724 -31.57985827 91.02708048 -32.81640625 88.50390625 C-34.92889344 84.03491519 -35.77485853 79.62817685 -34.35571289 74.81469727 C-31.4781354 67.78235259 -28.0156808 61.1353706 -24.4375 54.4375 C-15.12959999 36.81135418 -7.16686393 18.5975583 0 0 Z " fill="#FDFDFD" transform="translate(511,72)"/>
<path d="M0 0 C4.05355227 1.6427554 6.93347696 4.04347064 10.21875 6.890625 C11.64170201 8.08515489 13.06623983 9.27779774 14.4921875 10.46875 C15.59578613 11.3959082 15.59578613 11.3959082 16.72167969 12.34179688 C20.36395772 15.35882509 24.10105461 18.24980567 27.84375 21.140625 C28.58141602 21.71296875 29.31908203 22.2853125 30.07910156 22.875 C34.0569269 25.95949286 38.04522476 29.0300259 42.0390625 32.09375 C43.2768042 33.04713257 43.2768042 33.04713257 44.53955078 34.01977539 C46.12606094 35.24162739 47.71546186 36.45973757 49.30810547 37.67358398 C50.02111816 38.22344971 50.73413086 38.77331543 51.46875 39.33984375 C52.0978125 39.82155029 52.726875 40.30325684 53.375 40.79956055 C56.18437749 43.2736891 56.94485876 44.91756076 57.25636292 48.64086914 C57.28351371 50.08985001 57.29950977 51.5390648 57.30688477 52.98828125 C57.31842087 53.78059647 57.32995697 54.57291168 57.34184265 55.38923645 C57.37619088 58.01471937 57.39466609 60.63996649 57.41015625 63.265625 C57.42051061 64.6144577 57.42051061 64.6144577 57.43107414 65.99053955 C57.46693727 70.75590188 57.49045662 75.52114553 57.50415039 80.28662109 C57.52064191 85.18824495 57.57897399 90.08841163 57.64729404 94.98954773 C57.69229026 98.7747923 57.70566082 102.55969533 57.71076775 106.34518433 C57.71862053 108.15038993 57.73814026 109.95558688 57.76999092 111.76052856 C57.95227919 122.82688947 57.43839443 130.39126394 49.96875 139.203125 C48.78106547 140.74464951 47.59354292 142.28629885 46.40625 143.828125 C44.93006914 145.62225251 43.45044335 147.41354732 41.96875 149.203125 C40.93633115 150.48343334 39.90517895 151.76476367 38.875 153.046875 C28.00686463 166.50251301 16.31445988 179.09432639 3.96875 191.203125 C2.63425269 192.53529334 1.30060596 193.86831593 -0.03125 195.203125 C-6.40426115 192.50685105 -10.67846134 187.57705483 -15.0546875 182.4296875 C-17.23938972 179.96865931 -19.55044191 177.6880849 -21.90625 175.390625 C-26.15512971 171.18660526 -29.95904821 166.78374311 -33.68359375 162.11328125 C-35.3356034 160.06544898 -37.00053405 158.060624 -38.72265625 156.07421875 C-60.63286596 130.79791537 -60.63286596 130.79791537 -60.62817383 117.078125 C-60.64321457 116.30952148 -60.65825531 115.54091797 -60.67375183 114.74902344 C-60.71649617 112.23348279 -60.72949211 109.7189987 -60.73828125 107.203125 C-60.75369515 105.44010036 -60.7695461 103.67707949 -60.78581238 101.9140625 C-60.81418527 98.22907847 -60.82567735 94.54446248 -60.82739258 90.859375 C-60.83258209 86.15096513 -60.89765925 81.44544488 -60.97768116 76.73779297 C-61.02979913 73.10014206 -61.04095391 69.46318523 -61.04089928 65.82519531 C-61.04743864 64.0900497 -61.06861291 62.35489184 -61.10508156 60.62011719 C-61.36496404 47.10716945 -61.36496404 47.10716945 -58.06745911 42.39956665 C-55.8163097 40.37304266 -53.61379198 38.7737408 -51.03125 37.203125 C-50.01160156 36.38585937 -48.99195313 35.56859375 -47.94140625 34.7265625 C-46.53181641 33.66308594 -46.53181641 33.66308594 -45.09375 32.578125 C-43.97479387 31.72847866 -42.85633328 30.87817945 -41.73828125 30.02734375 C-41.1448291 29.57665527 -40.55137695 29.1259668 -39.93994141 28.66162109 C-37.13156275 26.51564334 -34.34550937 24.34142662 -31.55932617 22.16674805 C-30.03952868 20.98182395 -28.5175478 19.79969504 -26.9934082 18.62036133 C-23.06579464 15.58098308 -19.16814947 12.51312592 -15.3125 9.3828125 C-13.80208979 8.17707525 -12.29167335 6.97134579 -10.78125 5.765625 C-10.09063477 5.19158936 -9.40001953 4.61755371 -8.68847656 4.02612305 C-5.66598464 1.63734346 -3.90530692 0.26169582 0 0 Z M-7.28125 21.390625 C-8.15652344 22.11894531 -9.03179687 22.84726562 -9.93359375 23.59765625 C-10.4219873 24.00967285 -10.91038086 24.42168945 -11.41357422 24.84619141 C-14.52806046 27.45867474 -17.6892908 30.01418897 -20.84375 32.578125 C-21.52501953 33.13387207 -22.20628906 33.68961914 -22.90820312 34.26220703 C-28.30599938 38.65270403 -33.80011491 42.89847638 -39.359375 47.08203125 C-44.35343097 50.72190943 -44.35343097 50.72190943 -46.53918457 56.22531128 C-46.54236694 57.4063443 -46.54554932 58.58737732 -46.54882812 59.80419922 C-46.5558374 60.45838837 -46.56284668 61.11257751 -46.57006836 61.78659058 C-46.58763889 63.94409953 -46.57602801 66.10029073 -46.5625 68.2578125 C-46.56519588 69.76230113 -46.5690791 71.26678807 -46.57409668 72.77127075 C-46.57999094 75.92369178 -46.57143416 79.07565912 -46.55273438 82.22802734 C-46.52998336 86.25881669 -46.54304278 90.28853838 -46.56702423 94.31928825 C-46.58151814 97.42668617 -46.57685927 100.53383346 -46.56651306 103.64123917 C-46.56385362 105.12672173 -46.56708793 106.6122274 -46.57643127 108.09768295 C-46.58665269 110.18014991 -46.57102038 112.26092031 -46.54882812 114.34326172 C-46.54564575 115.52588593 -46.54246338 116.70851013 -46.53918457 117.92697144 C-45.56008706 124.24210332 -40.91326117 128.68994782 -36.84375 133.390625 C-33.27662104 137.5489908 -29.77264195 141.74141594 -26.34375 146.015625 C-15.77768071 159.50932945 -15.77768071 159.50932945 -1.578125 167.71484375 C2.12013114 166.97178922 3.81587224 165.10539345 6.53125 162.515625 C7.05009766 162.02304199 7.56894531 161.53045898 8.10351562 161.02294922 C13.45636963 155.8718765 18.46524992 150.40574221 23.43798828 144.89111328 C25.01802426 143.14878972 26.61359502 141.42205707 28.21484375 139.69921875 C28.74916016 139.12413574 29.28347656 138.54905273 29.83398438 137.95654297 C30.84638045 136.86774557 31.85935588 135.77948644 32.87304688 134.69189453 C40.96029909 126.09888614 40.96029909 126.09888614 43.16162109 114.71557617 C43.16979858 114.06153305 43.17797607 113.40748993 43.18640137 112.73362732 C43.21119475 110.57112532 43.22775559 108.4086887 43.2421875 106.24609375 C43.25017302 105.13613257 43.25017302 105.13613257 43.25831985 104.00374794 C43.28502501 100.08706321 43.30440834 96.17041007 43.31884766 92.25366211 C43.33218681 89.01672099 43.36004127 85.7804103 43.40087891 82.54370117 C43.45024903 78.63035937 43.47497359 74.71758928 43.48207474 70.80394936 C43.48877799 69.31561349 43.50397623 67.82728993 43.52796555 66.33913231 C44.04671839 57.3351014 44.04671839 57.3351014 40.60693359 49.38598633 C39.73633301 48.66564209 38.86573242 47.94529785 37.96875 47.203125 C37.06640625 46.4503125 36.1640625 45.6975 35.234375 44.921875 C34.23921875 44.1896875 33.2440625 43.4575 32.21875 42.703125 C25.96803922 38.03571981 19.95195328 33.11909855 13.96972656 28.11328125 C4.11543273 18.54777602 4.11543273 18.54777602 -7.28125 21.390625 Z " fill="#F2F1F0" transform="translate(513.03125,522.796875)"/>
<path d="M0 0 C3.32687959 1.20394215 4.87215603 2.80406761 6.8046875 5.7109375 C7.30291016 6.45512939 7.80113281 7.19932129 8.31445312 7.96606445 C8.82943359 8.76101318 9.34441406 9.55596191 9.875 10.375 C10.40802734 11.1899292 10.94105469 12.0048584 11.49023438 12.84448242 C28.79677974 39.65427004 31.29846533 69.44911956 28.125 100.625 C28.00741333 101.80570068 28.00741333 101.80570068 27.88745117 103.01025391 C27.46392934 106.69647746 26.99781005 109.82700757 25 113 C24.50371094 111.94941406 24.00742187 110.89882813 23.49609375 109.81640625 C19.68111248 101.87602102 15.89024443 94.62960565 10 88 C8.82824219 86.65035156 8.82824219 86.65035156 7.6328125 85.2734375 C3.80302319 80.54045205 3.80302319 80.54045205 -1 77 C-10.65595082 83.23558677 -17.02378013 92.06611841 -22.9375 101.75 C-23.31511475 102.36351318 -23.69272949 102.97702637 -24.08178711 103.60913086 C-26.46921472 107.65169643 -27.88298316 111.43836053 -29 116 C-31.05965689 112.91051467 -31.32529543 111.79462544 -31.6328125 108.23046875 C-31.71692383 107.27011719 -31.80103516 106.30976563 -31.88769531 105.3203125 C-31.96600586 104.28648437 -32.04431641 103.25265625 -32.125 102.1875 C-32.2084668 101.11886719 -32.29193359 100.05023438 -32.37792969 98.94921875 C-34.78821533 65.57906004 -32.03244064 35.38123719 -9.40625 8.97265625 C-2.57818211 1.28909105 -2.57818211 1.28909105 0 0 Z " fill="#F3F2F2" transform="translate(513,225)"/>
<path d="M0 0 C-15.55381872 12.36986054 -34.77816566 16.22680661 -53.9375 19.5625 C-55.04101807 19.76045166 -56.14453613 19.95840332 -57.28149414 20.16235352 C-82.78512705 24.40216844 -108.36121528 25.50420532 -134.16259766 25.39111328 C-138.08331545 25.37405255 -142.00342028 25.38419201 -145.92411709 25.40144062 C-180.76069029 25.53089437 -217.54100203 24.4292821 -251 14 C-252.24652344 13.64292969 -253.49304688 13.28585937 -254.77734375 12.91796875 C-263.8500753 10.21911823 -271.21695355 6.28932162 -279 1 C-275.32962036 -0.28718175 -272.63565004 0.27713653 -268.875 1.07421875 C-267.62984619 1.3278418 -266.38469238 1.58146484 -265.10180664 1.84277344 C-264.10263718 2.04960754 -264.10263718 2.04960754 -263.08328247 2.26062012 C-245.2089649 5.9231991 -227.27680748 8.16535128 -209.11505127 9.80859375 C-207.13085679 9.98815783 -205.14719314 10.17356063 -203.16357422 10.359375 C-139.99750109 16.01076645 -65.62226193 16.64686986 -3.70117188 -0.6418457 C-2 -1 -2 -1 0 0 Z " fill="#F2F2F1" transform="translate(653,910)"/>
<path d="M0 0 C1.86120483 0.13631836 1.86120483 0.13631836 3.76000977 0.27539062 C36.21332256 2.58485172 68.53659829 3.29067144 101.0625 3.25 C102.93043009 3.24892717 104.79836018 3.24786908 106.66629028 3.24682617 C132.23682278 3.22289434 157.84998329 3.12988004 183.375 1.4375 C191.58947783 0.89718491 199.77277464 0.90732787 208 1 C206.00205836 5.49536869 203.61816286 7.16167981 199.30566406 9.12011719 C195.24711744 10.66893147 191.10866582 11.67755203 186.875 12.625 C185.95066162 12.83737305 185.02632324 13.04974609 184.07397461 13.26855469 C166.59080541 17.19530462 148.92932135 18.13063976 131.0625 18.625 C130.26684631 18.64712555 129.47119263 18.6692511 128.65142822 18.69204712 C114.21931814 19.070047 99.8080368 18.97379469 85.375 18.6875 C84.40233185 18.67044006 83.4296637 18.65338013 82.42752075 18.63580322 C64.61004909 18.3066495 47.01696762 17.11328671 29.5 13.6875 C28.45070313 13.49994141 27.40140625 13.31238281 26.3203125 13.11914062 C16.82608254 11.2964829 7.28490295 8.6401263 0 2 C0 1.34 0 0.68 0 0 Z " fill="#F2F1F0" transform="translate(408,749)"/>
<path d="M0 0 C1.31037987 -0.00788544 1.31037987 -0.00788544 2.64723206 -0.01593018 C5.53315132 -0.02912798 8.41851854 -0.02039362 11.30444336 -0.01025391 C13.30936285 -0.01227452 15.31428163 -0.01518585 17.31919861 -0.01895142 C21.51983644 -0.02337432 25.72028285 -0.01694405 29.92089844 -0.00292969 C35.31042472 0.01417313 40.6995032 0.00431377 46.0890131 -0.01364708 C50.22821948 -0.02447638 54.3673193 -0.02104269 58.50652885 -0.0132637 C60.49409475 -0.0112599 62.48167026 -0.01372725 64.46922493 -0.02070236 C67.24406784 -0.02830397 70.01818037 -0.01673133 72.79296875 0 C73.61746521 -0.00607269 74.44196167 -0.01214539 75.29144287 -0.0184021 C80.91297575 0.04453347 80.91297575 0.04453347 83.04129696 1.79089928 C84.6477134 3.77921649 84.73555101 4.8569605 84.70678711 7.38818359 C84.71838867 8.40912109 84.71838867 8.40912109 84.73022461 9.45068359 C84.21157456 11.97274656 83.30732509 12.7693412 81.33178711 14.38818359 C78.3801012 14.6896916 75.63860093 14.80815016 72.68530273 14.79223633 C71.80210861 14.79909958 70.91891449 14.80596283 70.00895691 14.81303406 C67.08515415 14.83135825 64.16188504 14.82745692 61.23803711 14.82177734 C59.20926742 14.82633614 57.18049928 14.8316408 55.1517334 14.83766174 C50.89804819 14.84660367 46.64455062 14.84415704 42.39086914 14.83422852 C36.93284393 14.82273194 31.475465 14.84295555 26.01752472 14.87214565 C21.82769642 14.89046757 17.63802418 14.8902233 13.44816589 14.88450813 C11.43547152 14.88435446 9.42276688 14.89043686 7.41011047 14.90279961 C4.59908155 14.91763385 1.78926187 14.90708895 -1.02172852 14.88989258 C-2.27485588 14.90439453 -2.27485588 14.90439453 -3.55329895 14.91918945 C-9.15734006 14.8471939 -9.15734006 14.8471939 -11.68127441 12.57948303 C-13.14332666 9.33328852 -13.11451341 6.89483054 -12.66821289 3.38818359 C-9.2266462 -0.52830014 -4.83631994 -0.03570879 0 0 Z " fill="#F1F0F0" transform="translate(474.668212890625,437.61181640625)"/>
<path d="" fill="#F5F5F6" transform="translate(0,0)"/>
<path d="" fill="#FCFDFC" transform="translate(0,0)"/>
<path d="M0 0 C2 1 2 1 2 1 Z " fill="#FCFDFC" transform="translate(564,991)"/>
<path d="M0 0 C2 1 2 1 2 1 Z " fill="#FEFEFE" transform="translate(576,990)"/>
<path d="M0 0 C2 1 2 1 2 1 Z " fill="#FEFDFE" transform="translate(591,989)"/>
<path d="M0 0 C2 1 2 1 2 1 Z " fill="#FCFCFC" transform="translate(651,982)"/>
<path d="" fill="#F4F5F7" transform="translate(0,0)"/>
<path d="" fill="#FDFDFD" transform="translate(0,0)"/>
<path d="M0 0 C2 1 2 1 2 1 Z " fill="#FBFCFB" transform="translate(409,456)"/>
<path d="" fill="#FEFEFE" transform="translate(0,0)"/>
<path d="" fill="#FCFBFC" transform="translate(0,0)"/>
<path d="" fill="#FCFBFB" transform="translate(0,0)"/>
<path d="" fill="#FDFDFC" transform="translate(0,0)"/>
<path d="" fill="#FEFEFF" transform="translate(0,0)"/>
<path d="" fill="#FDFFFD" transform="translate(0,0)"/>
<path d="" fill="#FFFEFE" transform="translate(0,0)"/>
<path d="" fill="#FDFEFE" transform="translate(0,0)"/>
<path d="" fill="#FDFEFD" transform="translate(0,0)"/>
<path d="" fill="#FEFEFE" transform="translate(0,0)"/>
<path d="" fill="#FFFEFF" transform="translate(0,0)"/>
<path d="" fill="#FDFEFE" transform="translate(0,0)"/>
<path d="" fill="#FDFDFE" transform="translate(0,0)"/>
<path d="" fill="#FCFEFB" transform="translate(0,0)"/>
<path d="" fill="#FDFFFD" transform="translate(0,0)"/>
<path d="" fill="#FBFCFD" transform="translate(0,0)"/>
<path d="" fill="#FAFBFA" transform="translate(0,0)"/>
<path d="" fill="#FDFDFE" transform="translate(0,0)"/>
<path d="" fill="#FAFDFB" transform="translate(0,0)"/>
<path d="" fill="#F9FAF9" transform="translate(0,0)"/>
<path d="" fill="#F6F9FA" transform="translate(0,0)"/>
<path d="" fill="#FBFBFC" transform="translate(0,0)"/>
<path d="" fill="#F9F8FA" transform="translate(0,0)"/>
<path d="" fill="#F4F5F5" transform="translate(0,0)"/>
<path d="" fill="#EEF0EF" transform="translate(0,0)"/>
<path d="" fill="#F0F1F3" transform="translate(0,0)"/>
<path d="" fill="#F6F6F7" transform="translate(0,0)"/>
<path d="" fill="#F7F8F7" transform="translate(0,0)"/>
<path d="" fill="#FCFDFD" transform="translate(0,0)"/>
<path d="" fill="#FDFFFE" transform="translate(0,0)"/>
<path d="" fill="#FCFCFC" transform="translate(0,0)"/>
<path d="" fill="#FDFEFD" transform="translate(0,0)"/>
<path d="" fill="#FDFDFE" transform="translate(0,0)"/>
<path d="" fill="#F9FBFB" transform="translate(0,0)"/>
<path d="" fill="#FAFBFB" transform="translate(0,0)"/>
<path d="" fill="#F8F7F8" transform="translate(0,0)"/>
<path d="" fill="#F7F8F9" transform="translate(0,0)"/>
<path d="" fill="#F7F9F8" transform="translate(0,0)"/>
<path d="" fill="#F9FAF9" transform="translate(0,0)"/>
<path d="" fill="#FAFBFA" transform="translate(0,0)"/>
<path d="" fill="#FBFCFC" transform="translate(0,0)"/>
<path d="" fill="#FBFBFC" transform="translate(0,0)"/>
<path d="" fill="#F6F8F8" transform="translate(0,0)"/>
<path d="" fill="#F8F9F9" transform="translate(0,0)"/>
<path d="" fill="#F8F8F7" transform="translate(0,0)"/>
<path d="" fill="#F3F4F5" transform="translate(0,0)"/>
<path d="" fill="#F6F7F6" transform="translate(0,0)"/>
<path d="" fill="#F9FAFA" transform="translate(0,0)"/>
<path d="" fill="#F6F8F6" transform="translate(0,0)"/>
<path d="" fill="#F9FBFA" transform="translate(0,0)"/>
<path d="" fill="#FCFCFC" transform="translate(0,0)"/>
<path d="" fill="#FDFDFD" transform="translate(0,0)"/>
<path d="" fill="#FCFCFB" transform="translate(0,0)"/>
<path d="" fill="#616263" transform="translate(0,0)"/>
<path d="" fill="#FCFAF9" transform="translate(0,0)"/>
<path d="" fill="#5D5F5E" transform="translate(0,0)"/>
<path d="" fill="#FDFDFE" transform="translate(0,0)"/>
<path d="" fill="#FAF9FC" transform="translate(0,0)"/>
<path d="" fill="#FDFCFD" transform="translate(0,0)"/>
<path d="" fill="#FBFEFE" transform="translate(0,0)"/>
<path d="" fill="#626260" transform="translate(0,0)"/>
<path d="" fill="#FDFCFC" transform="translate(0,0)"/>
<path d="" fill="#595959" transform="translate(0,0)"/>
<path d="" fill="#FDFEFE" transform="translate(0,0)"/>
<path d="" fill="#FCFBFC" transform="translate(0,0)"/>
<path d="" fill="#FFFEFC" transform="translate(0,0)"/>
<path d="" fill="#FDFBFE" transform="translate(0,0)"/>
<path d="" fill="#FAFBF9" transform="translate(0,0)"/>
<path d="" fill="#F7F6F6" transform="translate(0,0)"/>
<path d="" fill="#FAFAFB" transform="translate(0,0)"/>
<path d="" fill="#646463" transform="translate(0,0)"/>
<path d="" fill="#F9FBF9" transform="translate(0,0)"/>
<path d="" fill="#FBFCFC" transform="translate(0,0)"/>
<path d="" fill="#FAFAFA" transform="translate(0,0)"/>
<path d="" fill="#FDFEFD" transform="translate(0,0)"/>
<path d="" fill="#FFFFFD" transform="translate(0,0)"/>
<path d="" fill="#FFFFFF" transform="translate(0,0)"/>
<path d="" fill="#FDFEFE" transform="translate(0,0)"/>
<path d="" fill="#FBFDFD" transform="translate(0,0)"/>
<path d="" fill="#5A5A59" transform="translate(0,0)"/>
<path d="" fill="#FEFFFD" transform="translate(0,0)"/>
<path d="" fill="#FEFEFE" transform="translate(0,0)"/>
<path d="" fill="#FDFEFE" transform="translate(0,0)"/>
<path d="" fill="#FBFAF9" transform="translate(0,0)"/>
<path d="" fill="#FCFCFB" transform="translate(0,0)"/>
<path d="" fill="#FAFCFC" transform="translate(0,0)"/>
<path d="" fill="#FBFDFC" transform="translate(0,0)"/>
<path d="" fill="#FEFFFD" transform="translate(0,0)"/>
<path d="" fill="#FEFFFD" transform="translate(0,0)"/>
<path d="" fill="#FFFEFC" transform="translate(0,0)"/>
<path d="" fill="#FDFEFE" transform="translate(0,0)"/>
<path d="" fill="#FEFEFD" transform="translate(0,0)"/>
<path d="" fill="#FBFDFD" transform="translate(0,0)"/>
<path d="" fill="#6F7070" transform="translate(0,0)"/>
<path d="" fill="#FBFBFB" transform="translate(0,0)"/>
<path d="" fill="#555755" transform="translate(0,0)"/>
<path d="" fill="#5F6060" transform="translate(0,0)"/>
<path d="" fill="#575856" transform="translate(0,0)"/>
<path d="" fill="#F7F8F8" transform="translate(0,0)"/>
<path d="" fill="#F9F9F9" transform="translate(0,0)"/>
<path d="" fill="#F7F8F7" transform="translate(0,0)"/>
<path d="" fill="#5E5E5E" transform="translate(0,0)"/>
<path d="" fill="#F6F6F9" transform="translate(0,0)"/>
<path d="" fill="#F7F6F6" transform="translate(0,0)"/>
<path d="" fill="#636462" transform="translate(0,0)"/>
<path d="" fill="#FAF9F9" transform="translate(0,0)"/>
<path d="" fill="#FAF9F9" transform="translate(0,0)"/>
<path d="" fill="#565554" transform="translate(0,0)"/>
<path d="" fill="#FBFBF9" transform="translate(0,0)"/>
<path d="" fill="#FDFDFB" transform="translate(0,0)"/>
<path d="" fill="#FCFBFB" transform="translate(0,0)"/>
<path d="" fill="#757575" transform="translate(0,0)"/>
<path d="" fill="#FAFBFA" transform="translate(0,0)"/>
<path d="" fill="#F9F9FA" transform="translate(0,0)"/>
<path d="" fill="#F8F7F7" transform="translate(0,0)"/>
<path d="" fill="#515250" transform="translate(0,0)"/>
<path d="" fill="#F6F7F6" transform="translate(0,0)"/>
<path d="" fill="#F6F6F4" transform="translate(0,0)"/>
<path d="" fill="#F1F3F2" transform="translate(0,0)"/>
<path d="" fill="#E8E7E8" transform="translate(0,0)"/>
<path d="" fill="#5D605C" transform="translate(0,0)"/>
<path d="" fill="#585858" transform="translate(0,0)"/>
</svg>
