<?xml version="1.0" encoding="UTF-8"?>
<svg version="1.1" xmlns="http://www.w3.org/2000/svg" width="1024" height="1024">
<path d="M0 0 C5.28125283 0.77006214 10.56059605 1.55187939 15.83862305 2.34375 C17.62722774 2.61050972 19.41628162 2.87427818 21.20581055 3.13476562 C48.60779617 7.12944814 68.72023894 14.10251426 86.93359375 36.36328125 C92.71921771 44.31350356 97.60506769 53.21013538 102 62 C103.20089007 45.80421233 102.58145718 30.15525291 101 14 C119.60394674 15.62109079 143.55843461 20.14372207 157 34 C165.98638099 45.33487364 167.8073104 60.12957717 170 74 C177.3721632 66.46028764 180.37264588 58.08224373 181.05078125 47.59375 C180.97637325 43.79321833 180.15870701 40.6124395 179 37 C184.04841607 37.55399929 188.10108136 39.2558424 192.5625 41.5625 C193.26503906 41.92182617 193.96757813 42.28115234 194.69140625 42.65136719 C220.60721307 56.09049708 243.84104479 75.18740573 262 98 C262.65742187 98.79019531 263.31484375 99.58039063 263.9921875 100.39453125 C280.55737302 120.45237637 301.42622959 150.71636165 299 178 C297.03372405 191.06040169 290.83941638 198.89176167 280.94140625 207.28515625 C280.30074219 207.85105469 279.66007812 208.41695312 279 209 C279 209.33 279 209.66 279 210 C288.69880297 210.60338175 297.65599866 208.37052251 307 206 C327.30536765 248.98408997 309.54166054 318.31594353 301.47186279 363.36505127 C300.05390391 371.28313469 298.64804388 379.20337739 297.25 387.125 C297.10144562 387.96652618 296.95289124 388.80805237 296.79983521 389.67507935 C294.50076153 402.73976507 292.38419646 415.8014359 291 429 C290.80470703 430.85625 290.80470703 430.85625 290.60546875 432.75 C290.30856884 436.17028692 290.1226683 439.56900486 290 443 C289.95915283 444.09900635 289.95915283 444.09900635 289.91748047 445.22021484 C288.84038489 478.74566144 294.75550539 510.35947923 316 537 C316.59167969 537.58007812 317.18335938 538.16015625 317.79296875 538.7578125 C319 540 319 540 319 542 C319.639375 542.268125 320.27875 542.53625 320.9375 542.8125 C323 544 323 544 324 547 C314.58525188 556.6871459 303.44748781 563.8046208 292.04321289 570.91381836 C285.8854361 574.75598274 279.91456112 578.79424412 274 583 C272.7599207 583.86443881 271.51911631 584.72783908 270.27734375 585.58984375 C264.06475566 589.9429923 258.18439831 594.35844823 252.671875 599.6015625 C251 601 251 601 249 601 C248.690625 601.61875 248.38125 602.2375 248.0625 602.875 C247.375 604.25 246.6875 605.625 246 607 C245.49968794 610.41571853 245.49968794 610.41571853 246 614 C248.19318462 616.41250308 250.61245025 617.77585976 253.41796875 619.3984375 C259.34022263 622.84506679 263.33818755 625.43897331 266.3125 631.8125 C268.0507279 639.87155664 264.76346485 646.45921216 261.5625 653.6875 C257.00713944 664.42545404 252.39290024 675.46130924 257 687 C262.95335398 700.58404181 276.02842079 711.46844056 287 721 C301.4114749 733.77380729 315.04131452 746.39276441 316.31640625 766.7421875 C315.54624365 774.67200983 311.06788133 782.56529488 305.25 787.9375 C300.4297342 791.65707518 295.20547083 794.85183841 290 798 C293.69448581 799.55989401 297.38632738 800.68609015 301.25 801.75 C310.33946217 804.55386799 316.82343969 808.31761534 321.78515625 816.60546875 C328.01989618 828.89452204 327.97964283 842.82526177 325.08203125 856.01171875 C323.02387544 861.69579526 320.32724539 864.04628895 314.94921875 866.59375 C309.34601478 868.96979806 303.66319382 870.8391896 297.8125 872.5 C296.27577637 872.94110107 296.27577637 872.94110107 294.70800781 873.39111328 C287.27523486 875.47414733 279.80098865 877.27539131 272.25 878.875 C270.82457886 879.17954102 270.82457886 879.17954102 269.37036133 879.49023438 C263.35305854 880.70663763 257.45980186 881.351543 251.32714844 881.66064453 C250.55918945 881.77263184 249.79123047 881.88461914 249 882 C248.67 882.66 248.34 883.32 248 884 C245.74316406 884.3503418 245.74316406 884.3503418 242.765625 884.51171875 C238.38857887 884.80734326 234.07807293 885.2152585 229.734375 885.83203125 C213.29508141 888.14821221 196.85679507 889.81862947 180.3125 891.1875 C179.30368774 891.27190338 178.29487549 891.35630676 177.25549316 891.44326782 C174.29178554 891.68956023 171.32767133 891.93004146 168.36328125 892.16796875 C167.09068199 892.27242813 167.09068199 892.27242813 165.79237366 892.3789978 C149.6069823 893.64379376 133.44154046 894.16105531 117.2109375 894.16796875 C115.37041196 894.17120171 113.52988665 894.17456709 111.68936157 894.17805481 C107.85572721 894.18398354 104.02211517 894.1859015 100.18847656 894.18530273 C96.33784233 894.18522197 92.48732833 894.19209679 88.63671875 894.20581055 C56.89655652 894.31692545 25.52349179 893.22478631 -6.0625 889.9375 C-7.80657705 889.76173777 -9.55071824 889.5866109 -11.29492188 889.41210938 C-15.86446344 888.95234508 -20.43312639 888.48559468 -25 888 C-26.13838066 887.8790522 -26.13838066 887.8790522 -27.29975891 887.75566101 C-31.81023494 887.26651098 -36.29747185 886.69941243 -40.78515625 886.02734375 C-41.97431641 885.85009766 -43.16347656 885.67285156 -44.38867188 885.49023438 C-46.2072168 885.21663086 -46.2072168 885.21663086 -48.0625 884.9375 C-49.30966797 884.75123047 -50.55683594 884.56496094 -51.84179688 884.37304688 C-54.89475793 883.91685729 -57.94748124 883.45913813 -61 883 C-61.33 883.66 -61.66 884.32 -62 885 C-62 884.01 -62 883.02 -62 882 C-62.65701904 881.95319092 -63.31403809 881.90638184 -63.9909668 881.8581543 C-71.04625537 881.29430314 -77.88086443 880.22735554 -84.8125 878.8125 C-85.88838379 878.59327881 -86.96426758 878.37405762 -88.07275391 878.14819336 C-124.64539084 870.51347439 -124.64539084 870.51347439 -133.5 861.4375 C-139.03558105 848.75179343 -139.57815897 834.28024011 -134.921875 821.16796875 C-131.26895632 812.57741846 -126.48983332 808.09579781 -118 804 C-112.76573861 802.00905395 -107.39972606 800.4701889 -102 799 C-102.66 798.67 -103.32 798.34 -104 798 C-105.67145202 796.67267046 -107.33686649 795.33773782 -109 794 C-109.93779297 793.33097656 -109.93779297 793.33097656 -110.89453125 792.6484375 C-118.74178489 787.03682591 -124.55223785 781.12340944 -126.5390625 771.34765625 C-128.19509137 758.99238204 -124.01743171 749.51617193 -116.78051758 739.82446289 C-115.53536924 738.20464788 -114.26840733 736.60166722 -113 735 C-112.43796875 734.27683594 -111.8759375 733.55367187 -111.296875 732.80859375 C-108.18896803 728.99201568 -104.64512614 725.82142138 -100.89453125 722.64453125 C-99.21079116 721.18297542 -97.66345585 719.67356734 -96.125 718.0625 C-94 716 -94 716 -92 716 C-91.67 715.01 -91.34 714.02 -91 713 C-89.50390625 711.5625 -89.50390625 711.5625 -87.5625 710 C-78.54032937 702.30604839 -67.78722593 692.07848023 -65.62109375 679.86328125 C-64.97869658 670.93806106 -68.6786619 664.69354324 -72.84033203 657.12011719 C-74.77027422 653.59177655 -76.6087128 650.01901501 -78.4375 646.4375 C-78.77910156 645.79530518 -79.12070312 645.15311035 -79.47265625 644.49145508 C-81.90806353 639.75119715 -83.65010108 635.13480946 -82.5390625 629.77734375 C-79.68156327 624.02571069 -75.73060865 620.84056076 -70 618 C-66.4375 617.125 -66.4375 617.125 -64 617 C-63.67 616.01 -63.34 615.02 -63 614 C-62.34 613.67 -61.68 613.34 -61 613 C-61.66 612.67 -62.32 612.34 -63 612 C-62.67 611.34 -62.34 610.68 -62 610 C-62.53625 609.773125 -63.0725 609.54625 -63.625 609.3125 C-69.13685839 606.26647299 -73.08482182 601.94874797 -77.1015625 597.1953125 C-78.36498466 595.73431816 -79.67337927 594.31102121 -81.0234375 592.9296875 C-97.38759394 575.97476729 -110.74274145 550.80485931 -111.3125 526.875 C-111.36857422 525.35519531 -111.36857422 525.35519531 -111.42578125 523.8046875 C-110.29253517 513.67825009 -105.60340876 504.63515227 -100.875 495.75 C-100.29951416 494.65880859 -99.72402832 493.56761719 -99.13110352 492.44335938 C-86.34012905 468.4405431 -70.27525657 446.72807252 -52.625 426.09765625 C-50.14883043 423.19521627 -47.76038836 420.22759416 -45.375 417.25 C-41.93058122 413.01213475 -38.28232378 409.13578461 -34.3359375 405.36328125 C-32.37431833 403.37869998 -30.56068702 401.358884 -28.7421875 399.24609375 C-24.94626795 394.86810604 -20.8838493 390.80672525 -16.75 386.75 C-15.3465901 385.37219977 -13.94546283 383.99206979 -12.546875 382.609375 C-11.63180176 381.7117041 -11.63180176 381.7117041 -10.69824219 380.79589844 C-8.92647423 379.00302259 -8.92647423 379.00302259 -7.40332031 376.77441406 C-6.70867676 375.8960791 -6.70867676 375.8960791 -6 375 C-5.34 375 -4.68 375 -4 375 C-3.74347656 374.41347656 -3.48695313 373.82695312 -3.22265625 373.22265625 C-1.88826104 370.79687071 -0.45514672 369.32471299 1.5625 367.4375 C6.48669944 362.62822801 10.7066284 357.37010044 15 352 C15.94896926 350.85158071 16.89955964 349.70449954 17.8515625 348.55859375 C30.06473631 333.75504839 42.87472603 316.37582192 49 298 C50.9765625 297.04296875 50.9765625 297.04296875 53.625 296.1875 C70.47442268 290.44686444 86.63138443 284.32004753 99 271 C99.59296875 270.40058594 100.1859375 269.80117188 100.796875 269.18359375 C115.01436831 254.22216184 121.81946389 234.4719555 122 214 C121.72292691 208.60747871 120.9521976 203.31033277 120 198 C119.84144531 199.06476563 119.68289063 200.12953125 119.51953125 201.2265625 C114.91317687 230.53602087 100.33274981 253.93837201 76.5 271.52734375 C71.20176736 275.32728134 65.72135409 278.70530483 60.01318359 281.8515625 C57.96476092 283.02010243 56.00092589 284.28424297 54.01953125 285.5625 C42.14119905 292.68867644 30.98320052 292.5627477 17.58032227 292.19116211 C-2.48391225 291.64440483 -19.62032448 294.90937849 -35.265625 308.31640625 C-43.27073981 316.17285464 -49.42809525 325.31374174 -55 335 C-59.40022902 341.97967362 -66.46776359 343.73787154 -74.125 345.6875 C-94.83716056 350.05553386 -117.87105026 348.66414976 -136 337 C-146.33510733 329.81648417 -150.27924352 318.95635188 -153 307 C-156.52962795 286.75681243 -156.17962716 266.39946738 -144 249 C-143.45988281 248.21367187 -142.91976563 247.42734375 -142.36328125 246.6171875 C-134.39524582 235.86638916 -123.35292897 227.44087241 -112.5 219.76953125 C-107.43488791 216.1843816 -102.3779428 212.54150185 -98.0625 208.0625 C-97.381875 207.381875 -96.70125 206.70125 -96 206 C-95.34 206 -94.68 206 -94 206 C-94 205.34 -94 204.68 -94 204 C-93.34 204 -92.68 204 -92 204 C-91.67 203.01 -91.34 202.02 -91 201 C-90.29875 200.443125 -89.5975 199.88625 -88.875 199.3125 C-85.07518564 196.25612758 -82.15256469 192.70686177 -79 189 C-78.10278924 187.97548689 -77.20425954 186.95212792 -76.3046875 185.9296875 C-62.592035 170.27045833 -50.54361053 153.70011636 -40.9375 135.1875 C-34.39676091 123.10943066 -27.28172558 115.34871678 -15 109 C-13.45566581 108.19152727 -11.91139885 107.38292609 -10.3671875 106.57421875 C-7.90143417 105.28590013 -5.43512528 103.99876701 -2.96606445 102.71679688 C13.84748349 94.32480636 13.84748349 94.32480636 25 80 C27.91964682 54.87745756 13.49436736 25.38240893 -0.06640625 4.91796875 C-1 3 -1 3 0 0 Z M248 99 C247.85304688 99.73863281 247.70609375 100.47726563 247.5546875 101.23828125 C245.36402995 111.14660019 241.53555232 119.2076107 235 127 C235 127.66 235 128.32 235 129 C234.34 129.33 233.68 129.66 233 130 C240.92264996 130.43214454 247.54230284 129.15907435 254 124.3125 C256.8014441 121.64850994 258.16663218 119.22051208 258.3359375 115.21875 C257.4435091 109.32457171 254.48888534 104.38962632 250.1875 100.375 C249.465625 99.92125 248.74375 99.4675 248 99 Z M147 116 C148.95536666 118.10020864 150.66899215 119.81800458 153.1953125 121.20703125 C157.01028172 123.64584862 160.00905642 126.66830717 163.1875 129.875 C163.85168945 130.5448291 164.51587891 131.2146582 165.20019531 131.90478516 C175.24706071 142.19758691 183.1699309 153.81034016 190.74658203 165.98779297 C191.85817425 167.77231636 192.98831045 169.54525889 194.12109375 171.31640625 C209.58247873 196.67058887 217.80624213 227.79509414 222 257 C222.14808105 258.02915527 222.29616211 259.05831055 222.44873047 260.11865234 C227.44115686 296.77456235 225.44505852 333.41846986 221 370 C220.45648355 374.54144719 219.91389315 379.08300175 219.375 383.625 C219.19493408 385.1423877 219.19493408 385.1423877 219.01123047 386.69042969 C213.81443929 431.80638313 208.9024392 489.8743063 235.0625 529.75 C235.56910156 530.52859375 236.07570313 531.3071875 236.59765625 532.109375 C237.87111586 534.12387331 237.87111586 534.12387331 240 535 C239.71125 533.741875 239.4225 532.48375 239.125 531.1875 C238.96257812 530.47980469 238.80015625 529.77210938 238.6328125 529.04296875 C238.01992277 526.72257026 238.01992277 526.72257026 236 524 C236 523.67 236 523.34 236 523 C235.73863447 521.64397415 235.46527857 520.29025908 235.1875 518.9375 C235.00574219 518.02355469 234.82398438 517.10960937 234.63671875 516.16796875 C234.19290888 513.95981046 233.73617278 511.75422762 233.26953125 509.55078125 C230.78295231 497.2693533 229 484.55247551 229 472 C228.97669975 470.25911274 228.95323914 468.51822763 228.9296875 466.77734375 C228.63838661 437.97092192 230.92305688 409.77100146 234.26005173 381.18133545 C240.9904441 325.189934 240.9904441 325.189934 238 269 C237.67 268.67 237.34 268.34 237 268 C236.91469981 266.06336984 236.85901079 264.12544975 236.8125 262.1875 C236.44062609 254.25886751 234.85238638 246.62074175 233.1875 238.875 C232.93911377 237.70864014 232.69072754 236.54228027 232.43481445 235.34057617 C230.00388471 224.32980333 226.63106145 213.66515865 223 203 C222.64010986 201.91936279 222.64010986 201.91936279 222.27294922 200.81689453 C213.80005445 175.59796414 199.06169442 149.85728837 178 133 C177.16082031 132.29746094 176.32164062 131.59492188 175.45703125 130.87109375 C169.7518489 126.037562 169.7518489 126.037562 163 123 C162.01 123.33 161.02 123.66 160 124 C160.33 123.01 160.66 122.02 161 121 C159.23244474 120.15973604 157.46082737 119.32801278 155.6875 118.5 C154.70136719 118.0359375 153.71523438 117.571875 152.69921875 117.09375 C150.02199874 115.81222528 150.02199874 115.81222528 147 116 Z M21 150 C19.58603027 150.13595863 18.16823316 150.23243845 16.75 150.3125 C4.86777375 151.43442694 -5.89629666 155.4329188 -14.25 164.125 C-20.45460758 171.97149538 -22.78699019 181.16281982 -23 191 C0.71771926 186.67586293 23.48495504 175.54445556 37.671875 155.65625 C40.16562678 152.09864359 40.16562678 152.09864359 41 148 C30.32202522 147.14227967 30.32202522 147.14227967 21 150 Z M-125 267 C-128.30127938 271.85869357 -128.9131492 278.28392317 -128 284 C-127.34 284.66 -126.68 285.32 -126 286 C-117.85310326 274.91317624 -117.85310326 274.91317624 -111 263 C-116.44480328 262.45551967 -120.7102542 263.63827868 -125 267 Z M-98 303 C-98 303.66 -98 304.32 -98 305 C-98.66 305 -99.32 305 -100 305 C-101.77792461 307.04712784 -103.42930397 309.09242561 -105.0625 311.25 C-105.52205078 311.83652344 -105.98160156 312.42304688 -106.45507812 313.02734375 C-108.72073806 315.98833837 -110.2663923 318.35227071 -111 322 C-111.66 322 -112.32 322 -113 322 C-114.58826222 323.71497772 -114.58826222 323.71497772 -116.125 325.875 C-116.66382813 326.59429687 -117.20265625 327.31359375 -117.7578125 328.0546875 C-119.17939632 329.89626006 -119.17939632 329.89626006 -119 332 C-120.32 332.66 -121.64 333.32 -123 334 C-122.67 334.66 -122.34 335.32 -122 336 C-110.44679271 334.25611965 -101.91985561 325.98043484 -95 317 C-93.507831 314.80426945 -92.07340574 312.5796419 -90.6484375 310.33984375 C-88.04830343 306.64913211 -84.95634726 303.43634635 -81.85546875 300.1640625 C-79.80718326 298.05060734 -79.80718326 298.05060734 -79 295 C-78.34 294.67 -77.68 294.34 -77 294 C-84.9777535 294 -91.95785428 298.00866223 -98 303 Z M94 408 C93.5978125 408.56976563 93.195625 409.13953125 92.78125 409.7265625 C90.85700858 412.18250221 88.76025972 414.22481787 86.5 416.375 C80.91119826 421.91520346 76.13514463 427.90698582 71.39013672 434.17431641 C70.0803065 435.89453248 68.7489573 437.59526155 67.41015625 439.29296875 C51.38346763 459.86357785 36.79410764 482.29277053 24 505 C23.5364209 505.81629883 23.0728418 506.63259766 22.59521484 507.47363281 C14.58539217 520.9681268 14.58539217 520.9681268 11 536 C13.83891446 545.6197611 33.77666682 552.80785428 41.81808472 557.21136475 C50.95621971 562.21677759 59.88030569 567.49310611 68.64086914 573.13964844 C69.44000732 573.64915039 70.23914551 574.15865234 71.0625 574.68359375 C71.75472656 575.13275146 72.44695312 575.58190918 73.16015625 576.04467773 C75.09823265 577.2304112 75.09823265 577.2304112 78 577 C77.85691406 575.78441406 77.71382813 574.56882812 77.56640625 573.31640625 C74.75120251 547.90013119 74.71658683 523.43649777 77 498 C77.13680176 496.45844238 77.13680176 496.45844238 77.27636719 494.88574219 C79.82227528 467.55966199 85.07490925 438.44184427 94.23046875 412.515625 C95.30509619 410.03578381 95.30509619 410.03578381 94 408 Z M-47 622 C-47.3480157 624.99643208 -47.3480157 624.99643208 -45.515625 626.53125 C-42.09896821 628.52606825 -38.55061752 629.51761035 -34.75 630.5 C-33.93241211 630.71358154 -33.11482422 630.92716309 -32.27246094 631.1472168 C-20.60587467 634.02684732 -7.97274902 636.17028288 4.078125 636.01171875 C7 636 7 636 9 637 C11.43965068 637.28926719 13.86089696 637.52417489 16.30859375 637.71875 C17.0761348 637.78137024 17.84367584 637.84399048 18.63447571 637.9085083 C131.03193983 650.88927802 131.03193983 650.88927802 239 629 C239.87980051 626.95292092 239.87980051 626.95292092 240 625 C239.05125 625.020625 238.1025 625.04125 237.125 625.0625 C234 625 234 625 232 624 C228.35538008 623.87509689 224.70507834 624.10330829 221.0625 624.25 C219.89823486 624.29447266 218.73396973 624.33894531 217.53442383 624.38476562 C204.29161882 624.94623823 191.07484002 625.91183317 177.85766602 626.89550781 C154.35988641 628.63403145 130.93206934 629.24149538 107.375 629.25 C106.24706905 629.25088371 106.24706905 629.25088371 105.09635162 629.25178528 C64.84513422 629.27392207 24.90005317 626.69173472 -15.19775391 623.27050781 C-25.83274754 622.37635616 -36.32373935 621.72413583 -47 622 Z M58 673 C57.34338379 674.1351001 56.68676758 675.2702002 56.01025391 676.43969727 C55.12421842 677.96121383 54.23797689 679.48261041 53.3515625 681.00390625 C52.92174072 681.74821899 52.49191895 682.49253174 52.04907227 683.25939941 C47.57473598 690.91987936 42.41847429 697.98711441 37 705 C36.2884375 705.92554688 35.576875 706.85109375 34.84375 707.8046875 C30.15739812 713.77420715 25.21763383 719.48983653 20 725 C19.40541992 725.6285791 18.81083984 726.2571582 18.19824219 726.90478516 C8.51033205 737.06161871 -1.49071044 745.96053663 -13 754 C-9.17657736 756.54894843 -5.64160862 757.14577168 -1.1875 758.0625 C0.07888306 758.32800659 0.07888306 758.32800659 1.37084961 758.59887695 C7.7327197 759.87582223 13.92191821 760.5592382 20.41015625 760.82421875 C23 761 23 761 25 762 C26.52855444 762.20978017 28.06431598 762.36824442 29.6015625 762.5 C30.55248779 762.5820166 31.50341309 762.6640332 32.4831543 762.74853516 C90.12711288 767.3622019 150.51769305 767.9068445 207 754 C204.06251405 750.90316929 200.96225074 748.42715611 197.5 745.9375 C183.49086664 735.61691293 171.30829235 722.99991172 161 709 C160.53867676 708.38415039 160.07735352 707.76830078 159.60205078 707.13378906 C157.95356959 704.92999214 156.31939548 702.71610176 154.6875 700.5 C154.17848145 699.81921387 153.66946289 699.13842773 153.14501953 698.43701172 C152.36747314 697.36990967 152.36747314 697.36990967 151.57421875 696.28125 C151.03598984 695.5450795 150.49776093 694.808909 149.94322205 694.0504303 C148.39669665 691.6227263 147.26183725 689.44181225 146.11302185 686.83155823 C142.53910009 678.71107591 142.53910009 678.71107591 136.08558464 673.02853012 C130.65356287 671.54319967 125.09705308 671.89909723 119.5234375 672.12109375 C117.74413334 672.13037834 115.96477548 672.13213294 114.18545532 672.12672424 C109.52983014 672.13258635 104.88200706 672.23981241 100.22839355 672.36914062 C95.46914315 672.48315903 90.70962107 672.50003441 85.94921875 672.52539062 C76.63003391 672.58919771 67.31620383 672.76023807 58 673 Z M-72 805 C-72 805.99 -72 806.98 -72 808 C-44.10168503 830.75725951 9.73035956 833.85593977 44.33203125 832.97265625 C47 833 47 833 49 834 C51.46943111 834.07441968 53.91033698 834.09141833 56.37890625 834.0625 C57.46980812 834.05682007 57.46980812 834.05682007 58.58274841 834.05102539 C60.90939179 834.03878918 63.23591252 834.020154 65.5625 834 C68.62629858 833.97352 71.69003694 833.95347347 74.75390625 833.9375 C75.81950523 833.92505249 75.81950523 833.92505249 76.90663147 833.91235352 C78.60465068 833.90377918 80.30279508 833.94672511 82 834 C82.33 834.33 82.66 834.66 83 835 C84.5742311 835.10063231 86.15302574 835.13082024 87.73046875 835.1328125 C89.25619507 835.13583374 89.25619507 835.13583374 90.81274414 835.13891602 C91.92641357 835.13432373 93.04008301 835.12973145 94.1875 835.125 C95.32759521 835.12234131 96.46769043 835.11968262 97.64233398 835.11694336 C106.95346459 835.06727226 116.25636022 834.85369053 125.5625 834.5625 C126.22978119 834.5429425 126.89706238 834.52338501 127.58456421 834.50323486 C129.47451799 834.44645426 131.36422479 834.38162369 133.25390625 834.31640625 C134.88307983 834.26141968 134.88307983 834.26141968 136.54516602 834.20532227 C138.94456698 834.2706696 138.94456698 834.2706696 140 833 C141.6192025 833.00434685 143.23868997 833.01761702 144.85717773 833.06591797 C179.08189054 833.98282049 233.16760489 831.01432381 261 809 C262.75671058 806.91004084 262.75671058 806.91004084 264 805 C258.94004749 805.88201007 253.89181968 806.79781048 248.87109375 807.8828125 C206.85927523 816.86309268 163.31327253 819.39187287 120.4375 820.625 C119.36779968 820.65596771 119.36779968 820.65596771 118.27648926 820.68756104 C54.64024087 822.47298006 -9.4920318 816.96600893 -72 805 Z " fill="#FEFEFE" transform="translate(408,88)"/>
<path d="M0 0 C2.31 0 4.62 0 7 0 C7 0.33 7 0.66 7 1 C4.69 1 2.38 1 0 1 C0 0.67 0 0.34 0 0 Z " fill="#FDFEFD" transform="translate(533,920)"/>
<path d="M0 0 C2.31 0 4.62 0 7 0 C7 0.33 7 0.66 7 1 C4.69 1 2.38 1 0 1 C0 0.67 0 0.34 0 0 Z " fill="#FBFCFC" transform="translate(527,719)"/>
<path d="M0 0 C1.98 0 3.96 0 6 0 C6 0.33 6 0.66 6 1 C4.02 1 2.04 1 0 1 C0 0.67 0 0.34 0 0 Z " fill="#FDFEFE" transform="translate(360,974)"/>
<path d="M0 0 C1.65 0 3.3 0 5 0 C5 0.33 5 0.66 5 1 C3.35 1 1.7 1 0 1 C0 0.67 0 0.34 0 0 Z " fill="#FEFEFE" transform="translate(416,980)"/>
<path d="M0 0 C1.65 0 3.3 0 5 0 C5 0.33 5 0.66 5 1 C3.35 1 1.7 1 0 1 C0 0.67 0 0.34 0 0 Z " fill="#FEFEFE" transform="translate(480,910)"/>
<path d="M0 0 C0.33 0 0.66 0 1 0 C1 1.65 1 3.3 1 5 C0.67 5 0.34 5 0 5 C0 3.35 0 1.7 0 0 Z " fill="#F9F9FA" transform="translate(724,851)"/>
<path d="M0 0 C0.33 0 0.66 0 1 0 C1 1.65 1 3.3 1 5 C0.67 5 0.34 5 0 5 C0 3.35 0 1.7 0 0 Z " fill="#FEFEFF" transform="translate(482,650)"/>
<path d="M0 0 C4 1 4 1 4 1 Z " fill="#FDFEFE" transform="translate(586,980)"/>
<path d="M0 0 C4 1 4 1 4 1 Z " fill="#FCFDFC" transform="translate(660,971)"/>
<path d="M0 0 C3 1 3 1 3 1 Z " fill="#FCFCFB" transform="translate(531,983)"/>
<path d="M0 0 C3 1 3 1 3 1 Z " fill="#FDFEFE" transform="translate(568,981)"/>
<path d="M0 0 C3 1 3 1 3 1 Z " fill="#FDFDFD" transform="translate(432,981)"/>
<path d="" fill="#F6F7F7" transform="translate(0,0)"/>
<path d="M0 0 C3 1 3 1 3 1 Z " fill="#FDFEFE" transform="translate(529,920)"/>
<path d="M0 0 C3 1 3 1 3 1 Z " fill="#FCFDFD" transform="translate(469,920)"/>
<path d="M0 0 C3 1 3 1 3 1 Z " fill="#FDFDFE" transform="translate(465,920)"/>
<path d="M0 0 C3 1 3 1 3 1 Z " fill="#FCFDFD" transform="translate(405,915)"/>
<path d="M0 0 C3 1 3 1 3 1 Z " fill="#FDFDFF" transform="translate(456,909)"/>
<path d="M0 0 C0.33 0.66 0.66 1.32 1 2 C0.34 1.67 -0.32 1.34 -1 1 C-0.67 0.67 -0.34 0.34 0 0 Z " fill="#FEFFFE" transform="translate(362,905)"/>
<path d="M0 0 C0.66 0.66 1.32 1.32 2 2 C1.34 2 0.68 2 0 2 C0 1.34 0 0.68 0 0 Z " fill="#FDFEFE" transform="translate(580,813)"/>
<path d="M0 0 C3 1 3 1 3 1 Z " fill="#FCFCFC" transform="translate(367,711)"/>
<path d="M0 0 C0.66 0 1.32 0 2 0 C1.67 0.66 1.34 1.32 1 2 C0.67 1.34 0.34 0.68 0 0 Z " fill="#FFFFFF" transform="translate(482,659)"/>
<path d="M0 0 C0.66 0.66 1.32 1.32 2 2 C1.34 2 0.68 2 0 2 C0 1.34 0 0.68 0 0 Z " fill="#FFFFFF" transform="translate(642,613)"/>
<path d="" fill="#FDFEFE" transform="translate(0,0)"/>
<path d="" fill="#FBFAFA" transform="translate(0,0)"/>
<path d="M0 0 C3 1 3 1 3 1 Z " fill="#FEFDFF" transform="translate(425,380)"/>
<path d="" fill="#FFFEFE" transform="translate(0,0)"/>
<path d="M0 0 C3 1 3 1 3 1 Z " fill="#FDFDFC" transform="translate(690,297)"/>
<path d="M0 0 C2 1 2 1 2 1 Z " fill="#FCFDFB" transform="translate(528,983)"/>
<path d="M0 0 C2 1 2 1 2 1 Z " fill="#FCFCFD" transform="translate(524,983)"/>
<path d="M0 0 C2 1 2 1 2 1 Z " fill="#FCFBFB" transform="translate(484,983)"/>
<path d="M0 0 C2 1 2 1 2 1 Z " fill="#FDFCFE" transform="translate(476,983)"/>
<path d="M0 0 C2 1 2 1 2 1 Z " fill="#FCFDFE" transform="translate(555,982)"/>
<path d="M0 0 C2 1 2 1 2 1 Z " fill="#FDFEFE" transform="translate(406,979)"/>
<path d="M0 0 C2 1 2 1 2 1 Z " fill="#FCFDFD" transform="translate(353,973)"/>
<path d="" fill="#F3F4F4" transform="translate(0,0)"/>
<path d="" fill="#F4F6F7" transform="translate(0,0)"/>
<path d="M0 0 C2 1 2 1 2 1 Z " fill="#FEFDFE" transform="translate(541,920)"/>
<path d="M0 0 C2 1 2 1 2 1 Z " fill="#FEFDFE" transform="translate(617,912)"/>
<path d="M0 0 C2 1 2 1 2 1 Z " fill="#FEFFFE" transform="translate(587,907)"/>
<path d="M0 0 C2 1 2 1 2 1 Z " fill="#FFFEFF" transform="translate(627,902)"/>
<path d="M0 0 C2 1 2 1 2 1 Z " fill="#FFFEFF" transform="translate(379,902)"/>
<path d="M0 0 C2 1 2 1 2 1 Z " fill="#FDFEFF" transform="translate(359,899)"/>
<path d="M0 0 C2 1 2 1 2 1 Z " fill="#FCFDFD" transform="translate(290,890)"/>
<path d="M0 0 C2 1 2 1 2 1 Z " fill="#FFFFFF" transform="translate(701,884)"/>
<path d="M0 0 C2 1 2 1 2 1 Z " fill="#FEFEFE" transform="translate(542,763)"/>
<path d="M0 0 C2 1 2 1 2 1 Z " fill="#FEFEFD" transform="translate(534,763)"/>
<path d="" fill="#FFFFFF" transform="translate(0,0)"/>
<path d="" fill="#FCFCFB" transform="translate(0,0)"/>
<path d="M0 0 C2 1 2 1 2 1 Z " fill="#FDFFFE" transform="translate(436,724)"/>
<path d="M0 0 C2 1 2 1 2 1 Z " fill="#FCFBFB" transform="translate(504,719)"/>
<path d="M0 0 C2 1 2 1 2 1 Z " fill="#FEFEFE" transform="translate(556,718)"/>
<path d="" fill="#FBFBFC" transform="translate(0,0)"/>
<path d="M0 0 C2 1 2 1 2 1 Z " fill="#FEFDFE" transform="translate(577,717)"/>
<path d="M0 0 C2 1 2 1 2 1 Z " fill="#FEFEFE" transform="translate(433,716)"/>
<path d="M0 0 C2 1 2 1 2 1 Z " fill="#FDFDFC" transform="translate(606,715)"/>
<path d="M0 0 C2 1 2 1 2 1 Z " fill="#FCFDFE" transform="translate(622,714)"/>
<path d="M0 0 C2 1 2 1 2 1 Z " fill="#FEFDFD" transform="translate(406,714)"/>
<path d="" fill="#FEFEFE" transform="translate(0,0)"/>
<path d="" fill="#FFFEFE" transform="translate(0,0)"/>
<path d="" fill="#FFFFFF" transform="translate(0,0)"/>
<path d="" fill="#FEFEFE" transform="translate(0,0)"/>
<path d="" fill="#FEFFFF" transform="translate(0,0)"/>
<path d="M0 0 C2 1 2 1 2 1 Z " fill="#FEFFFE" transform="translate(469,538)"/>
<path d="" fill="#FDFEFD" transform="translate(0,0)"/>
<path d="" fill="#FDFDFD" transform="translate(0,0)"/>
<path d="M0 0 C2 1 2 1 2 1 Z " fill="#FEFDFD" transform="translate(630,491)"/>
<path d="" fill="#FFFFFF" transform="translate(0,0)"/>
<path d="" fill="#FFFEFE" transform="translate(0,0)"/>
<path d="M0 0 C2 1 2 1 2 1 Z " fill="#FCFDFC" transform="translate(295,435)"/>
<path d="" fill="#FEFEFE" transform="translate(0,0)"/>
<path d="M0 0 C2 1 2 1 2 1 Z " fill="#FEFEFE" transform="translate(321,387)"/>
<path d="" fill="#F8FAF9" transform="translate(0,0)"/>
<path d="" fill="#FEFEFC" transform="translate(0,0)"/>
<path d="" fill="#FEFCFE" transform="translate(0,0)"/>
<path d="" fill="#FFFEFF" transform="translate(0,0)"/>
<path d="M0 0 C2 1 2 1 2 1 Z " fill="#FBFDFD" transform="translate(296,305)"/>
<path d="" fill="#FEFFFD" transform="translate(0,0)"/>
<path d="" fill="#FFFFFF" transform="translate(0,0)"/>
<path d="" fill="#FEFEFF" transform="translate(0,0)"/>
<path d="M0 0 C2 1 2 1 2 1 Z " fill="#FDFDFE" transform="translate(617,268)"/>
<path d="" fill="#FFFEFE" transform="translate(0,0)"/>
<path d="M0 0 C2 1 2 1 2 1 Z " fill="#FDFCFC" transform="translate(425,239)"/>
<path d="" fill="#F7F7F6" transform="translate(0,0)"/>
<path d="" fill="#F6F7F6" transform="translate(0,0)"/>
<path d="" fill="#FEFFFF" transform="translate(0,0)"/>
<path d="" fill="#FBFDFC" transform="translate(0,0)"/>
<path d="" fill="#FCFCFC" transform="translate(0,0)"/>
<path d="" fill="#FBFBFB" transform="translate(0,0)"/>
<path d="M0 0 C2 1 2 1 2 1 Z " fill="#FAFBFA" transform="translate(418,115)"/>
<path d="" fill="#FBFCFB" transform="translate(0,0)"/>
<path d="" fill="#F4F6F5" transform="translate(0,0)"/>
<path d="M0 0 C2 1 2 1 2 1 Z " fill="#FAF9F9" transform="translate(441,91)"/>
<path d="" fill="#FAFDFD" transform="translate(0,0)"/>
<path d="" fill="#FCFBFC" transform="translate(0,0)"/>
<path d="" fill="#FCFBFE" transform="translate(0,0)"/>
<path d="" fill="#FCFDFD" transform="translate(0,0)"/>
<path d="" fill="#FDFEFD" transform="translate(0,0)"/>
<path d="" fill="#FEFCFF" transform="translate(0,0)"/>
<path d="" fill="#FDFEFF" transform="translate(0,0)"/>
<path d="" fill="#FDFEFF" transform="translate(0,0)"/>
<path d="" fill="#FDFDFD" transform="translate(0,0)"/>
<path d="" fill="#FEFEFF" transform="translate(0,0)"/>
<path d="" fill="#FDFEFF" transform="translate(0,0)"/>
<path d="" fill="#FBFCFD" transform="translate(0,0)"/>
<path d="" fill="#FEFDFD" transform="translate(0,0)"/>
<path d="" fill="#FDFDFC" transform="translate(0,0)"/>
<path d="" fill="#FDFDFD" transform="translate(0,0)"/>
<path d="" fill="#FDFFFE" transform="translate(0,0)"/>
<path d="" fill="#FCFDFE" transform="translate(0,0)"/>
<path d="" fill="#FDFDFE" transform="translate(0,0)"/>
<path d="" fill="#FDFDFD" transform="translate(0,0)"/>
<path d="" fill="#FCFEFE" transform="translate(0,0)"/>
<path d="" fill="#FDFCFD" transform="translate(0,0)"/>
<path d="" fill="#FAFCFA" transform="translate(0,0)"/>
<path d="" fill="#FBFBFC" transform="translate(0,0)"/>
<path d="" fill="#FAFAFB" transform="translate(0,0)"/>
<path d="" fill="#FBFBFB" transform="translate(0,0)"/>
<path d="" fill="#FAFAFA" transform="translate(0,0)"/>
<path d="" fill="#FBFAFC" transform="translate(0,0)"/>
<path d="" fill="#F9FBFB" transform="translate(0,0)"/>
<path d="" fill="#F5F5F7" transform="translate(0,0)"/>
<path d="" fill="#F2F3F3" transform="translate(0,0)"/>
<path d="" fill="#F6F7F7" transform="translate(0,0)"/>
<path d="" fill="#F3F3F4" transform="translate(0,0)"/>
<path d="" fill="#7E807E" transform="translate(0,0)"/>
<path d="" fill="#F4F6F6" transform="translate(0,0)"/>
<path d="" fill="#F5F7F7" transform="translate(0,0)"/>
<path d="" fill="#F8F9F9" transform="translate(0,0)"/>
<path d="" fill="#FEFFFD" transform="translate(0,0)"/>
<path d="" fill="#FDFDFF" transform="translate(0,0)"/>
<path d="" fill="#FDFFFE" transform="translate(0,0)"/>
<path d="" fill="#FFFFFF" transform="translate(0,0)"/>
<path d="" fill="#FEFDFD" transform="translate(0,0)"/>
<path d="" fill="#FDFEFF" transform="translate(0,0)"/>
<path d="" fill="#FFFDFE" transform="translate(0,0)"/>
<path d="" fill="#FEFEFF" transform="translate(0,0)"/>
<path d="" fill="#FFFFFE" transform="translate(0,0)"/>
<path d="" fill="#FFFEFD" transform="translate(0,0)"/>
<path d="" fill="#FEFDFE" transform="translate(0,0)"/>
<path d="" fill="#FEFFFF" transform="translate(0,0)"/>
<path d="" fill="#FCFFFE" transform="translate(0,0)"/>
<path d="" fill="#FDFDFD" transform="translate(0,0)"/>
<path d="" fill="#FFFEFE" transform="translate(0,0)"/>
<path d="" fill="#FEFFFF" transform="translate(0,0)"/>
<path d="" fill="#FEFDFF" transform="translate(0,0)"/>
<path d="" fill="#FFFEFF" transform="translate(0,0)"/>
<path d="" fill="#FDFFFF" transform="translate(0,0)"/>
<path d="" fill="#FFFFFF" transform="translate(0,0)"/>
<path d="" fill="#FEFDFF" transform="translate(0,0)"/>
<path d="" fill="#FDFDFD" transform="translate(0,0)"/>
<path d="" fill="#FEFEFD" transform="translate(0,0)"/>
<path d="" fill="#FDFFFF" transform="translate(0,0)"/>
<path d="" fill="#FFFFFF" transform="translate(0,0)"/>
<path d="" fill="#FDFFFF" transform="translate(0,0)"/>
<path d="" fill="#FDFDFD" transform="translate(0,0)"/>
<path d="" fill="#FEFEFD" transform="translate(0,0)"/>
<path d="" fill="#FFFFFF" transform="translate(0,0)"/>
<path d="" fill="#FEFEFE" transform="translate(0,0)"/>
<path d="" fill="#FFFFFF" transform="translate(0,0)"/>
<path d="" fill="#FEFEFE" transform="translate(0,0)"/>
<path d="" fill="#FFFFFF" transform="translate(0,0)"/>
<path d="" fill="#FEFFFE" transform="translate(0,0)"/>
<path d="" fill="#FFFFFE" transform="translate(0,0)"/>
<path d="" fill="#FFFEFF" transform="translate(0,0)"/>
<path d="" fill="#FCFFFE" transform="translate(0,0)"/>
<path d="" fill="#FBFBFD" transform="translate(0,0)"/>
<path d="" fill="#FDFCFC" transform="translate(0,0)"/>
<path d="" fill="#FEFEFE" transform="translate(0,0)"/>
<path d="" fill="#F8F9F7" transform="translate(0,0)"/>
<path d="" fill="#F9F9FA" transform="translate(0,0)"/>
<path d="" fill="#FEFDFE" transform="translate(0,0)"/>
<path d="" fill="#FFFFFF" transform="translate(0,0)"/>
<path d="" fill="#FFFEFE" transform="translate(0,0)"/>
<path d="" fill="#FEFEFC" transform="translate(0,0)"/>
<path d="" fill="#FDFDFE" transform="translate(0,0)"/>
<path d="" fill="#FEFFFE" transform="translate(0,0)"/>
<path d="" fill="#FFFEFE" transform="translate(0,0)"/>
<path d="" fill="#FEFFFF" transform="translate(0,0)"/>
<path d="" fill="#FBFFFF" transform="translate(0,0)"/>
<path d="" fill="#FCFFFE" transform="translate(0,0)"/>
<path d="" fill="#FFFDFE" transform="translate(0,0)"/>
<path d="" fill="#FFFFFE" transform="translate(0,0)"/>
<path d="" fill="#FEFEFE" transform="translate(0,0)"/>
<path d="" fill="#FDFFFD" transform="translate(0,0)"/>
<path d="" fill="#FAFAF9" transform="translate(0,0)"/>
<path d="" fill="#FEFDFD" transform="translate(0,0)"/>
<path d="" fill="#FEFEFF" transform="translate(0,0)"/>
<path d="" fill="#FAFBFC" transform="translate(0,0)"/>
<path d="" fill="#FCFCFB" transform="translate(0,0)"/>
<path d="" fill="#FEFEFF" transform="translate(0,0)"/>
<path d="" fill="#FDFFFE" transform="translate(0,0)"/>
<path d="" fill="#FDFCFB" transform="translate(0,0)"/>
<path d="" fill="#FFFFFF" transform="translate(0,0)"/>
<path d="" fill="#FFFFFF" transform="translate(0,0)"/>
<path d="" fill="#FEFFFF" transform="translate(0,0)"/>
<path d="" fill="#FDFFFD" transform="translate(0,0)"/>
<path d="" fill="#FFFFFF" transform="translate(0,0)"/>
<path d="" fill="#FCFDFC" transform="translate(0,0)"/>
<path d="" fill="#FEFFFF" transform="translate(0,0)"/>
<path d="" fill="#FFFEFF" transform="translate(0,0)"/>
<path d="" fill="#FBFCFC" transform="translate(0,0)"/>
<path d="" fill="#FCFFFF" transform="translate(0,0)"/>
<path d="" fill="#FEFEFD" transform="translate(0,0)"/>
<path d="" fill="#FFFEFD" transform="translate(0,0)"/>
<path d="" fill="#FDFFFF" transform="translate(0,0)"/>
<path d="" fill="#FDFEFD" transform="translate(0,0)"/>
<path d="" fill="#FFFEFD" transform="translate(0,0)"/>
<path d="" fill="#FCFCFF" transform="translate(0,0)"/>
<path d="" fill="#FEFDFE" transform="translate(0,0)"/>
<path d="" fill="#FDFEFC" transform="translate(0,0)"/>
<path d="" fill="#FCFCFC" transform="translate(0,0)"/>
<path d="" fill="#FEFEFF" transform="translate(0,0)"/>
<path d="" fill="#FDFDFD" transform="translate(0,0)"/>
<path d="" fill="#FDFEFE" transform="translate(0,0)"/>
<path d="" fill="#FDFEFF" transform="translate(0,0)"/>
<path d="" fill="#FFFFFF" transform="translate(0,0)"/>
<path d="" fill="#FEFEFE" transform="translate(0,0)"/>
<path d="" fill="#FFFDFD" transform="translate(0,0)"/>
<path d="" fill="#FEFEFE" transform="translate(0,0)"/>
<path d="" fill="#FDFFFE" transform="translate(0,0)"/>
<path d="" fill="#FDFEFF" transform="translate(0,0)"/>
<path d="" fill="#FFFFFE" transform="translate(0,0)"/>
<path d="" fill="#FFFDFD" transform="translate(0,0)"/>
<path d="" fill="#FFFFFE" transform="translate(0,0)"/>
<path d="" fill="#FCFCFC" transform="translate(0,0)"/>
<path d="" fill="#FCFCFB" transform="translate(0,0)"/>
<path d="" fill="#FCFBFB" transform="translate(0,0)"/>
<path d="" fill="#FAFAFC" transform="translate(0,0)"/>
<path d="" fill="#FCFAFC" transform="translate(0,0)"/>
<path d="" fill="#FDFDFD" transform="translate(0,0)"/>
<path d="" fill="#FCFDFF" transform="translate(0,0)"/>
<path d="" fill="#FEFFFF" transform="translate(0,0)"/>
<path d="" fill="#FEFEFD" transform="translate(0,0)"/>
<path d="" fill="#FDFFFF" transform="translate(0,0)"/>
<path d="" fill="#FFFFFE" transform="translate(0,0)"/>
<path d="" fill="#FFFDFD" transform="translate(0,0)"/>
<path d="" fill="#FFFEFE" transform="translate(0,0)"/>
<path d="" fill="#FEFFFF" transform="translate(0,0)"/>
<path d="" fill="#FEFEFE" transform="translate(0,0)"/>
<path d="" fill="#FEFFFE" transform="translate(0,0)"/>
<path d="" fill="#FCFEFD" transform="translate(0,0)"/>
<path d="" fill="#FEFEFE" transform="translate(0,0)"/>
<path d="" fill="#FDFCFE" transform="translate(0,0)"/>
<path d="" fill="#FEFFFD" transform="translate(0,0)"/>
<path d="" fill="#FEFCFC" transform="translate(0,0)"/>
<path d="" fill="#FBFDFE" transform="translate(0,0)"/>
<path d="" fill="#FFFFFF" transform="translate(0,0)"/>
<path d="" fill="#FDFFFE" transform="translate(0,0)"/>
<path d="" fill="#FFFFFE" transform="translate(0,0)"/>
<path d="" fill="#FDFEFE" transform="translate(0,0)"/>
<path d="" fill="#FEFFFF" transform="translate(0,0)"/>
<path d="" fill="#FDFEFB" transform="translate(0,0)"/>
<path d="" fill="#FDFDFB" transform="translate(0,0)"/>
<path d="" fill="#FBFCFC" transform="translate(0,0)"/>
<path d="" fill="#FEFFFF" transform="translate(0,0)"/>
<path d="" fill="#FBFCFB" transform="translate(0,0)"/>
<path d="" fill="#FFFEFD" transform="translate(0,0)"/>
<path d="" fill="#F6F8F6" transform="translate(0,0)"/>
<path d="" fill="#FFFFFF" transform="translate(0,0)"/>
<path d="" fill="#F9FAFA" transform="translate(0,0)"/>
<path d="" fill="#FDFFFE" transform="translate(0,0)"/>
<path d="" fill="#F2F3F2" transform="translate(0,0)"/>
<path d="" fill="#FBF9FB" transform="translate(0,0)"/>
<path d="" fill="#FFFFFF" transform="translate(0,0)"/>
<path d="" fill="#FFFFFE" transform="translate(0,0)"/>
<path d="" fill="#F8FAFA" transform="translate(0,0)"/>
<path d="" fill="#90908F" transform="translate(0,0)"/>
<path d="" fill="#FCFFFD" transform="translate(0,0)"/>
<path d="" fill="#818282" transform="translate(0,0)"/>
<path d="" fill="#FDFEFF" transform="translate(0,0)"/>
<path d="" fill="#FEFFFD" transform="translate(0,0)"/>
<path d="" fill="#FFFEFF" transform="translate(0,0)"/>
<path d="" fill="#FFFFFF" transform="translate(0,0)"/>
<path d="" fill="#FFFFFF" transform="translate(0,0)"/>
<path d="" fill="#FEFFFE" transform="translate(0,0)"/>
<path d="" fill="#FFFEFF" transform="translate(0,0)"/>
<path d="" fill="#FEFFFD" transform="translate(0,0)"/>
<path d="" fill="#FFFEFD" transform="translate(0,0)"/>
<path d="" fill="#FEFFFD" transform="translate(0,0)"/>
<path d="" fill="#FFFFFD" transform="translate(0,0)"/>
<path d="" fill="#FFFEFF" transform="translate(0,0)"/>
<path d="" fill="#FEFEFF" transform="translate(0,0)"/>
<path d="" fill="#FFFFFE" transform="translate(0,0)"/>
<path d="" fill="#FDFFFD" transform="translate(0,0)"/>
<path d="" fill="#FFFFFF" transform="translate(0,0)"/>
<path d="" fill="#FEFFFE" transform="translate(0,0)"/>
<path d="" fill="#FCFDFC" transform="translate(0,0)"/>
<path d="" fill="#FFFEFD" transform="translate(0,0)"/>
<path d="" fill="#FFFFFF" transform="translate(0,0)"/>
<path d="" fill="#FDFCFD" transform="translate(0,0)"/>
<path d="" fill="#FEFDFE" transform="translate(0,0)"/>
<path d="" fill="#FFFEFF" transform="translate(0,0)"/>
<path d="" fill="#FDFEFC" transform="translate(0,0)"/>
<path d="" fill="#FEFEFE" transform="translate(0,0)"/>
<path d="" fill="#FFFFFE" transform="translate(0,0)"/>
<path d="" fill="#FBFBFA" transform="translate(0,0)"/>
<path d="" fill="#FFFFFD" transform="translate(0,0)"/>
<path d="" fill="#FEFFFF" transform="translate(0,0)"/>
<path d="" fill="#FDFEFD" transform="translate(0,0)"/>
<path d="" fill="#FCFCFB" transform="translate(0,0)"/>
<path d="" fill="#FEFFFE" transform="translate(0,0)"/>
<path d="" fill="#FBFCFC" transform="translate(0,0)"/>
<path d="" fill="#FEFFFF" transform="translate(0,0)"/>
<path d="" fill="#FFFFFF" transform="translate(0,0)"/>
<path d="" fill="#FEFFFF" transform="translate(0,0)"/>
<path d="" fill="#FFFFFF" transform="translate(0,0)"/>
<path d="" fill="#FCFEFD" transform="translate(0,0)"/>
<path d="" fill="#FEFEFC" transform="translate(0,0)"/>
<path d="" fill="#FBFCFD" transform="translate(0,0)"/>
<path d="" fill="#FDFEFE" transform="translate(0,0)"/>
<path d="" fill="#FDFEFD" transform="translate(0,0)"/>
<path d="" fill="#FEFFFE" transform="translate(0,0)"/>
<path d="" fill="#FFFFFF" transform="translate(0,0)"/>
<path d="" fill="#FFFFFF" transform="translate(0,0)"/>
<path d="" fill="#FBFDFC" transform="translate(0,0)"/>
<path d="" fill="#FFFFFF" transform="translate(0,0)"/>
<path d="" fill="#FFFFFD" transform="translate(0,0)"/>
<path d="" fill="#FFFFFD" transform="translate(0,0)"/>
<path d="" fill="#FFFEFE" transform="translate(0,0)"/>
<path d="" fill="#FFFFFF" transform="translate(0,0)"/>
<path d="" fill="#FFFFFD" transform="translate(0,0)"/>
<path d="" fill="#FDFEFD" transform="translate(0,0)"/>
<path d="" fill="#FFFFFF" transform="translate(0,0)"/>
<path d="" fill="#FFFFFF" transform="translate(0,0)"/>
<path d="" fill="#FEFFFD" transform="translate(0,0)"/>
<path d="" fill="#FFFFFE" transform="translate(0,0)"/>
<path d="" fill="#868686" transform="translate(0,0)"/>
<path d="" fill="#FDFEFE" transform="translate(0,0)"/>
<path d="" fill="#FEFFFE" transform="translate(0,0)"/>
<path d="" fill="#FEFEFE" transform="translate(0,0)"/>
<path d="" fill="#FDFEFD" transform="translate(0,0)"/>
<path d="" fill="#FDFEFD" transform="translate(0,0)"/>
<path d="" fill="#FDFDFC" transform="translate(0,0)"/>
<path d="" fill="#FBFBFB" transform="translate(0,0)"/>
<path d="" fill="#FCFDFD" transform="translate(0,0)"/>
<path d="" fill="#FCFDFC" transform="translate(0,0)"/>
<path d="" fill="#FFFFFE" transform="translate(0,0)"/>
<path d="" fill="#FAFBFB" transform="translate(0,0)"/>
<path d="" fill="#F8F9FA" transform="translate(0,0)"/>
<path d="" fill="#FFFFFE" transform="translate(0,0)"/>
<path d="" fill="#FDFFFE" transform="translate(0,0)"/>
<path d="" fill="#FEFDFD" transform="translate(0,0)"/>
<path d="" fill="#FDFDFC" transform="translate(0,0)"/>
<path d="" fill="#FFFEFC" transform="translate(0,0)"/>
<path d="" fill="#FBFBFB" transform="translate(0,0)"/>
<path d="" fill="#FDFEFC" transform="translate(0,0)"/>
<path d="" fill="#FEFEFE" transform="translate(0,0)"/>
<path d="" fill="#FFFFFE" transform="translate(0,0)"/>
<path d="" fill="#F6F7F9" transform="translate(0,0)"/>
<path d="" fill="#FEFFFF" transform="translate(0,0)"/>
<path d="" fill="#FAFAFA" transform="translate(0,0)"/>
<path d="" fill="#FAF9F9" transform="translate(0,0)"/>
<path d="" fill="#FFFFFF" transform="translate(0,0)"/>
<path d="" fill="#F7F8F9" transform="translate(0,0)"/>
<path d="" fill="#FFFEFD" transform="translate(0,0)"/>
<path d="" fill="#FFFFFE" transform="translate(0,0)"/>
<path d="" fill="#FEFEFF" transform="translate(0,0)"/>
<path d="" fill="#FDFFFE" transform="translate(0,0)"/>
<path d="" fill="#FFFFFF" transform="translate(0,0)"/>
<path d="" fill="#FFFFFD" transform="translate(0,0)"/>
<path d="" fill="#FDFFFD" transform="translate(0,0)"/>
<path d="" fill="#FFFEFF" transform="translate(0,0)"/>
<path d="" fill="#FFFFFD" transform="translate(0,0)"/>
<path d="" fill="#FEFEFE" transform="translate(0,0)"/>
<path d="" fill="#FFFFFE" transform="translate(0,0)"/>
<path d="" fill="#FDFEFD" transform="translate(0,0)"/>
<path d="" fill="#FEFCFD" transform="translate(0,0)"/>
<path d="" fill="#FEFEFD" transform="translate(0,0)"/>
<path d="" fill="#FDFFFD" transform="translate(0,0)"/>
<path d="" fill="#F7F9FA" transform="translate(0,0)"/>
<path d="" fill="#F9F9F8" transform="translate(0,0)"/>
<path d="" fill="#FDFDFE" transform="translate(0,0)"/>
<path d="" fill="#FEFDFD" transform="translate(0,0)"/>
<path d="" fill="#FDFFFF" transform="translate(0,0)"/>
<path d="" fill="#FFFFFD" transform="translate(0,0)"/>
<path d="" fill="#FFFFFE" transform="translate(0,0)"/>
<path d="" fill="#FEFEFD" transform="translate(0,0)"/>
<path d="" fill="#FDFDFE" transform="translate(0,0)"/>
<path d="" fill="#FFFFFC" transform="translate(0,0)"/>
<path d="" fill="#FFFFFF" transform="translate(0,0)"/>
<path d="" fill="#7F817F" transform="translate(0,0)"/>
<path d="" fill="#959696" transform="translate(0,0)"/>
<path d="" fill="#FFFFFE" transform="translate(0,0)"/>
<path d="" fill="#FEFFFE" transform="translate(0,0)"/>
<path d="" fill="#FFFEFF" transform="translate(0,0)"/>
<path d="" fill="#FEFEFE" transform="translate(0,0)"/>
<path d="" fill="#FDFDFD" transform="translate(0,0)"/>
<path d="" fill="#FFFDFF" transform="translate(0,0)"/>
<path d="" fill="#FEFEFE" transform="translate(0,0)"/>
<path d="" fill="#FFFFFE" transform="translate(0,0)"/>
<path d="" fill="#FAFAFA" transform="translate(0,0)"/>
<path d="" fill="#FFFDFF" transform="translate(0,0)"/>
<path d="" fill="#FFFFFF" transform="translate(0,0)"/>
<path d="" fill="#FCFFFF" transform="translate(0,0)"/>
<path d="" fill="#FFFEFF" transform="translate(0,0)"/>
<path d="" fill="#FDFCFD" transform="translate(0,0)"/>
<path d="" fill="#FFFEFE" transform="translate(0,0)"/>
<path d="" fill="#FFFFFE" transform="translate(0,0)"/>
<path d="" fill="#FEFCFD" transform="translate(0,0)"/>
<path d="" fill="#FDF9FD" transform="translate(0,0)"/>
<path d="" fill="#FCFAFA" transform="translate(0,0)"/>
<path d="" fill="#FCFEFE" transform="translate(0,0)"/>
<path d="" fill="#FFFEFE" transform="translate(0,0)"/>
<path d="" fill="#FEFBFC" transform="translate(0,0)"/>
<path d="" fill="#F8F7F5" transform="translate(0,0)"/>
<path d="" fill="#FBFCFB" transform="translate(0,0)"/>
<path d="" fill="#FAFDFC" transform="translate(0,0)"/>
<path d="" fill="#FCFCFA" transform="translate(0,0)"/>
<path d="" fill="#FBFCFB" transform="translate(0,0)"/>
<path d="" fill="#F9F8F9" transform="translate(0,0)"/>
<path d="" fill="#FEFEFD" transform="translate(0,0)"/>
<path d="" fill="#FFFFFF" transform="translate(0,0)"/>
<path d="" fill="#FFFDFF" transform="translate(0,0)"/>
<path d="" fill="#FEFCFD" transform="translate(0,0)"/>
<path d="" fill="#FCFDFC" transform="translate(0,0)"/>
<path d="" fill="#FDFFFF" transform="translate(0,0)"/>
<path d="" fill="#FCFEFE" transform="translate(0,0)"/>
<path d="" fill="#FBFDFB" transform="translate(0,0)"/>
<path d="" fill="#FEFEFE" transform="translate(0,0)"/>
<path d="" fill="#FDFEFE" transform="translate(0,0)"/>
<path d="" fill="#FEFEFE" transform="translate(0,0)"/>
<path d="" fill="#FFFEFF" transform="translate(0,0)"/>
<path d="" fill="#FDFEFE" transform="translate(0,0)"/>
<path d="" fill="#FCFCFD" transform="translate(0,0)"/>
<path d="" fill="#FBFBFB" transform="translate(0,0)"/>
<path d="" fill="#FFFEFE" transform="translate(0,0)"/>
<path d="" fill="#FFFDFE" transform="translate(0,0)"/>
<path d="" fill="#FEFEFE" transform="translate(0,0)"/>
<path d="" fill="#FEFFFE" transform="translate(0,0)"/>
<path d="" fill="#FFFEFD" transform="translate(0,0)"/>
<path d="" fill="#FEFDFE" transform="translate(0,0)"/>
<path d="" fill="#FFFFFE" transform="translate(0,0)"/>
<path d="" fill="#F7F9F8" transform="translate(0,0)"/>
<path d="" fill="#FFFFFD" transform="translate(0,0)"/>
<path d="" fill="#FDFDFE" transform="translate(0,0)"/>
<path d="" fill="#FEFFFD" transform="translate(0,0)"/>
<path d="" fill="#FFFFFE" transform="translate(0,0)"/>
<path d="" fill="#FEFEFE" transform="translate(0,0)"/>
<path d="" fill="#FFFFFF" transform="translate(0,0)"/>
<path d="" fill="#FBFCFE" transform="translate(0,0)"/>
<path d="" fill="#FFFEFD" transform="translate(0,0)"/>
<path d="" fill="#FEFDFD" transform="translate(0,0)"/>
<path d="" fill="#FEFEFE" transform="translate(0,0)"/>
<path d="" fill="#FFFFFE" transform="translate(0,0)"/>
<path d="" fill="#F9FAF8" transform="translate(0,0)"/>
<path d="" fill="#FCFBFD" transform="translate(0,0)"/>
<path d="" fill="#FEFFFC" transform="translate(0,0)"/>
<path d="" fill="#FEFFFE" transform="translate(0,0)"/>
<path d="" fill="#FBFAFA" transform="translate(0,0)"/>
<path d="" fill="#FCFDFB" transform="translate(0,0)"/>
<path d="" fill="#FDFEFC" transform="translate(0,0)"/>
<path d="" fill="#FCFDFB" transform="translate(0,0)"/>
<path d="" fill="#FBFDFC" transform="translate(0,0)"/>
<path d="" fill="#F7F7F7" transform="translate(0,0)"/>
<path d="" fill="#FDFCFD" transform="translate(0,0)"/>
<path d="" fill="#F8F6F7" transform="translate(0,0)"/>
<path d="" fill="#F8F8FA" transform="translate(0,0)"/>
<path d="" fill="#FFFDFC" transform="translate(0,0)"/>
<path d="" fill="#FDFEFE" transform="translate(0,0)"/>
<path d="" fill="#FEFEFE" transform="translate(0,0)"/>
<path d="" fill="#F8F9F8" transform="translate(0,0)"/>
<path d="" fill="#FEFFFE" transform="translate(0,0)"/>
<path d="" fill="#F6F6F6" transform="translate(0,0)"/>
<path d="" fill="#F6F6F6" transform="translate(0,0)"/>
<path d="" fill="#FBFAFB" transform="translate(0,0)"/>
<path d="" fill="#FBFCFB" transform="translate(0,0)"/>
<path d="" fill="#FBFBFB" transform="translate(0,0)"/>
<path d="" fill="#FAFBFB" transform="translate(0,0)"/>
<path d="" fill="#787A78" transform="translate(0,0)"/>
<path d="" fill="#F7F8F6" transform="translate(0,0)"/>
<path d="" fill="#FAFCFC" transform="translate(0,0)"/>
<path d="" fill="#F4F4F3" transform="translate(0,0)"/>
<path d="" fill="#F9FAFA" transform="translate(0,0)"/>
<path d="" fill="#F9F8F7" transform="translate(0,0)"/>
<path d="" fill="#F3F4F3" transform="translate(0,0)"/>
<path d="" fill="#898B88" transform="translate(0,0)"/>
</svg>
