<?xml version="1.0" encoding="UTF-8"?>
<svg version="1.1" xmlns="http://www.w3.org/2000/svg" width="1024" height="1024">
<path d="M0 0 C0.93457031 0.69996094 1.86914062 1.39992187 2.83203125 2.12109375 C3.54746094 2.74113281 4.26289062 3.36117187 5 4 C5 4.66 5 5.32 5 6 C5.56203125 6.20625 6.1240625 6.4125 6.703125 6.625 C9.82423474 8.49341944 11.65303031 11.10385945 13.75 14 C14.16121094 14.5465625 14.57242187 15.093125 14.99609375 15.65625 C18 19.72799003 18 19.72799003 18 22 C18.66 22 19.32 22 20 22 C36.00613028 51.48137671 44.77252916 83.58152164 36 117 C32.93253045 127.31896756 29.10369345 137.08831198 23 146 C22.31292969 147.07636719 21.62585938 148.15273438 20.91796875 149.26171875 C16.89477796 155.51630456 16.89477796 155.51630456 15 158 C14.34 158 13.68 158 13 158 C12.34 159.32 11.68 160.64 11 162 C10.34 162 9.68 162 9 162 C8.7525 162.5775 8.505 163.155 8.25 163.75 C6.81700012 166.32939979 5.21575324 168.06121592 3 170 C2.34 170 1.68 170 1 170 C0.6596875 170.86818359 0.6596875 170.86818359 0.3125 171.75390625 C-3.71662242 178.64898181 -13.04682033 182.80976437 -20.1015625 185.9921875 C-22.16896652 186.85433702 -22.16896652 186.85433702 -23 189 C-21.70425049 188.99782471 -21.70425049 188.99782471 -20.38232422 188.99560547 C-17.0170293 188.99249891 -13.65179027 188.99369913 -10.28649902 188.9979248 C-8.7673753 188.99930354 -7.24824983 188.99939385 -5.72912598 188.99816895 C-1.0035009 188.99590246 3.7201771 189.0288436 8.4453125 189.09765625 C10.0757603 189.11600534 11.70636623 189.12335112 13.33691406 189.12011719 C29.7433372 189.10051573 29.7433372 189.10051573 36.37548828 194.30322266 C41.46326715 199.61732893 44.39131893 205.15996242 44.2734375 212.4921875 C43.6587534 218.12971884 41.3300913 223.10020661 37.25 227.0625 C27.48915801 234.54373983 9.54061808 244 -3 244 C-2.40818439 282.86085778 2.32880202 321.33669746 12 359 C12.16854492 359.66708984 12.33708984 360.33417969 12.51074219 361.02148438 C14.50717944 368.90194462 16.75686731 376.70544193 19.0625 384.5 C19.30798584 385.33732666 19.55347168 386.17465332 19.80639648 387.03735352 C21.25245576 391.86191109 22.96085214 396.39638364 25 401 C25.5234627 402.47102713 26.02739417 403.94935426 26.5 405.4375 C29.93748336 416.22055792 34.40248825 426.66886062 39 437 C39.28359375 437.64743164 39.5671875 438.29486328 39.859375 438.96191406 C42.78398713 445.43835292 45.30486724 449.21447959 52 451.9375 C53.03125 452.288125 54.0625 452.63875 55.125 453 C61.41589501 455.18813739 65.99318294 458.98636589 69 465 C70.42016312 470.71197962 70.22757927 475.48408943 68 481 C66 483.9375 66 483.9375 64 486 C63.34 486 62.68 486 62 486 C66.48190027 510.61289368 78.92353096 527.94151181 99.40625 542.73828125 C99.9321875 543.15464844 100.458125 543.57101562 101 544 C101 544.66 101 545.32 101 546 C101.57234375 546.2578125 102.1446875 546.515625 102.734375 546.78125 C105.21128995 548.11365942 107.1341166 549.65056118 109.25 551.5 C109.95640625 552.1084375 110.6628125 552.716875 111.390625 553.34375 C113 555 113 555 113 557 C113.639375 557.268125 114.27875 557.53625 114.9375 557.8125 C117 559 117 559 118 562 C118.99 562.33 119.98 562.66 121 563 C125 567.45714286 125 567.45714286 125 570 C125.66 570 126.32 570 127 570 C134.05661983 579.11312046 137.86814727 590.20474292 137.44140625 601.69921875 C135.71218976 614.63008543 129.01449134 623.19356491 119 631 C119.72445313 631.51949219 120.44890625 632.03898438 121.1953125 632.57421875 C140.60190469 646.57284058 140.60190469 646.57284058 143.4375 659.4296875 C145.59435223 673.11970792 147.53545232 691.34163222 141 704 C132.53617502 714.82672349 117.69595369 718.50273498 105 722 C103.2365625 722.49113281 103.2365625 722.49113281 101.4375 722.9921875 C74.90287887 730.00646235 46.95948287 733.664887 19.62147522 735.52900696 C15.34853951 735.82629327 11.07990631 736.15307052 6.81175232 736.51237488 C-8.99232528 737.81832448 -24.67381468 738.31161339 -40.52734375 738.30078125 C-42.98084075 738.30469012 -45.4343371 738.30902905 -47.88783264 738.31376648 C-52.9894532 738.32114925 -58.09100449 738.32099702 -63.19262695 738.31567383 C-68.33985143 738.3110497 -73.48683923 738.317946 -78.6340332 738.33618164 C-106.46640453 738.43406604 -134.01548338 738.24428142 -161.71083069 735.31672668 C-166.30297036 734.874532 -170.89068599 734.65795458 -175.5 734.5 C-183.45614389 734.15919013 -191.19802706 733.02441824 -199.0546875 731.7578125 C-203.91777222 730.98470672 -208.79005386 730.43960571 -213.6875 729.9375 C-218.82481644 729.40259146 -223.82674227 728.75363056 -228.83984375 727.48828125 C-231.50294018 726.88631551 -234.16890689 726.54989294 -236.875 726.1875 C-242.61170915 725.33711723 -248.14965618 724.03998864 -253.75 722.5625 C-254.91958252 722.25445435 -254.91958252 722.25445435 -256.11279297 721.94018555 C-286.36148367 713.76875345 -286.36148367 713.76875345 -292.13232422 705.34765625 C-295.12197009 700.03861742 -295.56159135 695.50835657 -295.375 689.5 C-295.35920898 688.60724365 -295.34341797 687.7144873 -295.32714844 686.79467773 C-295.25525462 683.86044818 -295.13645598 680.93192137 -295 678 C-294.95069336 676.93797363 -294.90138672 675.87594727 -294.85058594 674.78173828 C-294.68152565 671.53916191 -294.4747764 668.30166195 -294.25 665.0625 C-294.1886084 664.05058594 -294.1272168 663.03867187 -294.06396484 661.99609375 C-293.5952668 656.23586267 -292.80980334 652.57451974 -289 648 C-288.37480469 647.21496094 -287.74960937 646.42992187 -287.10546875 645.62109375 C-283.06944479 641.02610924 -279.24229462 637.18649281 -274 634 C-273.01 634 -272.02 634 -271 634 C-271 633.34 -271 632.68 -271 632 C-270.34 631.67 -269.68 631.34 -269 631 C-269.67546875 630.41992188 -270.3509375 629.83984375 -271.046875 629.2421875 C-271.93890625 628.46101562 -272.8309375 627.67984375 -273.75 626.875 C-274.63171875 626.10929688 -275.5134375 625.34359375 -276.421875 624.5546875 C-281.10559799 619.91354381 -283.48969871 615.38421695 -285.25 609.0625 C-285.58515625 607.89847656 -285.9203125 606.73445312 -286.265625 605.53515625 C-288.25164202 595.97480838 -286.10175299 585.60268215 -281.38671875 577.0859375 C-279.67833073 574.63888948 -277.8793367 572.31743915 -276 570 C-274.97738283 568.56376845 -273.95645156 567.12633448 -272.9375 565.6875 C-270.33674436 562.23822197 -267.35693656 559.72751096 -264 557 C-262.95682939 555.83207362 -261.93648594 554.64343699 -260.9375 553.4375 C-258.53735722 550.55228899 -256.10293359 548.15481499 -253 546 C-252.34 546 -251.68 546 -251 546 C-250.7421875 545.40574219 -250.484375 544.81148437 -250.21875 544.19921875 C-248.89303053 541.80697497 -247.59621136 540.55218361 -245.5 538.8125 C-244.79101562 538.20921875 -244.08203125 537.6059375 -243.3515625 536.984375 C-242.57554687 536.32953125 -241.79953125 535.6746875 -241 535 C-235.38068898 530.19332781 -230.29304151 525.60270435 -226.15625 519.43359375 C-225.7746875 518.96050781 -225.393125 518.48742187 -225 518 C-224.34 518 -223.68 518 -223 518 C-222.72027344 517.4121875 -222.44054687 516.824375 -222.15234375 516.21875 C-221.08536836 514.16437026 -219.89234407 512.38912429 -218.5625 510.5 C-213.96564515 503.23181652 -212.8107117 494.43140164 -212 486 C-212.598125 485.7525 -213.19625 485.505 -213.8125 485.25 C-216.41992403 483.76004341 -217.44218021 482.56888389 -219 480 C-219.9548741 474.7689506 -220.18731083 469.3898436 -217.78125 464.546875 C-213.63244948 459.41958379 -208.1574047 456.23905625 -202 454 C-201.01 454 -200.02 454 -199 454 C-199 453.34 -199 452.68 -199 452 C-198.29875 451.360625 -197.5975 450.72125 -196.875 450.0625 C-191.10600196 444.53933994 -187.98170673 436.25980769 -185 429 C-184.65582031 428.28457031 -184.31164062 427.56914063 -183.95703125 426.83203125 C-179.85596458 418.27155227 -176.85751933 409.35716635 -173.8125 400.38183594 C-173.11806833 398.34611616 -172.40470398 396.31687137 -171.6875 394.2890625 C-154.95170861 346.17366226 -147.73721885 294.79819214 -147 244 C-147.64356445 243.8868042 -148.28712891 243.7736084 -148.95019531 243.65698242 C-156.2078729 242.30645026 -162.45092695 239.96660491 -169.15039062 236.85742188 C-170.39535743 236.28029365 -171.64417755 235.71141376 -172.89648438 235.15039062 C-181.48427246 231.29338817 -188.12914137 227.87221083 -192.375 219.1875 C-193.99678101 210.91641687 -193.30533974 205.26526081 -189 198 C-188.34 198 -187.68 198 -187 198 C-186.73421143 197.38552002 -186.46842285 196.77104004 -186.19458008 196.13793945 C-184.11587652 192.41768459 -180.91995908 191.14481663 -177 190 C-171.60479794 189.40185734 -166.23621684 189.34561918 -160.8125 189.3125 C-157.94389525 189.27348672 -155.07548099 189.22476572 -152.20703125 189.17578125 C-151.51199493 189.16531769 -150.81695862 189.15485413 -150.1008606 189.14407349 C-138.88252361 189.16909571 -138.88252361 189.16909571 -128 187 C-128.86625 186.5875 -129.7325 186.175 -130.625 185.75 C-133.93468895 184.03386499 -136.96221311 182.14243918 -140 180 C-141.39798828 179.02740234 -141.39798828 179.02740234 -142.82421875 178.03515625 C-143.83097656 177.32230469 -144.83773437 176.60945312 -145.875 175.875 C-147.32519531 174.85019531 -147.32519531 174.85019531 -148.8046875 173.8046875 C-149.52914062 173.20914063 -150.25359375 172.61359375 -151 172 C-151 171.34 -151 170.68 -151 170 C-151.5775 169.7525 -152.155 169.505 -152.75 169.25 C-155.32939979 167.81700012 -157.06121592 166.21575324 -159 164 C-159 163.34 -159 162.68 -159 162 C-160.32 161.34 -161.64 160.68 -163 160 C-163 159.34 -163 158.68 -163 158 C-163.66 158 -164.32 158 -165 158 C-167.91811379 154.17490489 -170.41650489 150.05632877 -173 146 C-173.55558594 145.1646875 -174.11117187 144.329375 -174.68359375 143.46875 C-179.01322674 136.72127001 -181.49601533 129.58349643 -184 122 C-184.2990625 121.195625 -184.598125 120.39125 -184.90625 119.5625 C-193.87871867 95.15738522 -190.38393946 64.10027701 -179.98828125 40.72509766 C-174.53065165 28.99358772 -167.93649696 19.3165284 -159 10 C-158.49726563 9.46310547 -157.99453125 8.92621094 -157.4765625 8.37304688 C-149.0636649 -0.59562505 -149.0636649 -0.59562505 -143 -3 C-142.67 -3.99 -142.34 -4.98 -142 -6 C-139.9375 -7.375 -139.9375 -7.375 -137 -9 C-135.9275 -9.721875 -134.855 -10.44375 -133.75 -11.1875 C-89.28220308 -38.8749962 -40.03641807 -30.10212001 0 0 Z " fill="#F3F3F2" transform="translate(587,186)"/>
<path d="M0 0 C7.09953201 1.61433113 14.21430083 2.60158843 21.4453125 3.40234375 C22.5198317 3.52462341 23.59435089 3.64690308 24.70143127 3.77288818 C28.17538536 4.16636715 31.65006619 4.55277465 35.125 4.9375 C36.32258942 5.07072662 37.52017883 5.20395325 38.75405884 5.34121704 C45.83427056 6.12780215 52.91558566 6.90373929 59.9977417 7.67260742 C62.5564131 7.95162739 65.1145283 8.23492343 67.67236328 8.52148438 C76.76908965 9.5298237 85.8716632 10.34559007 95 11 C95.91356262 11.06574219 96.82712524 11.13148438 97.76837158 11.19921875 C128.48679768 13.37206061 159.14140352 14.29154427 189.92741394 14.31052017 C192.32324164 14.31245813 194.71904642 14.31755203 197.11486816 14.3230896 C228.58386169 14.37689643 259.86864724 12.79425398 291.1875 9.6875 C292.28057465 9.58117249 293.37364929 9.47484497 294.49984741 9.36529541 C314.39515774 7.42029308 334.371962 5.2709344 353.96240234 1.18457031 C354.96082405 0.97726791 354.96082405 0.97726791 355.97941589 0.76577759 C357.83261814 0.37608157 359.68337405 -0.0251967 361.53393555 -0.42724609 C371.13652617 -2.0140375 376.18559588 0.65727895 384 6 C386.59205353 7.92512005 388.03531885 9.36171388 390 12 C390.1875 15.125 390.1875 15.125 389 18 C382.72451801 24.46564811 373.48924587 27.02689471 365.0625 29.4375 C364.0111084 29.73897949 362.9597168 30.04045898 361.87646484 30.35107422 C326.28798742 40.29639082 289.11188328 43.81323061 252.40081787 46.80145264 C250.22947525 46.98102242 248.05925556 47.16979714 245.88916016 47.36376953 C225.7170627 49.12872942 205.54551207 49.17961328 185.3125 49.1875 C184.64556625 49.18808914 183.97863251 49.18867828 183.29148865 49.18928528 C157.52032462 49.20883297 131.69842869 48.91109867 106 46.8125 C104.86055435 46.72171173 104.86055435 46.72171173 103.6980896 46.62908936 C73.36157436 44.17299477 42.76166602 40.44818735 13 34 C12.07670898 33.80051758 11.15341797 33.60103516 10.20214844 33.39550781 C-18.16688208 27.1193525 -18.16688208 27.1193525 -26 20 C-27.25 16.8125 -27.25 16.8125 -28 14 C-20.72138228 5.75803582 -11.56164033 -3.18660497 0 0 Z " fill="#E3E3E1" transform="translate(330,819)"/>
<path d="M0 0 C3.65625652 2.81590724 6.64727386 6.65517285 7.34375 11.28515625 C7.74854314 18.48035438 6.28997187 22.02663901 1.53125 27.41796875 C1.0259375 27.94003906 0.520625 28.46210937 0 29 C-0.33 28.34 -0.66 27.68 -1 27 C-1.55898987 27.05819916 -2.11797974 27.11639832 -2.69390869 27.17636108 C-8.73225498 27.80328696 -14.77178814 28.41780202 -20.81201172 29.02636719 C-23.03984933 29.2522834 -25.26741028 29.48095153 -27.49462891 29.71289062 C-66.59290078 33.77782724 -105.4669849 34.40522213 -144.75 34.375 C-146.03555786 34.3749081 -147.32111572 34.37481621 -148.64562988 34.37472153 C-179.78262713 34.37184211 -210.91674438 34.35630819 -242.00502014 32.43451691 C-243.98815273 32.3132246 -245.97180328 32.20050099 -247.95544434 32.08782959 C-251.51488134 31.87646473 -255.06929554 31.62953226 -258.625 31.36328125 C-259.62750793 31.30156235 -260.63001587 31.23984344 -261.66290283 31.17625427 C-266.21054042 30.77715683 -268.39539249 30.48618576 -272.03515625 27.55932617 C-272.68355469 26.71474854 -273.33195312 25.8701709 -274 25 C-274.598125 24.236875 -275.19625 23.47375 -275.8125 22.6875 C-277.70516204 18.40410696 -277.83488573 14.45496161 -276.34375 10.0703125 C-274.0489829 5.46099583 -270.83184659 2.89744319 -266 1 C-262.765625 0.9765625 -262.765625 0.9765625 -259.25 1.625 C-257.83966989 1.85217069 -256.42808588 2.07163384 -255.015625 2.28515625 C-254.22865234 2.4052002 -253.44167969 2.52524414 -252.63085938 2.64892578 C-247.44092363 3.34149516 -242.22059659 3.68446712 -237 4.0625 C-235.97680664 4.14129395 -234.95361328 4.22008789 -233.89941406 4.30126953 C-213.39167963 5.7946117 -192.87539093 6.16159319 -172.3203125 6.16796875 C-169.80964135 6.17119906 -167.29897037 6.1745643 -164.78829956 6.17805481 C-159.55270962 6.18399278 -154.31713603 6.18590051 -149.08154297 6.18530273 C-143.80937232 6.18522192 -138.53728938 6.19210236 -133.26513672 6.20581055 C-107.85087044 6.270843 -82.45642949 6.32368536 -57.06640625 5.0859375 C-55.79601439 5.0247149 -55.79601439 5.0247149 -54.49995804 4.96225548 C-42.5615276 4.36745853 -30.73798485 3.34086268 -18.94360352 1.32958984 C-4.99664562 -1.03548906 -4.99664562 -1.03548906 0 0 Z " fill="#E3E3E1" transform="translate(647,644)"/>
<path d="M0 0 C1.52612895 -0.00300113 3.05225716 -0.00640581 4.5783844 -0.01017761 C8.67960838 -0.0189212 12.78081143 -0.0213515 16.88204384 -0.0219934 C19.45350481 -0.02270899 22.02496061 -0.02485275 24.59642029 -0.02749062 C33.59276665 -0.03670949 42.58909829 -0.04082953 51.58544922 -0.04003906 C59.93222883 -0.03943801 68.27894387 -0.05000426 76.62570715 -0.06578273 C83.82869946 -0.0789073 91.03167077 -0.08422096 98.23467493 -0.08358365 C102.52068521 -0.08333027 106.80663789 -0.08609281 111.09263611 -0.0967617 C115.12455201 -0.10652701 119.15635617 -0.10646487 123.18827629 -0.09924507 C124.65628665 -0.09820989 126.1243043 -0.1004976 127.59230232 -0.10660553 C152.33168432 -0.20276711 152.33168432 -0.20276711 160.22070312 5.14526367 C158.05373792 7.54701174 156.13878168 8.81392648 153.15820312 10.04760742 C152.36591309 10.37873535 151.57362305 10.70986328 150.75732422 11.05102539 C149.92023926 11.39149902 149.0831543 11.73197266 148.22070312 12.08276367 C147.36943848 12.43612793 146.51817383 12.78949219 145.64111328 13.15356445 C140.17380341 15.40554326 134.67483249 17.50651954 129.05664062 19.35620117 C127.02725494 19.99452826 127.02725494 19.99452826 126.22070312 22.14526367 C124.2980957 22.53982544 124.2980957 22.53982544 121.80273438 22.7355957 C120.89217285 22.80893127 119.98161133 22.88226685 119.04345703 22.95782471 C118.11194824 23.01967957 117.18043945 23.08153442 116.22070312 23.14526367 C115.4039209 23.20018982 114.58713867 23.25511597 113.74560547 23.31170654 C95.88572656 24.37257054 77.99566089 24.30084584 60.11230469 24.27563477 C56.03854661 24.26993806 51.96485387 24.27332872 47.89109802 24.27907181 C-1.89352338 24.33874703 -1.89352338 24.33874703 -12.77929688 22.14526367 C-13.27429688 21.15526367 -13.27429688 21.15526367 -13.77929688 20.14526367 C-15.60095726 19.30767225 -15.60095726 19.30767225 -17.83007812 18.62963867 C-18.66893555 18.35063721 -19.50779297 18.07163574 -20.37207031 17.78417969 C-21.26958008 17.4908374 -22.16708984 17.19749512 -23.09179688 16.89526367 C-31.04234484 14.21886263 -38.42918498 11.22367942 -45.77929688 7.14526367 C-45.44929688 6.48526367 -45.11929687 5.82526367 -44.77929688 5.14526367 C-44.11929687 5.14526367 -43.45929688 5.14526367 -42.77929688 5.14526367 C-42.77929688 4.48526367 -42.77929688 3.82526367 -42.77929688 3.14526367 C-40.90566015 2.82469127 -39.03025593 2.51445388 -37.15429688 2.20776367 C-35.58808594 1.94672852 -35.58808594 1.94672852 -33.99023438 1.68041992 C-22.72392041 0.10174177 -11.35404378 -0.00453079 0 0 Z " fill="#E3E3E1" transform="translate(455.779296875,408.854736328125)"/>
<path d="M0 0 C2 2 2 2 2.875 5.75 C4.47901784 12.29580809 7.23331179 15.78046888 12.9375 19.375 C21.10049006 23.90999448 29.89471346 26.92514263 38.64697266 30.11523438 C41.81459983 31.306299 44.9051003 32.63199522 48 34 C48.48278553 65.43470219 45.29513411 97.19845403 39 128 C38.76442383 129.15854492 38.52884766 130.31708984 38.28613281 131.51074219 C30.88421634 167.29441114 21.15653376 206.51754639 2 238 C1.42507813 239.00289062 0.85015625 240.00578125 0.2578125 241.0390625 C-2.35689708 244.4680415 -5.18673664 246.23900017 -8.9375 248.1875 C-10.15513074 248.84731899 -11.37258185 249.50746957 -12.58984375 250.16796875 C-13.71519531 250.77253906 -14.84054687 251.37710938 -16 252 C-20.47236086 254.48327219 -22.23218088 256.06871509 -24 261 C-24.53092515 265.30547117 -24.62059531 269.38108267 -22 273 C-21.14148438 273.71671875 -20.28296875 274.4334375 -19.3984375 275.171875 C-17 278 -17 278 -16.73828125 281.34765625 C-18.92866536 295.51810037 -24.52801982 305.19200815 -34 316 C-34.53753906 316.65871094 -35.07507813 317.31742188 -35.62890625 317.99609375 C-38.65893814 321.70313549 -41.95348975 324.81937804 -45.59765625 327.91796875 C-49.21553614 331.05346466 -52.70174597 334.32822789 -56.20776367 337.58764648 C-59.21282559 340.37371249 -62.24929577 343.09862443 -65.375 345.75 C-68.72010208 348.63735127 -71.57401897 351.80289837 -74.41796875 355.1796875 C-76 357 -76 357 -78.5 359.25 C-87.77371488 369.45108637 -91.15411334 381.55331889 -92 395 C-92.33 394.34 -92.66 393.68 -93 393 C-93.66 393 -94.32 393 -95 393 C-95.39599863 380.66068276 -91.70288319 370.49854441 -84 361 C-82.97738283 359.56376845 -81.95645156 358.12633448 -80.9375 356.6875 C-78.33674436 353.23822197 -75.35693656 350.72751096 -72 348 C-70.95682939 346.83207362 -69.93648594 345.64343699 -68.9375 344.4375 C-66.53735722 341.55228899 -64.10293359 339.15481499 -61 337 C-60.34 337 -59.68 337 -59 337 C-58.7421875 336.40574219 -58.484375 335.81148437 -58.21875 335.19921875 C-56.89303053 332.80697497 -55.59621136 331.55218361 -53.5 329.8125 C-52.79101562 329.20921875 -52.08203125 328.6059375 -51.3515625 327.984375 C-50.18753906 327.00210938 -50.18753906 327.00210938 -49 326 C-43.38068898 321.19332781 -38.29304151 316.60270435 -34.15625 310.43359375 C-33.7746875 309.96050781 -33.393125 309.48742187 -33 309 C-32.34 309 -31.68 309 -31 309 C-30.72027344 308.4121875 -30.44054687 307.824375 -30.15234375 307.21875 C-29.08536836 305.16437026 -27.89234407 303.38912429 -26.5625 301.5 C-21.96564515 294.23181652 -20.8107117 285.43140164 -20 277 C-20.598125 276.7525 -21.19625 276.505 -21.8125 276.25 C-24.41992403 274.76004341 -25.44218021 273.56888389 -27 271 C-27.9548741 265.7689506 -28.18731083 260.3898436 -25.78125 255.546875 C-21.63244948 250.41958379 -16.1574047 247.23905625 -10 245 C-9.01 245 -8.02 245 -7 245 C-7 244.34 -7 243.68 -7 243 C-6.29875 242.360625 -5.5975 241.72125 -4.875 241.0625 C0.89399804 235.53933994 4.01829327 227.25980769 7 220 C7.34417969 219.28457031 7.68835938 218.56914063 8.04296875 217.83203125 C12.14403542 209.27155227 15.14248067 200.35716635 18.1875 191.38183594 C18.88193167 189.34611616 19.59529602 187.31687137 20.3125 185.2890625 C37.04829139 137.17366226 44.26278115 85.79819214 45 35 C44.35643555 34.8868042 43.71287109 34.7736084 43.04980469 34.65698242 C35.7921271 33.30645026 29.54907305 30.96660491 22.84960938 27.85742188 C21.60464257 27.28029365 20.35582245 26.71141376 19.10351562 26.15039062 C10.23296883 22.16639376 3.32962811 18.77342618 -0.4375 9.4375 C-1.01062744 5.93505455 -0.83642772 3.42935365 0 0 Z " fill="#FEFEFE" transform="translate(395,395)"/>
<path d="M0 0 C0.99 0.495 0.99 0.495 2 1 C8.57741873 28.154481 6.36759509 59.00940046 -7.9375 83.4375 C-8.94287481 84.96859641 -9.96496375 86.48879695 -11 88 C-11.68707031 89.07636719 -12.37414062 90.15273438 -13.08203125 91.26171875 C-17.10522204 97.51630456 -17.10522204 97.51630456 -19 100 C-19.66 100 -20.32 100 -21 100 C-21.66 101.32 -22.32 102.64 -23 104 C-23.66 104 -24.32 104 -25 104 C-25.2475 104.5775 -25.495 105.155 -25.75 105.75 C-27.18299988 108.32939979 -28.78424676 110.06121592 -31 112 C-31.66 112 -32.32 112 -33 112 C-33.226875 112.57878906 -33.45375 113.15757812 -33.6875 113.75390625 C-37.71662242 120.64898181 -47.04682033 124.80976437 -54.1015625 127.9921875 C-56.16896652 128.85433702 -56.16896652 128.85433702 -57 131 C-55.70425049 130.99782471 -55.70425049 130.99782471 -54.38232422 130.99560547 C-51.0170293 130.99249891 -47.65179027 130.99369913 -44.28649902 130.9979248 C-42.7673753 130.99930354 -41.24824983 130.99939385 -39.72912598 130.99816895 C-35.0035009 130.99590246 -30.2798229 131.0288436 -25.5546875 131.09765625 C-23.9242397 131.11600534 -22.29363377 131.12335112 -20.66308594 131.12011719 C-4.2566628 131.10051573 -4.2566628 131.10051573 2.37548828 136.30322266 C7.46326715 141.61732893 10.39131893 147.15996242 10.2734375 154.4921875 C9.6587534 160.12971884 7.3300913 165.10020661 3.25 169.0625 C-8.75151293 178.22821241 -23.78436068 182.62085323 -38 187 C-38 186.01 -38 185.02 -38 184 C-37.28569824 183.73896484 -36.57139648 183.47792969 -35.83544922 183.20898438 C-13.00113208 176.48925992 -13.00113208 176.48925992 4.875 162.1875 C6.89341297 156.5114105 7.12409572 150.3835846 5.22265625 144.66015625 C2.6120898 139.67128015 -0.71539989 137.74080421 -5.86035156 135.80981445 C-12.26478712 134.15790833 -18.86391263 134.35769195 -25.4375 134.3125 C-26.95560259 134.28803948 -28.47367182 134.26141638 -29.99169922 134.23266602 C-32.24450409 134.19015941 -34.497236 134.14877623 -36.75018311 134.11454773 C-42.71680975 134.02263042 -48.66751773 133.7844632 -54.625 133.4375 C-55.7860022 133.37139526 -55.7860022 133.37139526 -56.97045898 133.30395508 C-58.64719553 133.20639446 -60.32364699 133.10394273 -62 133 C-62 131.68 -62 130.36 -62 129 C-61.11699219 128.5153125 -60.23398437 128.030625 -59.32421875 127.53125 C-29.70154331 111.07466914 -11.08745383 88.80369642 -0.89453125 56.49609375 C3.24959632 39.70556748 2.07981916 20.57247543 -0.66015625 3.61328125 C-0.77230469 2.75089844 -0.88445313 1.88851562 -1 1 C-0.67 0.67 -0.34 0.34 0 0 Z " fill="#FEFEFE" transform="translate(621,244)"/>
<path d="M0 0 C2.66958526 2.66958526 2.36076877 4.0797514 2.4375 7.8125 C2.23362125 18.66604505 -1.48586869 27.27043869 -8.9375 35.09765625 C-11.20402874 37.1881856 -13.56873505 39.1047952 -16 41 C-14.91332031 41.77923828 -14.91332031 41.77923828 -13.8046875 42.57421875 C5.60190469 56.57284058 5.60190469 56.57284058 8.4375 69.4296875 C10.59435223 83.11970792 12.53545232 101.34163222 6 114 C-2.46382498 124.82672349 -17.30404631 128.50273498 -30 132 C-31.7634375 132.49113281 -31.7634375 132.49113281 -33.5625 132.9921875 C-51.07401112 137.62125499 -68.98578821 140.2907864 -87 142 C-87 141.01 -87 140.02 -87 139 C-85.85861572 138.82460693 -84.71723145 138.64921387 -83.54125977 138.46850586 C-38.79059229 133.53261042 -38.79059229 133.53261042 1 115 C5.39106222 108.48596826 5.71953228 101.45478248 5.875 93.8125 C5.9069043 92.70986816 5.93880859 91.60723633 5.97167969 90.47119141 C6.27185638 75.68640161 5.07834058 63.68932966 -5.30859375 52.4296875 C-9.03983164 49.06128406 -13.11874138 46.81911734 -17.59375 44.5703125 C-20 43 -20 43 -20.84375 40.8046875 C-20.8953125 40.20914063 -20.946875 39.61359375 -21 39 C-20.02160156 38.50693359 -20.02160156 38.50693359 -19.0234375 38.00390625 C-12.33970912 34.36630187 -8.50772626 30.74830781 -5 24 C-4.67257812 23.38511719 -4.34515625 22.77023437 -4.0078125 22.13671875 C-1.54276439 16.65492128 -1.47784613 10.91210193 -1.2109375 4.9765625 C-1 2 -1 2 0 0 Z " fill="#FEFEFE" transform="translate(722,776)"/>
<path d="M0 0 C2.76477286 2.76477286 2.54234883 5.52870274 2.875 9.25 C4.74330861 27.11341619 8.59914892 44.60806988 13 62 C13.16999512 62.67579102 13.33999023 63.35158203 13.51513672 64.04785156 C15.51033291 71.91925503 17.75944595 79.71415942 20.0625 87.5 C20.30798584 88.33732666 20.55347168 89.17465332 20.80639648 90.03735352 C22.25245576 94.86191109 23.96085214 99.39638364 26 104 C26.5234627 105.47102713 27.02739417 106.94935426 27.5 108.4375 C30.93748336 119.22055792 35.40248825 129.66886062 40 140 C40.28359375 140.64743164 40.5671875 141.29486328 40.859375 141.96191406 C43.78398713 148.43835292 46.30486724 152.21447959 53 154.9375 C54.03125 155.288125 55.0625 155.63875 56.125 156 C62.41589501 158.18813739 66.99318294 161.98636589 70 168 C71.42016312 173.71197962 71.22757927 178.48408943 69 184 C67 186.9375 67 186.9375 65 189 C64.34 189 63.68 189 63 189 C63.309375 190.36125 63.309375 190.36125 63.625 191.75 C64.0127245 195.11027897 63.80411967 196.24075815 62 199 C60.37606095 197.37606095 60.67418793 195.61552751 60.5625 193.375 C60.56926951 188.58895802 60.56926951 188.58895802 62.33984375 186.16796875 C62.88769531 185.63816406 63.43554688 185.10835937 64 184.5625 C66.95600707 181.60649293 67.50110318 179.6162019 67.625 175.4375 C67.31784247 170.55636628 66.45411857 167.6268245 63 164 C59.71346954 161.49345257 56.25433011 159.54780157 52.46875 157.89453125 C36.99900941 151.06827524 31.37073876 129.67171436 25.5715332 114.83178711 C-3.47380243 37.89537814 -3.47380243 37.89537814 -1 2 C-0.67 1.34 -0.34 0.68 0 0 Z " fill="#FEFEFE" transform="translate(586,483)"/>
<path d="M0 0 C0 0.66 0 1.32 0 2 C-1.16015625 2.49628906 -2.3203125 2.99257812 -3.515625 3.50390625 C-16.83729783 9.26710205 -28.94736831 15.44232913 -40 25 C-40.99257813 25.84691406 -41.98515625 26.69382813 -43.0078125 27.56640625 C-63.56281302 45.47580947 -76.55746266 72.53860896 -78.60693359 99.67822266 C-79.29558256 110.85407879 -78.99950969 121.87797745 -76.40234375 132.81640625 C-75.95402627 135.24950791 -75.93492008 137.53130164 -76 140 C-76.66 140.33 -77.32 140.66 -78 141 C-86.89557693 115.47193679 -83.11550916 84.49419589 -71.875 60.33203125 C-66.6103789 49.52775536 -60.29804932 40.65093028 -52 32 C-51.49726563 31.46310547 -50.99453125 30.92621094 -50.4765625 30.37304688 C-42.0636649 21.40437495 -42.0636649 21.40437495 -36 19 C-35.505 17.515 -35.505 17.515 -35 16 C-32.9375 14.625 -32.9375 14.625 -30 13 C-28.9275 12.278125 -27.855 11.55625 -26.75 10.8125 C-22.431418 8.11027787 -17.89802187 5.89312628 -13.3125 3.6875 C-12.57547852 3.32567627 -11.83845703 2.96385254 -11.07910156 2.59106445 C-7.25654858 0.78596999 -4.33173076 -0.50408701 0 0 Z " fill="#FEFEFE" transform="translate(480,164)"/>
<path d="M0 0 C-1.36892937 3.09703328 -2.92117359 5.11761608 -5.375 7.4375 C-17.42805539 19.2645606 -15.02018735 37.26592572 -15.25 53.375 C-15.2713501 54.15262695 -15.2927002 54.93025391 -15.31469727 55.73144531 C-15.34371143 60.54885099 -14.80708695 63.90731441 -12 68 C-7.76390621 71.4134321 -3.15639511 73.33884992 1.875 75.25 C2.56335938 75.518125 3.25171875 75.78625 3.9609375 76.0625 C5.63814479 76.71474728 7.31873123 77.35829436 9 78 C9 78.99 9 79.98 9 81 C2.01947589 78.76813175 -4.74903152 76.36434885 -11.1875 72.8125 C-12.13689453 72.29623047 -12.13689453 72.29623047 -13.10546875 71.76953125 C-17.23560056 67.91190298 -19.18432665 63.07294528 -19.4609375 57.46875 C-19.45626145 55.8122589 -19.42641825 54.15569949 -19.375 52.5 C-19.35920898 51.60724365 -19.34341797 50.7144873 -19.32714844 49.79467773 C-19.25525462 46.86044818 -19.13645598 43.93192137 -19 41 C-18.92604004 39.40696045 -18.92604004 39.40696045 -18.85058594 37.78173828 C-18.68152565 34.53916191 -18.4747764 31.30166195 -18.25 28.0625 C-18.1886084 27.05058594 -18.1272168 26.03867187 -18.06396484 24.99609375 C-17.59533712 19.23672688 -16.81545831 15.56895995 -13 11 C-12.32839844 10.18015625 -11.65679687 9.3603125 -10.96484375 8.515625 C-10.29582031 7.76796875 -9.62679688 7.0203125 -8.9375 6.25 C-8.26589844 5.49203125 -7.59429687 4.7340625 -6.90234375 3.953125 C-3.052 0 -3.052 0 0 0 Z " fill="#FEFEFE" transform="translate(311,823)"/>
</svg>
